<svg xmlns="http://www.w3.org/2000/svg" xmlns:xlink="http://www.w3.org/1999/xlink" x="0px" y="0px" width="620.843px"
    height="733.026px" viewBox="240 240 55 55">

    <style xmlns="http://www.w3.org/2000/svg">
        svg {
            filter: drop-shadow(2px 3px 0px rgb(176 136 98 / 1));
        }
    </style>


    <polyline id="_x30_03_Alpine" fill="#218c74" stroke-width="0.5" stroke="#264653" stroke-miterlimit="1"
        points="259.463,242.767 278.634,260.487     278.25,260.585 277.977,261.037 278.077,261.428 277.717,261.52 277.809,261.879 277.9,262.24 277.511,262.339 277.61,262.729     277.25,262.821 277.342,263.18 276.957,263.278 276.593,263.372 276.692,263.762 276.784,264.122 276.424,264.213     276.518,264.579 276.616,264.964 276.226,265.063 276.319,265.429 276.417,265.813 276.51,266.179 276.242,266.63 276.34,267.015     275.956,267.113 276.049,267.479 276.147,267.864 276.241,268.229 276.625,268.131 276.716,268.491 276.816,268.881     277.176,268.79 277.657,269.05 277.757,269.441 277.458,269.9 277.849,269.8 277.94,270.161 278.04,270.551 278.132,270.912     278.231,271.301 278.323,271.661 278.415,272.021 278.514,272.411 278.606,272.772 278.965,272.68 279.065,273.07     279.157,273.431 279.25,273.795 279.348,274.181 279.712,274.088 279.805,274.453 279.903,274.837 279.995,275.198     279.631,275.291 279.724,275.656 279.822,276.042 280.187,275.949 280.28,276.314 280.665,276.216 280.763,276.601     280.471,277.063 280.563,277.424 280.662,277.814 280.754,278.174 280.39,278.267 280.03,278.359 280.129,278.749     279.739,278.848 279.832,279.208 279.923,279.568 280.022,279.959 280.114,280.319 279.755,280.41 279.854,280.8 279.47,280.898     279.105,280.991 279.197,281.352 279.289,281.711 279.389,282.102 279.753,282.009 279.846,282.374 279.481,282.466     279.58,282.853 279.672,283.212 279.306,283.305 278.922,283.403 278.656,283.86 278.266,283.959 277.906,284.051     277.813,283.686 277.449,283.778 277.357,283.419 276.972,283.517 277.063,283.877 276.699,283.97 276.314,284.068     275.95,284.161 276.043,284.526 276.142,284.916 276.233,285.271 276.597,285.178 276.697,285.568 276.789,285.928     276.881,286.293 276.517,286.386 276.158,286.478 276.256,286.863 275.866,286.962 275.506,287.054 275.6,287.419     275.698,287.805 275.406,288.268 275.498,288.627 275.598,289.018 275.233,289.111 275.325,289.471 274.96,289.564     274.384,288.911 274.292,288.552 273.84,288.278 273.259,287.627 272.899,287.719 272.801,287.333 271.867,286.8 271.408,286.5     271.577,285.664 271.967,285.565 271.782,284.84 271.208,282.589 270.727,282.329 269.983,282.518 268.77,282.411 268.41,282.503     267.756,283.086 265.147,283.75 265.239,284.11 264.595,284.689 263.122,285.065 262.464,285.617 262.191,286.069     261.057,286.358 261.156,286.75 260.438,286.933 252.57,281.006 251.178,280.178 251.079,279.789 250.623,279.521     249.873,279.712 249.965,280.072 249.215,280.263 249.124,279.903 249.488,279.81 249.105,278.31 249.491,278.212     249.189,275.507 249.483,275.049 249.306,260.414 249.69,260.316 255.79,254.799 256.903,254.515 256.712,253.765     257.456,253.575 257.364,253.215 257.005,253.307 256.913,252.946 257.272,252.854 257.173,252.465 257.563,252.365 257.47,252     257.83,251.909 257.731,251.523 258.48,251.333 258.296,250.607 259.045,250.417 259.307,249.938 259.022,248.824     260.521,248.442 260.429,248.082 260.794,247.988 260.694,247.599 261.059,247.506 260.967,247.145 260.603,247.238     260.504,246.853 260.869,246.76 260.776,246.396 260.584,245.646 260.877,245.187 260.594,244.077 259.653,243.512     259.463,242.767   " />
</svg>