<svg xmlns="http://www.w3.org/2000/svg" xmlns:xlink="http://www.w3.org/1999/xlink" x="0px" y="0px" width="620.843px"
    height="733.026px" viewBox="195 257 46 46">

    <style xmlns="http://www.w3.org/2000/svg">
        svg {
            filter: drop-shadow(2px 3px 0px rgb(176 136 98 / 1));
        }
    </style>


    <path id="amador" fill="#218c74" stroke-width="0.5" stroke="#264653" stroke-miterlimit="1"
        d="M203.362,271.322l0.098,0.384l-0.354,0.09    l-0.384,0.098l0.098,0.384l-0.354,0.09l0.098,0.383l-0.384,0.098l-0.354,0.09l-0.098-0.383l-0.384,0.098l0.098,0.383l0.09,0.355    l-0.383,0.098l0.09,0.354l-0.355,0.091l-0.09-0.354l-0.383,0.098l-0.09-0.355l-0.355,0.09l0.091,0.355l-0.383,0.098l-0.384,0.098    l-0.354,0.09l0.09,0.354l-0.384,0.098l-0.09-0.354l-0.354,0.09l-0.091-0.355l-0.098-0.383l-0.384,0.098l-0.384,0.098l0.098,0.383    l-0.354,0.09l-0.098-0.383l-0.384,0.098l-0.354,0.09l-0.256,0.474l-0.414,0.105l-0.452-0.293l-0.383,0.098l-0.355,0.091    l-0.098-0.384l-0.354,0.09l0.098,0.384l-0.414,0.105l-0.354,0.09l-0.384,0.098l-0.28,15.925l0.098,0.384l0.475,1.861l0.181,0.708    l0.105,0.414l0.188,0.738l0.09,0.355l0.739,1.415l0.09,0.355l0.383-0.098l0.475,0.257l0.384-0.098l0.354-0.09l0.354-0.091    l0.383-0.098l0.355-0.09l0.518,0.309l0.355-0.091l0.354-0.09l0.384-0.098l-0.105-0.414l0.354-0.09l0.105,0.414l0.414-0.105    l0.09,0.354l0.098,0.384l0.354-0.09l0.355-0.09l-0.098-0.384l0.383-0.098l0.355-0.09l-0.09-0.354l0.414-0.105l-0.105-0.414    l0.354-0.09l0.354-0.09l0.294-0.453l0.354-0.09l-0.09-0.355l0.414-0.105l-0.098-0.383l0.355-0.09l0.354-0.09l-0.091-0.355    l0.384-0.098l0.354-0.09l0.414-0.105l-0.105-0.414l0.354-0.09l-0.09-0.354l0.355-0.091l0.09,0.354l0.293-0.452l0.355-0.09    l0.414-0.105l0.354-0.09l0.354-0.09l0.09,0.354l0.384-0.098l0.354-0.09l0.414-0.105l0.354-0.09l0.354-0.09l-0.09-0.354    l0.384-0.098l0.293-0.453l0.384-0.098l0.354-0.09l0.354-0.09l-0.098-0.384l0.383-0.098l0.354-0.091l0.383-0.098l0.384-0.098    l0.354-0.09l0.384-0.098l0.264-0.444l0.384-0.098l0.383-0.098l0.354-0.09l0.383-0.098l0.355-0.09l0.414-0.105l0.249-0.504    l0.459,0.323l-0.105-0.414l0.384-0.098l-0.475-0.257l0.384-0.098l-0.09-0.354l0.354-0.09l-0.098-0.384l0.482,0.286l-0.098-0.384    l-0.091-0.355l0.384-0.098l0.354-0.09l-0.105-0.414l-0.354,0.09l-0.09-0.354l0.263-0.445l-0.098-0.384l0.294-0.452l-0.105-0.414    l0.354-0.09l0.384-0.098l0.354-0.09l0.105,0.414l0.384-0.098l0.383-0.098l0.355-0.09l-0.105-0.414l0.383-0.098l-0.091-0.355    l0.355-0.09l0.383-0.098l0.384-0.098l-0.09-0.354l0.354-0.09l0.384-0.098l0.09,0.354l0.354-0.09l0.384-0.098l0.354-0.09    l-0.113-0.443l0.023-0.037l0.03,0.119l0.354-0.09l0.287-0.482l0.354-0.09l-0.098-0.384l-0.098-0.384l0.384-0.098l0.098,0.384    l0.383-0.098l-0.098-0.384l0.355-0.09l0.098,0.384l0.383-0.098l0.355-0.09l0.354-0.09l0.414-0.105l0.098,0.384l0.256-0.475    l0.384-0.098l0.354-0.09l-0.098-0.384l-0.09-0.354l0.384-0.098l0.384-0.098l0.354-0.09l-0.09-0.354l0.384-0.098l0.354-0.09    l0.475,0.257l0.474,0.256l0.354-0.09l0.383-0.098l0.098,0.384l0.098,0.384l0.355-0.091l0.354-0.09l0.414-0.105l0.354-0.09    l0.384-0.098l0.354-0.09l0.384-0.098l0.383-0.098l0.098,0.384l0.354-0.09l0.383-0.098l-0.098-0.384l0.354-0.091l0.452,0.294    l0.414-0.105l0.256-0.475l0.384-0.098l0.354-0.09l0.098,0.384l0.355-0.091l0.414-0.105l0.354-0.09l-0.098-0.384l0.384-0.098    l0.354-0.09l0.354-0.09l0.511,0.279l0.257-0.475l0.383-0.098l0.355-0.091l0.354-0.09l-0.098-0.384l0.384-0.098l0.383-0.098    l0.384-0.098l0.098,0.384l0.354-0.09l0.355-0.091l0.098,0.384l0.383-0.098l0.384-0.098l0.475,0.256l0.354-0.09l0.354-0.09    l0.414-0.105l0.354-0.09l0.474,0.257l0.355-0.09l0.354-0.09l0.384-0.098l0.383-0.098l-0.09-0.354l0.384-0.098l0.091,0.355    l0.263-0.445l0.355-0.09l0.09,0.355l0.383-0.098l0.384-0.098l0.293-0.453l-0.172-14.614l-0.768,0.195l-0.098-0.384l-0.709,0.181    l-0.098-0.384l-0.767,0.195l0.098,0.384l-0.738,0.188l0.474,1.861l-0.355,0.09l0.098,0.384l-0.383,0.098l0.098,0.384l-0.384,0.098    l0.181,0.709l-0.383,0.098l0.105,0.414l-0.264,0.445l-2.214,0.564l-0.09-0.355l-1.152,0.293l0.09,0.355l-0.354,0.09l-0.09-0.355    l-0.738,0.188l0.09,0.355l-0.384,0.098l0.098,0.383l-0.293,0.452l0.188,0.738l-0.257,0.475l-0.354,0.09l0.098,0.384l-1.505,0.384    l0.09,0.354l-0.355,0.091l0.09,0.354l-0.383,0.098l0.105,0.413l-0.355,0.091l0.09,0.354l-1.859,0.474l0.098,0.384l-1.86,0.474    l-0.511-0.279l-0.354,0.09l0.098,0.384l-0.354,0.09l-0.098-0.384l-0.383,0.098l-0.09-0.354l-0.354,0.09l-0.383,0.098l-0.384,0.098    l-0.354,0.09l0.09,0.354l-0.384,0.098l-0.09-0.354l-0.354,0.09l-0.413,0.105l-0.354,0.09l0.09,0.354l-0.354,0.09l-0.383,0.098    l-0.355,0.091l-0.383,0.098l-0.384,0.098l-0.09-0.354l-0.354,0.09l-0.384,0.098l-0.264,0.444l-0.384,0.098l-0.384,0.098    l-0.354,0.09l-0.09-0.354l-0.384,0.098l-0.354,0.09l0.09,0.354l-0.414,0.105l-0.354,0.09l-0.355,0.09l-0.383,0.098l-0.355,0.091    l-0.383,0.098l-0.384,0.098l-0.09-0.354l-0.354,0.09l-0.384,0.098l-0.295,0.075l-0.008-0.029l-0.051,0.044l-0.023,0.037    l-0.113-0.443l-0.383,0.098l-0.355,0.091l0.098,0.384l-0.354,0.09l-0.384,0.098l-0.354,0.09l-0.414,0.105l-0.098-0.384    l-0.354,0.09l-0.355,0.091l-0.383,0.098l-0.09-0.355l-0.355,0.09l-0.413,0.105l-0.355,0.09l-0.444-0.264l-0.384,0.098    l-0.105-0.414l-0.384,0.098l-0.09-0.355l-0.383,0.098l-0.098-0.384l-0.354,0.091l-0.354,0.09l-0.09-0.354l-0.475-0.257    l-0.105-0.413l-0.354,0.09l-0.09-0.354l-0.414,0.105l-0.098-0.384l-0.354,0.09l-0.09-0.354l-0.355,0.09l-0.09-0.354l-0.383,0.098    l-0.105-0.414l-0.355,0.09l-0.09-0.354l-0.413,0.105l-0.355,0.09l-0.098-0.384l-0.354,0.09l-0.475-0.256l-0.354,0.09l-0.414,0.105    l-0.09-0.354l-0.354,0.09l0.09,0.355l-0.354,0.09l-0.091-0.354l-0.383,0.098l-0.098-0.383l-0.354,0.09l-0.098-0.384l-0.383,0.098    l-0.098-0.384l-0.355,0.09l0.098,0.384l-0.029,0.007l-0.354,0.09l-0.384,0.098l-0.354,0.09l-0.384,0.098l-0.098-0.384    L203.362,271.322z" />
</svg>