<svg xmlns="http://www.w3.org/2000/svg" xmlns:xlink="http://www.w3.org/1999/xlink" x="0px" y="0px" width="620.843px"
    height="733.026px" viewBox="120 143 80 80">

    <style xmlns="http://www.w3.org/2000/svg">
        svg {
            filter: drop-shadow(2px 3px 0px rgb(176 136 98 / 1));
        }
    </style>


    <path id="butte" fill="#218c74" stroke-width="0.5" stroke="#264653" stroke-miterlimit="1"
        d="M170.354,148.12l-0.069,1.213l0.09,0.355    l-0.828-0.167l0.09,0.355l0.098,0.384l-0.354,0.09l-0.511-0.279l-0.354,0.09l-0.355,0.091l-0.285,0.482l-0.355,0.09l0.09,0.354    l-0.768,0.195l-0.444-0.264l-0.294,0.452l0.105,0.414l-0.459-0.324l-0.768,0.196l-0.445-0.264l-0.383,0.098l-0.738,0.188    l-0.098-0.384l-0.384,0.098l-0.354,0.09l-0.384,0.098l-0.354,0.09l0.098,0.384l-0.384,0.098l-0.264,0.444l0.196,0.768    l-0.294,0.452l0.098,0.384l0.091,0.354L161,154.846l0.105,0.414l-0.354,0.09l-0.105-0.414l-0.188,0.865l-0.354,0.09l0.09,0.354    l-0.384,0.098l-0.383,0.098l0.188,0.738l-0.355,0.09l-0.383,0.098l0.12,1.952l0.105,0.414l-0.873-0.218l0.196,0.768l-0.264,0.445    l-1.183-0.076l-0.858-0.158l-1.197-0.135l0.105,0.414l-0.414,0.105l0.09,0.354l-0.355,0.09l-0.383,0.098l-0.355,0.09l0.09,0.355    l-0.354,0.09l0.098,0.383l0.09,0.354l-0.414,0.105l-0.354,0.09l0.105,0.414l-0.384,0.098l0.09,0.354l-0.354,0.09l0.09,0.354    l0.098,0.384l-0.355,0.09l0.09,0.355l0.098,0.383l0.098,0.384l-0.383,0.098l0.09,0.354l0.098,0.383l-0.384,0.098l-0.383,0.098    l-0.355,0.09l0.09,0.355l-0.354,0.09l0.105,0.414l-0.384,0.098l-0.873-0.218l-0.355,0.09l-0.354,0.09l0.105,0.414l-0.49-0.316    l-0.383,0.098l-0.384,0.098l-1.183-0.077l-0.865-0.188l-0.709,0.181l-0.384,0.098l-0.474-0.257l-1.958,0.09l-0.384,0.098    l-0.806-0.203l-1.242-0.061l-0.354,0.09l-0.354,0.09l-0.482-0.286l-0.767,0.195l-0.354,0.09l-0.09-0.354l-0.355,0.09l-0.738,0.188    l-0.474-0.257l-0.384,0.098l-0.354,0.09l0.09,0.355l-0.384,0.098l0.09,0.354l-0.354,0.09l0.098,0.384l-0.384,0.098l0.09,0.354    l0.098,0.383l-0.384,0.098l0.098,0.384l-0.354,0.09l-0.294,0.453l0.098,0.383l0.09,0.354l0.384-0.098l0.105,0.414l0.091,0.355    l-0.384,0.098l0.09,0.354l-0.354,0.09l0.098,0.384l0.09,0.354l0.354-0.09l0.105,0.414l0.384-0.098l0.09,0.355l0.09,0.355    l0.482,0.285l-0.098-0.383l0.354-0.09l-0.09-0.355l0.475,0.257l0.098,0.383l0.098,0.384l-0.384,0.098l0.098,0.384l-0.354,0.09    l0.09,0.354l0.09,0.355l0.098,0.384l0.354-0.09l0.098,0.384l0.098,0.383l0.384-0.098l0.444,0.265l0.09,0.354l0.384-0.098    l0.098,0.384l0.098,0.384l0.098,0.384l0.354-0.09l0.09,0.354l0.09,0.355l0.384-0.098l0.383-0.098l-0.09-0.354l0.265-0.444    l0.09,0.354l0.09,0.355l0.098,0.384l-0.354,0.09l0.098,0.384l-0.383,0.098l0.098,0.383l0.383-0.098l0.355-0.09l-0.098-0.383    l0.383-0.098l-0.098-0.384l0.355-0.09l0.098,0.384l-0.355,0.09l0.098,0.383l0.09,0.354l0.09,0.354l0.098,0.384l0.098,0.384    l0.098,0.384l0.09,0.354l-0.383,0.098l-0.354,0.09l-0.383,0.098l0.09,0.355l-0.286,0.482l-0.354,0.09l-0.384,0.098l-0.354,0.09    l-0.384,0.098l-0.384,0.098l-0.354,0.09l0.098,0.383l0.098,0.384l0.354-0.09l0.384-0.098l0.384-0.098l0.09,0.355l0.444,0.264    l0.098,0.384l-0.354,0.09l-0.384,0.098l-0.384,0.098l-0.354,0.09l-0.286,0.482l0.098,0.384l0.09,0.354l0.09,0.355l0.482,0.286    l0.098,0.383l0.098,0.384l-0.384,0.098l-0.354,0.09l-0.384,0.098l0.09,0.355l-0.383,0.098l0.09,0.354l0.098,0.384l0.098,0.384    l0.098,0.384l-0.355,0.09l0.09,0.354l-0.383,0.098l0.09,0.355l0.098,0.383l0.383-0.098l0.098,0.384l-0.383,0.098l-0.355,0.09    l0.098,0.384l0.091,0.355l0.09,0.354l0.098,0.384l0.098,0.384l0.453,0.293l0.383-0.098l0.355-0.09l0.09,0.354l0.768-0.195    l0.354-0.09l0.738-0.188l0.384-0.098l0.475,0.257l0.354-0.09l0.738-0.188l0.482,0.285l0.383-0.098l0.738-0.188l0.098,0.384    l0.355-0.09l1.219,0.098l-0.354,0.09l0.09,0.355l-0.294,0.452l-0.383,0.098l-0.355,0.09l0.105,0.414l-0.292,0.453l0.098,0.383    l0.09,0.355l0.098,0.384l0.098,0.384l0.09,0.354l-0.355,0.091l0.098,0.384l0.09,0.354l0.098,0.384l0.098,0.384l-0.383,0.098    l0.09,0.355l0.098,0.383l-0.384,0.098l0.475,0.257l-0.384,0.098l0.098,0.384l-0.256,0.473l0.09,0.355l0.098,0.384l-0.384,0.098    l0.09,0.354l0.098,0.384l-0.354,0.09l0.098,0.384l0.09,0.354l-0.384,0.098l0.098,0.384l-0.384,0.098l0.09,0.354l0.098,0.384    l-0.256,0.474l0.444,0.265l0.098,0.384l-0.354,0.09l0.09,0.354l-0.384,0.098l0.098,0.384l-0.354,0.09l0.098,0.384l-0.384,0.098    l0.09,0.354l0.098,0.384l0.091,0.354l0.098,0.383l-0.383,0.098l0.098,0.384l-0.354,0.09l0.09,0.355l0.098,0.384l-0.383,0.098    l0.188,0.738l16.499,0.953l0.355-0.09l-0.098-0.384l-0.09-0.354l0.354-0.09l-0.098-0.384l0.384-0.098l0.383-0.098l0.098,0.384    l0.09,0.354l0.384-0.098l0.098,0.384l0.354-0.09l-0.098-0.384l0.354-0.091l0.098,0.384l0.384-0.098l0.383-0.098l0.09,0.355    l0.384-0.098l0.354-0.09l0.354-0.09l0.322-0.46l0.09,0.354l0.355-0.09l-0.09-0.355l0.383-0.098l0.354-0.09l0.354-0.09l0.091,0.355    l0.384-0.098l0.383-0.098l0.098,0.383l0.384-0.098l-0.098-0.383l0.354-0.09l0.098,0.383l0.355-0.09l-0.098-0.383l-0.091-0.355    l0.383-0.098l0.384-0.098l0.384-0.098l0.354-0.09l0.354-0.09l0.475,0.257l0.384-0.098l-0.091-0.355l0.383-0.098l0.09,0.355    l0.355-0.09l0.354-0.09l0.384-0.098l0.354-0.09l0.414-0.105l-0.504-0.25l0.414-0.105l-0.098-0.384l0.354-0.09l0.354-0.09    l0.383-0.098l-0.09-0.354l0.384-0.098l0.384-0.098l-0.098-0.384l0.354-0.09l-0.098-0.384l-0.09-0.354l0.354-0.09l-0.098-0.384    l0.384-0.098l-0.09-0.355l0.354-0.09l-0.098-0.384l-0.098-0.383l-0.09-0.354l0.414-0.105l-0.098-0.384l0.355-0.09l-0.09-0.354    l0.354-0.09l0.384-0.098l-0.098-0.384l0.354-0.09l0.316-0.49l-0.414,0.105l-0.09-0.354l-0.098-0.384l-0.09-0.354l-0.098-0.384    l-0.098-0.383l0.413-0.105l0.264-0.445l0.355-0.09l-0.098-0.384l0.383-0.098l0.294-0.452l0.383-0.098l-0.098-0.384l-0.098-0.384    l0.355-0.09l0.264-0.444l-0.098-0.384l0.384-0.098l-0.09-0.355l-0.196-0.768l0.264-0.445l0.475,0.257l0.383-0.098l0.355-0.09    l0.383-0.098l0.098,0.384l-0.286,0.481l0.383-0.098l0.355-0.09l0.414-0.105l0.444,0.265l0.354-0.09l0.384-0.098l-0.188-0.738    l0.256-0.474l0.098,0.384l0.769-0.196l0.354-0.09l0.481,0.285l0.354-0.09l0.384-0.098l0.383-0.098l0.09,0.354l0.355-0.09    l-0.257,0.475l0.355-0.09l0.383-0.098l0.445,0.264l0.383-0.098l-0.09-0.354l0.384-0.098l0.354-0.09l-0.188-0.739l0.384-0.098    l-0.098-0.383l-0.287-1.123l0.836,0.196l-0.098-0.384l-0.09-0.354l0.829,0.166l0.384-0.098l0.354-0.09l0.384-0.098l-0.09-0.354    l0.286-0.482l-0.098-0.384l-0.09-0.354l0.355-0.09l0.09,0.354l0.383-0.098l0.738-0.188l0.196-0.836l-17.613-20.864l-0.383,0.098    l-0.355,0.09l-0.196-0.769l-0.383,0.098l-0.098-0.384l-0.09-0.354l-0.09-0.355l0.278-0.511l-0.09-0.354l-0.098-0.384l-0.768,0.196    l-0.354,0.09l0.068-1.213l0.384-0.098l0.738-0.188l0.195-0.836l-0.829-0.167l0.265-0.445l0-1.603l0.384-0.098l0.264-2.049    l-0.098-0.384l-0.384,0.098l-0.188-0.738l0.286-0.482l-0.09-0.354l-0.098-0.384l0.738-0.188l-0.098-0.384l-0.091-0.355    l-0.098-0.383l0.836,0.195l-0.09-1.958l0.09,0.355l0.354-0.09l0.384-0.098l0.263-0.445l0.355-0.09l-0.098-0.384l-0.09-0.354    l0.383-0.098l0.384-0.098l-0.098-0.384l-0.098-0.384l0.293-0.452l-0.383,0.098l-0.384,0.098v-1.604l-0.09-0.354l-0.384,0.098    l-0.098-0.384l-0.828-0.166l-0.196-0.769l0.264-2.048l-0.829-0.167l-0.354,0.09l-0.738,0.188L170.354,148.12z" />
</svg>