<svg xmlns="http://www.w3.org/2000/svg" xmlns:xlink="http://www.w3.org/1999/xlink" x="0px" y="0px" width="620.843px"
    height="733.026px" viewBox="190 271 65 65">

    <style xmlns="http://www.w3.org/2000/svg">
        svg {
            filter: drop-shadow(2px 3px 0px rgb(176 136 98 / 1));
        }
    </style>


    <path id="calaveras" fill="#218c74" stroke-width="0.5" stroke="#264653" stroke-miterlimit="1"
        d="M228.054,278.145l0.09,0.355l-1.092,0.278    l0.188,0.738l-2.599,0.662l-0.098-0.384l-0.354,0.09l0.098,0.384l-0.384,0.098l-0.098-0.384l-0.029,0.007l-0.354,0.09l0.196,0.769    l-0.354,0.09l-0.286,0.482l-0.355,0.09l0.09,0.354l-1.121,0.286l-0.09-0.354l-0.738,0.188l0.09,0.354l-1.123,0.286l0.091,0.355    l-0.383,0.098l0.105,0.414l-1.123,0.286l-0.105-0.414l-1.092,0.278l0.105,0.414l-0.294,0.452l0.098,0.384l-0.293,0.453l0.09,0.354    l0.384-0.098l0.105,0.414l-0.738,0.188l-1.386,2.336l-2.244,0.572l-0.264,0.444l-2.245,0.572l0.098,0.384l-1.121,0.286    l-0.265,0.445l-0.383,0.098l0.098,0.383l-1.86,0.475l-0.098-0.383l-2.214,0.564l0.098,0.383l-0.354,0.09l0.098,0.384l-1.152,0.293    l0.091,0.355l-0.738,0.188l0.098,0.383l-0.384,0.098l0.09,0.355l-0.354,0.09l-0.287,0.482l-0.708,0.181l0.098,0.384l-0.383,0.098    l0.09,0.354l-0.768,0.195l0.098,0.384l-0.709,0.181l-0.188-0.738l-0.414,0.105l-0.098-0.384l-0.354,0.09l0.098,0.384l-1.093,0.279    l-0.512-0.279l-1.83,0.466l-0.482-0.286l-0.383,0.098l3.711,11.354l16.288,18.874l-0.105-0.414l0.768-0.195l-0.09-0.355    l0.355-0.09l-0.188-0.738l0.354-0.09l-0.098-0.384l0.738-0.188l-0.098-0.384l1.122-0.286l0.293-0.451l0.355-0.091l-0.188-0.738    l1.859-0.474l-0.098-0.384l0.384-0.098l-0.098-0.384l0.384-0.098l-0.09-0.355l0.354-0.09l-0.098-0.383l1.122-0.286l-0.286-1.123    l0.383-0.098l-0.091-0.355l1.093-0.278l-0.098-0.384l0.383-0.098l-0.286-1.123l-0.383,0.098l-0.188-0.738l-0.738,0.188    l-0.09-0.355l0.738-0.188l-0.196-0.768l0.768-0.195l-0.09-0.355l0.354-0.09l-0.098-0.384l0.384-0.098l0.188,0.739l-0.384,0.098    l0.482,0.285l0.354-0.09l-0.098-0.383l0.384-0.098l-0.188-0.739l1.477-0.376l0.098,0.384l18.768-29.005l8.488-3.706l-0.46-0.323    l-0.918-0.521l-0.098-0.384l-0.444-0.264l-0.768,0.195l0.09,0.354l-0.738,0.188l-0.09-0.354l0.354-0.09l-0.384-1.507l0.384-0.098    l-0.09-0.355l0.097-1.22l-0.293-1.151l-0.768,0.196l-0.09-0.355l-0.354,0.09l-0.264,0.445l-0.091-0.355l-0.383,0.098l0.091,0.355    l-1.477,0.376l-0.475-0.257l-1.476,0.376l-0.474-0.256l-0.768,0.196l-0.098-0.384l-0.708,0.181l-0.098-0.384l-1.152,0.293    l0.098,0.384l-1.093,0.278l-0.256,0.475l-0.511-0.279l-1.092,0.278l0.098,0.384l-1.123,0.286l-0.098-0.384l-0.738,0.188    l-0.256,0.475l-0.384,0.098l-0.482-0.287l-0.354,0.09l0.098,0.384l-0.738,0.188l-0.098-0.384l-2.982,0.76l-0.196-0.769    l-0.738,0.188l-0.918-0.521L228.054,278.145z" />
</svg>