<svg xmlns="http://www.w3.org/2000/svg" xmlns:xlink="http://www.w3.org/1999/xlink" x="0px" y="0px" width="620.843px"
    height="733.026px" viewBox="96 199 50 50">

    <style xmlns="http://www.w3.org/2000/svg">
        svg {
            filter: drop-shadow(2px 3px 0px rgb(176 136 98 / 1));
        }
    </style>


    <path id="colusa" fill="#218c74" stroke-width="0.5" stroke="#264653" stroke-miterlimit="1"
        d="M90.63,204.932l0.091,0.355l0.384-0.098    l0.09,0.354l0.098,0.384l0.354-0.09l0.257-0.475l0.098,0.384l0.414-0.105l0.098,0.384l0.098,0.383l0.354-0.09l0.09,0.355    l0.09,0.354l-0.354,0.09l0.098,0.383l-0.413,0.105l0.098,0.384l-0.355,0.09l-0.354,0.09l-0.384,0.098l0.098,0.384l0.091,0.355    l-0.354,0.09l0.09,0.354l-0.384,0.098l0.105,0.414l0.091,0.355l-0.383,0.098l0.098,0.383l0.383-0.098l0.09,0.354l0.098,0.384    l0.098,0.384l0.384-0.098l0.09,0.354l0.098,0.384l-0.384,0.098l0.09,0.354l0.384-0.098l0.098,0.384l0.354-0.09l0.098,0.384    l0.384-0.098l0.09,0.355l0.354-0.09l0.098,0.383l0.355-0.09l-0.265,0.445l0.355-0.09l0.098,0.384l0.414-0.105l0.098,0.383    l0.09,0.354l0.354-0.09l0.098,0.384l0.384-0.098l0.09,0.354l0.098,0.384l0.354-0.09l0.098,0.384l0.09,0.354l0.098,0.384    l0.475,0.257l0.098,0.384l0.098,0.383l0.383-0.098l0.354-0.09l0.091,0.355l0.383-0.098l-0.091-0.355l0.355-0.09l0.354-0.09    l0.414-0.105l0.354-0.09l0.09,0.355l0.384-0.098l0.098,0.384l0.354-0.09l0.09,0.354l0.355-0.09l0.383-0.098l0.098,0.384    l0.384-0.098l0.383-0.098l0.098,0.384l0.09,0.354l0.355-0.09l0.354-0.09l0.414-0.105l0.354-0.09l0.482,0.287l-0.098-0.384    l0.354-0.09l0.355-0.09l0.098,0.384l0.413-0.105l0.354-0.09l0.091,0.355l-0.354,0.09l0.098,0.383l0.098,0.384l0.354-0.09    l0.09,0.355l0.384-0.098l0.098,0.384l0.09,0.354l0.354-0.09l-0.256,0.474l0.098,0.384l0.354-0.09l0.354-0.09l0.09,0.354    l0.384-0.098l0.098,0.384l-0.384,0.098l-0.354,0.09l0.09,0.355l0.098,0.383l0.098,0.384l0.09,0.355l0.098,0.384l-0.354,0.09    l-0.384,0.098l-0.354,0.09l0.09,0.354l-0.414,0.105l0.098,0.384l-0.354,0.09l0.098,0.384l0.09,0.354l0.355-0.091l0.098,0.384    l-0.354,0.09l0.09,0.355l0.098,0.383l0.355-0.09l0.098,0.384l-0.355,0.09l0.445,0.264l-0.354,0.091l0.098,0.383l0.09,0.354    l0.098,0.384l-0.354,0.09l0.098,0.384l0.09,0.354l0.098,0.384l-0.384,0.098l0.098,0.384l0.09,0.354l0.384-0.098l0.354-0.09    l0.098,0.384l0.355-0.09l0.09,0.355l0.098,0.383l0.098,0.384l0.414-0.105l0.09,0.354l0.354-0.09l0.098,0.383l0.09,0.355    l0.384-0.098l0.098,0.384l0.354-0.09l0.354-0.09l0.098,0.384l0.384-0.098l0.384-0.098l0.09,0.354l0.098,0.384l-0.384,0.098    l0.09,0.355l0.098,0.383l-0.384,0.098l0.098,0.384l-0.354,0.09l0.091,0.355l0.098,0.383l0.09,0.355l0.098,0.384l0.354-0.09    l0.098,0.383l-0.354,0.09l0.091,0.355l0.098,0.384l0.444,0.264l0.384-0.098l0.098,0.384l0.482,0.286l0.09,0.355l0.481,0.286    l0.355-0.09l0.09,0.354l0.098,0.384l0.354-0.09l0.098,0.383l0.384-0.098l0.09,0.354l30.341,0.979l-0.09-0.354l-0.098-0.384    l0.383-0.098l-0.09-0.355l-0.09-0.354l-0.105-0.414l-0.09-0.355l-0.098-0.384l0.384-0.098l-0.09-0.354l-0.09-0.355l0.354-0.09    l0.384-0.098l0.249-0.504l-0.09-0.354l-0.098-0.384l0.384-0.098l0.383-0.098l0.355-0.09l0.383-0.098l-0.091-0.355l-0.09-0.354    l-0.383,0.098l-0.105-0.414l-0.355,0.091l-0.383,0.098l-0.09-0.355l-0.098-0.384l0.293-0.452l-0.091-0.355l-0.105-0.413    l-0.09-0.354l-0.383,0.098l0.285-0.482l-0.383,0.098l-0.09-0.355l-0.098-0.383l-0.098-0.384l-0.09-0.354l0.286-0.481l-0.09-0.355    l-0.383,0.098l-0.098-0.384l-0.384,0.098l-0.354,0.09l-0.384,0.098l-0.354,0.09l-0.098-0.384l-0.384,0.098l-0.473-0.256    l-0.098-0.384l-0.355,0.09l-0.09-0.355l0.355-0.09l-0.098-0.383l-0.098-0.384l-0.09-0.354l-0.098-0.383l-0.355,0.09l-0.09-0.355    l0.257-0.475l-0.098-0.383l-0.355,0.09l-0.09-0.354l-0.098-0.384l-0.383,0.098l-0.09-0.354l-0.355,0.09l-0.098-0.384l-0.383,0.098    l-0.098-0.384l-0.09-0.355l-0.098-0.383l0.383-0.098l0.098,0.383l0.355-0.09l0.383-0.098l0.257-0.474l-0.09-0.354l-0.355,0.09    l-0.098-0.384l-0.383,0.098l-0.098-0.383l-0.091-0.354l-0.098-0.384l-0.09-0.354l-0.098-0.384l-0.354,0.09l-0.098-0.384    l0.355-0.09l-0.09-0.354l0.383-0.098l-0.098-0.384l0.354-0.09l0.383-0.098l-0.098-0.384l-0.091-0.354l-0.098-0.383l-0.09-0.355    l-0.383,0.098l-0.098-0.384l-0.098-0.383l0.383-0.098l-0.09-0.355l-0.383,0.098l-0.098-0.384l-0.09-0.354l-0.098-0.384    l0.383-0.098l-0.098-0.384l-0.09-0.354l0.384-0.098l-0.098-0.384l0.354-0.09l-0.09-0.355l0.384-0.098l0.354-0.09l-0.098-0.384    l0.384-0.098l-0.098-0.383l-0.091-0.355l0.383-0.098l-0.098-0.384l0.355-0.09l-0.09-0.354l0.383-0.098l-0.098-0.384l0.355-0.09    l-0.098-0.384l-0.09-0.354l0.383-0.098l-0.098-0.384l-0.09-0.355l0.354-0.09l-0.098-0.384l0.383-0.098l-0.098-0.383l-0.091-0.354    l-0.098-0.384l-0.09-0.354l0.384-0.098l-0.098-0.384l0.354-0.09l-0.098-0.384l0.384-0.098l-0.09-0.354l0.354-0.09l-0.098-0.384    l-0.444-0.265l-0.482-0.285l-1.122,0.286l-5.189-0.25l-0.217-2.335l-7.147-0.161l-0.293,2.057l-35.093-0.996l-0.738,0.188    l-0.354,0.09L90.63,204.932z" />
</svg>