<svg xmlns="http://www.w3.org/2000/svg" xmlns:xlink="http://www.w3.org/1999/xlink" x="0px" y="0px" width="620.843px"
    height="733.026px" viewBox="118 303 38 38">

    <style xmlns="http://www.w3.org/2000/svg">
        svg {
            filter: drop-shadow(2px 3px 0px rgb(176 136 98 / 1));
        }
    </style>


    <path id="contra_costa" fill="#218c74" stroke-width="0.5" stroke="#264653" stroke-miterlimit="1"
        d="M159.628,307.866l-0.724,0.185    l0.191,0.75l-0.39,0.099l0.283,1.111l-0.36,0.092l0.283,1.11l0.359-0.091l-0.191-0.75l0.39-0.1l0.191,0.75l0.364-0.093l0.283,1.11    l-0.364,0.093l0.1,0.391l-1.133,0.289l0.093,0.364l0.744-0.19l0.099,0.386l-0.744,0.189l0.184,0.719l-0.365,0.093l0.1,0.391    l0.365-0.093l0.091,0.359l-0.365,0.093l0.1,0.391l0.365-0.093l0.092,0.359l-0.365,0.093l0.092,0.36l0.365-0.093l0.1,0.39    l-0.724,0.185l0.452,0.274l0.189,0.745l0.274-0.453l0.091,0.359l0.092,0.361l-0.365,0.093l0.099,0.39l0.365-0.093l0.092,0.361    l-0.365,0.093l0.098,0.385l0.365-0.093l0.092,0.36l-0.724,0.185l0.191,0.75l-0.755,0.192l0.093,0.365l0.365-0.093l0.099,0.385    l-0.366,0.093l0.092,0.359l-0.384,0.098l0.191,0.75l-0.359,0.092l0.092,0.361l-0.364,0.093l0.099,0.39l0.364-0.093l0.092,0.36    l-0.365,0.093l0.092,0.359l0.364-0.093l0.1,0.39l1.109-0.283l0.093,0.365l0.384-0.098l0.098,0.385l0.359-0.092l0.092,0.36    l-0.359,0.092l0.191,0.75l-1.134,0.289l0.19,0.745l-0.36,0.092l0.092,0.36l-0.365,0.093l-2.244,0.572l0.092,0.359l-9.294,2.369    l-1.759,0.865l-8.91,2.271l-1.858,0.474l-0.582-0.651l-0.359,0.092l-0.088-0.346l-0.384,0.098l-0.463-0.292l-0.092-0.36    l-0.364,0.093l-0.577-0.652l-0.19-0.746l1.022-0.648l-0.465-0.298l-0.647-1.017l-0.477-0.263l-0.458-0.298l-0.093-0.365l-0.39,0.1    l-0.549-0.653l-0.75,0.191l-0.453-0.273l-0.849-0.2l-0.364,0.093l-0.835-0.17l-0.39,0.099l-0.365,0.093l-0.835-0.17l-0.359,0.092    l-0.099-0.386l-0.385,0.098l-0.092-0.36l-0.1-0.391l-0.456-0.267l-0.75,0.191l-0.36,0.092l-0.091-0.36l-0.389,0.099l-0.098-0.385    l-0.093-0.366l-0.101-0.396l0.389-0.099l-0.091-0.359l-0.389,0.099l-0.092-0.36l-0.36,0.091l-0.101-0.396l-0.09-0.355l-0.1-0.39    l-0.359,0.092l-0.092-0.361l-0.39,0.1l-0.19-0.745l0.39-0.1l-0.093-0.365l-0.489-0.291l-0.092-0.36l-0.36,0.091l-0.091-0.359    l-0.39,0.099l-0.359,0.092l-0.1-0.391l-0.092-0.36l-0.1-0.391l-0.364,0.093l-0.092-0.359l-0.092-0.36l-0.385,0.098l-0.099-0.386    l-0.359,0.092l-0.39,0.1l0.099,0.386l-0.359,0.092l-0.365,0.093l-0.099-0.386l-0.384,0.098l-0.37,0.094l-0.39,0.1l-0.55-0.658    l-1.293-0.443l-1.598-0.008l-0.364,0.093l-0.761-1.377l-0.655-1.049l-0.092-0.359l0.273-0.453l1.035-0.68l1.098-1.851l0.366-1.691    l0.268-0.452l1.684,0.343l1.858-0.474l1.674-1.199l2.416-1.415l1.3,0.468l1.684,0.343l1.02,0.955l1.32,0.437l4.18-0.65    l2.118-0.955l1.858-0.474l1.43,0.85l2.042,0.251l4.654,1.211l5.033,1.087l5.304,0.629l1.109-0.283l-0.551-0.659l-0.928-0.535    l1.4-0.767l0.917-1.033l0.077-1.202l0.107-1.21l0.724-0.184l2.335-0.211l1.665,0.375L159.628,307.866 M159.94,312.133l-0.092-0.36    l-0.39,0.1l0.092,0.359L159.94,312.133" />
</svg>