<svg xmlns="http://www.w3.org/2000/svg" xmlns:xlink="http://www.w3.org/1999/xlink" x="0px" y="0px" width="620.843px"
    height="733.026px" viewBox="8 -2 56 56">

    <style xmlns="http://www.w3.org/2000/svg">
        svg {
            filter: drop-shadow(2px 3px 0px rgb(176 136 98 / 1));
        }
    </style>


    <polyline id="del_norte" fill="#218c74" stroke-width="0.5" stroke="#264653" stroke-miterlimit="1"
        points="55.565,2.115 55.656,2.475     55.297,2.566 54.907,2.666 54.547,2.757 54.647,3.147 54.263,3.246 54.354,3.605 54.454,3.996 54.546,4.356 54.639,4.721     54.737,5.106 54.83,5.471 54.465,5.564 54.563,5.95 54.199,6.043 54.292,6.408 53.907,6.505 53.999,6.866 53.64,6.957     53.738,7.342 53.348,7.442 53.441,7.807 53.539,8.192 53.18,8.284 53.271,8.644 53.364,9.009 53.005,9.1 53.104,9.491     52.714,9.59 52.355,9.682 52.255,9.292 51.871,9.389 51.506,9.482 51.413,9.118 51.048,9.21 51.142,9.575 50.756,9.673     50.856,10.064 50.948,10.424 50.589,10.515 50.297,11 49.938,11.091 49.573,11.184 49.475,10.799 49.383,10.439 48.998,10.537     48.634,10.63 48.534,10.24 48.149,10.338 48.249,10.729 47.884,10.821 47.976,11.181 48.074,11.566 47.715,11.658 47.808,12.023     47.51,12.483 47.9,12.383 47.999,12.774 47.609,12.873 47.25,12.965 46.86,13.064 46.952,13.424 46.592,13.516 46.69,13.901     46.331,13.993 46.424,14.357 46.035,14.457 45.675,14.548 45.197,14.282 45.29,14.646 44.926,14.739 44.561,14.832 44.653,15.192     44.752,15.583 44.844,15.943 45.208,15.85 45.308,16.24 45.4,16.6 45.492,16.96 45.591,17.35 45.956,17.257 46.434,17.524     46.048,17.623 46.146,18.008 46.238,18.368 45.874,18.46 45.51,18.554 45.603,18.918 45.701,19.304 45.409,19.767 45.507,20.152     45.6,20.518 45.692,20.877 45.792,21.268 45.883,21.628 45.981,22.013 46.074,22.378 46.459,22.28 46.553,22.645 46.651,23.03     46.743,23.39 46.842,23.78 46.55,24.244 46.19,24.335 46.281,24.69 45.891,24.79 46.38,25.081 46.472,25.44 46.082,25.54     46.182,25.93 45.822,26.022 45.914,26.382 45.554,26.474 45.165,26.573 45.257,26.938 44.899,27.03 44.997,27.415 45.09,27.78     45.188,28.165 44.798,28.265 44.89,28.625 44.983,28.989 45.082,29.375 45.174,29.74 45.273,30.125 44.815,29.832 44.451,29.924     44.549,30.31 44.164,30.408 44.257,30.773 43.893,30.866 43.599,31.324 43.699,31.714 43.334,31.807 43.426,32.167 43.066,32.258     43.166,32.649 43.257,33.009 43.617,32.917 43.981,32.824 44.073,33.185 44.458,33.086 44.823,32.994 44.922,33.384     45.014,33.744 44.65,33.837 44.749,34.227 44.841,34.586 44.934,34.952 44.549,35.05 44.647,35.435 44.376,35.894 44.474,36.278     44.567,36.644 44.659,37.003 45.023,36.911 45.408,36.813 45.772,36.72 45.871,37.105 46.256,37.007 46.348,37.367 46.712,37.273     46.813,37.669 46.904,38.029 46.996,38.389 47.095,38.774 46.73,38.867 46.823,39.232 46.923,39.623 47.287,39.53 47.379,39.89     47.015,39.982 47.106,40.343 47.205,40.728 47.297,41.093 47.396,41.478 47.489,41.843 47.582,42.208 47.68,42.593 47.771,42.954     48.136,42.861 48.235,43.251 48.595,43.159 48.687,43.52 48.327,43.611 48.42,43.976 48.519,44.361 48.61,44.722 48.246,44.814     48.346,45.205 47.96,45.303 48.053,45.668 47.689,45.761 47.304,45.859 46.939,45.952 46.58,46.043 46.672,46.403 46.77,46.789     46.862,47.148 46.961,47.539 46.668,47.997 46.304,48.09 45.919,48.188 46.012,48.553 46.111,48.938 45.745,49.032 45.838,49.396     45.474,49.489 39.425,49.044 39.767,42.624 23.009,42.139 22.916,41.773 22.425,36.721 24.383,36.638 22.049,35.245     19.354,21.641 16.292,20.44 13.948,17.485 16.165,12.158 17.323,5.913 17.882,4.977 16.741,0.5 55.564,2.104   " />
</svg>