<svg xmlns="http://www.w3.org/2000/svg" xmlns:xlink="http://www.w3.org/1999/xlink" x="0px" y="0px" width="620.843px"
    height="733.026px" viewBox="196 230 54 54">

    <style xmlns="http://www.w3.org/2000/svg">
        svg {
            filter: drop-shadow(2px 3px 0px rgb(176 136 98 / 1));
        }
    </style>


    <path id="el_dorado" fill="#218c74" stroke-width="0.5" stroke="#264653" stroke-miterlimit="1"
        d="    M205.721,237.03l0.098,0.384l-0.384,0.098l-0.383,0.098l-0.265,0.446l0.098,0.383l0.098,0.384l-0.354,0.09l0.09,0.355    l-0.384,0.098l-0.09-0.354l-0.354,0.09l-0.098-0.384l-0.316,0.49l-0.263,0.445l0.098,0.383l0.09,0.354l-0.355,0.091l0.098,0.384    l-0.481-0.286l-0.354,0.09l-0.091-0.355l-0.414,0.105l-0.354,0.09l-0.098-0.383l-0.354,0.09l-0.287,0.481l-0.354,0.09    l-0.098-0.383l-0.414,0.105l-0.445-0.265l-0.098-0.384l-0.354,0.09l-0.384,0.098l-0.354,0.09l0.098,0.384l0.09,0.355l0.098,0.383    l0.09,0.355l-0.384,0.098l0.098,0.384l-0.481-0.287l-0.354,0.091l-0.091-0.355L197.083,242l-0.355,0.09l-0.383,0.098l-0.286,0.482    l-0.098-0.384l-0.354,0.09l-0.384,0.098l0.105,0.414l-0.354,0.09l0.09,0.354l-0.384,0.098l-0.09-0.355l-0.354,0.09l0.09,0.355    l-0.384,0.098l-0.09-0.354l-0.384,0.098l-0.354,0.09l-0.384,0.098l-0.354,0.09l0.09,0.355l-0.384,0.098l-0.383,0.098l0.09,0.354    l-0.355,0.091l0.098,0.384l0.355-0.091l0.09,0.355l0.098,0.383l-0.355,0.09l-0.383,0.098l-0.354,0.09l0.098,0.384l0.355-0.09    l0.09,0.355l0.098,0.383l0.09,0.355l-0.354,0.09l-0.383,0.098l0.105,0.414l0.09,0.355l0.09,0.354l-0.384,0.098l-0.256,0.474    l-0.098-0.384l-0.384,0.098l0.098,0.384l-0.354,0.09l0.09,0.354l-0.355,0.09l-0.413,0.105l0.098,0.384l0.511,0.279l0.09,0.354    l-0.413,0.105l-0.354,0.09l-0.383,0.098l-0.091-0.355L188.309,251l0.09,0.354l0.453,0.293l-0.355,0.09l0.09,0.355l0.098,0.384    l-0.354,0.09l0.098,0.383l0.09,0.355l-0.414,0.105l0.098,0.384l-0.264,0.444l-0.384,0.098l0.098,0.384l-0.354,0.09l0.098,0.384    l-0.355,0.091l0.09,0.354l0.098,0.384l-0.414,0.105l0.09,0.355l-0.354,0.09l0.105,0.414l-0.384,0.098l0.09,0.354l-0.354,0.09    l-0.354,0.09l0.091,0.354l0.098,0.384l0.09,0.354l0.105,0.414l0.354-0.09l0.444,0.265l0.384-0.098l0.542,0.648l0.09,0.354    l0.609,0.662l4.315,13.969l1.152-0.294l-0.098-0.384l0.354-0.09l0.098,0.384l0.738-0.188l0.481,0.286l0.383-0.098l0.257-0.474    l0.738-0.188l0.098,0.383l0.354-0.09l-0.098-0.383l0.767-0.195l0.188,0.738l0.354-0.09l0.09,0.354l0.383-0.098l-0.09-0.354    l1.123-0.286l-0.091-0.355l0.354-0.09l0.091,0.354l0.384-0.098l0.09,0.354l0.354-0.09l-0.09-0.354l0.414-0.105l-0.188-0.738    l0.355-0.091l0.098,0.383l0.738-0.188l-0.098-0.383l0.354-0.09l-0.098-0.384l0.767-0.195l-0.098-0.384l0.354-0.09l0.098,0.384    l1.505-0.384l-0.098-0.384l0.354-0.09l0.098,0.384l0.384-0.098l0.098,0.384l0.354-0.09l0.098,0.383l0.384-0.098l0.091,0.354    l0.384-0.098l-0.09-0.355l0.354-0.09l0.09,0.355l0.384-0.098l0.354-0.09l0.475,0.256l0.383-0.098l0.098,0.384l0.355-0.09    l0.383-0.098l0.098,0.384l0.355-0.09l0.098,0.384l0.383-0.098l0.09,0.354l0.384-0.098l0.09,0.355l0.354-0.09l0.105,0.414    l0.384-0.098l0.09,0.354l0.354-0.09l0.098,0.383l0.475,0.257l0.09,0.354l0.354-0.09l0.384-0.098l0.098,0.384l0.384-0.098    l0.098,0.384l0.354-0.09l0.098,0.384l0.384-0.098l0.444,0.264l0.384-0.098l0.383-0.098l0.355-0.09l0.09,0.355l0.383-0.098    l0.355-0.091l0.383-0.098l0.105,0.414l0.384-0.098l0.354-0.09l0.384-0.098l0.354-0.09l-0.105-0.414l0.384-0.098l0.383-0.098    l0.105,0.414l0.354-0.09l0.383-0.098l0.355-0.091l0.09,0.354l0.383-0.098l0.384-0.098l0.354-0.09l0.384-0.098l0.354-0.09    l0.355-0.091l0.414-0.105l-0.09-0.354l0.354-0.09l0.384-0.098l0.09,0.354l0.354-0.09l0.384-0.098l0.383-0.098l0.265-0.444    l0.383-0.098l0.355-0.091l0.09,0.354l0.383-0.098l0.384-0.098l0.354-0.09l0.384-0.098l0.354-0.09l-0.09-0.354l0.355-0.091    l0.413-0.105l0.354-0.09l0.09,0.354l0.384-0.098l-0.09-0.354l0.354-0.09l0.384-0.098l0.383-0.098l0.354-0.09l0.09,0.354    l0.383-0.098l0.098,0.384l0.354-0.09l-0.098-0.384l0.354-0.09l0.511,0.279l0.354-0.09l0.384-0.098l0.354-0.09l0.354-0.09    l0.413-0.105l-0.098-0.384l0.355-0.091l0.383-0.098l0.354-0.09l0.354-0.09l0.414-0.105l-0.09-0.354l0.354-0.09l-0.105-0.414    l0.384-0.098l-0.09-0.354l0.354-0.09l-0.09-0.354l0.355-0.09l0.384-0.098l0.383-0.098l0.384-0.098l-0.098-0.384l0.354-0.09    l0.257-0.475l-0.098-0.384l-0.09-0.354l0.293-0.452l-0.098-0.383l0.384-0.098l-0.09-0.355l0.383-0.098l0.355-0.09l0.09,0.355    l0.354-0.09l-0.09-0.355l0.414-0.105l0.354-0.09l0.384-0.098l0.09,0.355l0.354-0.09l0.354-0.09l0.383-0.098l0.384-0.098    l0.384-0.098l0.354-0.09l0.263-0.445l-0.105-0.414l0.384-0.098l-0.09-0.355l-0.09-0.354l0.384-0.098l-0.098-0.384l0.383-0.098    l-0.098-0.384l0.355-0.09l-0.098-0.384l-0.09-0.354l-0.09-0.355l-0.098-0.383l-0.098-0.384l0.354-0.09l0.384-0.098l-0.098-0.384    l0.354-0.09l0.413-0.105l0.098,0.384l0.354-0.09l0.355-0.09l0.098,0.384l0.383-0.098l0.384-0.098l0.383-0.098l0.257-0.475    l1.024-0.67l0.911-0.987l0.287-0.482l1.023-0.67l0.354-0.091l-0.098-0.383l0.738-0.188l0.94-0.996l0.641-0.571l0.414-0.105    l0.354-0.09l0.355-0.09l-0.098-0.384l-0.098-0.384l0.383-0.098l0.355-0.09l-0.09-0.354l-0.355,0.091l-0.09-0.355l0.355-0.09    l-0.098-0.384l0.383-0.098l-0.098-0.384l0.384-0.098l-0.098-0.383l0.354-0.09l0.384-0.098l-0.09-0.355l-0.09-0.354l0.354-0.09    l0.384-0.098l0.286-0.482l-0.098-0.384l-0.098-0.384l-0.09-0.354l0.354-0.09l0.384-0.098l0.354-0.09l0.384-0.098l-0.09-0.355    l0.383-0.098l-0.105-0.414l0.355-0.09l-0.09-0.354l-0.355,0.09l-0.098-0.384l0.355-0.09l-0.091-0.355l-0.09-0.354l-0.105-0.414    l0.292-0.452l-0.098-0.384l-0.09-0.354l-0.09-0.355l-0.489-0.316l-0.445-0.263l-0.098-0.384l-0.383,0.098l0.293-0.453    l-5.723-5.305l-0.104-5.1l-7.147-0.161l-0.414,0.105l-0.354,0.09l-0.384,0.098l0.091,0.355l-0.354,0.09l-0.355,0.09l0.098,0.383    l0.09,0.354l-0.767,0.196l-0.279,0.512l-0.709,0.181l-0.293,0.452l-1.212-0.068l-1.227-0.128l-0.384,0.098l-0.354,0.09    l-0.25,0.504l-0.383,0.098l-0.49-0.316l0.105,0.414l-0.384,0.098l-1.672-0.392l-0.383,0.098l-0.709,0.181l-0.836-0.195    l-0.414,0.105l-0.799-0.174l-1.604,0l-0.354,0.09l-0.482-0.285l-0.383,0.098l-1.184-0.076l-0.384,0.098l-0.866-0.188l-0.354,0.09    l-0.354,0.09l0.098,0.384l0.09,0.355l-0.383,0.098l0.098,0.383l-0.257,0.475l0.091,0.354l-0.413,0.105l0.098,0.383l0.09,0.354    l-0.355,0.091l0.105,0.414l-0.354,0.09l0.091,0.355l-0.384,0.098l0.09,0.354l-0.354,0.09l0.098,0.384l-0.414,0.105l-0.354,0.09    l0.09,0.354l-0.355,0.09l0.098,0.384l-0.383,0.098l0.098,0.384l-0.355,0.09l-0.383,0.098l0.09,0.355l-0.384,0.098l-0.256,0.474    l-0.098-0.383l-0.384,0.098l-0.354,0.09l-0.414,0.105l0.098,0.383l-0.355,0.09l-0.098-0.383l-0.354,0.09l0.098,0.383l-0.384,0.098    l-0.029,0.007l-0.354,0.09l0.09,0.354l-0.384,0.098l-0.384,0.098l-0.444-0.265l-0.098-0.383l-0.384,0.098l-0.09-0.354    l-0.098-0.384l-0.098-0.384l-0.354,0.09l-0.09-0.354l-0.384,0.098l-0.354,0.09l-0.098-0.384l-0.09-0.354l-0.384,0.098    l-0.383,0.098l-0.098-0.384l-0.355,0.09l-0.383,0.098l-0.354,0.09l-0.098-0.384l-0.354,0.09l-0.09-0.355l-0.098-0.383    l-0.414,0.105l-0.09-0.355l-0.354,0.09l-0.098-0.384l-0.384,0.098l-0.098-0.383l-0.091-0.355l-0.098-0.384l0.384-0.098    l-0.482-0.287l-0.09-0.354l-0.354,0.09l-0.355,0.09l-0.383,0.098l-0.482-0.287l-0.09-0.355l-0.481-0.285l-0.09-0.355l-0.098-0.384    l-0.354,0.09l-0.354,0.09l-0.098-0.383l-0.384,0.098l-0.354,0.09l-0.09-0.354l-0.384,0.098l-0.098-0.384l-0.383,0.098l0.098,0.384    l0.354-0.09l0.09,0.354l-0.354,0.09l-0.09-0.355l-0.355,0.091l-0.383,0.098l-0.354,0.09l-0.414,0.105l0.09,0.355l-0.354,0.09    l-0.09-0.354l-0.354,0.09l-0.098-0.384L205.721,237.03z M209.629,236.821l0.294-0.453l-0.384,0.098L209.629,236.821z     M213.085,237.921l0.098,0.384l0.384-0.098L213.085,237.921z" />
</svg>