<svg xmlns="http://www.w3.org/2000/svg" xmlns:xlink="http://www.w3.org/1999/xlink" x="0px" y="0px" width="620.843px"
    height="733.026px" viewBox="200 343 144 144">

    <style xmlns="http://www.w3.org/2000/svg">
        svg {
            filter: drop-shadow(2px 3px 0px rgb(176 136 98 / 1));
        }
    </style>


    <path id="fresno" fill="#218c74" stroke-width="0.5" stroke="#264653" stroke-miterlimit="1"
        d="M311.973,346.344l-18.038,19.288l0.091,0.354    l0.481,0.286l0.091,0.354l-0.287,0.482l-0.098-0.385l-0.256,0.475l-0.384,0.098l0.098,0.385l-0.264,0.443l0.452,0.294l0.098,0.385    l0.09,0.354l0.099,0.385l-0.354,0.09l0.091,0.355l-0.286,0.481l0.481,0.285l0.091,0.355l0.098,0.384l0.09,0.354l0.099,0.384    l-0.287,0.482l-0.383,0.098l0.09,0.354l-0.354,0.091l0.098,0.384l0.091,0.355l0.098,0.384l-0.383,0.098l0.09,0.354l0.098,0.385    l0.384-0.098l-0.285,0.481l0.09,0.354l-0.354,0.09l0.098,0.385l-0.383,0.098l0.098,0.384l-0.385,0.098l-0.264,0.444l-0.09-0.354    l-0.294,0.452l-0.354,0.09l0.098,0.384l0.09,0.355l0.098,0.383l-0.384,0.098l-0.384,0.099l-0.354,0.09l0.098,0.385l-0.384,0.098    l0.091,0.354l-0.354,0.091l-0.384,0.098l-0.384,0.098l-0.09-0.354l-0.355,0.09l0.257-0.475l-0.354,0.091l-0.098-0.384    l-0.474-0.257l-0.354,0.091l-0.354,0.09l-0.414,0.105l0.091,0.354l0.098,0.384l0.098,0.384l-0.354,0.091l-0.384,0.098l-0.354,0.09    l-0.384,0.098l-0.098-0.384l-0.383,0.098l0.098,0.384l-0.355,0.091l0.091,0.354l0.098,0.385l-0.383,0.098l0.09,0.354l0.098,0.385    l0.098,0.384l-0.355,0.091l0.09,0.354l-0.354,0.091l-0.414,0.105l-0.09-0.354l-0.098-0.384l-0.098-0.385l-0.354,0.091l-0.09-0.354    l0.354-0.09l-0.098-0.385l-0.09-0.354l-0.098-0.384l-0.098-0.384l-0.354,0.091l-0.091-0.355l-0.384,0.098l-0.354,0.091    l-0.355,0.09l0.09,0.355l0.098,0.383l-0.383,0.098l0.098,0.385l-0.384,0.098l-0.098-0.384l-0.384,0.098l-0.098-0.384l-0.091-0.354    l-0.354,0.09l-0.098-0.384l-0.355,0.091l-0.383,0.098l-0.384,0.098l0.098,0.384l0.09,0.355l0.098,0.383l-0.383,0.098l0.098,0.385    l-0.355,0.09l0.09,0.355l0.355-0.091l0.383-0.098l0.384-0.098l0.481,0.286l0.09,0.354l0.453,0.293l-0.354,0.091l0.098,0.384    l0.09,0.354l-0.383,0.098l-0.384,0.098l-0.383,0.098l-0.257,0.475l0.09,0.355l0.105,0.413l-0.354,0.09l0.09,0.354l0.09,0.354    l-0.413,0.105l-0.445-0.265l-0.384,0.098l-0.354,0.091l-0.09-0.354l-0.355,0.091l-0.105-0.413l-0.383,0.098l-0.384,0.098    l0.105,0.413l-0.384,0.099l0.09,0.354l0.091,0.354l-0.354,0.091l0.098,0.383l0.452,0.294l-0.354,0.091l0.098,0.384l-0.354,0.09    l0.091,0.355l-0.384,0.098l0.09,0.354l-0.384,0.098l-0.286,0.481l-0.355,0.091l-0.098-0.385l0.355-0.09l-0.09-0.354l0.383-0.098    l-0.09-0.354l-0.579-0.671l-0.355,0.091l-0.354,0.09l-0.384,0.098l0.098,0.385l-0.354,0.09l0.188,0.739l0.09,0.354l0.098,0.384    l-0.414,0.105l-0.264,0.445l-0.354,0.09l-0.474-0.257l-0.384,0.098l-0.098-0.384l-0.383,0.098l-0.257,0.475l0.09,0.354    l-0.354,0.091l-0.279,0.51l-0.383,0.098l-0.293,0.453l-0.355,0.091l-0.264,0.444l-0.384,0.099l0.098,0.383l-0.354,0.091    l0.09,0.354l-0.127,1.228l0.414-0.105l0.098,0.385l-0.315,0.489l-0.354,0.09l-0.355,0.091l0.098,0.383l-0.383,0.098l0.09,0.355    l0.09,0.354l-0.355,0.091l-0.413,0.105l-0.354,0.09l-0.354,0.091l0.098,0.383l0.098,0.384l-0.963,1.032l0.09,0.354l0.098,0.385    l0.098,0.384l-0.256,0.474l-0.355,0.091l-0.383,0.098l0.09,0.354l-0.354,0.091l0.09,0.354l-0.383,0.098l-0.384,0.098l0.196,0.769    l-0.354,0.091l-0.384,0.098l-0.452-0.294l-0.512-0.279l-0.09-0.354l-0.354,0.09l-0.264,0.444l-0.384,0.099l-0.09-0.354    l-0.264,0.444l-0.384,0.098l-0.09-0.354l-0.383,0.098l-0.09-0.355l-0.355,0.091l-0.383,0.098l0.091,0.354l-0.445-0.264    l-0.383,0.098l-0.384,0.098l0.09,0.354l-0.354,0.091l-0.384,0.098l-0.091-0.354l-0.354,0.09l-0.413,0.105l0.09,0.354l0.09,0.354    l-0.355,0.09l-0.354,0.091l-0.384,0.098l-0.09-0.354l-0.354,0.09l-0.384,0.098l-0.383,0.098l-0.355,0.091l-0.09-0.354    l-0.098-0.384l-0.383,0.098l-0.355,0.091l0.098,0.383l0.09,0.355l-0.383,0.098l-0.384,0.098l-0.354,0.09l-0.475-0.257    l-0.264,0.445l-0.384,0.098l0.09,0.354l-0.383,0.098l-0.355,0.09l-0.383,0.098l-0.09-0.354l-0.355,0.091l-0.09-0.355l-0.383,0.098    l-0.384,0.099l-0.354,0.09l-0.384,0.098l-0.098-0.383l-0.098-0.385l-0.354,0.091l-0.384,0.098l0.098,0.384l-0.384,0.099    l-0.354,0.09l0.098,0.384l-0.384,0.098l-0.452-0.293l-0.384,0.098l-0.354,0.09l-0.384,0.099l-0.383,0.098l-0.257,0.474    l-0.383,0.098l-0.355,0.09l0.091,0.355l-0.383,0.098l-0.09-0.355l-0.482-0.285l-0.354,0.091l0.098,0.383l0.09,0.355l-0.384,0.098    l-0.354,0.09l0.09,0.354l0.098,0.384l-0.384,0.098l-0.384,0.099l-0.098-0.385l-0.354,0.091l-0.09-0.354l-0.09-0.354l-0.384,0.098    l-0.354,0.09l-0.384,0.099l0.09,0.354l-0.383,0.098l-0.355,0.091l0.09,0.354l0.098,0.385l-0.383,0.098l-0.098-0.385l-0.355,0.091    l-0.383,0.098l-0.09-0.354l-0.294,0.452l-0.444-0.264l-0.384,0.098l-0.354,0.091l-0.355,0.09l-0.09-0.354l-0.414,0.105l0.09,0.354    l0.09,0.354l-0.354,0.09l-0.09-0.354l-0.09-0.355l-0.384,0.099l-0.354,0.09l0.256-0.474l-0.098-0.384l-0.354,0.09l-0.354,0.09    l-0.414,0.105l-0.098-0.384l0.413-0.105l-0.09-0.354l-0.414,0.105l-0.354,0.09l-0.09-0.354l-0.098-0.385l-0.383,0.098    l-0.354,0.091l0.098,0.384l-0.383,0.099l-0.384,0.098l-0.354,0.09l-0.384,0.098l-0.098-0.384l-0.098-0.384l0.384-0.099    l-0.098-0.383l-0.475-0.257l0.384-0.099l-0.09-0.354l-0.384,0.098l-0.098-0.383l0.384-0.098l-0.098-0.385l-0.482-0.286    l-0.09-0.354l-0.354,0.09l-0.354,0.091l-0.383,0.098l-0.091-0.355l-0.105-0.413l-0.09-0.354l-0.098-0.384l-0.287,0.481    l-0.383,0.098l-0.098-0.384l-0.354,0.091l-0.091-0.354l-0.09-0.355l-0.105-0.412l-0.354,0.09l-0.09-0.354l-0.414,0.105    l-0.098-0.385l-0.354,0.091l-0.09-0.354l0.354-0.09l-0.09-0.355l-0.098-0.384l-0.354,0.09l-0.098-0.384l0.354-0.09l-0.098-0.384    l-0.09-0.354l-0.354,0.09l-0.09-0.354l-0.105-0.414l0.354-0.09l-0.09-0.354l-0.098-0.385l0.414-0.105l0.098,0.385l0.354-0.091    l-0.098-0.384l0.355-0.091l-0.09-0.354l-0.355,0.09l-0.354,0.091l-0.098-0.385l0.354-0.09L225.6,397.3l-0.09-0.354l-0.354,0.091    l-0.098-0.385l-0.09-0.354l-0.414,0.105l-0.098-0.385l-0.098-0.383l-0.09-0.355l-0.098-0.384l-0.09-0.354l-0.098-0.385    l-0.354,0.091l-0.098-0.385l0.354-0.09l-0.09-0.354l-0.354,0.091l-0.098-0.385l-0.098-0.384l-0.09-0.354l-0.098-0.384    l-0.091-0.354l-0.098-0.385l-0.384,0.099l-0.09-0.354l-0.098-0.384l-0.354,0.09l-0.098-0.384l-0.355,0.09l-0.414,0.105    l0.324-0.459l-0.098-0.385l-0.414,0.105l-0.09-0.354l-0.354,0.09l-0.098-0.383l0.354-0.09l-0.098-0.385l0.414-0.105l-0.09-0.354    l-0.414,0.105l-23.053,22.926l19.255,19.659l-0.009,12.302l-0.355,0.09l-0.383,0.098l-0.384,0.099l0.098,0.384l-0.354,0.091    l-0.384,0.098l-0.354,0.09l-0.098-0.384l-0.414,0.105l-0.354,0.09l-0.354,0.091l-0.383,0.098l-0.355,0.09l-0.315,0.49l-0.354,0.09    l0.09,0.355l-0.354,0.09l0.09,0.354l-0.384,0.099l0.105,0.413l0.09,0.354l0.384-0.098l0.098,0.385l-0.384,0.098l0.09,0.354    l0.09,0.355l-0.354,0.09l0.105,0.413l0.354-0.09l0.09,0.354l0.098,0.384l-0.354,0.09l-0.384,0.099l0.091,0.354l0.098,0.383    l0.384-0.098l0.098,0.385l0.09,0.354l0.354-0.09l0.482,0.286l0.354-0.091l0.09,0.354l0.098,0.384l0.098,0.385l0.354-0.091    l0.09,0.354l0.098,0.384l0.512,0.279l0.09,0.354l-0.414,0.105l0.098,0.384l-0.354,0.091l-0.354,0.09l0.09,0.354l0.098,0.385    l-0.384,0.098l0.09,0.354l-0.354,0.09l0.098,0.384l0.098,0.385l-0.384,0.098l-0.098-0.384l-0.384,0.098l-0.354,0.09l0.098,0.385    l0.09,0.354l-0.384,0.098l0.098,0.385l0.09,0.354l0.098,0.384l0.098,0.384l0.09,0.354l0.384-0.098l0.098,0.384l0.09,0.354    l0.098,0.384l0.098,0.385l0.444,0.264l-0.354,0.09l0.098,0.385l0.452,0.294l0.384-0.099l0.09,0.354l0.384-0.098l0.098,0.384    l0.354-0.09l0.384-0.099l-0.098-0.384l0.354-0.09l0.098,0.384l0.354-0.09l0.663,2.599l3.388,2.313l0.286,1.122l1.123-0.286    l1.853,1.102l0.286,1.122l2.523,2.125l1.859-0.474l2.591,0.912l2.741,4.461l21.961-21.044l-0.007-17.048l12.689-0.057l0.159-0.858    l4.104-1.046l0.934,0.58l12.049-11.817l0.708-0.181l9.157,0.025l-0.066-6.306l19.745-0.251l-0.023-6.38l37.405-0.79l-0.09-0.354    l-0.105-0.414l-0.09-0.354l-0.475-0.257l0.384-0.098l-0.098-0.385l-0.091-0.354l-0.105-0.414l-0.09-0.354l0.264-0.444    l-0.099-0.384l-0.09-0.355l-0.098-0.383l-0.098-0.384l-0.354,0.09l-0.091-0.354l-0.098-0.384l-0.09-0.354l-0.098-0.385    l-0.099-0.384l0.354-0.09l0.384-0.099l0.098,0.385l0.385-0.099l0.256-0.474l0.384-0.099l-0.09-0.354l-0.098-0.385l-0.091-0.354    l0.354-0.09l-0.104-0.413l-0.354,0.091l-0.09-0.355l0.354-0.09l-0.09-0.355l-0.354,0.091l-0.098-0.384l0.354-0.09l-0.098-0.384    l0.414-0.105l-0.099-0.385l-0.09-0.354l-0.091-0.354l-0.098-0.384l-0.09-0.354l-0.105-0.414l-0.091-0.354l-0.413,0.105    l-0.091-0.355l-0.098-0.383l-0.098-0.385l-0.099-0.384l-0.09-0.354l-0.091-0.355l-0.098-0.384l-0.098-0.385l-0.354,0.091    l-0.099-0.384l-0.384,0.099l-0.091-0.355l0.294-0.451l-0.384,0.098l0.286-0.482l-0.384,0.098l-0.099-0.384l-0.098-0.384    l-0.09-0.354l-0.354,0.091l-0.09-0.355l-0.098-0.384l0.354-0.091l0.384-0.098l-0.098-0.383l-0.384,0.098l-0.098-0.385    l-0.091-0.354l-0.354,0.09l-0.091-0.354l0.354-0.09l-0.099-0.385l-0.098-0.384l-0.098-0.385l-0.091-0.354l-0.354,0.09    l-0.091-0.354l-0.489-0.315l0.384-0.098l-0.474-0.257l0.384-0.098l0.354-0.09l-0.098-0.385l-0.354,0.091l-0.091-0.355l0.354-0.09    l-0.444-0.264l-0.099-0.385l-0.098-0.384l-0.384,0.098l-0.385,0.099l-0.354,0.09l-0.384,0.098l-0.099-0.384l-0.09-0.354    l-0.354,0.091l-0.445-0.265l-0.098-0.384l-0.098-0.384l-0.412,0.105l-0.099-0.385l-0.354,0.091l-0.091-0.354l-0.383,0.098    l-0.354,0.09l-0.091-0.354l-0.354,0.09l-0.099-0.384l-0.098-0.385l-0.098-0.384l-0.385,0.098l-0.09-0.354l-0.383,0.098    l-0.385,0.098l-0.354,0.091l-0.091-0.355l-0.354,0.091l-0.384,0.098l-0.098-0.384l0.384-0.098l-0.099-0.384l-0.383,0.098    l-0.384,0.098l-0.385,0.099l-0.098-0.385l-0.091-0.354l-0.09-0.354l-0.098-0.384l-0.354,0.09l0.098,0.385l-0.354,0.09    l-0.098-0.384l-0.385,0.098l-0.098-0.384l-0.384,0.098l-0.384,0.098l-0.354,0.091l-0.354,0.09l-0.384,0.098l-0.098-0.383    l-0.383,0.098l-0.385,0.098l-0.091-0.354l-0.09-0.355l-0.098-0.383l-0.354,0.09l-0.098-0.384l-0.098-0.385l-0.091-0.354    l0.264-0.445l-0.105-0.413l-0.09-0.355l0.384-0.098l-0.098-0.383l-0.475-0.257l-0.091-0.355l-0.104-0.412l-0.354,0.09l-0.09-0.354    l0.354-0.091l-0.098-0.384l-0.091-0.354l-0.09-0.354l-0.098-0.384l-0.099-0.385l-0.098-0.383l-0.09-0.355l0.384-0.098l-0.09-0.354    l0.383-0.098l0.279-0.512l0.263-0.445l-0.098-0.384l-0.09-0.354l-0.354,0.091l-0.098-0.385l-0.098-0.384l-0.091-0.354    l-0.098-0.384l-0.091-0.354l-0.384,0.098l-0.098-0.384l-0.098-0.384l-0.091-0.354l-0.383,0.098l-0.099-0.385l-0.09-0.354    l-0.482-0.286l-0.098-0.385l-0.09-0.354l-0.354,0.09l-0.354,0.091l-0.293,0.451l-0.385,0.099l-0.286,0.481l-0.098-0.384    l-0.09-0.354l-0.354,0.09l-0.098-0.385l-0.098-0.384l-0.354,0.09l-0.475-0.256l-0.384,0.099l-0.098-0.385l-0.384,0.098    l-0.09-0.354l-0.099-0.385l-0.09-0.354l0.383-0.098l-0.098-0.384l0.384-0.099l0.385-0.098l-0.098-0.384l-0.091-0.354l-0.098-0.384    l-0.091-0.355l-0.384,0.099l0.286-0.481l-0.384,0.098l-0.098-0.384l-0.091-0.355l-0.098-0.384l-0.091-0.354l0.385-0.099    l-0.099-0.384l0.354-0.091l-0.098-0.384l-0.091-0.354l-0.098-0.385l0.354-0.09l0.385-0.098l0.384-0.099l-0.098-0.384l0.383-0.098    l-0.09-0.354l0.257-0.475l-0.091-0.354l-0.098-0.383l-0.354,0.09l0.265-0.445l-0.355,0.091l-0.48-0.287l-0.099-0.384l-0.09-0.354    l-0.482-0.287l-0.09-0.354l-0.098-0.384l-0.482-0.287l-0.444-0.264l-0.354,0.09l-0.384,0.098l-0.384,0.098l0.09,0.355    l-0.383,0.098l-0.355,0.09l-0.09-0.354l-0.354,0.09l-0.293,0.453l-0.384,0.098l-0.09-0.354l-0.098-0.384l-0.091-0.354    l-0.098-0.384l-0.098-0.383l-0.091-0.355l-0.384,0.098l-0.099-0.384l-0.354,0.09l-0.453-0.294l-0.09-0.354l-0.098-0.384    l-0.091-0.354l-0.383,0.098l-0.385,0.098l-0.098-0.384l-0.091-0.354l-0.098-0.384l-0.383,0.098l-0.098-0.383l-0.091-0.355    l-0.098-0.384l-0.355,0.091l-0.354,0.09l-0.482-0.285l-0.09-0.355l-0.384,0.098l0.286-0.482l-0.384,0.098l-0.09-0.354    l-0.385,0.098l-0.354,0.09l-0.265,0.444l-0.384,0.098l-0.09-0.354l-0.384,0.098l-0.099-0.384l-0.384,0.098l-0.098-0.384    l-0.354,0.09l-0.444-0.265l-0.098-0.383l-0.384,0.098l-0.091-0.355l-0.452-0.294L311.973,346.344z" />
</svg>