<svg xmlns="http://www.w3.org/2000/svg" xmlns:xlink="http://www.w3.org/1999/xlink" x="0px" y="0px" width="620.843px"
    height="733.026px" viewBox="-32 36 130 130">

    <style xmlns="http://www.w3.org/2000/svg">
        svg {
            filter: drop-shadow(2px 3px 0px rgb(176 136 98 / 1));
        }
    </style>


    <path id="humboldt" fill="#218c74" stroke-width="0.5" stroke="#264653" stroke-miterlimit="1"
        d="    M22.917,41.788l0.226,7.051L19.307,63.28l-1.295,4.294l0.211,5.514l0.919,2.125l-0.528,4.098l-5.249,10.492l-0.912,2.592    l-0.738,1.792l0.188,0.739l0.098,0.383l1.664-1.242l2.32-3.36l0.452-1.311l0.166-0.828l0.384-0.098l1.574,0.007l0.956,0.543    l0.542,0.647l0.098,0.384l-0.55,0.926l-0.994,0.663l-0.293,0.453l-1.378,0.76l-1.053,0.678l-0.354,0.09l-0.648,0.543l-0.481,1.318    l-0.807,1.401l-0.264,0.444l-0.218,0.874l-0.332,1.658l-0.481,1.318l-0.648,0.542l-0.926-0.55l-0.542-0.647l-0.188-0.739    l0.641-0.571l0.716-1.756l0.286-0.482l-0.09-0.354l-0.098-0.384l-0.384,0.098l-0.384,0.098l-0.806,1.401l0.09,0.354l-3.509,6.462    l0.188,0.739l-0.738,0.188l-0.151,0.762l0.029-0.007l0.015,0.059l-2.643,5.423l-2.681,8.232l2.658,8.823l-0.527,5.702    l11.054,10.677l2.779,1.651l1.303,2.027l0.316,4.323l1.95-0.119l0.858,1.763l0.708-0.181l26.462,1.182l1.011-24.039l1.319-32.076    l-0.09-0.354l-0.098-0.384l-0.09-0.355l-0.098-0.384l-0.098-0.383l-0.091-0.354l0.257-0.475l-0.09-0.354l-0.098-0.384l0.383-0.098    l-0.481-0.287l-0.09-0.354l-0.098-0.384l-0.354,0.091l-0.03,0.007l0.015-0.066l-0.09-0.354l-0.091-0.355l0.355-0.09l0.09,0.354    l0.383-0.098l-0.09-0.354l-0.105-0.414l0.384-0.098l-0.09-0.354l-0.384,0.098l-0.098-0.384l-0.09-0.355l-0.383,0.098l0.293-0.452    l0.286-0.482l-0.098-0.384l-0.098-0.383l-0.091-0.354l-0.384,0.098l-0.09-0.355l-0.098-0.383l0.384-0.098l-0.098-0.384    l-0.384,0.098l-0.383,0.098l-0.098-0.384l0.383-0.098l-0.09-0.354l-0.09-0.355l-0.293,0.453l-0.09-0.355l-0.098-0.384    l-0.098-0.384l-0.355,0.09l0.257-0.474l-0.09-0.355l-0.355,0.09l-0.09-0.354l-0.098-0.384l0.354-0.091l-0.098-0.384l-0.098-0.384    l-0.355,0.09l-0.09-0.354l-0.091-0.355l0.355-0.09l-0.098-0.384l-0.083-0.325l-0.355,0.091l-0.098-0.384l0.355-0.09l0.083,0.325    l0.383-0.098l0.384-0.098l0.354-0.09l0.098,0.383l0.384-0.098l0.384-0.098l-0.098-0.383l0.354-0.09l0.384-0.098l-0.098-0.384    l0.263-0.445l0.384-0.098l0.354-0.09l0.09,0.355l0.098,0.384l0.384-0.098l0.098,0.383l0.098,0.384l0.091,0.354l0.383-0.098    l-0.091-0.355l0.355-0.09l0.09,0.355l0.09,0.354l0.383-0.098l0.098,0.384l0.098,0.384l0.355-0.09l0.481,0.287l0.384-0.098    l0.444,0.264l0.384-0.098l-0.09-0.354l-0.098-0.384l0.354-0.09l-0.098-0.384l0.354-0.091l-0.098-0.384l0.414-0.105l0.354-0.09    l0.384-0.098l0.354-0.09l-0.09-0.354l0.384-0.098l-0.09-0.355l-0.098-0.384l-0.384,0.098l-0.098-0.383l0.384-0.098l-0.098-0.384    l0.383-0.098l0.354-0.09l-0.09-0.355l0.383-0.098l-0.09-0.354l0.355-0.09l-0.098-0.384l0.292-0.453l-0.105-0.414l-0.09-0.354    l0.384-0.098l0.264-0.445l0.09,0.355l0.384-0.098l0.354-0.09l-0.09-0.355l-0.098-0.384l-0.09-0.354l-0.105-0.414l-0.09-0.355    l-0.354,0.09l-0.09-0.354l-0.098-0.384l-0.098-0.384l-0.098-0.384l0.354-0.09l-0.09-0.354l-0.354,0.09l-0.09-0.355l-0.384,0.098    l-0.354,0.09l-0.098-0.384l-0.475-0.256l-0.383,0.098l-0.098-0.384l0.383-0.098l-0.098-0.384l-0.383,0.098l0.293-0.452    l-0.098-0.384l-0.091-0.355l0.384-0.098l0.444,0.265l0.384-0.098l-0.09-0.354l0.354-0.09l-0.098-0.383l0.354-0.09l-0.098-0.384    l-0.09-0.355l0.414-0.105l-0.098-0.383l0.354-0.09l-0.09-0.354l-0.098-0.384l-0.098-0.384l0.294-0.452l-0.098-0.384l-0.09-0.355    l-0.098-0.383l-0.098-0.384l0.354-0.09l0.294-0.453l0.474,0.257l-0.09-0.355l0.355-0.09l-0.098-0.383l0.383-0.098l-0.09-0.355    l-0.098-0.384l-0.09-0.354l-0.098-0.384l-0.098-0.384l-0.383,0.098l-0.09-0.354l-0.355,0.09l0.257-0.475l-0.355,0.09l-0.09-0.354    l-0.098-0.384l-0.098-0.383l-0.09-0.355l-0.098-0.384l-0.383,0.098l-0.09-0.354l-0.384,0.098l-0.098-0.384l0.384-0.098    l-0.098-0.384l0.383-0.098l0.265-0.445l-0.098-0.384l0.383-0.098l-0.09-0.354l-0.09-0.354l-0.105-0.414l-0.091-0.354l-0.383,0.098    l-0.098-0.384L56.6,57.36l-0.09-0.354l0.355-0.09l0.383-0.098l-0.098-0.384l-0.098-0.384l-0.098-0.384l-0.09-0.354l-0.09-0.354    l-0.098-0.384l-0.383,0.098l-0.098-0.384l-0.098-0.384l-0.354,0.09l0.264-0.445l-0.09-0.354L55.81,52.78l-0.09-0.354l-0.098-0.384    l0.383-0.098l-0.09-0.354l0.265-0.445l-0.098-0.384l-0.098-0.384l-0.355,0.09l-0.098-0.384l-0.383,0.098l-0.09-0.354l-0.354,0.091    l-0.098-0.384l-0.768,0.195l-0.354,0.09l-0.482-0.286l-0.767,0.196l-0.445-0.264l-0.354,0.09l-0.384,0.098l-0.836-0.196    l-0.829-0.167l-0.383,0.098l-0.354,0.091L47.79,49.32l-0.354,0.09l-0.384,0.098l-0.459-0.323l-0.384,0.098l-0.384,0.098    l-0.354,0.09l-6.055-0.438l0.347-6.412l-16.756-0.479L22.917,41.788z" />
</svg>