<svg xmlns="http://www.w3.org/2000/svg" xmlns:xlink="http://www.w3.org/1999/xlink" x="0px" y="0px" width="620.843px"
    height="733.026px" viewBox="510 652 80 80">

    <style xmlns="http://www.w3.org/2000/svg">
        svg {
            filter: drop-shadow(2px 3px 0px rgb(176 136 98 / 1));
        }
    </style>


    <polyline id="imperial" fill="#218c74" stroke-width="0.5" stroke="#264653" stroke-miterlimit="1"
        points="501.057,662.151 593.26,657.292     593.352,657.652 592.987,657.745 593.086,658.135 592.702,658.233 592.169,659.168 591.419,659.359 590.937,659.072     587.987,661.417 588.936,665.143 591.202,670.899 591.209,674.06 591.392,676.406 591.126,676.868 591.148,678.455     591.242,678.82 590.769,680.118 590.384,680.215 590.125,680.703 589.957,681.54 589.751,682.364 589.485,682.842     589.579,683.208 589.676,683.592 589.385,684.061 589.861,684.317 591.832,687.395 592.86,688.32 595.277,688.498     596.114,688.667 596.478,688.575 596.863,688.476 597.328,688.775 597.613,688.286 597.971,688.194 597.879,687.834     598.245,687.742 598.629,687.643 600.679,687.92 601.043,687.828 601.433,687.728 601.526,688.093 601.886,688.001     601.984,688.386 605.334,692.267 605.432,692.652 605.855,697.313 605.946,697.672 606.037,699.631 605.85,702.049     605.589,702.531 604.281,703.659 602.357,708.505 602.447,708.861 601.797,709.443 599.022,710.949 596.794,711.517     593.537,711.132 593.152,711.23 592.312,711.066 591.854,710.793 591.756,710.409 591.396,710.5 591.11,710.984 590.838,711.442     590.279,712.378 501.837,724.209 500.82,689.474 502.263,689.187 501.057,662.151   " />
</svg>