<svg xmlns="http://www.w3.org/2000/svg" xmlns:xlink="http://www.w3.org/1999/xlink" x="0px" y="0px" width="620.843px"
    height="733.026px" viewBox="336 338 180 180">

    <style xmlns="http://www.w3.org/2000/svg">
        svg {
            filter: drop-shadow(2px 3px 0px rgb(176 136 98 / 1));
        }
    </style>


    <path id="inyo" fill="#218c74" stroke-width="0.5" stroke="#264653" stroke-miterlimit="1"
        d="M327.033,355.59l0.099,0.384l0.48,0.287    l0.355-0.091l-0.265,0.445l0.354-0.09l0.098,0.383l0.091,0.354l-0.257,0.475l0.09,0.354l-0.383,0.098l0.098,0.384l-0.384,0.099    l-0.385,0.098l-0.354,0.09l0.098,0.385l0.091,0.354l0.098,0.384l-0.354,0.091l0.099,0.384l-0.385,0.099l0.091,0.354l0.098,0.384    l0.091,0.355l0.098,0.384l0.384-0.098l-0.286,0.481l0.384-0.099l0.091,0.355l0.098,0.384l0.091,0.354l0.098,0.384l-0.385,0.098    l-0.384,0.099l0.098,0.384l-0.383,0.098l0.09,0.354l0.099,0.385l0.09,0.354l0.384-0.098l0.098,0.385l0.384-0.099l0.475,0.256    l0.354-0.09l0.098,0.384l0.098,0.385l0.354-0.09l0.09,0.354l0.098,0.384l0.286-0.481l0.385-0.099l0.293-0.451l0.354-0.091    l0.354-0.09l0.09,0.354l0.098,0.385l0.482,0.286l0.09,0.354l0.099,0.385l0.383-0.098l0.091,0.354l0.098,0.384l0.098,0.384    l0.384-0.098l0.091,0.354l0.098,0.384l0.091,0.354l0.098,0.384l0.098,0.385l0.354-0.091l0.09,0.354l0.098,0.384l-0.263,0.445    l-0.279,0.512l-0.383,0.098l0.09,0.354l-0.384,0.098l0.09,0.355l0.098,0.383l0.099,0.385l0.098,0.384l0.09,0.354l0.091,0.354    l0.098,0.384l-0.354,0.091l0.09,0.354l0.354-0.09l0.105,0.413l0.091,0.355l0.475,0.257l0.098,0.383l-0.384,0.098l0.09,0.355    l0.105,0.413l-0.264,0.445l0.091,0.354l0.098,0.385l0.098,0.384l0.354-0.09l0.098,0.383l0.09,0.355l0.091,0.354l0.385-0.098    l0.383-0.098l0.098,0.383l0.384-0.098l0.354-0.09l0.354-0.091l0.384-0.098l0.384-0.098l0.098,0.384l0.385-0.098l0.098,0.384    l0.354-0.09l-0.098-0.385l0.354-0.09l0.098,0.384l0.09,0.354l0.091,0.354l0.098,0.385l0.385-0.099l0.384-0.098l0.383-0.098    l0.099,0.384l-0.384,0.098l0.098,0.384l0.384-0.098l0.354-0.091l0.091,0.355l0.354-0.091l0.385-0.098l0.383-0.098l0.09,0.354    l0.385-0.098l0.098,0.384l0.098,0.385l0.099,0.384l0.354-0.09l0.091,0.354l0.354-0.09l0.383-0.098l0.091,0.354l0.354-0.091    l0.099,0.385l0.412-0.105l0.098,0.384l0.098,0.384l0.445,0.265l0.354-0.091l0.09,0.354l0.099,0.384l0.384-0.098l0.354-0.09    l0.385-0.099l0.384-0.098l0.098,0.384l0.099,0.385l0.444,0.264l-0.354,0.09l0.091,0.355l0.354-0.091l0.098,0.385l-0.354,0.09    l-0.384,0.098l0.474,0.257l-0.384,0.098l0.489,0.315l0.091,0.354l0.354-0.09l0.091,0.354l0.098,0.385l0.098,0.384l0.099,0.385    l-0.354,0.09l0.091,0.354l0.354-0.09l0.091,0.354l0.098,0.385l0.384-0.098l0.098,0.383l-0.384,0.098l-0.354,0.091l0.098,0.384    l0.09,0.355l0.354-0.091l0.09,0.354l0.098,0.384l0.099,0.384l0.384-0.098l-0.286,0.482l0.384-0.098l-0.294,0.451l0.091,0.355    l0.384-0.099l0.099,0.384l0.354-0.091l0.098,0.385l0.098,0.384l0.091,0.355l0.09,0.354l0.099,0.384l0.098,0.385l0.098,0.383    l0.091,0.355l0.413-0.105l0.091,0.354l0.105,0.414l0.09,0.354l0.098,0.384l0.091,0.354l0.09,0.354l0.099,0.385l-0.414,0.105    l0.098,0.384l-0.354,0.09l0.098,0.384l0.354-0.091l0.09,0.355l-0.354,0.09l0.09,0.355l0.354-0.091l0.104,0.413l-0.354,0.09    l0.091,0.354l0.098,0.385l0.09,0.354l-0.384,0.099l-0.256,0.474l-0.385,0.099l-0.098-0.385l-0.384,0.099l-0.354,0.09l0.099,0.384    l0.098,0.385l0.09,0.354l0.098,0.384l0.091,0.354l0.354-0.09l0.098,0.384l0.098,0.383l0.09,0.355l0.099,0.384l-0.264,0.444    l0.09,0.354l0.105,0.414l0.091,0.354l0.098,0.385l0.091,0.354l0.09,0.354l0.105,0.414l0.09,0.354l0.837,0.196l0.564,0.611    l0.67,2.629l-0.769,0.195l0.099,0.385l-0.738,0.188l-0.264,0.444l0.934,0.58l0.188,0.738l0.738-0.188l0.188,0.738l-0.738,0.188    l0.099,0.384l0.927,0.551l0.376,1.477l0.927,0.551l0.098,0.384l0.098,0.384l1.43,0.8l0.099,0.384l-0.315,0.489l-0.354,0.091    l-0.55,0.926l0.377,1.478l0.934,0.579l0.768-0.195l0.188,0.738l0.354-0.091l0.376,1.478l0.453,0.294l0.286,1.122l-0.355,0.091    l0.279,1.093l-0.768,0.195l0.195,0.768l0.414-0.105l0.188,0.739l0.896,0.558l0.098,0.384l0.384-0.098l0.376,1.478l-0.383,0.098    l0.188,0.738l0.738-0.188l0.099,0.384l2.627-0.669l0.188,0.738l0.453,0.293l0.383-0.098l0.188,0.738l-0.383,0.098l0.188,0.739    l-1.122,0.286l-0.256,0.474l0.09,0.354l0.354-0.09l0.188,0.738l0.384-0.099l0.196,0.769l0.383-0.098l0.354-0.091l0.475,1.861    l1.121-0.286l0.475,1.861l-1.121,0.286l0.278,1.093l-0.738,0.188l0.098,0.384l-0.384,0.098l0.286,1.123l-0.354,0.091l0.09,0.354    l0.354-0.09l0.385,1.507l-0.354,0.09l0.196,0.769l0.354-0.091l0.475,1.86l-0.354,0.091l0.279,1.093l0.354-0.09l0.098,0.384    l0.482,0.285l0.09,0.355l0.475,0.257l0.354-0.091l0.384,1.507l0.384-0.098l0.09,0.354l0.354-0.09l0.099,0.384l-0.355,0.091    l0.377,1.476l-0.384,0.099l-0.354,0.09l0.098,0.385l-0.383,0.098l0.098,0.384l0.098,0.384l0.09,0.354l0.091,0.354l0.098,0.385    l0.098,0.383l-0.286,0.482l0.385-0.098l0.09,0.354l-0.384,0.098l0.09,0.354l0.099,0.384l0.098,0.384l0.286-0.481l0.098,0.384    l0.384-0.098l0.098,0.385l0.09,0.354l0.091,0.354l-0.383,0.098l0.098,0.385l0.098,0.383l0.098,0.385l0.091,0.354l0.09,0.354    l0.098,0.385l0.099,0.384l0.098,0.385l0.09,0.354l0.384-0.098l-0.293,0.452l0.383-0.098l0.099,0.385l-0.384,0.098l0.098,0.383    l0.099,0.385l0.09,0.354l0.384-0.098l0.444,0.264l0.384-0.098l0.098,0.384l0.098,0.385l0.099,0.384l0.354-0.09l-0.265,0.444    l0.355-0.091l-0.265,0.445l-0.384,0.098l0.105,0.413l0.091,0.354l-0.355,0.09l0.099,0.385l-0.384,0.098l0.091,0.354l0.09,0.354    l0.384-0.098l0.104,0.413l0.355-0.09l0.09,0.354l0.384-0.098l0.354-0.091l0.099,0.385l0.09,0.354l0.091,0.354l0.105,0.414    l0.09,0.354l-0.354,0.091l0.098,0.384l0.09,0.355l0.098,0.383l-0.285,0.482l0.474,0.257l0.098,0.383l-0.383,0.098l0.091,0.355    l-0.355,0.09l0.098,0.385l0.453,0.294l0.091,0.354l0.098,0.385l-0.355,0.09l-0.383,0.098l-0.098-0.384l-0.385,0.098l0.099,0.384    l-0.354,0.091l0.09,0.354l-0.384,0.099l0.091,0.354l0.105,0.413l0.09,0.355l0.098,0.383l-0.263,0.445l0.098,0.384l0.354-0.09    l0.098,0.383l-0.354,0.091l0.09,0.354l-0.384,0.099l0.098,0.384l0.091,0.354l-0.384,0.098l0.481,0.287l-0.285,0.481l0.09,0.354    l5.226,0.272l0.098-1.221l17.78-0.19l116.756-3.181l-0.278-1.093l5.407-0.622L383.792,354.618L327.033,355.59z" />
</svg>