<svg xmlns="http://www.w3.org/2000/svg" xmlns:xlink="http://www.w3.org/1999/xlink" x="0px" y="0px" width="620.843px"
    height="733.026px" viewBox="265 470 112 112">

    <style xmlns="http://www.w3.org/2000/svg">
        svg {
            filter: drop-shadow(2px 3px 0px rgb(176 136 98 / 1));
        }
    </style>


    <polyline id="kern" fill="#218c74" stroke-width="0.5" stroke="#264653" stroke-miterlimit="1"
        points="241.193,484.945 380.796,484.25     380.902,483.036 398.677,482.862 398.792,489.576 397.684,489.858 397.489,490.703 397.773,491.817 398.604,491.989     399.358,491.796 399.823,492.093 400.106,493.204 399.741,493.296 398.826,494.335 400.334,557.774 321.993,559.515     322.559,561.741 321.717,561.568 319.284,561.389 318.174,561.671 317.716,561.378 316.603,561.662 316.586,560.095     300.668,559.774 300.211,559.506 299.927,558.391 300.103,557.552 299.818,556.437 298.709,556.719 297.857,556.527     297.764,556.163 298.037,555.708 297.846,554.964 297.023,554.757 296.638,554.856 295.791,554.683 294.322,555.057     294.229,554.693 292.736,555.074 291.883,554.879 291.524,554.971 291.149,553.501 290.691,553.208 290.301,553.308     288.349,553.412 288.25,553.025 286.777,553.401 286.301,553.139 285.551,553.331 285.679,539.805 284.473,539.729     284.554,538.521 280.281,538.811 280.438,531.639 273.46,532.229 273.709,525.421 264.95,525.263 264.809,518.577 260.444,518.48     260.334,511.787 253.234,512.002 252.95,510.888 253.339,510.789 253.149,510.043 248.759,505.212 247.526,505.138     247.771,498.332 241.09,498.437 241.193,484.945   " />
</svg>