<svg xmlns="http://www.w3.org/2000/svg" xmlns:xlink="http://www.w3.org/1999/xlink" x="0px" y="0px" width="620.843px"
    height="733.026px" viewBox="50 188 80 80">

    <style xmlns="http://www.w3.org/2000/svg">
        svg {
            filter: drop-shadow(2px 3px 0px rgb(176 136 98 / 1));
        }
    </style>


    <path id="lake" fill="#218c74" stroke-width="0.5" stroke="#264653" stroke-miterlimit="1"
        d="M85.164,189.653l0.098,0.384l0.098,0.383    l-0.292,0.453l0.09,0.354l0.098,0.384l-0.355,0.09l0.098,0.384l-0.195,0.836l0.091,0.355l0.098,0.384l-0.482-0.286l-0.354,0.09    l-1.213-0.069l-0.738,0.188l-0.294,0.453l0.098,0.384l-0.738,0.188l-0.481-0.287l-0.738,0.188l-0.445-0.264l-1.212-0.068    l-0.738,0.188l-0.098-0.384l-0.384,0.098l-0.354,0.09l0.098,0.384l0.09,0.354l-0.859-0.158l-0.354,0.09l0.09,0.354l-0.384,0.098    l-0.828-0.166l0.09,0.354l-0.293,0.452l0.12,1.951l-0.09,1.25l-0.384,0.098l-0.354,0.09l0.278,1.093l-0.384,0.098l0.286,1.122    l-0.354,0.09l0.188,0.738l0.452,0.294l0.384-0.098l0.098,0.384l0.181,0.709l-0.287,0.482l0.098,0.383l0.098,0.384l0.384-0.098    l0.09,0.355l-0.294,0.452l0.098,0.384l0.384-0.098l0.354-0.09l0.098,0.384l-0.256,0.474l0.09,0.354l0.09,0.355l-0.286,0.481    l0.098,0.384l0.738-0.188l-0.166,0.829l0.09,0.354l0.354-0.09l0.098,0.384l-0.256,0.475l0.098,0.383l0.09,0.354l-0.196,0.836    l0.098,0.384l0.098,0.384l0.09,0.355l0.738-0.188l-0.159,0.857l0.091,0.355l0.098,0.383l0.09,0.355l0.354-0.09l0.098,0.384    l-0.256,0.474l0.188,0.738l-0.384,0.098l-0.452-0.294l-0.384,0.098l-0.166,0.828l0.098,0.384l-0.384,0.098l0.098,0.384    l-0.383,0.098l0.091,0.355l-0.355,0.09l0.098,0.383l-0.383,0.098l0.09,0.355l-0.355,0.09l-0.188,0.865l-0.384,0.098l0.188,0.739    l-0.452-0.294l-0.384,0.098l-1.213-0.069l0.188,0.739l-0.166,0.828l0.098,0.384l0.09,0.354l-0.287,0.482l-0.354,0.09l-0.384,0.098    l0.188,0.739l-0.195,0.836l0.098,0.384l0.09,0.354l0.098,0.384l0.098,0.384l-0.354,0.091l-0.383,0.098l0.09,0.354l-0.257,0.475    l0.355-0.091l0.09,0.355l-0.257,0.474l0.836,0.196l-0.293,0.453l0.383-0.098l0.836,0.196l0.09,0.354l-0.383,0.098l0.098,0.384    l0.098,0.384l0.383-0.098l-0.104,1.19l0.196,0.768l0.09,0.355l0.383-0.098l0.098,0.384l0.475,0.256l0.098,0.384l0.354-0.09    l0.098,0.384l0.09,0.354l-0.354,0.09l0.452,0.294l0.384-0.098l0.09,0.354l0.354-0.09l-0.09-0.355l0.384-0.098l0.475,0.257    l0.354-0.09l0.384-0.098l-0.286,0.481l0.098,0.384l0.09,0.354l0.384-0.098l0.188,0.738l-0.287,0.482l0.098,0.384l0.09,0.354    l0.098,0.384l-0.256,0.475l0.354-0.09l0.09,0.354l0.098,0.384l-0.263,0.445l0.354-0.09l0.482,0.285l-0.286,0.482l0.384-0.098    l0.444,0.265l0.098,0.383l-0.264,0.445l0.098,0.384l0.098,0.384l0.09,0.354l0.738-0.188l0.383-0.098l0.836,0.196l0.09,0.355    l0.355-0.091l0.865,0.188l-0.286,0.482l0.09,0.355l0.098,0.383l0.384-0.098l0.354-0.09l0.09,0.355l0.098,0.384l0.384-0.098    l0.354-0.09l0.482,0.285l-0.384,0.098l0.09,0.354l0.384-0.098l0.354-0.09l0.482,0.286l0.09,0.354l0.098,0.384l0.383-0.098    l0.354-0.09l0.098,0.384l0.09,0.354l0.098,0.383l0.383-0.098l0.09,0.355l0.098,0.384l0.355-0.091l0.383-0.098l0.098,0.383    l0.09,0.355l0.384-0.098l0.098,0.384l0.354-0.09l0.09,0.354l0.49,0.316l0.09,0.355l0.09,0.354l0.384-0.098l0.098,0.384l0.354-0.09    l0.09,0.355l0.105,0.414l0.09,0.354l-0.354,0.09l0.09,0.355l0.354-0.09l0.098,0.384l0.09,0.354l0.105,0.414l0.091,0.354    l0.384-0.098l0.09,0.354l0.098,0.384l0.09,0.354l0.105,0.414l0.354-0.09l0.09,0.354l0.091,0.355l0.098,0.384l0.09,0.354    l0.105,0.414l0.384-0.098l0.09,0.355l0.09,0.354l0.098,0.384l0.09,0.354l0.354-0.09l0.105,0.413l0.384-0.098l0.474,0.256    l-0.09-0.354l0.445,0.263l0.383-0.098l0.355-0.09l0.09,0.355l0.383-0.098l0.098,0.384l0.09,0.354l0.105,0.414l0.091,0.355    l0.09,0.354l0.482,0.286l0.098,0.384l-0.286,0.482l10.04-2.559l2.771-4.67l0.633-0.602l-0.279-1.093l0.354-0.09l0.481-1.318    l0.934,0.579l0.475-1.347l-0.376-1.478l-1.152-1.311l-0.09-0.354l0.67-0.58l-0.09-0.354l-0.09-0.354l-0.105-0.414l-0.414,0.105    l-0.09-0.355l-0.098-0.384l-0.09-0.354l-0.355,0.091l-0.09-0.355l-0.105-0.414l-0.09-0.354l0.355-0.09l-0.098-0.384l0.414-0.105    l-0.09-0.355l0.354-0.09l-0.098-0.383l0.384-0.098l1.19,0.105l0.384-0.098l0.383-0.098l0.799,0.174l0.384-0.098l-0.09-0.354    l-0.384,0.098l-0.098-0.383l-0.354,0.09l-0.098-0.384l-0.09-0.354l-0.355,0.09l-0.481-0.286l-0.09-0.355l-0.482-0.286    l-0.098-0.384l-0.384,0.098l-0.444-0.264l-0.098-0.384l-0.091-0.355l0.354-0.09l-0.098-0.383l-0.354,0.09l-0.098-0.384    l-0.09-0.355l-0.098-0.383l-0.091-0.355l0.354-0.09l-0.098-0.384l0.384-0.098l-0.098-0.383l-0.09-0.355l0.384-0.098l-0.098-0.384    l-0.09-0.354l-0.384,0.098l-0.384,0.098l-0.098-0.384l-0.354,0.09l-0.354,0.09l-0.098-0.384l-0.384,0.098l-0.09-0.355    l-0.098-0.383l-0.354,0.09l-0.09-0.354l-0.414,0.105l-0.098-0.384l-0.098-0.383l-0.09-0.355l-0.355,0.09l-0.098-0.384l-0.354,0.09    l-0.384,0.098l-0.09-0.354l-0.098-0.384l0.384-0.098l-0.098-0.384l-0.09-0.354l-0.098-0.384l0.354-0.09l-0.098-0.384l-0.09-0.354    l-0.098-0.383l0.354-0.091l-0.445-0.264l0.355-0.09l-0.098-0.384l-0.355,0.09l-0.098-0.383l-0.09-0.355l0.354-0.09l-0.098-0.384    l-0.355,0.091l-0.09-0.354l-0.098-0.384l0.354-0.09l-0.098-0.384l0.414-0.105l-0.09-0.354l0.354-0.09l0.384-0.098l0.354-0.09    l-0.098-0.384l-0.09-0.355l-0.098-0.384l-0.098-0.383l-0.09-0.355l0.354-0.09l0.384-0.098l-0.098-0.384l-0.384,0.098l-0.09-0.354    l-0.354,0.09l-0.354,0.09l-0.098-0.384l0.256-0.474l-0.354,0.09l-0.09-0.354l-0.098-0.384l-0.384,0.098l-0.09-0.355l-0.354,0.09    l-0.098-0.384l-0.098-0.383l0.354-0.09l-0.091-0.355l-0.354,0.09l-0.413,0.105l-0.098-0.384l-0.355,0.09l-0.354,0.09l0.098,0.384    l-0.482-0.287l-0.354,0.09l-0.414,0.105l-0.354,0.09l-0.355,0.09l-0.09-0.354l-0.098-0.384l-0.383,0.098l-0.384,0.098    l-0.098-0.384l-0.383,0.098l-0.355,0.09l-0.09-0.354l-0.354,0.09l-0.098-0.384l-0.384,0.098l-0.09-0.355l-0.354,0.09l-0.414,0.105    l-0.354,0.09l-0.355,0.09l0.091,0.355l-0.383,0.098l-0.091-0.355l-0.354,0.09l-0.383,0.098l-0.098-0.383l-0.098-0.384    l-0.475-0.257l-0.098-0.384l-0.09-0.354l-0.098-0.384l-0.354,0.09l-0.098-0.384l-0.09-0.354l-0.384,0.098l-0.098-0.384    l-0.354,0.09l-0.09-0.354l-0.098-0.383l-0.414,0.105l-0.098-0.384l-0.355,0.09l0.265-0.445l-0.355,0.09l-0.098-0.383l-0.354,0.09    l-0.09-0.355l-0.384,0.098l-0.098-0.384l-0.354,0.09l-0.098-0.384l-0.384,0.098l-0.09-0.354l0.384-0.098l-0.098-0.384l-0.09-0.354    l-0.384,0.098l-0.098-0.384l-0.098-0.384l-0.09-0.354l-0.383,0.098l-0.098-0.383l0.383-0.098l-0.091-0.355l-0.105-0.414    l0.384-0.098l-0.09-0.354l0.354-0.09l-0.091-0.355l-0.098-0.384l0.384-0.098l0.354-0.09l0.355-0.09l-0.098-0.384l0.413-0.105    l-0.098-0.383l0.354-0.09l-0.09-0.354l-0.09-0.355l-0.354,0.09l-0.098-0.383l-0.098-0.384l-0.414,0.105l-0.098-0.384l-0.257,0.475    l-0.354,0.09l-0.098-0.384l-0.09-0.354l-0.384,0.098l-0.091-0.355l1.688,0.325l0.354-0.09l0.738-0.188l-0.09-0.354l0.196-0.837    l-0.098-0.384l-0.098-0.383l-0.181-0.708l0.285-0.482l-0.196-0.769l0.355-0.09l-0.09-0.354l0.383-0.098l-0.09-0.355l0.257-0.475    l-0.098-0.383l-0.188-0.739l0.354-0.09l-0.09-0.354l-0.098-0.384l-0.098-0.384l0.315-0.489l-0.09-0.354l-0.091-0.355l-0.098-0.384    l-0.098-0.383l-0.098-0.384l0.22-5.184L85.164,189.653z" />
</svg>