<svg xmlns="http://www.w3.org/2000/svg" xmlns:xlink="http://www.w3.org/1999/xlink" x="0px" y="0px" width="620.843px"
    height="733.026px" viewBox="168 98 94 94">

    <style xmlns="http://www.w3.org/2000/svg">
        svg {
            filter: drop-shadow(2px 3px 0px rgb(176 136 98 / 1));
        }
    </style>


    <polyline id="lassen" fill="#218c74" stroke-width="0.5" stroke="#264653" stroke-miterlimit="1"
        points="178.193,68.389 254.045,69.295     253.857,181.938 253.015,181.764 252.939,182.971 245.386,182.91 245.301,180.949 246.41,180.666 246.579,179.825     246.487,179.464 246.963,179.727 247.045,178.523 247.409,178.43 247.316,178.066 247.602,177.582 247.51,177.222     247.678,176.375 247.396,175.27 247.501,174.055 247.763,173.578 247.479,172.462 247.751,172.01 247.468,170.9 247.662,170.052     247.563,169.661 248.312,169.47 248.22,169.11 248.202,167.517 247.746,167.25 247.553,166.494 247.461,166.134 247.636,165.295     247.543,164.931 246.793,165.122 246.429,165.215 246.694,164.731 246.602,164.372 246.238,164.464 246.138,164.074     245.663,163.817 245.57,163.453 245.206,163.545 245.106,163.155 245.014,162.795 244.265,162.986 244.556,162.501     244.463,162.136 244.372,161.776 243.981,161.875 243.882,161.485 243.691,160.735 243.599,160.375 243.24,160.467     243.315,159.26 242.207,159.542 242.38,158.699 242.288,158.339 242.383,157.106 241.999,157.204 241.634,157.296     241.714,156.088 241.908,155.244 241.984,154.038 241.892,153.677 241.148,153.867 240.784,153.96 239.935,153.761     239.575,153.853 239.483,153.492 239.56,152.291 239.461,151.9 239.101,151.992 238.711,152.092 238.526,151.366 238.167,151.458     237.417,151.648 237.058,151.74 236.211,151.546 235.369,151.373 234.619,151.563 234.255,151.656 234.156,151.271     234.064,150.911 233.705,151.002 233.227,150.735 233.128,150.35 232.764,150.443 232.379,150.541 232.286,150.176     231.922,150.269 232.188,149.791 232.095,149.426 231.73,149.52 231.371,149.611 230.891,149.354 230.79,148.96 230.43,149.052     230.24,148.306 230.508,147.854 229.765,148.044 229.671,147.679 229.956,147.19 229.572,147.288 229.208,147.381     228.756,147.113 228.658,146.728 228.268,146.827 228.374,145.612 227.532,145.444 227.701,144.602 227.248,144.328     226.134,144.612 225.944,143.867 226.209,143.383 225.368,143.215 225.562,142.366 225.083,142.099 224.724,142.191     224.334,142.29 224.236,141.905 224.533,141.44 224.441,141.081 224.051,141.18 223.692,141.271 223.233,140.973 223.501,140.521     223.142,140.613 222.294,140.419 222.201,140.054 221.36,139.885 220.61,140.076 220.613,138.477 219.022,138.499     218.923,138.109 217.813,138.392 217.988,137.548 217.622,137.641 216.874,137.832 216.782,137.472 216.69,137.112     216.331,137.203 216.231,136.813 216.139,136.453 214.541,136.445 213.792,136.636 212.95,136.467 212.586,136.56     212.133,136.287 212.035,135.902 211.651,136 211.198,135.726 210.809,135.825 210.449,135.917 209.986,135.625 209.601,135.723     209.699,136.108 209.792,136.473 209.433,136.565 209.141,137.049 208.679,136.757 208.319,136.849 207.935,136.947     207.761,137.79 207.952,138.54 208.044,138.9 206.844,138.822 206.936,139.183 206.546,139.282 205.796,139.473 205.628,140.315     205.264,140.408 204.97,140.866 204.611,140.958 204.71,141.349 204.32,141.448 203.961,141.54 203.597,141.632 203.403,142.479     203.495,142.84 203.327,143.682 203.61,144.792 203.22,144.892 203.128,144.532 202.404,144.717 202.496,145.076 202.111,145.174     201.751,145.266 200.546,145.19 200.162,145.288 200.062,144.897 199.97,144.538 200.256,144.055 199.872,144.153     199.507,144.246 199.03,143.979 199.223,143.13 198.022,143.053 197.633,143.152 195.968,142.777 195.777,142.027 194.94,141.856     194.55,141.956 193.727,141.75 193.81,140.547 193.716,140.182 193.351,140.275 192.509,140.08 192.718,125.372 177.259,125.35     178.193,68.389   " />
</svg>