<svg xmlns="http://www.w3.org/2000/svg" xmlns:xlink="http://www.w3.org/1999/xlink" x="0px" y="0px" width="620.843px"
    height="733.026px" viewBox="270 560 170 170">

    <style xmlns="http://www.w3.org/2000/svg">
        svg {
            filter: drop-shadow(2px 3px 0px rgb(176 136 98 / 1));
        }
    </style>


    <path id="los_angeles" fill="#218c74" stroke-width="0.5" stroke="#264653" stroke-miterlimit="1"
        d="M322.065,559.501l0.655,2.569    l0.459,0.323l3.396,8.635l0.377,1.478l1.498,2.794l0.188,0.738l0.926,2.155l0.377,1.477l1.242,3.27l0.354-0.09l0.286,1.122    l0.888,1.755l0.377,1.478l0.452,0.294l0.474,1.86l0.544,0.648l0.662,2.599l0.571,0.642l1.401,4.015l0.511,0.279l1.137,4.46    l-0.413,0.104l0.377,1.478l-1.093,0.278l-0.091-0.354l-1.121,0.286l0.091,0.354l-0.196,0.836l0.286,1.123l-0.354,0.091    l0.293,1.151l-0.265,0.444l0.384,1.507l-0.768,0.195l-0.104-0.413l-1.093,0.278l-0.474-0.257l-1.477,0.377l-0.098-0.385    l-1.506,0.384l-0.445-0.264l-1.15,0.293l-0.8-0.173l-1.062,0.647l0.091,0.354l-0.709,0.181l0.099,0.384l-1.152,0.294l0.091,0.354    l-0.354,0.091l-0.633,0.602l-0.354,0.09l-0.322,0.461l-0.354,0.09l-0.648,0.542l-1.023,0.67l-0.264,0.445l-0.633,0.602    l-1.031,0.641l-1.062,0.648l-0.167,0.828l0.105,0.413l-0.264,0.445l0.091,0.354l-0.286,0.481l6.25,1.207l2.516,2.096l1.197-1.47    l7.155-1.414l7.914-0.036l2.719,1.289l4.141,5.268l3.186,7.933l0.278,2.697l-1.1,1.853l-1.408,0.769l0.377,1.477l0.67,1.024    l0.481,0.287l3.231,0.34l1.151,1.312l2.236,1.002l1.19,0.105l0.58-0.934l0.158-0.859l-0.09-1.958l0.165-0.829l0.294-0.452    l0.641-0.572l1.604,0.001l0.738-0.188l0.443,0.264l0.286,1.122l0.482,0.286l1.378-0.76l3.555,1.485l0.738-0.188l0.286-0.482    l0.738-0.188l-0.099-0.385l0.293-0.451l-0.571-0.642l-0.098-0.384l0.383-0.098l-0.098-0.384l0.355-0.09l0.292-0.453l-0.098-0.384    l0.55-0.927l0.385-0.098l-0.099-0.384l0.738-0.188l-0.278-1.093l0.384-0.099l-0.195-0.767l0.354-0.091l-0.091-0.354l0.738-0.188    l-0.099-0.384l0.385-0.099l-0.091-0.354l0.738-0.188l0.285-0.481l1.094-0.278l-0.099-0.385l0.384-0.098l-0.091-0.354l0.738-0.188    l-0.098-0.384l0.738-0.188l-0.091-0.354l0.385-0.099l0.286-0.48l-0.286-1.124l0.354-0.09l-0.474-1.86l12.304,0.041l-0.571-0.642    l-0.098-0.384l0.188-0.865l-0.768,0.195l-0.091-0.354l0.295-0.452l1.001-2.237l0.384-0.098l0.828,0.167l-0.384-1.507l0.46,0.323    l0.384-0.098l0.858,0.158l0.708-0.18l-0.091-0.355l5.13-20.338l-2.174-41.095L322.065,559.501z M341.82,661.922l-0.007,1.574    l0.571,0.642l0.927,0.55l1.024,0.934l0.286-0.481l1.092-0.278l0.865,0.188l0.836,0.196l1.597,1.574l0.663,2.6l-0.837,1.408    l0.188,0.739l0.098,0.383l0.279,1.093l1.023,0.935l0.385-0.098l1.288,0.489l2.522,0.521l2.509,0.587l2.07,0.228l1.092-0.278    l-0.09-0.354l0.384-0.098l0.647-0.543l0.188-0.865l-0.571-0.642l-0.475-0.256l-1.672-1.996l-1.785-2.313l-0.286-1.123l-0.572-0.64    l-2.235-1.004l-2.688-1.296l-1.221-0.098l-1.092,0.278l-0.482-0.286l-1.144-1.281l-1.38-0.845l-0.955-0.542l-1.183-0.075    l-1.476,0.376L341.82,661.922z M341.412,696.094l0.195,0.768l0.188,0.738l1.213,0.068l0.579,0.671l0.453,0.293l-0.076,1.184    l-0.098,1.221l-0.068,1.212l1.31,2.057l1.011,2.479l2.175,2.245l4.759,4.732l0.385-0.098l0.708-0.181l1.318-1.122l0.354-0.091    l0.865,0.188l0.927,0.551l0.256-0.475l0.294-0.452l-0.482-0.286l-0.188-0.739l-2.139-2.222l-4.571-3.994l-2.334-1.388    l-0.384-1.506l-2.071-3.437l-1.686-1.929l-0.58-0.67l-0.807-0.203l-0.738,0.188L341.412,696.094z" />
</svg>