<svg xmlns="http://www.w3.org/2000/svg" xmlns:xlink="http://www.w3.org/1999/xlink" x="0px" y="0px" width="620.843px"
    height="733.026px" viewBox="220 330 90 90">

    <style xmlns="http://www.w3.org/2000/svg">
        svg {
            filter: drop-shadow(2px 3px 0px rgb(176 136 98 / 1));
        }
    </style>


    <path id="madera" fill="#218c74" stroke-width="0.5" stroke="#264653" stroke-miterlimit="1"
        d="M294.818,331.717l-16.305,16.833l0.113,5.13    l-2.056-0.294l-0.098,1.22l0.188,0.739l-0.256,0.474l-1.86,0.474l0.098,0.385l-0.355,0.09l0.279,1.093l0,1.604l-6.732,0.111    l-17.585,17.979l-1.86,0.474l-0.265,0.444l-0.09-0.354l-0.738,0.188l0.09,0.354l-1.506,0.384l-0.09-0.354l-1.477,0.377    l-0.098-0.385l-2.244,0.572l-1.311-0.452l-5.581,1.422l0.098,0.384l-1.83,0.467l0.09,0.354l-0.384,0.098l0.098,0.385l-1.859,0.474    l-0.098-0.384l-2.598,0.662l0.105,0.413l-4.104,1.047l-4.188,3.803l0.098,0.385l0.414-0.105l0.09,0.354l-0.414,0.105l0.105,0.414    l-0.354,0.09l0.09,0.354l0.354-0.09l0.09,0.354l0.414-0.105l0.098,0.385l-0.324,0.459l0.414-0.105l0.355-0.09l0.098,0.384    l0.354-0.09l0.098,0.384l0.09,0.354l0.384-0.099l0.098,0.385l0.091,0.354l0.105,0.413l0.09,0.354l0.09,0.354l0.098,0.385    l0.354-0.091l0.098,0.384l-0.354,0.09l0.098,0.385l0.354-0.091l0.091,0.355l0.09,0.354l0.098,0.384l0.09,0.355l0.098,0.383    l0.098,0.385l0.414-0.105l0.09,0.354l0.098,0.385l0.354-0.091l0.09,0.354l0.105,0.413l-0.354,0.09l0.09,0.355l0.354-0.091    l0.355-0.09l0.09,0.354l-0.355,0.091l0.098,0.384l-0.354,0.091l-0.098-0.385l-0.414,0.105l0.105,0.414l0.09,0.354l-0.354,0.09    l0.098,0.385l0.09,0.354l0.354-0.09l0.09,0.354l0.098,0.384l-0.354,0.09l0.098,0.384l0.354-0.09l0.098,0.384l0.09,0.355    l-0.354,0.09l0.09,0.354l0.354-0.091l0.098,0.385l0.414-0.105l0.09,0.354l0.354-0.09l0.105,0.412l0.09,0.355l0.098,0.384    l0.355-0.091l0.098,0.385l0.383-0.098l0.257-0.475l0.098,0.384l0.09,0.354l0.098,0.384l0.091,0.354l0.413-0.104l0.354-0.091    l0.354-0.09l0.098,0.383l0.482,0.286l0.09,0.355l-0.384,0.098l0.098,0.383l0.384-0.098l0.09,0.354l-0.384,0.099l0.475,0.257    l0.105,0.413l-0.384,0.099l0.09,0.354l0.098,0.384l0.384-0.098l0.354-0.09l0.414-0.105l0.354-0.091l-0.098-0.384l0.354-0.091    l0.383-0.098l0.098,0.385l0.09,0.354l0.384-0.098l0.384-0.098l0.09,0.354l-0.384,0.098l0.098,0.385l0.384-0.099l0.354-0.09    l0.354-0.09l0.098,0.384l-0.256,0.474l0.354-0.09l0.384-0.099l0.09,0.355l0.09,0.354l0.354-0.09l-0.09-0.354l-0.09-0.354    l0.03-0.008l0.383-0.098l0.09,0.354l0.355-0.09l0.354-0.091l0.384-0.098l0.444,0.264l0.323-0.459l0.09,0.354l0.354-0.09    l0.355-0.091l0.098,0.385l0.383-0.098l-0.098-0.385l-0.09-0.354l0.384-0.099l0.384-0.098l-0.091-0.354l0.354-0.091l0.354-0.09    l0.384-0.098l0.09,0.354l0.09,0.354l0.354-0.091l0.098,0.385l0.384-0.099l0.384-0.098l-0.098-0.384l-0.09-0.354l0.354-0.09    l0.384-0.098l-0.09-0.355l-0.098-0.383l0.354-0.091l0.482,0.285l0.09,0.355l0.383-0.098l-0.091-0.355l0.355-0.09l0.383-0.098    l0.257-0.474l0.413-0.105l0.355-0.091l0.354-0.09l0.384-0.098l0.452,0.293l0.384-0.098l-0.098-0.384l0.384-0.098l0.354-0.091    l-0.098-0.384l0.384-0.098l0.354-0.091l0.098,0.385l0.098,0.383l0.384-0.098l0.354-0.09l0.384-0.099l0.383-0.098l0.09,0.355    l0.355-0.091l0.09,0.354l0.383-0.098l0.355-0.09l0.383-0.098l-0.09-0.354l0.384-0.098l0.264-0.445l0.475,0.257l0.354-0.09    l0.384-0.098l0.383-0.098l-0.09-0.355l-0.098-0.383l0.355-0.091l0.383-0.098l0.098,0.384l0.09,0.354l0.355-0.091l0.383-0.098    l0.384-0.098l0.354-0.09l0.09,0.354l0.384-0.098l0.354-0.091l0.355-0.09l-0.09-0.354l-0.09-0.354l0.413-0.105l0.354-0.09    l0.091,0.354l0.384-0.098l0.354-0.091l-0.09-0.354l0.384-0.098l0.383-0.098l0.445,0.264l-0.091-0.354l0.383-0.098l0.355-0.091    l0.09,0.355l0.383-0.098l0.09,0.354l0.384-0.098l0.264-0.444l0.09,0.354l0.384-0.099l0.264-0.444l0.354-0.09l0.09,0.354    l0.512,0.279l0.452,0.294l0.384-0.098l0.354-0.091l-0.196-0.769l0.384-0.098l0.383-0.098l-0.09-0.354l0.354-0.091l-0.09-0.354    l0.383-0.098l0.355-0.091l0.256-0.474l-0.098-0.384l-0.098-0.385l-0.09-0.354l0.963-1.032l-0.098-0.384l-0.098-0.383l0.354-0.091    l0.354-0.09l0.413-0.105l0.355-0.091l-0.09-0.354l-0.09-0.355l0.383-0.098l-0.098-0.383l0.355-0.091l0.354-0.09l0.315-0.489    l-0.098-0.385l-0.414,0.105l0.127-1.228l-0.09-0.354l0.354-0.091l-0.098-0.383l0.384-0.099l0.264-0.444l0.355-0.091l0.293-0.453    l0.383-0.098l0.279-0.51l0.354-0.091l-0.09-0.354l0.257-0.475l0.383-0.098l0.098,0.384l0.384-0.098l0.474,0.257l0.354-0.09    l0.264-0.445l0.414-0.105l-0.098-0.384l-0.09-0.354l-0.188-0.739l0.354-0.09l-0.098-0.385l0.384-0.098l0.354-0.09l0.355-0.091    l0.579,0.671l0.09,0.354l-0.383,0.098l0.09,0.354l-0.355,0.09l0.098,0.385l0.355-0.091l0.286-0.481l0.384-0.098l-0.09-0.354    l0.384-0.098l-0.091-0.355l0.354-0.09l-0.098-0.384l0.354-0.091l-0.452-0.294l-0.098-0.383l0.354-0.091l-0.091-0.354l-0.09-0.354    l0.384-0.099l-0.105-0.413l0.384-0.098l0.383-0.098l0.105,0.413l0.355-0.091l0.09,0.354l0.354-0.091l0.384-0.098l0.445,0.265    l0.413-0.105l-0.09-0.354l-0.09-0.354l0.354-0.09l-0.105-0.413l-0.09-0.355l0.257-0.475l0.383-0.098l0.384-0.098l0.383-0.098    l-0.09-0.354l-0.098-0.384l0.354-0.091l-0.453-0.293l-0.09-0.354l-0.481-0.286l-0.384,0.098l-0.383,0.098l-0.355,0.091    l-0.09-0.355l0.355-0.09l-0.098-0.385l0.383-0.098l-0.098-0.383l-0.09-0.355l-0.098-0.384l0.384-0.098l0.383-0.098l0.355-0.091    l0.098,0.384l0.354-0.09l0.091,0.354l0.098,0.384l0.384-0.098l0.098,0.384l0.384-0.098l-0.098-0.385l0.383-0.098l-0.098-0.383    l-0.09-0.355l0.355-0.09l0.354-0.091l0.384-0.098l0.091,0.355l0.354-0.091l0.098,0.384l0.098,0.384l0.09,0.354l0.098,0.385    l-0.354,0.09l0.09,0.354l0.354-0.091l0.098,0.385l0.098,0.384l0.09,0.354l0.414-0.105l0.354-0.091l-0.09-0.354l0.355-0.091    l-0.098-0.384l-0.098-0.385l-0.09-0.354l0.383-0.098l-0.098-0.385l-0.091-0.354l0.355-0.091l-0.098-0.384l0.383-0.098l0.098,0.384    l0.384-0.098l0.354-0.09l0.384-0.098l0.354-0.091l-0.098-0.384l-0.098-0.384l-0.091-0.354l0.414-0.105l0.354-0.09l0.354-0.091    l0.474,0.257l0.098,0.384l0.354-0.091l-0.257,0.475l0.355-0.09l0.09,0.354l0.384-0.098l0.384-0.098l0.354-0.091l-0.091-0.354    l0.384-0.098l-0.098-0.385l0.354-0.09l0.384-0.099l0.384-0.098l-0.098-0.383l-0.09-0.355l-0.098-0.384l0.354-0.09l0.294-0.452    l0.09,0.354l0.264-0.444l0.385-0.098l-0.098-0.384l0.383-0.098l-0.098-0.385l0.354-0.09l-0.09-0.354l0.285-0.481l-0.384,0.098    l-0.098-0.385l-0.09-0.354l0.383-0.098l-0.098-0.384l-0.091-0.355l-0.098-0.384l0.354-0.091l-0.09-0.354l0.383-0.098l0.287-0.482    l-0.099-0.384l-0.09-0.354l-0.098-0.384l-0.091-0.355l-0.481-0.285l0.286-0.481l-0.091-0.355l0.354-0.09l-0.099-0.385l-0.09-0.354    l-0.098-0.385l-0.452-0.294l0.264-0.443l-0.098-0.385l0.384-0.098l0.256-0.475l0.098,0.385l0.287-0.482l-0.091-0.354l-0.481-0.286    l-0.091-0.354l18.038-19.288l-0.091-0.354l-0.098-0.384l-0.09-0.354l-0.355,0.09l-0.098-0.384l0.354-0.09l-0.098-0.384    l-0.09-0.354l0.413-0.105l-0.098-0.384l-0.091-0.355l-0.098-0.384l-0.414,0.105l-0.098-0.383l-0.445-0.264l-0.098-0.384    l-0.444-0.264l0.354-0.09l-0.098-0.384l-0.354,0.09l-0.098-0.384l-0.091-0.354l0.257-0.474l-0.091-0.355l-0.105-0.414l-0.09-0.354    l-0.091-0.355l-0.354,0.09l-0.099-0.384l-0.09-0.354l-0.384,0.098l-0.105-0.414l-0.354,0.09l-0.09-0.355l-0.385,0.098l-0.09-0.354    l-0.099-0.384l-0.09-0.355l-0.384,0.098l-0.105-0.414l-0.09-0.354l-0.091-0.354l-0.354,0.09l-0.098-0.384l-0.384,0.098    l-0.09-0.354l-0.354,0.091l-0.384,0.098l-0.384,0.098l-0.354,0.09l-0.105-0.414l-0.384,0.098l-0.354,0.09l-0.091-0.354    l-0.385,0.098l-0.384,0.098l-0.354,0.09l-0.385,0.098l-0.09-0.354l-0.354,0.09l0.091,0.354l-0.385,0.098l0.091,0.355l-0.383,0.098    l0.104,0.414l-0.354,0.09l0.09,0.354l-0.383,0.098l-0.354,0.091l-0.091-0.354l-0.383,0.098l-0.105-0.414l-0.091-0.355    l-0.384,0.098l-0.091-0.354l-0.354,0.09l-0.384,0.098l-0.354,0.09l-0.098-0.384l-0.091-0.355l-0.105-0.414l-0.384,0.098    l-0.474-0.256l-0.354,0.09l-0.091-0.354l-0.098-0.383l-0.091-0.355l-0.098-0.384l-0.098-0.384l-0.09-0.354l-0.385,0.098    l-0.098-0.384l-0.354,0.09L294.818,331.717z" />
</svg>