<svg xmlns="http://www.w3.org/2000/svg" xmlns:xlink="http://www.w3.org/1999/xlink" x="0px" y="0px" width="620.843px"
    height="733.026px" viewBox="70 286 46 46">

    <style xmlns="http://www.w3.org/2000/svg">
        svg {
            filter: drop-shadow(2px 3px 0px rgb(176 136 98 / 1));
        }
    </style>


    <polyline id="marin" fill="#218c74" stroke-width="0.5" stroke="#264653" stroke-miterlimit="1"
        points="75.447,288.073 75.745,287.614     76.104,287.523 76.49,287.425 76.854,287.332 77.213,287.24 77.12,286.875 77.51,286.776 77.962,287.049 78.444,287.31     78.804,287.218 78.902,287.604 79.262,287.512 79.553,287.027 79.651,287.413 80.109,287.685 80.016,287.32 79.917,286.934     80.303,286.836 80.662,286.744 80.761,287.13 81.125,287.037 81.602,287.304 82.635,288.224 82.733,288.609 83.185,288.881     83.649,289.179 83.741,289.539 84.682,290.099 85.802,291.384 86.265,291.676 86.357,292.037 86.846,292.327 87.391,292.961     87.873,293.249 88.43,293.906 88.881,294.179 89.914,295.099 90.013,295.489 90.495,295.75 90.854,295.658 91.311,295.925     91.696,295.827 91.794,296.212 92.158,296.119 92.251,296.484 92.636,296.386 92.736,296.776 93.095,296.684 93.459,296.591     93.552,296.952 93.936,296.854 94.027,297.213 94.393,297.121 94.777,297.022 94.876,297.414 95.241,297.32 95.333,297.68     95.688,297.59 95.787,297.98 96.182,297.88 96.541,297.788 96.633,298.148 97.018,298.05 97.377,297.958 97.742,297.865     98.127,297.767 98.22,298.132 98.584,298.04 98.491,297.674 98.875,297.576 99.241,297.483 99.6,297.392 99.692,297.757     100.083,297.658 100.181,298.042 100.54,297.951 100.93,297.852 100.632,298.311 100.731,298.702 100.823,299.061     101.213,298.961 101.573,298.87 101.666,299.235 101.306,299.327 101.404,299.712 101.496,300.072 101.855,299.98 102.22,299.887     102.319,300.278 102.413,300.643 102.798,300.545 102.89,300.905 103.249,300.813 103.349,301.204 103.439,301.559     103.829,301.459 103.93,301.854 104.021,302.214 104.113,302.574 104.211,302.959 104.304,303.325 104.404,303.715     104.764,303.624 105.128,303.531 105.22,303.89 105.312,304.25 106.078,305.653 106.27,306.403 105.729,308.912 104.785,309.951     104.877,310.311 105.068,311.061 106.945,312.181 107.885,312.741 107.977,313.1 107.684,313.559 106.669,314.232     105.201,314.607 105.002,315.457 105.675,316.467 105.018,317.019 104.727,317.508 105.4,318.52 106.792,319.347 107.733,319.906     108.469,321.29 108.208,321.771 107.915,322.23 107.551,322.323 106.801,322.514 106.442,322.606 105.578,320.845 104.47,321.127     106.167,324.657 106.267,325.047 104.952,326.149 104.136,325.974 103.75,326.072 103.659,325.712 102.905,325.904     102.805,325.514 94.882,319.219 94.042,317.451 94.033,319.02 92.659,319.785 88.069,315.804 85.239,310.964 80.134,309.485     79.468,306.875 80.397,305.866 79.377,306.515 79.092,305.399 77.61,307.348 79.198,308.925 78.352,308.757 76.417,310.433     77.16,311.842 73.91,311.488 78.392,299.628 78.322,298.028 84.241,304.205 86.872,305.659 79.859,294.492 77.62,293.47     75.545,288.459 75.447,288.073   " />
</svg>