<svg xmlns="http://www.w3.org/2000/svg" xmlns:xlink="http://www.w3.org/1999/xlink" x="0px" y="0px" width="620.843px"
    height="733.026px" viewBox="230 320 65 65">

    <style xmlns="http://www.w3.org/2000/svg">
        svg {
            filter: drop-shadow(2px 3px 0px rgb(176 136 98 / 1));
        }
    </style>


    <path id="mariposa" fill="#218c74" stroke-width="0.5" stroke="#264653" stroke-miterlimit="1"
        d="    M247.94,328.157l0.105,0.413l0.09,0.355l0.09,0.354l-0.354,0.09l-0.355,0.09l0.098,0.384l-0.383,0.098l-0.355,0.09l0.098,0.384    l-0.383,0.098l-0.384,0.098l0.098,0.384l-0.354,0.09l0.09,0.354l-0.384,0.098l-0.09-0.354l-0.354,0.09l-0.414,0.105l-0.098-0.384    l-0.355,0.09l-0.127-0.377l-0.354,0.09l-0.384,0.098l-0.098-0.384l-0.444-0.264l-0.384,0.098l0.09,0.354l0.098,0.384l-0.384,0.098    l0.098,0.384l0.098,0.384l-0.354,0.09l0.09,0.354l-0.384,0.098l-0.09-0.354l-0.354,0.09l0.09,0.354l-0.384,0.098l-0.354,0.09    l-0.444-0.264l0.09,0.354l-0.414,0.105l-0.355,0.09l-0.09-0.354l-0.383,0.098l0.09,0.354l-0.355,0.091l0.09,0.354l-0.354,0.09    l-0.384,0.098l-0.383,0.098l0.098,0.384l-0.384,0.098l0.098,0.383l-1.86,0.474l-0.098-0.383l-1.447,0.369l0.098,0.383    l-0.384,0.098l-0.098-0.383l-1.121,0.286l0.376,1.477l0.383-0.098l0.384,1.507l0.354-0.09l0.384,1.506l0.354-0.09l0.09,0.355    l-0.354,0.09l0.188,0.738l-0.738,0.188l0.09,0.354l-0.355,0.091l-0.09-0.355l-0.383,0.098l-0.188-0.738l-0.384,0.098l-0.286-1.123    l-0.354,0.09l-0.098-0.384l-0.738,0.188l-0.09-0.355l-0.384,0.098l-0.09-0.354l-0.354,0.09l-0.098-0.384l-0.384,0.098l0.098,0.384    l-0.384,0.098l0.474,1.861l0.384-0.098l0.181,0.709l-0.384,0.098l0.196,0.769l-0.354,0.09l0.376,1.476l0.354-0.09l0.474,1.861    l0.482,0.287l0.098,0.383l0.09,0.355l0.09,0.355l0.105,0.414l0.09,0.354l0.384-0.098l0.188,0.738l0.098,0.384l0.098,0.384    l0.542,0.647l0.091,0.355l0.09,0.354l0.105,0.414l0.091,0.355l0.098,0.384l0.09,0.354l0.098,0.384l0.098,0.384l0.09,0.354    l0.384-0.098l0.098,0.384l0.444,0.265l-0.256,0.474l0.354-0.09l0.098,0.383l0.09,0.355l0.482,0.286l0.09,0.354l0.091,0.355    l0.105,0.413l0.09,0.354l0.098,0.384l0.09,0.354l-0.294,0.452l-0.354,0.091l0.105,0.413l0.09,0.354l0.098,0.385l0.354-0.091    l0.09,0.354l0.098,0.384l0.098,0.385l0.09,0.354l0.482,0.286l0.188,0.738l0.098,0.384l0.354-0.09l0.091,0.354l0.098,0.385    l0.09,0.354l0.384-0.098l0.098,0.384l0.098,0.385l0.09,0.354l0.481,0.287l0.09,0.354l0.098,0.383l0.098,0.385l0.355-0.091    l0.09,0.355l0.098,0.383l0.09,0.354l0.098,0.385l0.098,0.384l0.09,0.354l0.481,0.286l0.445,0.265l0.098,0.383l0.571,0.642    l-0.285,0.481l-0.355,0.09l0.098,0.385l0.091,0.354l0.098,0.384l0.09,0.354l0.355-0.091l0.098,0.385l0.09,0.354l0.383-0.098    l0.098,0.384l0.482,0.287l0.09,0.354l0.452,0.293l0.384-0.098l0.098,0.384l0.354-0.09l0.091,0.354l0.384-0.098l0.481,0.285    l0.445,0.265l0.383-0.098l0.098,0.384l0.355-0.09l0.481,0.286l0.475,0.256l0.098,0.385l0.444,0.264l0.098,0.384l0.098,0.385    l0.384-0.099l0.09,0.355l0.098,0.383l0.09,0.355l0.354-0.091l0.098,0.385l17.585-17.979l6.732-0.111l0-1.604l-0.279-1.093    l0.355-0.09l-0.098-0.385l1.86-0.474l0.256-0.474l-0.188-0.739l0.098-1.22l2.056,0.294l-0.113-5.13l16.305-16.833l0.249-0.503    l-0.445-0.265l0.354-0.09l-0.091-0.355l-0.354,0.09l-0.482-0.286l-0.098-0.384l-0.383,0.098l-0.453-0.294l-0.474-0.256    l-0.09-0.354l-0.355,0.09l-0.098-0.384l0.354-0.09l-0.098-0.384l-0.098-0.383l-1.273-0.43l-0.099-0.384l-0.098-0.384l-0.383,0.098    l0.098,0.384l-0.482-0.286l-0.354,0.09l-0.286,0.482l-0.099-0.384l-0.098-0.384l-0.09-0.354l-0.091-0.355l-0.098-0.384    l-0.354,0.09l-0.481-0.286l-0.098-0.384l-0.091-0.355l-0.383,0.098l-0.354,0.09l0.09,0.355l-0.383,0.098l-0.09-0.355l-0.09-0.354    l-0.384,0.098l-0.098-0.384l-0.256,0.475l-0.384,0.098l-0.354,0.09l0.09,0.354l-0.384,0.098l-0.09-0.354l-0.354,0.09l-0.098-0.384    l-0.384,0.098l-0.384,0.098l-0.098-0.384l-0.354,0.09l-0.098-0.384l-0.09-0.354l-0.475-0.257l-0.098-0.384l-0.354,0.09    l-0.098-0.383l-0.384,0.098l-0.098-0.384l-0.09-0.354l-0.09-0.354l-0.383,0.098l-0.738,0.188l-0.098-0.384l-0.355,0.091    l-0.383,0.098l-0.286,0.482l-0.354,0.09l-0.294,0.452l0.09,0.355l-0.354,0.09l0.098,0.384l0.098,0.383l-0.384,0.098l0.098,0.384    l-0.384,0.098l0.09,0.355l-0.354,0.09l-0.384,0.098l0.09,0.354l-0.354,0.09l-0.384,0.098l-0.383,0.098l-0.355,0.09l-0.383,0.098    l-0.355,0.09l-0.354,0.09l0.098,0.384l-0.414,0.105l-0.256,0.474l0.098,0.384l0.354-0.09l0.09,0.354l0.09,0.355l-0.158,0.857    l-0.482-0.285l0.098,0.383l-0.354,0.09l0.098,0.384l-0.384,0.098l-0.383,0.098l-0.355,0.091l-0.098-0.384l-0.383,0.098    l-0.355,0.09l0.098,0.384l-0.264,0.445l-0.414,0.105l-0.09-0.355l-0.354,0.09l-0.384,0.098l-0.354,0.09l-0.355,0.09l-0.383,0.098    l-0.384,0.098l-0.384,0.098l0.09,0.355l-0.264,0.444l-0.354,0.091l-0.383,0.098l-0.384,0.098l-0.383,0.098l-0.257,0.475    l-0.098-0.384l-0.354,0.09l-0.413,0.105l0.098,0.384l-0.354,0.09l-0.384,0.098l-0.354,0.09l-0.098-0.384l-0.355,0.09l-0.09-0.354    l-0.383,0.098l-0.091-0.355l-0.384,0.098l-0.098-0.384l-0.384,0.098l0.098,0.384l0.09,0.355l-0.354,0.09l-0.354,0.09l-0.09-0.354    l-0.384,0.098l-0.098-0.384l-0.098-0.383l-0.384,0.098l-0.098-0.384l-0.383,0.098l0.098,0.384l0.098,0.383l-0.355,0.09    l-0.354,0.09l-0.384,0.098l-0.354,0.09l-0.414,0.105l-0.354,0.09l-0.098-0.383l-0.355,0.09l-0.098-0.384l-0.383,0.098    l-0.384,0.098l-0.383,0.098l-0.09-0.355l-0.355,0.091l-0.09-0.354l-0.452-0.294l-0.098-0.384l-3.863-2.57l-0.354,0.09l-0.355,0.09    l-0.383,0.098l-0.098-0.384l-0.355,0.09l-0.413,0.105l-0.098-0.384l-0.09-0.354l-0.09-0.355l-0.355,0.091l-0.459-0.324    l-0.384,0.098l-0.354,0.09L247.94,328.157z M242.969,330.242l0.354-0.09l-0.444-0.265L242.969,330.242z" />
</svg>