<svg xmlns="http://www.w3.org/2000/svg" xmlns:xlink="http://www.w3.org/1999/xlink" x="0px" y="0px" width="620.843px"
    height="733.026px" viewBox="6 152 108 108">

    <style xmlns="http://www.w3.org/2000/svg">
        svg {
            filter: drop-shadow(2px 3px 0px rgb(176 136 98 / 1));
        }
    </style>


    <polyline id="mendocino" fill="#218c74" stroke-width="0.5" stroke="#264653" stroke-miterlimit="1"
        points="48.047,155.894 48.132,157.854     82.856,158.915 83.246,158.816 83.344,159.201 83.704,159.109 83.795,159.47 83.888,159.834 83.988,160.225 83.72,160.676     83.818,161.063 83.911,161.427 84.004,161.792 84.103,162.177 84.462,162.085 84.554,162.446 84.194,162.538 84.293,162.928     83.905,163.027 83.997,163.387 84.088,163.747 83.729,163.839 83.344,163.937 82.979,164.03 82.615,164.123 82.23,164.221     82.329,164.611 82.421,164.971 82.519,165.356 82.253,165.813 82.346,166.178 82.444,166.563 82.054,166.663 82.147,167.027     82.245,167.413 81.886,167.504 81.978,167.865 81.711,168.322 81.809,168.707 81.902,169.072 81.512,169.171 81.61,169.557     82.093,169.822 82.185,170.182 82.285,170.572 82.376,170.933 82.476,171.322 82.568,171.683 82.27,172.142 82.369,172.533     82.461,172.893 82.851,172.793 82.95,173.183 82.56,173.282 82.652,173.643 82.745,174.008 82.843,174.393 82.485,174.484     82.576,174.844 82.676,175.235 82.768,175.595 82.471,176.059 82.569,176.444 82.661,176.804 83.051,176.705 83.409,176.613     83.799,176.514 83.899,176.905 84.258,176.813 83.99,177.264 84.083,177.629 84.182,178.015 83.885,178.479 84.076,179.23     83.809,179.681 84.657,179.881 85.017,179.789 85.3,180.899 85.033,181.356 85.131,181.741 84.932,182.585 85.024,182.951     85.142,184.908 85.233,185.268 85.034,186.113 85.134,186.507 85.225,186.863 85.318,187.228 85.416,187.613 85.149,188.07     85.248,188.455 85.432,189.18 85.167,189.659 85.259,190.023 85.357,190.408 85.065,190.872 85.157,191.232 85.257,191.622     84.892,191.715 84.984,192.074 84.79,192.923 84.882,193.284 84.981,193.673 84.518,193.376 84.158,193.468 82.933,193.396     82.203,193.583 81.911,194.041 82.01,194.431 81.261,194.622 80.802,194.324 80.052,194.515 79.596,194.247 78.395,194.17     77.651,194.36 77.552,193.969 77.162,194.068 76.802,194.16 76.902,194.551 76.994,194.91 76.152,194.742 75.788,194.834     75.88,195.194 75.495,195.292 74.679,195.117 74.771,195.477 74.478,195.936 74.588,197.894 74.488,199.128 74.128,199.22     73.769,199.312 74.052,200.423 73.662,200.522 73.945,201.632 73.586,201.724 73.778,202.474 74.229,202.748 74.62,202.648     74.718,203.034 74.902,203.759 74.612,204.248 74.704,204.608 74.803,204.999 75.193,204.899 75.285,205.259 74.988,205.723     75.086,206.109 75.476,206.01 75.836,205.918 75.927,206.278 75.667,206.76 75.76,207.125 75.851,207.479 75.561,207.97     75.652,208.329 76.402,208.138 76.234,208.985 76.327,209.346 76.686,209.254 76.784,209.639 76.516,210.09 76.617,210.486     76.709,210.847 76.509,211.69 76.602,212.056 76.7,212.441 76.793,212.806 77.543,212.615 77.375,213.458 77.466,213.817     77.566,214.208 77.657,214.567 78.017,214.476 78.11,214.841 77.849,215.318 78.04,216.068 77.65,216.167 77.192,215.868     76.802,215.967 76.634,216.81 76.727,217.175 76.362,217.268 76.46,217.653 76.076,217.751 76.168,218.116 75.809,218.208     75.907,218.593 75.517,218.692 75.61,219.058 75.251,219.149 75.076,219.987 74.691,220.085 74.882,220.835 74.424,220.537     74.035,220.637 72.833,220.559 73.025,221.309 72.85,222.125 72.948,222.512 73.042,222.876 72.751,223.366 72.392,223.458     72.027,223.551 72.21,224.271 72.017,225.119 72.116,225.509 72.208,225.869 72.3,226.229 72.399,226.62 72.035,226.712     71.65,226.81 71.743,227.171 71.477,227.654 71.842,227.561 71.934,227.921 71.661,228.378 72.509,228.573 72.218,229.036     72.602,228.938 73.45,229.132 73.543,229.498 73.158,229.596 73.25,229.955 73.348,230.341 73.733,230.243 73.632,231.456     73.822,232.202 73.915,232.567 74.3,232.469 74.399,232.859 74.855,233.125 74.948,233.486 75.307,233.394 75.405,233.779     75.499,234.145 75.139,234.236 75.597,234.53 75.986,234.431 76.08,234.796 76.439,234.704 76.346,234.339 76.731,234.241     77.183,234.515 77.548,234.421 77.938,234.322 77.64,234.781 77.739,235.172 77.831,235.531 78.221,235.432 78.412,236.183     78.116,236.647 78.214,237.032 78.307,237.396 78.405,237.783 78.133,238.24 78.498,238.147 78.59,238.507 78.688,238.893     78.416,239.351 78.781,239.258 79.269,239.544 78.972,240.008 79.362,239.909 79.813,240.177 79.912,240.567 79.645,241.019     79.745,241.409 79.836,241.77 79.928,242.129 80.672,241.939 81.036,241.847 81.884,242.041 81.977,242.406 82.336,242.314     83.186,242.514 82.913,242.966 83.004,243.326 83.104,243.717 83.469,243.624 83.828,243.532 83.92,243.892 84.02,244.283     84.409,244.184 84.768,244.092 85.25,244.352 84.86,244.452 84.953,244.817 85.343,244.717 85.702,244.626 86.16,244.919     86.251,245.279 86.351,245.67 86.741,245.57 87.105,245.478 87.197,245.837 87.29,246.203 71.667,245.45 71.95,246.56     68.67,246.214 68.517,248.617 54.917,248.122 54.733,250.533 51.119,250.271 50.369,250.463 49.167,250.38 48.685,250.093     47.93,250.285 47.479,250.017 46.735,250.207 46.461,250.66 45.712,250.851 45.811,251.235 45.904,251.601 45.544,251.692     45.451,251.327 44.963,251.042 44.872,250.682 44.507,250.775 41.407,247.985 34.218,238.333 34.104,236.381 35.943,234.313     37.046,229.271 35.611,222.115 32.807,217.269 30.232,205.647 31.936,195.301 34.516,189.875 33.296,186.612 33.087,179.533     31.194,176.846 30.339,168.75 27.623,165.857 26.289,162.233 21.229,154.799 20.87,154.89 21.588,154.707 48.047,155.894   " />
</svg>