<svg xmlns="http://www.w3.org/2000/svg" xmlns:xlink="http://www.w3.org/1999/xlink" x="0px" y="0px" width="620.843px"
    height="733.026px" viewBox="176 342 76 76">

    <style xmlns="http://www.w3.org/2000/svg">
        svg {
            filter: drop-shadow(2px 3px 0px rgb(176 136 98 / 1));
        }
    </style>

    <path id="merced" fill="#218c74" stroke-width="0.5" stroke="#264653" stroke-miterlimit="1"
        d="M193.416,361.086l2.041,3.443l-16.101,16.026    l0.098,0.384l0.091,0.355l0.481,0.285l-0.383,0.098l0.09,0.354l-0.384,0.099l-0.256,0.474l0.098,0.385l-0.384,0.098l0.09,0.354    l-0.354,0.09l-0.384,0.098l0.098,0.385l0.09,0.354l0.384-0.098l0.098,0.383l0.354-0.09l0.098,0.384l0.09,0.355l0.384-0.099    l0.098,0.384l0.354-0.091l0.098,0.385l0.09,0.354l-0.354,0.091l0.098,0.384l-0.384,0.098L179.4,386.9l-0.196,0.836l0.09,0.354    l-0.384,0.098l-0.354,0.091l-0.384,0.098l0.098,0.385l-0.481-0.287l0.196,0.769l0.383-0.098l0.091,0.354l0.098,0.384l0.098,0.384    l0.091,0.355l0.098,0.383l-0.383,0.098l-0.355,0.091l-0.293,0.452l0.098,0.385l0.098,0.384l0.09,0.354l0.481,0.287l0.09,0.354    l0.355-0.09l0.098,0.384l0.383-0.098l0.098,0.384l0.09,0.355l-1.1,1.853l0.196,0.769l0.445,0.263l0.098,0.385l0.481,0.286    l1.477-0.376l0.474,1.86l0.475,0.257l0.286,1.122l0.926,0.55l0.572,2.246l13.434,7.68l27.135-27.144l4.104-1.046l-0.098-0.384    l2.598-0.662l0.098,0.384l1.859-0.474l-0.098-0.385l0.384-0.098l-0.09-0.354l1.86-0.475l-0.098-0.383l5.55-1.415l1.311,0.452    l2.244-0.572l0.098,0.385l1.477-0.377l0.09,0.354l1.506-0.384l-0.09-0.354l2.953-0.752l-0.098-0.385l-0.354,0.091l-0.278-1.094    l-0.384,0.099l-0.098-0.385l-0.098-0.384l-0.444-0.264l-0.098-0.385l-0.475-0.256l-0.481-0.286l-0.355,0.09l-0.098-0.384    l-0.383,0.098l-0.445-0.265l-0.481-0.285l-0.384,0.098l-0.091-0.354l-0.354,0.09l-0.098-0.384l-0.384,0.098l-0.452-0.293    l-0.09-0.354l-0.482-0.287l-0.098-0.384l-0.383,0.098l-0.09-0.354l-0.098-0.385l-0.355,0.091l-0.09-0.354l-0.098-0.384    l-0.091-0.354l-0.098-0.385l0.355-0.09l0.285-0.481l-0.571-0.642l-0.098-0.383l-0.445-0.265l-0.481-0.286l-0.09-0.354    l-0.098-0.384l-0.098-0.385l-0.09-0.354l-0.098-0.383l-0.09-0.355l-0.355,0.091l-0.098-0.385l-0.098-0.383l-0.09-0.354    l-0.481-0.287l-0.09-0.354l-0.098-0.385l-0.098-0.384l-0.384,0.098l-0.09-0.354l-0.098-0.385l-0.091-0.354l-0.354,0.09    l-0.098-0.384l-0.188-0.738l-0.482-0.286l-0.09-0.354l-0.098-0.385l-0.098-0.384l-0.09-0.354l-0.354,0.091l-0.098-0.385    l-0.09-0.354l-0.105-0.413l0.354-0.091l0.294-0.452l-0.09-0.354l-0.098-0.384l-0.09-0.354l-0.105-0.413l-0.091-0.355l-0.09-0.354    l-0.482-0.286l-0.09-0.355l-0.105-0.413l-0.354,0.09l0.264-0.443l-0.444-0.265l-0.098-0.384l-0.384,0.098l-0.09-0.354    l-0.105-0.414l-0.09-0.355l-0.09-0.354l-0.098-0.384l-0.091-0.355l-0.105-0.414l-0.09-0.354l-0.091-0.355l-0.572-0.64    l-0.098-0.384l-0.098-0.384l-0.188-0.738l-0.354,0.09l-0.09-0.354l-0.105-0.414l-0.09-0.355l-0.09-0.355l-0.098-0.383    l-0.482-0.287l-0.474-1.861l-0.354,0.09l-0.098-0.383l-0.09-0.355l-0.09-0.354l-0.098-0.384L193.416,361.086z" />
</svg>