<svg xmlns="http://www.w3.org/2000/svg" xmlns:xlink="http://www.w3.org/1999/xlink" x="0px" y="0px" width="620.843px"
    height="733.026px" viewBox="270 260 105 105">

    <style xmlns="http://www.w3.org/2000/svg">
        svg {
            filter: drop-shadow(2px 3px 0px rgb(176 136 98 / 1));
        }
    </style>

    <path id="mono" fill="#218c74" stroke-width="0.5" stroke="#264653" stroke-miterlimit="1"
        d="M278.593,260.292 M278.646,260.5l-0.384,0.098    l-0.293,0.452l0.098,0.384l-0.355,0.09l0.09,0.355l0.09,0.354l-0.384,0.098l0.098,0.384l-0.354,0.09l0.098,0.384l-0.384,0.098    l-0.383,0.098l0.098,0.384l0.09,0.354l-0.354,0.09l0.09,0.355l0.098,0.384l-0.383,0.098l0.098,0.383l0.098,0.384l0.09,0.354    l-0.265,0.444l0.098,0.384l-0.383,0.098l0.098,0.384l0.098,0.384l0.09,0.354l0.383-0.098l0.09,0.355l0.105,0.414l0.355-0.091    l0.473,0.256l0.098,0.384l-0.293,0.453l0.383-0.098l0.09,0.354l0.105,0.414l0.09,0.355l0.098,0.384l0.09,0.354l0.091,0.355    l0.105,0.413l0.09,0.354l0.355-0.09l0.098,0.384l0.09,0.355l0.098,0.383l0.098,0.384l0.383-0.098l0.091,0.355l0.098,0.383    l0.09,0.355l-0.383,0.098l0.098,0.384l0.098,0.384l0.383-0.098l0.09,0.354l0.384-0.098l0.098,0.384l-0.294,0.452l0.098,0.384    l0.098,0.384l0.09,0.354l-0.383,0.098l-0.355,0.091l0.098,0.383l-0.383,0.098l0.09,0.354l0.098,0.384l0.098,0.383l0.09,0.355    l-0.355,0.09l0.098,0.384l-0.383,0.098l-0.355,0.09l0.09,0.354l0.098,0.384l0.098,0.384l0.355-0.09l0.09,0.354l-0.355,0.091    l0.098,0.384l0.091,0.354l-0.383,0.098l-0.384,0.098l-0.256,0.475l-0.384,0.098l-0.354,0.09l-0.098-0.384l-0.384,0.098    l-0.091-0.355l-0.383,0.098l0.091,0.355l-0.355,0.09l-0.383,0.098l-0.384,0.098l0.098,0.384l0.098,0.383l0.09,0.355l0.384-0.098    l0.098,0.384l0.09,0.354l0.098,0.384l-0.384,0.098l-0.354,0.09l0.098,0.384l-0.384,0.098l-0.354,0.09l0.09,0.354l0.098,0.384    l-0.293,0.453l0.098,0.384l0.098,0.383l-0.354,0.09l0.09,0.355l-0.769,0.196l0.384,1.506l-0.264,0.444l0.188,0.739l-0.286,0.481    l0.926,0.551l0.098,0.384l0.957,0.542l0.098,0.384l-0.294,0.452l0.188,0.739l0.482,0.286l0.098,0.384l-0.768,0.196l-0.55,0.926    l0.287,1.123l-0.648,0.542l0.098,0.384l0.384-0.098l0.098,0.384l0.354-0.09l0.384-0.098l0.09,0.354l0.354-0.09l0.188,0.739    l0.293-0.453l0.384-0.098l0.09,0.355l0.354-0.09l0.196,0.767l-0.354,0.09l0.188,0.739l0.354-0.09l-0.264,0.444l0.738-0.188    l0.098,0.384l0.354-0.09l0.482,0.287l0.354-0.09l0.09,0.354l-0.354,0.09l0.098,0.384l1.122-0.286l0.09,0.355l0.355-0.09    l0.098,0.383l0.383-0.098l0.482,0.287l-0.195-0.768l0.354-0.09l-0.188-0.739l0.384-0.098l0.354-0.09l-0.256,0.475l0.09,0.355    l0.452,0.293l0.286,1.122l0.384-0.098l0.474,0.257l0.098,0.384l-0.383,0.098l0.098,0.384l0.383-0.098l0.09,0.354l0.098,0.384    l0.09,0.354l0.098,0.384l0.098,0.384l0.354-0.09l-0.098-0.384l0.383-0.098l0.098,0.384l0.355-0.09l-0.098-0.384l-0.098-0.384    l0.383-0.098l0.355-0.09l-0.09-0.354l0.383-0.098l0.09,0.354l0.098,0.384l0.385-0.098l0.354-0.09l3.262,1.937l0.768-0.195    l0.293,1.151l0.919,0.521l0.098,0.384l-0.292,0.453l0.104,0.414l0.384-0.098l0.09,0.354l0.355-0.09l0.09,0.354l-0.354,0.091    l0.098,0.384l0.355-0.09l0.09,0.354l0.105,0.414l-0.265,0.445l0.09,0.354l0.099,0.384l-0.384,0.098l0.091,0.354l0.105,0.414    l-0.354,0.091l0.09,0.354l-0.293,0.453l0.098,0.384l0.091,0.354l-0.385,0.098l0.105,0.413l0.091,0.355l0.09,0.354l0.099,0.384    l0.098,0.384l0.482,0.286l0.09,0.354l0.383-0.098l0.091,0.355l0.453,0.293l0.098,0.383l0.383-0.098l0.354-0.09l0.099,0.384    l0.383-0.098l0.091,0.355l0.09,0.354l0.099,0.384l-0.384,0.098l0.481,0.287l0.384-0.098l0.354-0.09l0.098,0.384l0.384-0.098    l0.354-0.09l0.09,0.354l0.385-0.098l0.09,0.355l0.098,0.384l0.385-0.098l0.354-0.09l0.098,0.383l0.099,0.384l0.384-0.098    l0.091,0.354l-0.385,0.098l0.091,0.354l-0.354,0.09l0.098,0.384l-0.384,0.098l0.098,0.384l0.099,0.384l0.09,0.354l0.091,0.355    l-0.385,0.098l0.098,0.383l0.098,0.384l0.385-0.098l0.384-0.098l-0.286,0.482l0.091,0.355l0.09,0.354l-0.384,0.098l-0.354,0.09    l0.099,0.384l-0.385,0.098l0.099,0.384l0.384-0.098l0.098,0.383l0.354-0.09l0.091,0.354l0.091,0.355l0.105,0.414l-0.354,0.09    l0.091,0.354l-0.385,0.098l-0.354,0.09l0.098,0.384l-0.384,0.098l0.09,0.354l-0.384,0.098l-0.354,0.09l0.098,0.384l-0.383,0.098    l-0.354,0.091l-0.286,0.482l0.091,0.354l-0.384,0.098l-0.354,0.09l0.098,0.383l0.091,0.354l-0.294,0.452l-0.354,0.09l0.105,0.414    l0.091,0.355l0.098,0.384l0.354-0.09l0.384-0.098l0.354-0.09l0.091,0.354l0.384-0.098l0.091,0.355l0.105,0.414l0.383-0.098    l0.091,0.354l0.354-0.091l0.383-0.098l-0.09-0.354l0.354-0.09l-0.104-0.414l0.383-0.098l-0.091-0.355l0.385-0.098l-0.091-0.354    l0.354-0.09l0.09,0.354l0.385-0.098l0.354-0.09l0.384-0.098l0.385-0.098l0.091,0.354l0.354-0.09l0.384-0.098l0.105,0.414    l0.354-0.09l0.384-0.098l0.384-0.098l0.354-0.091l0.09,0.354l0.384-0.098l0.098,0.384l0.354-0.09l0.091,0.354l0.09,0.354    l0.105,0.414l0.384-0.098l0.09,0.355l0.099,0.384l0.09,0.354l0.385-0.098l0.09,0.355l0.354-0.09l0.105,0.414l0.384-0.098    l0.09,0.354l0.099,0.384l0.354-0.09l0.091,0.355l0.09,0.354l0.105,0.414l0.091,0.355l-0.257,0.474l0.091,0.354l0.098,0.384    l0.354-0.09l0.098,0.384l-0.354,0.09l0.444,0.264l0.098,0.384l0.445,0.264l0.098,0.383l0.414-0.105l0.098,0.384l0.091,0.355    l0.098,0.384l-0.413,0.105l0.09,0.354l0.098,0.384l-0.354,0.09l0.098,0.384l0.355-0.09l0.09,0.354l0.098,0.384l0.091,0.354    l0.511,0.278l0.452,0.294l0.091,0.355l0.384-0.098l0.098,0.383l0.444,0.265l0.354-0.09l0.098,0.384l0.384-0.098l0.099,0.384    l0.384-0.098l0.09,0.354l0.384-0.098l0.265-0.444l0.354-0.09l0.385-0.098l0.09,0.354l0.384-0.098l-0.286,0.482l0.384-0.098    l0.09,0.355l0.482,0.285l0.354-0.09l0.355-0.091l0.098,0.384l0.091,0.355l0.098,0.383l0.383-0.098l0.098,0.384l0.091,0.354    l0.098,0.384l0.385-0.098l0.383-0.098l0.091,0.354l0.098,0.384l0.09,0.354l0.453,0.294l0.354-0.09l0.099,0.384l0.384-0.098    l0.091,0.355l0.098,0.383l0.098,0.384l0.091,0.354l0.098,0.384l0.09,0.354l0.384-0.098l0.293-0.453l0.354-0.09l0.09,0.354    l0.355-0.09l0.383-0.098l-0.09-0.355l0.384-0.098l0.384-0.098l0.354-0.09l0.444,0.264l0.482,0.287l0.098,0.384l0.09,0.354    l0.482,0.287l0.09,0.354l56.759-0.973L278.646,260.5z" />
</svg>