<svg xmlns="http://www.w3.org/2000/svg" xmlns:xlink="http://www.w3.org/1999/xlink" x="0px" y="0px" width="620.843px"
    height="733.026px" viewBox="142 395 97 97">

    <style xmlns="http://www.w3.org/2000/svg">
        svg {
            filter: drop-shadow(2px 3px 0px rgb(176 136 98 / 1));
        }
    </style>

    <path id="monterey" fill="#218c74" stroke-width="0.5" stroke="#264653" stroke-miterlimit="1"
        d="M147.221,397.461l-1.092,1.882l-0.354,0.09    l-0.098-0.383l-1.123,0.286l-0.55,0.926l1.687,3.534l0.188,0.738l-1.001,3.842l0.188,0.737l1.219,0.099l0.445,0.264l0.196,0.769    l0.188,0.738l0.279,1.093l-0.355,0.09l-0.383,0.098l-0.572-0.64l-1.212-1.673l-1.627,7.556l-2.124,2.522l-0.769,0.196    l-0.738,0.188l-0.444-0.264l-1.695-1.959l-0.481-0.286l-0.354,0.091l-1.574,1.596l-0.738,1.793l-0.196,0.836l0.196,0.769    l2.809,1.644l0.188,0.737l-0.294,0.452l-1.665,1.243l0.091,0.354l0.098,0.383l1.431,4.009l0.663,2.6l0.663,2.599l-0.452,1.311    v1.604l0.091,1.958l0.376,1.478l3.095,2.766l0.12,1.951l1.115,1.289l1.958-0.09l3.901,2.969l1.145,1.281l5.143,6.238l2.832,6.419    l4.578,2.42l2.372,9.304l6.905,5.38l0.09,0.355l0.384-0.099l2.048,0.265l0.354-0.091l1.604,0.001l2.403,0.174l1.958-0.091    l0.829,0.167l1.574,0.008l1.152-0.293l0.806,0.202l0.383-0.098l0.445,0.265l0.413-0.105l0.355-0.091l0.836,0.196l0.738-0.188    l0.828,0.165l0.383-0.098l0.355-0.09l0.511,0.278l0.354-0.09l0.355-0.091l0.481,0.287l0.355-0.091l0.383-0.098l0.829,0.166    l0.384-0.099l0.768-0.195l0.452,0.294l0.354-0.091l1.212,0.069l0.384-0.098l0.836,0.196l0.354-0.091l1.604-0.001l0.354-0.09    l0.475,0.257l0.383-0.098l0.355-0.09l0.383-0.098l0.098,0.384l0.355-0.091l0.383-0.098l0.355-0.09l0.474,0.256l0.384-0.098    l0.354-0.091l0.482,0.287l0.383-0.099l0.355-0.09l0.383-0.098l0.355-0.091l0.098,0.385l0.384-0.099l0.383-0.098l0.355-0.09    l1.694,0.354l0.354-0.091l0.384-0.098l0.354-0.091l0.858,0.16l0.355-0.091l0.383-0.098l0.098,0.383l1.476-0.376l0.482,0.286    l0.354-0.09l0.384-0.098l0.829,0.166l0.738-0.188l0.482,0.286l0.354-0.091l0.384-0.098l0.383-0.098l0.445,0.264l1.122-0.286    l0.844,0.226l0.384-0.098l0.829,0.166l0.738-0.188l0.828,0.165l0.354-0.09l0.414-0.105l0.836,0.196l0.355-0.091l0.354-0.09    l0.098,0.384l0.414-0.105l0.738-0.188l0.452,0.294l0.384-0.099l0.383-0.098l0.355-0.09l0.474,0.256l0.354-0.09l0.354-0.091    l0.384-0.098l0.09,0.354l1.122-0.285l0.355-0.091l0.098,0.383l0.767-0.195l0.384-0.098l0.452,0.294l0.767-0.195l0.355-0.091    l0.098,0.384l0.383-0.098l0.708-0.181l0.475,0.257l0.383-0.098l0.384-0.098l0.799,0.173l0.768-0.195l0.384-0.098l0.452,0.294    l0.354-0.09l0.384-0.099l0.865,0.188l0.355-0.09l-0.098-0.385l-0.098-0.384l-0.09-0.354l-0.09-0.355l-0.098-0.384l-0.098-0.385    l-0.098-0.383l-0.355,0.09l-0.474-0.257l-0.384,0.098l-0.09-0.354l-0.384,0.098l-0.098-0.384l-0.098-0.385l-0.098-0.384    l-0.09-0.354l-0.09-0.355l0.384-0.098l-0.105-0.414l0.384-0.098l-0.09-0.354l0.383-0.098l0.354-0.091l-0.453-0.294l-0.09-0.354    l0.355-0.091l-0.098-0.384l-0.355,0.091l-0.098-0.384l-0.09-0.354l-0.383,0.098l-0.098-0.385l-0.09-0.354l-0.384,0.098    l-0.098-0.384l-0.384,0.098l-0.098-0.384l-0.09-0.354l-0.354,0.091l-0.354,0.09l-0.384,0.098l-0.098-0.384l-0.384,0.098    l-0.383,0.098l-0.354,0.091l-0.354,0.09l-0.09-0.354l-0.098-0.384l-0.384,0.099l-0.098-0.385l-0.09-0.354l-0.098-0.385    l-0.09-0.354l-0.098-0.384l-0.098-0.385l-0.383,0.098l-0.09-0.354l-0.384,0.098l-0.098-0.384l-0.09-0.355l-0.098-0.383    l-0.098-0.385l-0.354,0.091l-0.091-0.355l-0.354,0.091l-0.383,0.098l-0.098-0.384l-0.355,0.09l-0.413,0.105l-0.09-0.354    l-0.355,0.091l-0.098-0.384l-0.354,0.09l-0.384,0.098l-0.384,0.099l-0.383,0.098l-0.355,0.09l-0.098-0.384l-0.09-0.354    l-0.354,0.091l-0.098-0.385l-0.384,0.099l-0.091-0.355l-0.098-0.383l-0.383,0.098l-0.098-0.385l-0.384,0.099l-0.09-0.355    l-0.354,0.091l-0.098-0.384l-0.09-0.354l-0.098-0.384l-0.355,0.09l-0.098-0.384l-0.383,0.098l-0.09-0.354l-0.453-0.293    l-0.383,0.098l-0.09-0.355l-0.384,0.098l-0.354,0.091l-0.384,0.098l-0.098-0.383l-0.098-0.385l-0.09-0.354l-0.354,0.09    l-0.098-0.383l-0.09-0.355l-0.414,0.105l-0.098-0.384l-0.354,0.09l-0.098-0.384l-0.355,0.091l-0.09-0.354l-0.383,0.098    l-0.098-0.384l-0.445-0.264l-0.098-0.384l-0.414,0.104l-0.098-0.384l-0.091-0.354l-0.452-0.293l0.354-0.091l-0.09-0.354    l-0.098-0.385l0.414-0.105l-0.098-0.383l-0.414,0.105l-0.09-0.354l-0.354,0.09l-0.098-0.384l-0.354,0.09l0.098,0.384l-0.384,0.099    l-0.354,0.09l-0.098-0.384l-0.384,0.098l-0.09-0.354l-0.384,0.099l-0.452-0.294l-0.098-0.385l0.354-0.09l-0.444-0.264    l-0.098-0.385l-0.098-0.384l-0.09-0.354l-0.098-0.384l-0.384,0.098l-0.09-0.354l-0.098-0.384l-0.098-0.384l-0.09-0.354    l-0.098-0.385l0.384-0.098l-0.09-0.354l-0.098-0.385l0.354-0.09l0.384-0.098l0.098,0.384l0.384-0.098l-0.098-0.385l-0.098-0.384    l0.354-0.09l-0.09-0.354l0.384-0.098l-0.098-0.385l-0.09-0.354l0.354-0.09l0.354-0.091l-0.098-0.384l0.414-0.105l-0.09-0.354    l-0.512-0.279l-0.098-0.384l-0.09-0.354l-0.354,0.091l-0.098-0.385l-0.098-0.384l-0.09-0.354l-0.354,0.091l-0.482-0.286    l-0.354,0.09l-0.09-0.354l-0.098-0.385l-0.384,0.098l-0.098-0.383l-0.091-0.354l0.384-0.099l0.354-0.09l-0.098-0.384l-0.09-0.354    l-0.354,0.09l-0.105-0.413l-0.09-0.354l-0.384,0.098l-0.09-0.354l-0.384,0.098l-0.098-0.385l-0.09-0.354l-0.354,0.09l-0.105-0.413    l-0.384,0.098l-0.09-0.354l-0.354,0.09l-0.09-0.354l-0.098-0.385l-0.384,0.099l-0.09-0.354l-0.383,0.098l-0.105-0.413l-0.354,0.09    l-0.091-0.354l-0.383,0.098l-0.354,0.091l0.09,0.354l0.355-0.091l0.488,0.316l0.09,0.354l0.098,0.385l0.09,0.354l0.355-0.091    l0.09,0.354l0.105,0.413l0.091,0.355l0.098,0.384l0.09,0.354l0.383-0.098l0.09,0.354l0.105,0.413l0.09,0.354l0.098,0.384    l0.091,0.355l0.098,0.383l0.098,0.384l0.09,0.355l0.098,0.384l0.09,0.354l-0.383,0.098l0.481,0.286l-0.383,0.098l0.098,0.385    l0.09,0.354l-0.355,0.091l-0.383,0.098l-0.007-0.029l-0.355,0.09l-0.098-0.384l-0.383,0.098l-0.384,0.098l-0.354,0.09    l-0.384,0.099l-0.452-0.293l-0.475-0.257l-0.09-0.355l-0.098-0.383l-0.098-0.385l-0.384,0.099l-0.098-0.385l-0.354,0.091    l-0.09-0.355l-0.09-0.354l-0.098-0.385l-0.384,0.099l-0.383,0.098l-0.09-0.354l-0.098-0.384l-0.384,0.098l-0.098-0.384    l-0.09-0.355l-0.098-0.383l-0.354,0.09l-0.091-0.354l-0.354,0.09l-0.383,0.099l-0.098-0.385l-0.09-0.354l-0.098-0.385    l-0.098-0.384l-0.09-0.354l-0.355,0.091l-0.098-0.384l-0.383,0.098l-0.09-0.355l-0.09-0.354l-0.384,0.098l-0.452-0.294    l-0.384,0.098l-0.354,0.091l-0.384,0.098l-0.098-0.384l-0.383,0.098l-0.098-0.385l-0.09-0.354l-0.355,0.09l-0.09-0.354    l-0.383,0.098l-0.098-0.383l-0.355,0.09l-0.286,0.481l-0.354,0.09l0.09,0.355l-0.293,0.451l0.098,0.385l-0.384,0.098l0.098,0.384    l-0.355,0.091l-0.383,0.098l0.098,0.384l-0.355,0.091l-0.098-0.384l-0.098-0.385l-0.383,0.098l-0.098-0.384l-0.09-0.354    l-0.384,0.099l-0.354,0.09l-0.09-0.354l-0.384,0.098l0.09,0.354l0.09,0.354l-0.383,0.098l0.098,0.384l0.098,0.385l-0.355,0.09    l-0.383,0.098l-0.355,0.091l-0.098-0.384l-0.383,0.098l-0.257,0.475l0.098,0.384l-0.383,0.098l-0.384,0.098l-0.098-0.384    l0.384-0.098l-0.098-0.385l-0.098-0.384l-0.09-0.354l-0.384,0.099l0.09,0.354l-0.354,0.09l-0.022-1.566l0.007-1.575l-0.098-0.384    l0.195-0.836l-11.234-11.386l-0.67-2.629l-1.121,0.285l-1.666-0.361l-1.859,0.474l1.092-1.883l-0.279-1.093l-0.355,0.091    l-0.286-1.122l-0.383,0.098l-0.475-0.258l-0.384-1.506l0.768-0.196l-0.384-1.505l0.264-0.445l0.383-0.098l-0.09-0.355    l-0.098-0.383l-0.383,0.098l-0.098-0.384l-0.098-0.385l-0.355,0.091l-0.09-0.354l-0.09-0.354l-0.105-0.414l-0.09-0.354    l-0.098-0.383l-0.383,0.098l-0.09-0.355l-0.09-0.354l-0.384,0.098l-0.105-0.413l-0.354,0.09l-0.384,0.098l-0.354,0.091    l-0.09-0.354l-0.355,0.091l-0.413,0.105l-0.098-0.385l-0.354,0.091l-0.383,0.098l-0.09-0.354l-0.09-0.354l-0.098-0.384    l-0.098-0.385l-0.354,0.091l-0.354,0.09l-0.098-0.383l-0.384,0.098l-0.383,0.098l-0.384,0.098l-0.09-0.354l-0.354,0.09    l-0.09-0.354l-0.105-0.413l-0.355,0.09l-0.383,0.098l-0.09-0.354l-0.098-0.385l-0.09-0.354l-0.098-0.384l-0.384,0.098    l-0.098-0.385l-0.09-0.354l-0.098-0.384l0.384-0.099l0.098,0.385l0.383-0.098l0.355-0.091l0.354-0.09l0.384-0.099l-0.098-0.384    l0.383-0.098l-0.09-0.354l-0.098-0.385l-0.383,0.098l-0.098-0.383l-0.09-0.355l-0.098-0.384l-0.384,0.098l-0.09-0.354l-0.354,0.09    l-0.098-0.384l0.354-0.091l-0.098-0.384l-0.354,0.09l-0.09-0.354l-0.355,0.091l-0.383,0.098l-0.384,0.098l-0.384,0.098    l-7.756-8.719l-0.572-2.244l0.384-0.099l-0.098-0.384l-0.384,0.098l-0.188-0.737l-0.475-0.258l-0.354,0.091l0.09,0.354    l-0.738,0.188l0.098,0.383l-0.354,0.091l-0.098-0.384l-0.957-0.543l-0.256,0.475l-0.098-0.385l-0.098-0.383l-0.384,0.098    l0.098,0.384l-0.354,0.09l-0.098-0.383L147.221,397.461z" />
</svg>