<svg xmlns="http://www.w3.org/2000/svg" xmlns:xlink="http://www.w3.org/1999/xlink" x="0px" y="0px" width="620.843px"
    height="733.026px" viewBox="85 245 60 60">

    <style xmlns="http://www.w3.org/2000/svg">
        svg {
            filter: drop-shadow(2px 3px 0px rgb(176 136 98 / 1));
        }
    </style>

    <path id="napa" fill="#218c74" stroke-width="0.5" stroke="#264653" stroke-miterlimit="1"
        d="M112.505,245.723l-0.64,0.572l0.09,0.354    l1.122,1.318l0.376,1.477l-0.445,1.34l-0.934-0.579l-0.481,1.318l-0.354,0.09l0.188,0.738l0.098,0.384l-0.64,0.572l-2.771,4.67    l-10.04,2.559l0.475,0.256l-0.098,1.22l-0.383,0.098l-0.167,0.83l-0.293,0.452l0.481,0.286l0.098,0.384l-0.383,0.098l0.09,0.354    l-0.355,0.09l-0.383,0.098l0.098,0.384l-0.384,0.098l0.09,0.355l0.098,0.383l0.098,0.384l0.09,0.355l0.384-0.098l0.098,0.383    l0.09,0.355l0.105,0.414l-0.384,0.098l0.09,0.354l0.384-0.098l0.474,0.256l-0.383,0.098l0.098,0.384l0.383-0.098l0.091,0.355    l0.354-0.09l0.383-0.098l0.098,0.383l0.355-0.09l0.481,0.286l0.09,0.355l0.384-0.098l0.098,0.383l0.09,0.355l0.105,0.414    l0.09,0.355l0.354-0.09l0.09,0.354l0.384-0.098l0.452,0.294l0.09,0.354l0.098,0.384l-0.354,0.09l0.098,0.384l0.354-0.09    l0.09,0.355l0.098,0.383l-0.354,0.09l0.091,0.355l0.098,0.384l0.098,0.383l0.354-0.09l0.09,0.355l0.098,0.384l0.09,0.354    l0.354-0.091l0.512,0.279l0.098,0.384l0.354-0.09l-0.264,0.444l0.098,0.384l0.354-0.09l0.384-0.098l0.444,0.265l0.384-0.098    l0.105,0.414l0.181,0.708l-0.384,0.098l-0.256,0.475l-0.384,0.098l0.09,0.354l-0.354,0.09l0.105,0.414l1.371,0.814l-0.263,0.445    l0.354-0.09l0.105,0.414l0.09,0.354l0.09,0.354l0.482,0.287l0.09,0.354l0.489,0.316l-0.292,0.453l-0.384,0.098l0.09,0.354    l0.098,0.384l0.475,0.257l0.383-0.098l0.105,0.414l0.445,0.264l0.091,0.355l0.098,0.384l0.383-0.098l0.09,0.354l0.105,0.414    l0.354-0.09l0.091,0.355l0.09,0.354l0.098,0.384l0.098,0.384l0.098,0.384l0.383-0.098l0.09,0.354l0.09,0.355l-0.383,0.098    l-0.355,0.09l0.098,0.383l0.098,0.384l0.098,0.384l0.09,0.355l-0.383,0.098l0.09,0.354l0.098,0.384l0.383-0.098l0.355-0.09    l0.098,0.384l0.098,0.383l-0.355,0.091l0.09,0.354l0.355-0.09l0.09,0.355l0.098,0.383l0.481,0.287l0.384-0.098l0.475,1.861    l-0.196,0.836l0.09,0.354l0.482,0.286l0.098,0.384l0.098,0.384l-0.384,0.098l-0.481-0.287l0.098,0.384l0.181,0.708l-0.355,0.091    l-0.383,0.098l0.293,1.151l-0.265,0.445l-0.383,0.098l2.048,0.264l0.384-0.098l1.19,0.106l0.866,0.188l0.354-0.09l0.09-1.25    l-1.333-0.415l-1.386-0.873l-0.091-0.355l0.905-1.017l0.767-0.196l0.482,0.287l0.181,0.708l0.934,0.581l0.662,0.994l0.384,1.506    l0.445,0.265l0.383-0.098l0.355-0.09l0.354-0.09l0.105,0.414l0.414-0.105l1.092-0.278l0.445,0.263l0.383-0.098l-0.09-0.354    l0.384-0.098l-0.105-0.414l-0.475-0.257l-0.09-0.354l-0.383,0.098l-0.098-0.384l-0.098-0.384l-0.098-0.384l0.383-0.098    l-0.09-0.354l0.384-0.098l-0.09-0.355l0.286-0.481l-0.091-0.354l0.355-0.091l0.354-0.09l-0.105-0.414l-0.09-0.355l-0.09-0.354    l-0.098-0.384l-0.196-0.769l-0.444-0.264l-0.091-0.354l0.354-0.09l0.091,0.355l0.413-0.105l0.354-0.09l-0.09-0.355l-0.098-0.383    l-0.354,0.09l-0.414,0.105l-0.452-0.294l-0.098-0.384l0.354-0.09l-0.09-0.354l0.414-0.105l0.354-0.09l0.384-0.098l0.09,0.354    l0.354-0.09l-0.09-0.354l-0.091-0.355l-0.354,0.09l-0.098-0.384l-0.098-0.384l-0.098-0.383l-0.09-0.355l0.354-0.09l-0.09-0.354    l-0.098-0.383l-0.452-0.294l0.354-0.09l0.355-0.09l0.414-0.105l0.452,0.294l0.738-0.188l0.354-0.09l1.694,0.354l0.354-0.09    l1.596-0.029l0.355-0.09l1.249,0.09l0.806,0.204l-0.098-0.384l-0.098-0.383l0.384-0.098l-0.091-0.355l-0.09-0.355l-0.098-0.383    l-0.384,0.098l-0.098-0.384l0.286-0.482l-0.09-0.354l-0.09-0.355l-0.098-0.384l-0.384,0.098l-0.286-1.123l-0.09-0.354    l-0.098-0.384l-0.452-0.294l-0.098-0.384l-0.534-0.619l-0.105-0.414l-0.09-0.354l-0.384,0.098l-0.098-0.384l-0.091-0.355    l-0.09-0.354l-0.105-0.414l-0.091-0.355l-0.098-0.384l0.384-0.098l-0.09-0.354l0.264-0.445l0.354-1.695l0.384-0.098l-0.196-0.767    l0.293-0.453l-0.098-0.384l0.174-0.799l0.249-0.504l-0.09-0.354l-0.452-0.294l-0.091-0.355l-0.09-0.354l-0.105-0.414l-0.091-0.355    l-0.098-0.384l-0.09-0.354l-0.09-0.355l0.354-0.09l-0.105-0.414l-0.188-0.738l-0.091-0.355l-0.354,0.09l0.264-0.444l-0.105-0.414    l-0.091-0.355l-0.098-0.383l-0.09-0.354l-0.098-0.384l-0.098-0.384l-0.354,0.09l-0.09-0.354l-0.098-0.384l-0.09-0.354l-0.09-0.355    l-0.355,0.091l0.09,0.354l-0.414,0.105l-0.354,0.09l-0.091-0.355l-0.105-0.414l0.264-0.445l0.414-0.105l-0.098-0.383l-0.414,0.105    l-0.09-0.355l0.414-0.105l-0.098-0.384l-0.098-0.383l-0.504-0.25l-0.354,0.09l-0.384,0.098l-0.098-0.384l-0.098-0.384l-0.354,0.09    l-0.09-0.354l-0.105-0.414l-0.091-0.354l-0.098-0.383l0.354-0.09l-0.444-0.265l-0.09-0.355l-0.105-0.414l-0.354,0.09l-0.414,0.105    l-0.09-0.354l-0.098-0.384l-0.09-0.355l-0.188-0.738l0.414-0.105l-0.098-0.384l-0.098-0.383l-0.091-0.355l-0.504-0.249    l-0.098-0.383l-0.09-0.355l-0.453-0.294l-0.098-0.383l-0.09-0.354l-0.098-0.384l-0.09-0.354l0.355-0.09l-0.098-0.384l-0.098-0.384    l-0.09-0.354l-0.355,0.09l-0.098-0.384l-0.09-0.355l-0.09-0.354l-0.105-0.414l-0.09-0.355l-0.383,0.098l-0.098-0.384l0.383-0.098    l-0.09-0.354l-0.474-0.257l-0.105-0.414l-0.09-0.354l-0.098-0.384l-0.091-0.354l-0.354,0.09l-0.354,0.09l-0.09-0.354l-0.384,0.098    l-0.383,0.098l-0.105-0.413l-0.384,0.098l-0.091-0.355l-0.263,0.445l-0.355,0.09l-0.383,0.098l-0.384,0.098l-0.384,0.098    l-0.09-0.354l-0.354,0.09l-0.098-0.384l-0.354,0.09l-0.09-0.354l-0.384,0.098l-0.09-0.355l-0.384,0.098l-0.105-0.414l-0.09-0.354    L112.505,245.723z" />
</svg>