<svg xmlns="http://www.w3.org/2000/svg" xmlns:xlink="http://www.w3.org/1999/xlink" x="0px" y="0px" width="620.843px"
    height="733.026px" viewBox="188 192 55 55">

    <style xmlns="http://www.w3.org/2000/svg">
        svg {
            filter: drop-shadow(2px 3px 0px rgb(176 136 98 / 1));
        }
    </style>

    <path id="nevada" fill="#218c74" stroke-width="0.5" stroke="#264653" stroke-miterlimit="1"
        d="M214.188,197.219l0.09,0.354l-0.355,0.091    l-0.285,0.482l-0.355,0.09l-0.383,0.098l0.098,0.384l-0.384,0.098l0.09,0.354l-0.354,0.09l-0.384,0.098l0.098,0.384l0.09,0.355    l-0.354,0.09l-0.316,0.489l-0.354,0.09l0.098,0.384l-0.354,0.09l-0.098-0.384l-0.287,0.482l0.091,0.355l-0.354,0.09l-0.384,0.098    l-0.383,0.098l0.098,0.383l-0.355,0.09l-0.383,0.098l-0.355,0.091l-0.383,0.098l-0.384,0.098l-0.354,0.09l-0.384,0.098    l0.091,0.354l-0.354,0.09l-0.414,0.105l-0.09-0.355l-0.355,0.09l-0.354,0.09l-0.384,0.098l-0.098-0.383l-0.354,0.09l-0.286,0.481    l-0.481-0.286l0.098,0.383l-0.355,0.09l-0.098-0.383l-0.383,0.098l0.098,0.383l-0.355,0.09l-0.481-0.286l0.098,0.383l-0.384,0.098    l-0.098-0.383l-0.354,0.09l0.098,0.383l-0.384,0.098l-0.354,0.09l-0.482-0.285l-0.383,0.098l0.098,0.383l-0.355,0.09l-0.098-0.383    l-0.285,0.481l-0.355,0.091l-0.481-0.286l-0.384,0.098l-0.354,0.09l-0.384,0.098l-0.354,0.09l-0.09-0.354l-0.384,0.098    l-0.384,0.098l-0.264,0.445l-0.09-0.354l-0.384,0.098l-0.354,0.09l0.09,0.355l-0.384,0.098l-0.354,0.09l-0.384,0.098l0.482,0.285    l0.09,0.355l-0.384,0.098l-0.383,0.098l-0.257,0.475l-0.098-0.384l-0.09-0.355l-0.383,0.098l0.091,0.355l-0.355,0.09l-0.383,0.098    l-0.09-0.355l-0.098-0.383l-0.384,0.098l-0.354,0.09l0.098,0.383l-0.414,0.105l-0.098-0.383l-0.355,0.091l-0.354,0.09l-0.09-0.354    l-0.293,0.453l0.098,0.383l-0.354,0.09l-0.098-0.383l-0.384,0.098l0.098,0.383l-0.383,0.098l-0.355,0.091l-0.383,0.098    l-0.354,0.09l-0.383,0.098l0.098,0.384l-0.384,0.098l-0.354,0.09l0.09,0.355l-0.286,0.482l0.09,0.354l-0.256,0.475l-0.098-0.384    l-0.384,0.098l0.098,0.384l-0.354,0.09l0.098,0.384l0.09,0.354l-0.384,0.098l-0.09-0.354l-0.384,0.098l-0.452-0.294l-0.384,0.098    l0.098,0.384l-0.264,0.444l-0.09-0.354l-0.384,0.098l0.09,0.354l-0.383,0.098l0.098,0.384l-0.354,0.091l-0.293,0.452l0.098,0.383    l0.481,0.287l-0.293,0.453l-0.355,0.09l0.098,0.383l-0.383,0.098l0.091,0.355l-0.384,0.098l-0.354,0.09l-0.384,0.098l-0.354,0.09    l-0.09-0.355l-0.355,0.09l0.09,0.355l-0.413,0.105l-0.354,0.09l-0.383,0.098l-0.257,0.475l0.098,0.384l0.355-0.09l0.09,0.354    l0.098,0.384l-0.355,0.09l-0.354,0.09l0.09,0.355l0.098,0.383l-0.414,0.105l0.09,0.355l-0.354,0.09l0.09,0.354l-0.384,0.098    l0.105,0.414l0.091,0.355l-0.256,0.475l0.188,0.738l0.098,0.384l-0.265,0.444l0.098,0.384l0.188,0.739l-0.414,0.105l0.098,0.383    l0.098,0.384l-0.166,0.829l0.188,0.739l0.098,0.384l-0.287,0.481l0.091,0.354l0.188,0.738l-0.354,0.09l0.098,0.384l0.098,0.384    l0.09,0.354l-0.075,1.183l-0.188,0.867v1.604l0.09,0.354l-0.195,0.837l0.196,0.768l0.383-0.098l0.09,0.355l0.384-0.098l0.09,0.354    l0.384-0.098l0.354-0.09l0.098,0.384l0.098,0.384l0.354-0.09l0.384-0.098l0.354-0.09l0.098,0.384l0.09,0.354l0.09,0.354    l0.414-0.105l0.355-0.091l0.354-0.09l0.384-0.098l0.354-0.09l0.098,0.384l0.414-0.105l-0.098-0.384l0.354-0.09l0.355-0.091    l0.383-0.098l0.355-0.09l0.413-0.105l-0.09-0.355l0.354-0.09l0.354-0.09l-0.09-0.354l0.384-0.098l0.09,0.354l0.354-0.09    l0.09,0.354l0.414-0.105l0.098,0.384l0.098,0.383l0.098,0.384l0.354-0.09l0.445,0.265l0.09,0.354l0.383-0.098l0.354-0.091    l0.414-0.105l0.098,0.384l0.09,0.355l0.354-0.09l0.354-0.09l0.384-0.098l0.354-0.09l0.414-0.105l0.355-0.09l0.264-0.445    l-0.098-0.384l0.384-0.098l-0.09-0.354l0.354-0.09l-0.098-0.384l-0.098-0.384l0.384-0.098l0.383-0.098l-0.09-0.354l0.355-0.09    l-0.098-0.384l0.383-0.098l-0.09-0.354l0.355-0.091l-0.09-0.354l0.383-0.098l0.384-0.098l-0.49-0.315l0.384-0.098l0.354-0.09    l-0.09-0.355l-0.354,0.09l-0.098-0.384l0.354-0.09l0.384-0.098l-0.09-0.354l-0.091-0.355l0.249-0.503l-0.09-0.354l-0.098-0.384    l0.384-0.098l0.354-0.09l-0.09-0.355l0.384-0.098l0.384-0.098l-0.09-0.354l-0.105-0.414l0.354-0.09l0.384-0.098l0.383-0.098    l-0.09-0.355l0.355-0.09l-0.098-0.384l0.383-0.098l0.265-0.444l0.383-0.098l0.384-0.098l-0.09-0.355l0.354-0.09l0.384-0.098    l0.354-0.09l-0.105-0.414l-0.09-0.354l0.384-0.098l0.354-0.09l0.384-0.098l0.384-0.098l0.354-0.09l0.384-0.098l-0.098-0.384    l0.354-0.09l-0.091-0.355l0.384-0.098l0.383-0.098l-0.09-0.354l-0.105-0.414l0.355-0.09l-0.09-0.355l0.383-0.098l0.355-0.09    l0.383-0.098l-0.098-0.384l0.384-0.098l-0.09-0.354l0.354-0.09l0.384-0.098l0.354-0.09l0.293-0.453l0.474,0.257l-0.09-0.355    l0.355-0.09l0.383-0.098l-0.105-0.414l0.355-0.091l-0.09-0.354l0.383-0.098l0.384-0.098l0.256-0.475l0.384-0.098l-0.091-0.355    l0.354-0.09l0.355-0.09l0.316-0.489l0.354-0.09l-0.098-0.384l0.384-0.098l0.354-0.09l-0.09-0.354l0.384-0.098l0.383-0.098    l0.355-0.09l0.383-0.098l-0.098-0.383l0.355-0.09l0.383-0.098l0.384-0.098l-0.09-0.355l0.354-0.09l0.384-0.098l0.354-0.09    l0.354-0.09l0.414-0.105l0.091,0.355l0.354-0.09l0.384-0.098l-0.09-0.354l0.354-0.09l0.384-0.098l36.854,0.138l0.317-9.612    l-29.415-0.43l-0.098-0.384l-0.098-0.383l-0.383,0.098l-0.355,0.091l-0.09-0.355l-0.354,0.09l-0.098-0.384l-0.384,0.098    l-0.09-0.354l-0.098-0.384l0.384-0.098l-0.098-0.384l-0.09-0.354l-0.098-0.384l-0.098-0.384l-0.384,0.098l-0.09-0.355    l-0.098-0.383l-0.09-0.355l-0.383,0.098l-0.098-0.384l0.286-0.481l-0.383,0.098l-0.09-0.355l-0.384,0.098l-0.098-0.384    l-0.354,0.09l-0.09-0.354l-0.354,0.09l-0.384,0.098l-0.354,0.09l-0.414,0.105l-0.452-0.294l-0.355,0.091l-0.383,0.098    l-0.098-0.384l-0.355,0.09l-0.413,0.105l-0.355,0.09l-0.09-0.354l-0.354,0.09l-0.384,0.098l-0.354,0.09l-0.414,0.105    L214.188,197.219z M188.002,207.856l-0.098-0.383l-0.383,0.098L188.002,207.856z" />
</svg>