<svg xmlns="http://www.w3.org/2000/svg" xmlns:xlink="http://www.w3.org/1999/xlink" x="0px" y="0px" width="620.843px"
    height="733.026px" viewBox="370 625 46 46">

    <style xmlns="http://www.w3.org/2000/svg">
        svg {
            filter: drop-shadow(2px 3px 0px rgb(176 136 98 / 1));
        }
    </style>

    <polyline id="orange" fill="#218c74" stroke-width="0.5" stroke="#264653" stroke-miterlimit="1"
        points="392.306,625.637 393.795,626.844     395.652,627.97 395.746,628.339 399.11,630.646 399.3,631.391 400.246,631.95 401.652,634.376 402.591,634.909 403.785,636.587     403.883,636.972 405.013,638.255 405.112,638.64 408.094,639.452 408.569,641.312 408.396,642.155 408.68,643.271     409.502,643.471 409.887,643.374 410.729,643.547 412.3,643.557 413.338,644.475 413.43,644.834 415.863,646.617 415.954,646.972     416.308,646.881 416.402,647.247 416.046,647.337 416.145,647.722 415.781,647.815 413.542,651.555 413.182,651.647     413.276,652.012 411.891,654.346 411.24,654.922 411.332,655.283 410.769,656.225 410.415,656.316 410.508,656.68     410.333,657.524 410.432,657.909 410.797,657.816 410.89,658.181 410.617,658.633 410.233,658.732 410.332,659.118     410.524,659.873 410.529,661.438 410.627,661.828 409.524,662.109 409.226,662.569 406.62,663.233 406.528,662.873     406.172,662.963 405.258,667.16 404.125,665.844 397.704,662.336 393.092,656.767 387.322,652.677 386.098,651.008     385.255,650.833 384.414,650.666 383.756,651.216 385.086,651.676 385.178,652.036 384.887,652.521 384.137,652.712     383.588,652.058 378.083,647.511 374.604,643.252 371.72,641.207 372.081,641.115 372.371,640.625 373.094,640.441     373.002,640.081 373.295,639.619 372.718,638.966 372.621,638.581 373.005,638.483 372.913,638.118 373.272,638.026     373.572,637.572 373.472,637.181 374.004,636.246 374.388,636.148 374.295,635.784 375.045,635.592 374.762,634.482     375.126,634.389 374.937,633.644 375.296,633.552 375.202,633.182 375.952,632.992 375.853,632.606 376.239,632.508     376.146,632.147 376.871,631.962 377.157,631.48 378.271,631.196 378.177,630.826 378.536,630.734 378.444,630.375     379.193,630.184 379.095,629.797 379.844,629.607 379.752,629.247 380.117,629.154 380.404,628.67 380.12,627.555     380.479,627.463 380.005,625.603 392.306,625.637   " />
</svg>