<svg xmlns="http://www.w3.org/2000/svg" xmlns:xlink="http://www.w3.org/1999/xlink" x="0px" y="0px" width="620.843px"
    height="733.026px" viewBox="179 205 65 65">

    <style xmlns="http://www.w3.org/2000/svg">
        svg {
            filter: drop-shadow(2px 3px 0px rgb(176 136 98 / 1));
        }
    </style>

    <path id="placer" fill="#218c74" stroke-width="0.5" stroke="#264653" stroke-miterlimit="1"
        d="M213.238,213.724l0.09,0.355l-0.384,0.098    l-0.354,0.09l-0.384,0.098l0.098,0.383l-0.383,0.098l-0.355,0.09l-0.383,0.098l-0.354,0.091l0.098,0.384l-0.354,0.09l-0.384,0.098    l0.098,0.384l-0.383,0.098l-0.294,0.452l-0.354,0.09l-0.355,0.09l0.091,0.355l-0.383,0.098l-0.257,0.475l-0.414,0.105l-0.354,0.09    l0.09,0.354l-0.354,0.09l0.105,0.414l-0.384,0.098l-0.354,0.09l0.09,0.355l-0.475-0.257l-0.263,0.445l0.052,0.206l-0.038-0.021    l-0.045-0.177l-0.354,0.09l-0.384,0.098l-0.354,0.09l0.09,0.354l-0.384,0.098l0.098,0.384l-0.383,0.098l-0.355,0.09l-0.383,0.098    l0.09,0.355l-0.355,0.09l0.105,0.414l0.09,0.354l-0.383,0.098l-0.384,0.098l0.091,0.355l-0.354,0.09l0.098,0.384l-0.384,0.098    l-0.354,0.09l-0.384,0.098l-0.384,0.098l-0.354,0.09l-0.384,0.098l0.09,0.354l0.105,0.414l-0.354,0.09l-0.384,0.098l-0.354,0.09    l0.09,0.355l-0.384,0.098l-0.383,0.098l-0.265,0.444l-0.383,0.098l0.098,0.384l-0.355,0.09l0.09,0.355l-0.383,0.098l-0.384,0.098    l-0.354,0.09l0.105,0.414l0.09,0.354l-0.384,0.098l-0.354,0.09l0.09,0.355l-0.384,0.098l-0.383,0.098l0.098,0.384l0.09,0.354    l-0.25,0.504l0.091,0.355l0.09,0.354l-0.383,0.098l-0.355,0.09l0.098,0.384l0.355-0.09l0.09,0.355l-0.354,0.09l-0.383,0.098    l0.489,0.316l-0.383,0.098l-0.384,0.098l0.09,0.354l-0.354,0.09l0.09,0.355l-0.384,0.098l0.098,0.384l-0.355,0.09l0.09,0.354    l-0.383,0.098l-0.384,0.098l0.105,0.414l0.09,0.355l-0.354,0.09l0.09,0.354l-0.384,0.098l0.098,0.384l-0.256,0.474l-2.214,0.564    l-0.196-0.769l-1.151,0.294l-0.09-0.354l-0.444-0.265l-0.384,0.098l-0.293-1.151l-0.384,0.098l-0.09-0.354l-0.354,0.09    l-0.09-0.354l-0.384,0.098l0.09,0.354l-0.708,0.18l0.091,0.355l-4.135,1.054l-0.286-1.122l-1.092,0.278l-0.188-0.739l-0.738,0.188    l-0.09-0.354l-0.384,0.098l-0.09-0.355l-0.738,0.188l-0.105-0.414l-0.354,0.09l-0.188-0.738l-0.414,0.105l-0.181-0.708    l-0.354,0.09l-0.294,0.452l-0.354,0.09l0.091,0.355l-0.445-0.264l-0.293,0.453l-0.768,0.195l-0.257,0.475l-0.354,0.09    l-0.098-0.384l-0.384,0.098l-0.285,0.482l-0.384,0.098l0.09,0.354l-0.708,0.181l0.105,0.414l-1.152,0.293l-0.263,0.445    l-0.354,0.09l-0.084,5.966l-3.268-0.362l-0.95,14.901l19.963,2.083l-0.384-1.506l0.708-0.181l-0.09-0.354l0.384-0.098    l-0.105-0.414l0.354-0.09l-0.09-0.355l0.414-0.105l-0.098-0.384l-0.09-0.354l0.355-0.091l-0.09-0.354l0.354-0.09l-0.105-0.414    l0.384-0.098l0.264-0.444l-0.098-0.384l0.414-0.105l-0.09-0.355l-0.09-0.354l0.354-0.09l-0.105-0.414l-0.09-0.355l0.355-0.09    l-0.453-0.293l-0.09-0.354l0.354-0.091l0.091,0.355l0.383-0.098l0.354-0.09l0.414-0.105l-0.09-0.355l-0.512-0.279l-0.098-0.384    l0.414-0.105l0.354-0.09l-0.09-0.354l0.354-0.09l-0.098-0.384l0.384-0.098l0.098,0.384l0.256-0.474l0.414-0.105l-0.09-0.354    l-0.09-0.355l-0.105-0.413l0.355-0.091l0.354-0.09l-0.09-0.355l-0.098-0.383l-0.09-0.355l-0.354,0.09l-0.098-0.384l0.354-0.09    l0.384-0.098l0.354-0.09l-0.098-0.383l-0.09-0.355l-0.354,0.09l-0.098-0.384l0.354-0.09l-0.098-0.384l0.413-0.105l0.354-0.09    l-0.09-0.354l0.354-0.09l0.383-0.098l0.355-0.09l0.413-0.105l0.09,0.354l0.354-0.09l-0.09-0.354l0.354-0.09l0.09,0.354    l0.384-0.098l-0.09-0.354l0.354-0.09l-0.098-0.384l0.414-0.105l0.354-0.09l0.098,0.384l0.257-0.475l0.384-0.098l0.383-0.098    l0.293-0.453l0.091,0.355l0.354-0.09l0.453,0.294l-0.098-0.384l0.383-0.098l-0.09-0.355l-0.098-0.383l-0.09-0.355l-0.098-0.384    l0.355-0.091l0.383-0.098l0.384-0.098l0.098,0.384l0.444,0.265l0.384-0.098l0.098,0.383l0.354-0.09l0.287-0.481l0.383-0.098    l0.098,0.383l0.354-0.091l0.383-0.098l0.091,0.355l0.354-0.09l0.512,0.279l-0.098-0.384l0.354-0.09l-0.09-0.355l-0.098-0.383    l0.263-0.445l0.287-0.482l0.098,0.384l0.354-0.09l0.09,0.354l0.384-0.098l-0.09-0.355l0.384-0.098l-0.098-0.384l-0.098-0.383    l0.264-0.445l0.384-0.098l0.354-0.09l-0.098-0.384l0.384-0.098l0.098,0.384l0.354-0.09l0.09,0.354l0.384-0.098l-0.09-0.355    l0.383-0.098l0.354-0.09l0.383-0.098l0.355-0.091l-0.098-0.384l0.383-0.098l0.098,0.384l0.384-0.098l0.09,0.354l0.354-0.09    l-0.09-0.355l0.384-0.098l-0.294,0.453l0.384-0.098l0.098,0.383l0.354-0.09l0.007,0.03l0.031-0.007l0.354-0.09l0.09,0.354    l0.09,0.354l0.482,0.286l0.09,0.354l0.459,0.324l0.384-0.098l0.354-0.09l0.384-0.098l0.09,0.354l0.474,0.256l-0.383,0.098    l0.098,0.384l0.091,0.355l0.098,0.383l0.383-0.098l0.098,0.384l0.355-0.091l0.09,0.355l0.383-0.098l0.098,0.383l0.09,0.355    l0.355-0.091l0.105,0.414l0.383-0.098l0.384-0.098l0.354-0.09l0.091,0.355l0.384-0.098l0.354-0.09l0.09,0.354l0.098,0.384    l0.384-0.098l0.383-0.098l0.09,0.354l0.355-0.09l0.098,0.384l0.098,0.384l0.09,0.354l0.383-0.098l0.098,0.383l0.445,0.265    l0.383-0.098l0.384-0.098l-0.09-0.355l0.354-0.09l0.384-0.098l-0.098-0.383l0.354-0.09l0.098,0.383l0.384-0.098l-0.098-0.383    l0.384-0.098l0.354-0.09l0.384-0.098l0.098,0.383l0.256-0.474l0.384-0.098l-0.09-0.355l0.383-0.098l0.355-0.09l-0.098-0.384    l0.383-0.098l-0.098-0.384l0.355-0.09l-0.09-0.354l0.354-0.09l0.414-0.105l-0.098-0.384l0.354-0.09l-0.09-0.354l0.384-0.098    l-0.091-0.355l0.354-0.09l-0.105-0.414l0.355-0.091l-0.09-0.354l-0.098-0.383l0.414-0.105l-0.091-0.355l0.256-0.474l-0.098-0.383    l0.384-0.098l-0.09-0.355l-0.098-0.384l0.354-0.09l0.354-0.09l0.866,0.188l0.383-0.098l1.184,0.076l0.383-0.098l0.49,0.315    l0.354-0.09l1.596-0.03l0.799,0.174l0.384-0.098l0.865,0.188l0.709-0.181l0.384-0.098l1.672,0.392l0.383-0.098l-0.105-0.414    l0.49,0.316l0.383-0.098l0.25-0.504l0.354-0.09l0.384-0.098l1.227,0.128l1.183,0.076l0.293-0.453l0.738-0.188l0.279-0.512    l0.738-0.188l-0.09-0.355l-0.098-0.383l0.384-0.098l0.354-0.09l-0.091-0.355l0.384-0.098l0.354-0.09l0.384-0.098l7.176,0.153    l-0.217-19.354l-36.854-0.137l-0.738,0.188l0.09,0.355l-0.739,0.188l-0.091-0.355L213.238,213.724z M208.8,236.654l-0.383,0.098    l0.09,0.355l0.383-0.098L208.8,236.654z M213.086,237.921l0.481,0.287l-0.383,0.098L213.086,237.921z" />
</svg>