<svg xmlns="http://www.w3.org/2000/svg" xmlns:xlink="http://www.w3.org/1999/xlink" x="0px" y="0px" width="620.843px"
    height="733.026px" viewBox="165 122 76 76">

    <style xmlns="http://www.w3.org/2000/svg">
        svg {
            filter: drop-shadow(2px 3px 0px rgb(176 136 98 / 1));
        }
    </style>

    <path id="plumas" fill="#218c74" stroke-width="0.5" stroke="#264653" stroke-miterlimit="1"
        d="M167.674,125.023l0.376,1.476l0.384-0.098    l0.098,0.384l0.354-0.09l0.09,0.355l-0.354,0.09l0.098,0.384l-0.384,0.098l0.09,0.354l0.098,0.384l-0.383,0.098l0.286,1.123    l-0.264,0.445l0.453,0.292l0.098,0.384l-0.264,0.445l0.384,1.506l0.738-0.188l0.475,0.257l0.354-0.09l0.482,0.286l0.738-0.188    l0.09,0.354l0.384-0.098l0.452,0.294l0.738-0.188l0.098,0.384l0.768-0.195l0.09,0.355l0.453,0.292l0.188,0.739l0.383-0.098    l0.098,0.383l0.09,0.354l0.355-0.09l0.098,0.384l0.383-0.098l0.09,0.354l-0.738,0.188l0.098,0.384l-0.285,0.482l-0.098-0.384    l-0.354,0.09l-0.383,0.098l0.098,0.384l0.09,0.354l0.383-0.098l0.098,0.384l-0.383,0.098l0.481,0.287l-0.293,0.452l0.098,0.383    l0.091,0.355l0.098,0.384l0.098,0.383l0.091,0.355l0.098,0.384l-0.384,0.098l-0.354,0.09l0.09,0.354l-0.384,0.098l0.098,0.384    l0.384-0.098l0.098,0.384l-0.293,0.453l0.098,0.383l-0.354,0.09l0.09,0.355l-0.384,0.098l-0.384,0.098l-0.091-0.355l-0.354,0.09    l0.091,0.355l-0.384,0.098l0.098,0.384l-0.354,0.09l-0.384,0.098l0.098,0.383l-0.383,0.098l-0.098-0.383l-0.355,0.09l-0.383,0.098    l-0.355,0.09l-0.098-0.384l-0.383,0.098l-0.384,0.098l0.098,0.384l0.098,0.383l0.09,0.355l-0.354,0.09l0.098,0.384l0.09,0.354    l0.098,0.384l-0.286,0.482l0.09,0.354l0.384-0.098l0.098,0.384l0.738-0.188l0.383-0.098l0.828,0.167l-0.264,2.049l0.196,0.769    l0.829,0.166l0.098,0.384l0.355-0.09l0.09,0.354l0.029,1.597l0.355-0.09l0.383-0.098l-0.293,0.452l0.098,0.384l0.098,0.384    l-0.354,0.091l-0.383,0.098l0.09,0.354l0.098,0.384l-0.355,0.091l-0.292,0.452l-0.384,0.098l-0.354,0.09l-0.09-0.355l0.09,1.958    l-0.807-0.203l0.098,0.383l0.09,0.354l0.098,0.384l-0.767,0.196l0.098,0.384l0.09,0.354l-0.286,0.482l0.188,0.738l0.384-0.098    l0.098,0.384l-0.264,2.049l-0.354,0.09l-0.03,1.611l-0.265,0.445l0.859,0.159l-0.218,0.873l-0.738,0.188l-0.355,0.09l-0.104,1.191    l0.383-0.098l0.738-0.188l0.196,0.769l-0.286,0.481l0.278,1.093l0.383-0.098l0.196,0.769l0.769-0.196l17.583,20.872l0.354-0.09    l0.384-0.098l-0.091-0.355l0.354-0.09l0.287-0.481l0.354-0.09l0.384-0.098l0.64-0.572l0.293-0.453l0.354-0.09l0.287-0.481    l0.383-0.098l1.476-0.376l0.294-0.453l0.354-0.09l-0.098-0.384l0.738-0.188l-0.098-0.384l0.384-0.098l-0.09-0.354l0.738-0.188    l-0.098-0.384l0.293-0.452l0.354-0.09l-0.098-0.384l0.383-0.098l-0.188-0.739l0.384-0.098l-0.294-1.152l0.264-2.048l0.354-0.09    l0.587-0.905l1.476-0.376l-0.098-0.383l0.738-0.188l-0.098-0.384l1.122-0.286l0.376,1.478l0.738-0.188l0.293,1.152l0.738-0.188    l0.09,0.354l0.768-0.196l0.09,0.354l-0.414,0.105l0.384,1.506l0.414-0.105l0.098,0.384l0.354-0.09l0.188,0.738l1.123-0.286    l-0.09-0.354l1.476-0.376l0.188,0.738l0.354-0.09l0.09,0.354l0.414-0.105l0.098,0.384l0.738-0.188l0.188,0.739l0.354-0.09    l0.188,0.738l0.355-0.09l0.098,0.384l0.413-0.105l0.188,0.738l1.447-0.369l-0.09-0.354l0.414-0.105l-0.098-0.383l0.354-0.09    l-0.188-0.739l0.738-0.188l28.934,0.143l-0.188-0.738l0.097-1.22l1.122-0.286l0.166-0.829l-0.098-0.384l0.482,0.286l0.098-1.221    l0.354-0.09l-0.09-0.354l0.286-0.482l-0.098-0.384l0.166-0.828l-0.286-1.123l0.106-1.191l0.256-0.475l-0.286-1.122l0.294-0.452    l-0.286-1.124l0.195-0.836l-0.105-0.414l0.738-0.188l-0.09-0.354l0-1.604l-0.475-0.257l-0.188-0.738l-0.098-0.384l0.196-0.836    l-0.09-0.354l-0.768,0.195l-0.354,0.091l0.257-0.475l-0.098-0.384l-0.355,0.09l-0.098-0.383l-0.474-0.257l-0.09-0.354    l-0.384,0.098l-0.098-0.384l-0.098-0.384l-0.738,0.188l0.286-0.482l-0.09-0.354l-0.09-0.354l-0.384,0.098l-0.098-0.384    l-0.196-0.767l-0.09-0.355l-0.354,0.09l0.068-1.213l-1.092,0.279l0.166-0.829l-0.09-0.355l0.09-1.25L242,157.194l-0.354,0.09    l0.075-1.184l0.188-0.866l0.075-1.183l-0.098-0.383l-0.738,0.188l-0.354,0.09l-0.866-0.188l-0.354,0.09l-0.09-0.355l0.068-1.212    l-0.098-0.384l-0.354,0.09l-0.384,0.098l-0.181-0.709l-0.354,0.09l-0.768,0.195l-0.355,0.091l-0.835-0.195l-0.866-0.188    l-0.738,0.188l-0.354,0.09l-0.098-0.384l-0.09-0.355l-0.384,0.098l-0.474-0.256l-0.098-0.384l-0.354,0.09l-0.384,0.098    l-0.098-0.384l-0.354,0.09l0.256-0.474l-0.09-0.354l-0.354,0.09l-0.384,0.098l-0.474-0.257l-0.105-0.414l-0.355,0.091    l-0.188-0.738l0.265-0.444l-0.738,0.188l-0.09-0.355l0.278-0.511l-0.383,0.098l-0.355,0.091l-0.444-0.265l-0.098-0.383    l-0.414,0.105l0.127-1.228l-0.858-0.159l0.166-0.828l-0.452-0.294l-1.122,0.286l-0.188-0.739l0.287-0.481l-0.858-0.159    l0.188-0.865l-0.474-0.257l-0.355,0.09l-0.383,0.098l-0.098-0.384l0.293-0.452l-0.098-0.384l-0.383,0.098l-0.354,0.09    l-0.452-0.294l0.264-0.444l-0.354,0.09l-0.865-0.188l-0.09-0.355l-0.836-0.196l-0.738,0.188l0.007-1.574l-1.596,0.029    l-0.105-0.414l-1.123,0.286l0.196-0.836l-0.384,0.098l-0.738,0.188l-0.09-0.355l-0.09-0.354l-0.354,0.09l-0.105-0.414    l-0.091-0.354l-1.604,0l-0.738,0.188l-0.859-0.158l-0.354,0.09l-0.452-0.294l-0.098-0.384l-0.384,0.098l-0.475-0.256l-0.383,0.098    l-0.355,0.09l-0.452-0.294l-0.384,0.098l0.098,0.384l0.09,0.354l-0.354,0.09l-0.316,0.489l-0.452-0.294l-0.355,0.091l-0.383,0.098    l-0.188,0.866l0.188,0.738l0.09,0.354l-1.183-0.076l0.091,0.354l-0.384,0.098l-0.768,0.196l-0.159,0.858l-0.354,0.09l-0.294,0.453    l-0.354,0.09l0.098,0.384l-0.414,0.105l-0.354,0.09l-0.354,0.09l-0.188,0.865l0.091,0.355l-0.167,0.829l0.286,1.122l-0.413,0.105    l-0.098-0.384l-0.709,0.181l0.098,0.384l-0.384,0.098l-0.354,0.09l-1.22-0.098l-0.383,0.098l-0.098-0.383l-0.09-0.355l0.285-0.482    l-0.383,0.098l-0.355,0.091l-0.473-0.256l0.187-0.866l-1.211-0.068l-0.384,0.098l-1.665-0.363l-0.196-0.767l-0.829-0.167    l-0.384,0.098l-0.836-0.196l0.069-1.212l-0.09-0.354l-0.355,0.09l-0.836-0.196l0.212-14.713l-15.475-0.018L167.674,125.023z" />

</svg>