<svg xmlns="http://www.w3.org/2000/svg" xmlns:xlink="http://www.w3.org/1999/xlink" x="0px" y="0px" width="620.843px"
    height="733.026px" viewBox="424 582 150 150">

    <style xmlns="http://www.w3.org/2000/svg">
        svg {
            filter: drop-shadow(2px 3px 0px rgb(176 136 98 / 1));
        }
    </style>

    <polyline id="riverside" fill="#218c74" stroke-width="0.5" stroke="#264653" stroke-miterlimit="1"
        points="602.649,607.316     602.371,609.374 601.634,612.725 599.985,615.542 597.927,616.838 597.391,619.368 597.484,619.732 597.869,619.634     597.967,620.02 598.424,620.292 598.516,620.652 598.615,621.038 599.282,623.653 599.372,624.007 599.007,624.101     598.715,624.564 598.351,624.657 598.258,624.292 597.868,624.391 597.508,624.483 597.601,624.848 597.702,625.239     598.192,628.667 599.026,630.435 599.5,632.295 600.357,635.657 600.45,636.022 600.28,636.859 599.996,637.347 599.625,637.442     598.886,637.629 598.522,637.723 598.614,638.083 598.229,638.18 598.322,638.545 598.05,639.025 598.335,640.141     598.539,644.051 598.457,646.859 597.165,649.552 595.415,651.975 595.129,652.463 593.566,655.616 593.207,655.708     593.204,657.306 501.001,662.166 427.382,663.889 427.484,662.676 419.276,660.007 419.44,659.167 419.731,658.703     418.992,658.891 414.624,658.828 413.392,658.731 411.434,658.836 410.715,659.02 410.332,659.118 410.233,658.732     410.617,658.633 410.89,658.181 410.797,657.816 410.432,657.909 410.333,657.524 410.508,656.68 410.415,656.316     410.769,656.225 411.332,655.283 411.24,654.922 411.891,654.346 413.276,652.012 413.182,651.647 413.542,651.555     415.781,647.815 416.145,647.722 416.046,647.337 416.402,647.247 416.308,646.881 415.954,646.972 415.863,646.617     413.43,644.834 413.338,644.475 412.3,643.557 410.729,643.547 409.887,643.374 409.502,643.471 408.68,643.271 408.396,642.155     408.569,641.312 408.094,639.452 405.112,638.64 405.013,638.255 403.883,636.972 403.785,636.587 402.591,634.909     401.652,634.376 400.246,631.95 399.3,631.391 399.209,631.037 399.595,630.938 399.496,630.547 399.864,630.454 399.771,630.089     399.304,629.797 400.511,629.901 400.507,626.732 400.96,627.01 401.705,626.821 402.55,626.988 403.27,626.805 403.178,626.445     403.474,625.976 403.185,624.845 403.364,624.023 403.173,623.277 404.283,622.995 405.318,622.32 406.427,622.038     406.333,621.667 406.608,619.615 406.325,618.505 407.439,618.221 408.646,618.302 409,618.212 409.1,618.603 410.604,618.219     410.694,618.574 412.187,618.193 417.662,617.986 417.946,619.101 427.454,619.069 427.348,620.285 446.143,619.452     446.053,617.493 547.56,613.425 547.187,610.357 602.649,607.316   " />

</svg>