<svg xmlns="http://www.w3.org/2000/svg" xmlns:xlink="http://www.w3.org/1999/xlink" x="0px" y="0px" width="620.843px"
    height="733.026px" viewBox="139 255 60 60">

    <style xmlns="http://www.w3.org/2000/svg">
        svg {
            filter: drop-shadow(2px 3px 0px rgb(176 136 98 / 1));
        }
    </style>

    <path id="sacramento" fill="#218c74" stroke-width="0.5" stroke="#264653" stroke-miterlimit="1"
        d="M158.931,256.884l0.098,0.384    l-0.383,0.098l0.09,0.354l0.098,0.384l-0.384,0.098l0.098,0.384l-0.354,0.09l0.09,0.354l-0.384,0.098l-0.354,0.09l0.098,0.383    l-0.384,0.098l-0.354,0.09l0.474,1.861l1.024,0.934l0.444,0.264l0.294,1.153l1.506-0.384l0.445,0.263l-0.076,1.184l0.475,1.861    l0.46,0.323l0.09,0.354l0.293-0.452l0.738-0.188l0.828,0.166l0.09,0.355l0.384-0.098l0.098,0.384l-0.188,0.865l0.09,0.355    l-0.264,0.444l-0.384,0.098l-0.285,0.482l0.09,0.355l0.105,0.414l0.473,0.256l0.098,0.384l-0.285,0.482l-1.003,0.633l0.098,0.384    l0.09,0.355l0.098,0.383l-0.383,0.098l-0.738,0.188l-0.384,0.098l-0.256,0.475l-0.293,0.453l0.188,0.738l0.58,0.67l0.542,0.648    l1.213,0.069l0.383-0.098l0.09,0.354l0.098,0.384l0.196,0.768l0.09,0.355l0.09,0.354l-0.383,0.098l0.105,0.413l-0.384,0.098    l0.09,0.354l-0.354,0.09l-0.09-0.354l-0.384,0.098l-0.354,0.09l-0.384,0.098l0.09,0.354l0.572,0.641l0.09,0.354l0.105,0.414    l0.09,0.355l0.098,0.383l0.091,0.355l0.09,0.354l0.106,0.415l-0.384,0.098l-0.383,0.098l0.09,0.354l0.098,0.384l0.09,0.354    l-0.264,0.445l0.105,0.414l-0.384,0.098l-0.264,0.445l-0.384,0.098l0.098,0.383l-0.383,0.098l-0.098-0.383l-0.355,0.09    l-0.383,0.098l0.098,0.383l-0.355,0.091l-0.383,0.098l0.09,0.354l-0.355,0.091l-0.264,0.444l-0.09-0.354l-0.414,0.105l0.09,0.354    l-0.354,0.09l0.098,0.384l-0.384,0.098l0.098,0.384l-0.354,0.09l0.098,0.384l-0.384,0.098l0.09,0.354l-0.383,0.098l0.09,0.355    l0.105,0.414l0.09,0.354l0.098,0.384l0.09,0.354l-0.354,0.091l0.09,0.354l0.098,0.384l0.098,0.384l0.098,0.384L158.079,294    l0.09,0.354l0.098,0.384l0.098,0.384l-0.355,0.091l0.09,0.354l0.098,0.384l0.09,0.355l-0.256,0.474l-0.315,0.489l0.09,0.355    l-0.354,0.09l0.098,0.384l-0.294,0.452l-0.354,0.09l-0.445-0.264l-0.414,0.105l-0.264,0.444l-0.384,0.098l-0.354,0.09l-0.355,0.09    l-0.383,0.098l0.098,0.384l-0.384,0.098l0.098,0.384l0.188,0.738l-0.618,2.14l-0.775,1.77l-1.092,1.883l-0.55,0.926l-2.501,1.046    l-1.219-0.098l-0.257,0.475l0.543,0.648l1.407,0.837l1.566-0.022l0.384-0.098l0.384-0.098l0.354-0.09l0.55-0.926l0.384-0.098    l0.64-0.572l-0.188-0.738l0.068-1.212l0.293-0.453l0.768-0.196l3.781-0.586l1.123-0.286l-0.09-0.355l-0.105-0.414l-0.09-0.354    l0.354-0.09l-0.09-0.354l0.384-0.098l0.383-0.098l0.257-0.475l0.383-0.098l-0.09-0.354l0.355-0.09l0.383-0.098l0.384-0.098    l-0.105-0.414l0.354-0.09l-0.09-0.354l0.384-0.098l-0.09-0.354l0.354-0.09l-0.098-0.384l0.414-0.105l-0.09-0.355l-0.105-0.414    l-0.09-0.354l-0.09-0.355l-0.098-0.384l0.354-0.09l-0.09-0.354l0.354-0.09l0.383-0.098l0.355-0.091l-0.105-0.413l0.383-0.098    l-0.09-0.355l-0.09-0.354l0.355-0.09l-0.098-0.384l0.383-0.098l0.098,0.384l0.384-0.098l-0.098-0.384l-0.098-0.384l0.354-0.09    l-0.098-0.384l0.384-0.098l0.294-0.452l-0.091-0.355l-0.098-0.384l0.354-0.09l0.384-0.098l0.098,0.384l0.354-0.09l0.384-0.098    l0.09,0.355l0.354-0.09l0.384-0.098l0.09,0.354l0.383-0.098l0.098,0.384l0.355-0.09l-0.257,0.475l0.098,0.384l0.355-0.09    l0.09,0.354l0.383-0.098l0.091,0.354l0.354-0.09l0.105,0.414l0.383-0.098l0.384-0.098l0.354-0.09l0.474,0.256l0.354-0.09    l0.384-0.098l0.384-0.098l0.098,0.384l0.354-0.09l0.384-0.098l0.09,0.354l0.354-0.09l-0.09-0.355l0.354-0.09l0.414-0.105    l0.354-0.09l0.383-0.098l0.091,0.355l0.354-0.091l0.354-0.09l0.414-0.105l-0.09-0.355l0.354-0.09l-0.098-0.384l0.384-0.098    l0.354-0.09l0.384-0.098l0.383-0.098l0.098,0.384l0.355-0.09l0.09,0.355l0.383-0.098l0.355-0.091l0.354-0.09l0.474,0.256    l0.384-0.098l0.383-0.098l0.355-0.09l0.354-0.09l0.384-0.098l0.383-0.098l0.384-0.098l0.459,0.323l0.355-0.09l0.413-0.105    l0.354-0.091l-0.105-0.413l0.383-0.098l-0.09-0.354l0.354-0.091l0.09,0.354l0.354-0.09l-0.09-0.354l0.384-0.098l0.383-0.098    l-0.09-0.355l0.384-0.098l0.354-0.09l0.355-0.09l0.383-0.098l0.286-0.482l0.482,0.286l0.354-0.09l0.354-0.09l0.287-0.482    l0.384-0.098l0.383-0.098l-0.09-0.354l0.445,0.264l0.354-0.09l0.098,0.384l0.09,0.355l0.474,0.256l-0.09-0.354l0.354-0.09    l-0.09-0.355l0.414-0.105l0.354-0.09l-0.098-0.384l0.28-15.925l-4.315-13.969l-0.609-0.662l-0.09-0.354l-0.542-0.648l-0.384,0.098    l-0.444-0.265l-0.354,0.09l-19.963-2.083L158.931,256.884z" />

</svg>