<svg xmlns="http://www.w3.org/2000/svg" xmlns:xlink="http://www.w3.org/1999/xlink" x="0px" y="0px" width="620.843px"
    height="733.026px" viewBox="142 288 73 73">

    <style xmlns="http://www.w3.org/2000/svg">
        svg {
            filter: drop-shadow(2px 3px 0px rgb(176 136 98 / 1));
        }
    </style>

    <path id="san joaquin" fill="#218c74" stroke-width="0.5" stroke="#264653" stroke-miterlimit="1"
        d="    M165.512,293.678l0.098,0.384l0.091,0.355l-0.265,0.444l-0.384,0.098l0.098,0.384l-0.383,0.098l0.098,0.384l0.098,0.384    l-0.384,0.098l-0.098-0.384l-0.354,0.09l0.098,0.384l-0.355,0.09l0.09,0.354l0.09,0.355l-0.383,0.098l0.105,0.413l-0.384,0.098    l-0.383,0.098l-0.354,0.09l0.09,0.354l-0.354,0.09l0.098,0.384l0.09,0.355l0.09,0.354l0.105,0.414l0.09,0.355l-0.384,0.098    l0.098,0.384l-0.383,0.098l0.09,0.354l-0.384,0.098l0.09,0.355l-0.354,0.09l0.105,0.414l-0.355,0.091L161,302.378l-0.355,0.09    l0.09,0.354l-0.383,0.098l-0.287,0.482l-0.354,0.09l-0.384,0.098l0.09,0.354l-0.354,0.09l0.09,0.354l0.105,0.414l0.09,0.355    l0.354-0.09l0.482,0.285l0.09,0.355l0.64,1.032l-0.166,0.828l0.934,0.58l0.926,0.55l0.383-0.098l1.311,0.453l1.468,1.198    l0.67,1.024l0.383-0.098l0.641,1.033l0.384,1.506l0.09,0.354l-0.64,0.572l-1.024-0.934l-0.761-1.379l-1.152-1.311l-0.542-0.647    l-0.648,0.542l-1.755-0.717l-1.024-0.934l-0.572-0.64l-0.196-0.769l-0.354,0.09l-0.384,0.098l0.098,0.384l0.098,0.384    l-0.384,0.098l0.091,0.354l0.098,0.383l0.09,0.355l-0.354,0.09l0.098,0.384l0.098,0.383l0.09,0.355l0.354-0.09l-0.091-0.354    l-0.098-0.383l0.384-0.098l0.098,0.383l0.091,0.355l0.384-0.098l0.098,0.384l0.09,0.354l0.098,0.384l-0.384,0.098l0.098,0.384    l-0.384,0.098l-0.354,0.09l-0.384,0.098l0.09,0.354l0.384-0.098l0.354-0.09l0.098,0.384l-0.354,0.09l-0.384,0.098l0.098,0.384    l0.091,0.354l-0.383,0.098l0.098,0.383l0.383-0.098l0.09,0.355l-0.383,0.098l0.098,0.384l0.383-0.098l0.098,0.384l-0.383,0.098    l0.09,0.354l0.383-0.098l0.098,0.384l-0.383,0.098l-0.354,0.091l0.445,0.263l0.098,0.384l0.098,0.384l0.286-0.482l0.098,0.384    l0.091,0.355l-0.383,0.098l0.098,0.383l0.383-0.098l0.09,0.354l-0.383,0.098l0.098,0.384l0.383-0.098l0.09,0.354l-0.383,0.098    l-0.355,0.09l0.098,0.384l0.098,0.384l-0.383,0.098l-0.355,0.09l0.09,0.354l0.354-0.09l0.098,0.384l-0.355,0.09l0.091,0.355    l-0.383,0.098l0.098,0.383l0.098,0.384l-0.355,0.09l0.091,0.355l-0.383,0.098l0.098,0.384l0.383-0.098l0.09,0.354l-0.383,0.098    l0.098,0.384l0.383-0.098l0.098,0.384l0.355-0.09l0.383-0.098l0.355-0.091l0.09,0.354l0.383-0.098l0.098,0.384l0.355-0.09    l0.09,0.354l-0.355,0.091l0.098,0.383l0.098,0.384l-0.383,0.098l-0.355,0.09l-0.383,0.098l0.09,0.355l0.098,0.383l-0.354,0.091    l0.098,0.384l0.083,22.156l1.22,0.098l0.09,0.354l0.384-0.098l0.844,0.226l0.354-0.09l0.091,0.355l-0.354,0.09l0.09,0.354    l0.354-0.09l0.098,0.384l-0.256,0.474l0.452,0.294l0.384-0.098l0.09,0.354l0.384-0.098l0.09,0.355l0.098,0.384l0.354-0.09    l-0.256,0.474l0.098,0.384l15.078-15.356l0.383-0.098l-0.091-0.355l0.355-0.09l0.09,0.355l0.383-0.098l-0.09-0.355l-0.098-0.383    l0.384-0.098l0.098,0.383l0.354-0.09l0.09,0.354l0.384-0.098l0.09,0.354l0.354-0.09l-0.09-0.354l-0.091-0.355l0.384-0.098    l-0.098-0.383l0.482,0.285l0.354-0.09l-0.098-0.383l0.384-0.098l-0.098-0.384l0.354-0.09l-0.452-0.294l0.354-0.09l0.354-0.09    l0.414-0.105l0.355-0.09l-0.09-0.355l0.474,0.257l0.355-0.09l0.098,0.384l0.354-0.09l-0.098-0.384l0.414-0.105l0.264-0.445    l-0.196-0.768l0.49,0.316l0.354-0.09l0.09,0.354l0.384-0.098l0.293-0.452l0.09,0.354l0.355-0.09l0.383-0.098l0.355-0.09    l-0.09-0.354l0.354-0.09l0.384-0.098l0.09,0.354l0.475,0.257l0.383-0.098l0.355-0.09l0.098,0.384l0.354-0.09l-0.098-0.384    l0.384-0.098l-0.09-0.355l0.293-0.452l0.384-0.098l0.09,0.354l-0.293,0.453l0.384-0.098l0.354-0.09l0.265-0.445l-0.09-0.354    l0.413-0.105l0.09,0.354l0.355-0.09l0.09,0.355l0.383-0.098l0.098,0.384l0.098,0.384l0.355-0.09l0.098,0.383l0.354-0.09    l0.475,0.257l0.383-0.098l0.384-0.098l0.444,0.264l0.355-0.091l0.182-25.808l-5.58-17.201l-0.354,0.09l-0.414,0.105l0.09,0.355    l-0.354,0.09l0.09,0.354l-0.474-0.256l-0.09-0.355l-0.098-0.384l-0.354,0.09l-0.445-0.264l0.09,0.354l-0.383,0.098l-0.384,0.098    l-0.287,0.482l-0.354,0.09l-0.354,0.09l-0.482-0.286l-0.286,0.482l-0.383,0.098l-0.355,0.09l-0.354,0.09l-0.384,0.098l0.09,0.355    l-0.383,0.098l-0.384,0.098l0.09,0.354l-0.354,0.09l-0.09-0.354l-0.354,0.091l0.09,0.354l-0.383,0.098l0.105,0.413l-0.354,0.091    l-0.413,0.105l-0.355,0.09l-0.459-0.323l-0.384,0.098l-0.383,0.098l-0.384,0.098l-0.354,0.09l-0.355,0.09l-0.383,0.098    l-0.384,0.098l-0.474-0.256l-0.354,0.09l-0.355,0.091l-0.383,0.098l-0.09-0.355l-0.355,0.09l-0.098-0.384l-0.383,0.098    l-0.384,0.098l-0.354,0.09l-0.384,0.098l0.098,0.384l-0.354,0.09l0.09,0.355l-0.414,0.105l-0.354,0.09l-0.354,0.091l-0.091-0.355    l-0.383,0.098l-0.354,0.09l-0.414,0.105l-0.354,0.09l0.09,0.355l-0.354,0.09l-0.09-0.354l-0.384,0.098l-0.354,0.09l-0.098-0.384    l-0.384,0.098l-0.384,0.098l-0.354,0.09l-0.474-0.256l-0.354,0.09l-0.029,0.008l-0.384,0.098l-0.354,0.09l-0.105-0.414    l-0.354,0.09l-0.091-0.354l-0.383,0.098l-0.09-0.354l-0.355,0.09l-0.098-0.384l0.257-0.475l-0.355,0.09l-0.098-0.384l-0.383,0.098    l-0.09-0.354l-0.384,0.098l-0.354,0.09l-0.09-0.355l-0.384,0.098l-0.354,0.09l-0.098-0.384l-0.384,0.098L165.512,293.678z     M159.937,312.148l-0.098-0.384l-0.384,0.098l0.098,0.384L159.937,312.148z" />

</svg>