<svg xmlns="http://www.w3.org/2000/svg" xmlns:xlink="http://www.w3.org/1999/xlink" x="0px" y="0px" width="620.843px"
    height="733.026px" viewBox="409 655 90 90">

    <style xmlns="http://www.w3.org/2000/svg">
        svg {
            filter: drop-shadow(2px 3px 0px rgb(176 136 98 / 1));
        }
    </style>

    <polyline id="san diego" fill="#218c74" stroke-width="0.5" stroke="#264653" stroke-miterlimit="1"
        points="405.258,667.16 406.172,662.963     406.528,662.873 406.62,663.233 409.226,662.569 409.524,662.109 410.627,661.828 410.529,661.438 410.524,659.873     410.332,659.118 411.434,658.836 413.392,658.731 418.992,658.891 419.731,658.703 419.44,659.167 419.276,660.007     427.484,662.676 427.382,663.889 501.001,662.166 502.333,689.199 500.865,689.574 502.076,724.193 436.576,732.53     434.288,725.182 432.23,721.744 431.024,721.64 429.99,720.716 431.2,719.225 431.564,719.132 432.413,719.305 432.957,719.96     433.63,720.975 435.329,724.506 436.267,726.664 437.382,727.951 437.751,727.856 438.136,727.758 438.042,727.388     438.309,726.911 437.934,725.441 437.459,723.58 436.81,722.557 436.428,721.057 434.723,719.125 433.324,718.268     431.844,717.075 430.434,717.828 429.808,718.397 429.607,719.215 429.342,719.699 429.05,720.162 428.598,719.888     427.951,718.871 427.932,717.277 428.1,716.435 428.85,716.244 429.408,715.302 430.332,714.295 430.142,713.55 429.678,713.252     428.75,712.717 428.476,713.171 428.375,714.383 428.11,714.862 427.724,714.959 427.076,713.916 426.237,712.148     425.671,709.928 425.845,709.089 428.162,707.306 425.962,697.155 422.673,688.879 417.138,679.584 405.258,667.16   " />

</svg>