<svg xmlns="http://www.w3.org/2000/svg" xmlns:xlink="http://www.w3.org/1999/xlink" x="0px" y="0px" width="620.843px"
    height="733.026px" viewBox="150 390 70 70">

    <style xmlns="http://www.w3.org/2000/svg">
        svg {
            filter: drop-shadow(2px 3px 0px rgb(176 136 98 / 1));
        }
    </style>

    <path id="san benito" fill="#218c74" stroke-width="0.5" stroke="#264653" stroke-miterlimit="1"
        d="M163.201,391.815l-0.521,0.919    l-0.413,0.104l-0.55,0.928l0.196,0.768l-0.355,0.09l0.09,0.355l-1.024,0.669l-0.293,0.452l-0.354,0.091l0.098,0.384l-0.64,0.572    l-0.769,0.196l0.188,0.738l-0.264,0.444l-0.444-0.265l-0.294,0.452l-0.09-0.354l-0.482-0.286l-1.476,0.376l-0.571-0.641    l-0.098-0.384l-0.384,0.098l-0.09-0.354l-0.806,1.401l-0.384,0.098l0.474,1.86l7.756,8.719l1.506-0.384l0.09,0.354l0.354-0.09    l0.098,0.384l-0.354,0.091l0.098,0.384l0.354-0.09l0.09,0.354l0.482,0.286l0.09,0.355l0.098,0.383l0.383-0.098l0.098,0.385    l0.09,0.354l-0.383,0.098l0.098,0.384l-0.384,0.099l-0.354,0.09l-0.355,0.091l-0.383,0.098l-0.098-0.385l-0.384,0.099l0.098,0.384    l0.09,0.354l0.098,0.385l0.384-0.098l0.098,0.384l0.09,0.354l0.098,0.385l0.09,0.354l0.383-0.098l0.355-0.09l0.105,0.413    l0.09,0.354l0.354-0.09l0.09,0.354l0.384-0.098l0.383-0.098l0.384-0.098l0.098,0.383l0.354-0.09l0.354-0.091l0.098,0.385    l0.098,0.384l0.09,0.354l0.09,0.354l0.383-0.098l0.354-0.091l0.098,0.385l0.413-0.105l0.355-0.091l0.09,0.354l0.354-0.091    l0.384-0.098l0.354-0.09l0.105,0.413l0.384-0.098l0.09,0.354l0.09,0.355l0.384-0.099l0.098,0.384l0.09,0.354l0.105,0.414    l0.09,0.354l0.09,0.354l0.354-0.09l0.098,0.385l0.098,0.384l0.384-0.098l0.098,0.383l0.09,0.354l-0.384,0.099l-0.263,0.445    l0.098,0.383l0.098,0.384l0.098,0.385l0.09,0.354l-0.384,0.099l-0.384,0.098l0.09,0.354l0.098,0.385l0.098,0.384l0.098,0.383    l0.475,0.258l0.384-0.099l0.09,0.354l0.098,0.384l0.098,0.385l0.354-0.091l0.188,0.738l-1.092,1.883l0.444,0.265l1.506-0.384    l1.665,0.361l1.121-0.285l0.67,2.629l11.234,11.386l-0.188,0.865l0.09,0.354v1.604l0.022,1.567l0.354-0.09l-0.098-0.384    l0.384-0.099l0.098,0.385l0.098,0.383l0.09,0.355l-0.384,0.098l0.098,0.384l0.384-0.098l0.383-0.098l-0.098-0.384l0.265-0.445    l0.383-0.098l0.09,0.354l0.355-0.091l0.383-0.098l0.355-0.09l-0.09-0.355l-0.098-0.383l0.383-0.098l0.286-0.482l0.354-0.09    l0.482,0.286l0.098,0.383l0.475,0.257l0.098,0.385l0.354-0.091l0.286-0.481l0.354-0.091l0.294-0.452l-0.098-0.384l0.835-1.408    l0.355-0.09l0.098,0.383l0.956,0.544l0.098,0.383l0.444,0.265l1.122-0.286l1.86,1.13l0.474,1.861l0.738-0.188l0.09,0.354    l0.383-0.098l0.279,1.093l0.384-0.098l0.196,0.768l0.738-0.188l0.286,1.123l0.836,0.195l0.278,1.094l0.934,0.58l1.506-0.384    l0.09,0.354l1.093-0.278l-0.188-0.738l0.286-0.481l-0.949-3.722l-0.383,0.098l-0.474-1.861l-0.355,0.091l-0.279-1.093    l-0.488-0.316l-0.355,0.091l-0.09-0.354l0.738-0.188l4.022,3.316l0.354-0.09l-0.181-0.709l0.384-0.098l-0.098-0.385l-0.384,0.098    l-0.196-0.768l0.558-0.897l0.354-0.09l0.315-0.49l1.86-0.474l0.098,0.384l1.092-0.278l-0.098-0.384l1.122-0.286l0.009-12.302    l-19.255-19.659l-13.434-7.68l-0.572-2.246l-0.354,0.091l-0.09-0.354l-0.384,0.099l-0.384-1.507l-0.384,0.098l-0.564-2.215    l-1.477,0.376l-0.098-0.384l-0.383,0.098l-0.188-0.738l-0.355,0.091l-0.196-0.769l0.265-0.444l-0.098-0.385l0.738-0.188    l-0.09-0.355l0.383-0.098l-0.188-0.738l-12.275-0.048l-0.098-0.384l-0.542-0.648l-0.098-0.384l-0.956-0.543l-0.098-0.385    l-1.123,0.286l0.098,0.385l-0.384,0.098L163.201,391.815z" />

</svg>