<svg xmlns="http://www.w3.org/2000/svg" xmlns:xlink="http://www.w3.org/1999/xlink" x="0px" y="0px" width="620.843px"
    height="733.026px" viewBox="184 480 86 86">

    <style xmlns="http://www.w3.org/2000/svg">
        svg {
            filter: drop-shadow(2px 3px 0px rgb(176 136 98 / 1));
        }
    </style>

    <path id="san luis obispo" fill="#218c74" stroke-width="0.5" stroke="#264653" stroke-miterlimit="1"
        d="M171.577,483.641l0.286,1.122    l0.67,1.024l0.286,1.122l-0.46,1.281l0.384,1.507l0.564,2.215l1.665,1.967l3.645,1.839l3.72,0.656l2.071,3.436l2.161,3.79    l1.95,3.09l3.192,3.149l4,1.749l3.358,0.716l0.678,1.055l1.499,2.795l0.828,1.771l0.376,1.476l-0.256,0.475l-1.672,1.213    l-1.573,1.597l-0.558,2.502l1.046,4.104l7.033,4.153l1.161-1.491l5.791,2.487l1.144,2.886l-0.007,1.574l0.196,0.768l-1.552,3.164    l-1.01,3.813l0.098,0.384l0.444,0.265l0.195,0.768l0.475,0.257l0.354-0.09l0.384-0.099l0.384-0.098l0.264-0.445l0.738-0.188    l0.09,0.354l0.482,0.285l0.383-0.098l0.257-0.474l0.293-0.452l0.445,0.264l0.383-0.098l0.452,0.293l0.768-0.195l0.256-0.474    l0.384-0.098l1.122-0.286l1.122-0.286l0.738-0.188l0.453,0.293l0.383-0.098l1.213,0.069l0.459,0.323l0.384-0.099l0.474,0.258    l0.926,0.55l0.926,0.55l0.453,0.294l0.09,0.354l0.383-0.098l0.098,0.384l0.384-0.099l0.354-0.09l0.09,0.354l0.098,0.385    l0.384-0.098l0.098,0.383l0.445,0.265l0.098,0.384l0.383-0.098l0.09,0.354l0.384-0.099l0.105,0.414l0.354-0.091l0.091,0.355    l0.09,0.354l0.384-0.098l0.098,0.383l0.09,0.355l0.105,0.413l0.09,0.354l0.09,0.354l0.354-0.09l0.384-0.099l-0.091-0.354    l0.383-0.098l-0.09-0.354l-0.105-0.413l0.354-0.091l-0.09-0.354l0.383-0.098l-0.098-0.383l-0.09-0.355l-0.091-0.354l0.25-0.504    l-0.09-0.354l-0.355,0.091l-0.098-0.385l-0.09-0.354l-0.098-0.383l-0.098-0.385l-0.474-0.257l-0.098-0.384l-0.09-0.354    l-0.098-0.384l-0.354,0.09l-0.481-0.286l-0.09-0.354l-0.098-0.384l-0.09-0.354l0.383-0.098l-0.09-0.355l-0.105-0.413l0.355-0.091    l0.383-0.098l0.105,0.414l0.091,0.354l0.354-0.091l0.09,0.354l0.383-0.098l-0.09-0.354l0.384-0.098l0.354-0.09l0.384-0.099    l0.354-0.09l0.384-0.098l-0.09-0.355l0.384-0.098l0.09,0.354l0.354-0.09l-0.09-0.354l0.384-0.099l0.06,0.237l0.354-0.091    l-0.09-0.354l0.384-0.098l0.09,0.354l0.383-0.098l0.09,0.354l0.355-0.09l0.383-0.098l0.355-0.091l0.098,0.384l0.286-0.481    l0.098,0.384l0.384-0.098l-0.098-0.384l0.354-0.091l0.384-0.098l0.354-0.09l0.384-0.099l-0.09-0.354l0.383-0.098l-0.09-0.354    l-0.098-0.385l-0.098-0.383l0.355-0.091l-0.098-0.384l0.383-0.098l-0.474-0.258l0.383-0.098l0.355-0.09l-0.09-0.354l0.354-0.09    l-0.098-0.385l0.414-0.105l0.355-0.09l-0.09-0.355l0.383-0.098l0.354-0.09l-0.098-0.384l0.354-0.09l0.414-0.105l-0.098-0.384    l0.452,0.294l0.384-0.099l0.354-0.09l-0.098-0.384l0.355-0.091l0.413-0.105l-0.09-0.354l0.354-0.091l0.383-0.098l0.355-0.09    l0.354-0.091l0.384-0.098l0.09,0.354l-0.384,0.099l0.098,0.384l0.384-0.098l0.098,0.383l0.474,0.258l0.482,0.286l0.09,0.354    l0.354-0.09l0.445,0.264l0.414-0.104l0.354-0.091l0.098,0.385l0.384-0.099l0.098,0.384l0.354-0.091l0.098,0.385l0.444,0.265    l0.384-0.099l0.09,0.354l0.482,0.286l0.091,0.354l0.292-0.452l0.09,0.354l0.355-0.09l0.098,0.383l0.354-0.09l0.098,0.384    l0.384-0.098l0.383-0.098l0.091,0.354l0.384-0.098l0.354-0.09l0.355-0.091l0.383-0.098l0.384-0.098l0.098,0.383l0.09,0.355    l0.384-0.099l0.098,0.385l0.354-0.091l0.098,0.385l0.09,0.354l0.354-0.09l0.384-0.099l0.354-0.09l0.414-0.105l0.098,0.385    l0.354-0.091l0.091,0.354l0.354-0.09l0.481,0.285l0.354-0.09l0.091,0.354l0.511,0.279l0.098,0.383l0.09,0.354l0.452,0.294    l0.09,0.354l0.445,0.265l0.383-0.098l0.098,0.384l0.355-0.091l0.413-0.104l0.098,0.383l0.355-0.09l0.098,0.384l0.09,0.354    l0.354-0.09l0.475,0.256l-0.09-0.354l0.354-0.091l0.09,0.354l0.413-0.105l0.098,0.384l0.444,0.265l0.355-0.09l0.105,0.413    l0.383-0.098l0.09,0.354l0.355-0.09l0.414-0.105l0.354-0.091l0.09,0.355l0.354-0.091l0.384-0.098l0.354-0.09l0.414-0.105    l0.354-0.091l0.098,0.385l0.354-0.091l0.09,0.354l0.384-0.099l0.354-0.09l0.414-0.105l0.105,0.414l0.354-0.091l0.09,0.355    l0.355-0.091l0.09,0.354l0.098,0.385l0.383-0.098l0.09,0.354l0.384-0.098l0.384-0.098l0.452,0.293l0.098,0.384l0.354-0.09    l0.384-0.099l0.09,0.355l0.354-0.091l0.098,0.385l0.384-0.098l0.09,0.354l0.098,0.384l0.384-0.098l0.09,0.354l0.098,0.384    l0.354-0.09l0.098,0.384l0.384-0.098l0.09,0.354l0.452,0.293l0.475,0.257l0.474,0.257l0.098,0.384l0.354-0.091l0.098,0.385    l0.383-0.098l0.355-0.091l0.098,0.385l0.768-0.196l0.354-0.09l0.384-0.098l0.444,0.264l0.384-0.099l-0.09-0.354l0.829,0.166    l0.294-0.452l-0.18-13.04l-0.836-0.196l-0.279-1.093l-4.233,0.293l0.159-7.149l-6.989,0.585l0.25-6.795l-8.781-0.152l-0.127-6.668    l-4.361-0.084l-0.105-6.705l-7.116,0.21l-0.279-1.094l0.384-0.098l-0.188-0.738l-4.406-4.821l-1.212-0.069l0.286-0.482    l-0.037-6.313l-0.738,0.188l-0.098-0.383l-5.867,0.299l0.122-13.463L171.577,483.641z M243.885,538.976l0.09,0.354l0.354-0.09    l-0.09-0.355L243.885,538.976z" />

</svg>