<svg xmlns="http://www.w3.org/2000/svg" xmlns:xlink="http://www.w3.org/1999/xlink" x="0px" y="0px" width="620.843px"
    height="733.026px" viewBox="390 465 190 190">

    <style xmlns="http://www.w3.org/2000/svg">
        svg {
            filter: drop-shadow(2px 3px 0px rgb(176 136 98 / 1));
        }
    </style>

    <polyline id="san bernardino" fill="#218c74" stroke-width="0.5" stroke="#264653" stroke-miterlimit="1"
        points="398.677,482.862     515.444,479.668 515.161,478.557 520.556,477.955 585.726,536.289 585.918,537.044 586.283,536.952 586.658,538.421     586.76,541.975 586.875,543.928 586.967,544.292 586.708,544.775 586.799,545.134 586.515,545.623 586.988,547.479     591.945,554.53 592.424,554.801 592.522,555.186 594.561,557.032 595.501,557.591 596.347,557.759 597.378,558.711     597.743,558.619 599.172,562.6 598.975,563.456 601.125,567.252 604.052,572.457 604.527,574.318 604.16,576.009 603.782,577.676     603.879,578.063 604.357,578.329 604.457,578.72 604.827,578.625 604.917,578.98 607.16,578.409 617.243,585.368 617.69,585.642     617.782,586.002 620.141,588.976 620.345,591.299 617.822,593.923 615.427,596.925 615.063,597.019 615.346,598.129     614.96,598.228 613.679,599.352 609.33,602.449 606.909,603.865 606.523,603.963 606.615,604.323 603.648,605.079     602.818,606.474 602.458,606.565 602.649,607.316 547.187,610.357 547.56,613.425 446.053,617.493 446.143,619.452     427.348,620.285 427.454,619.069 417.946,619.101 417.662,617.986 412.187,618.193 410.694,618.574 410.604,618.219     409.1,618.603 409,618.212 408.646,618.302 407.439,618.221 406.325,618.505 406.608,619.615 406.333,621.667 406.427,622.038     406.042,622.135 405.318,622.32 404.283,622.995 403.173,623.277 403.364,624.023 403.185,624.845 403.474,625.976     403.178,626.445 403.27,626.805 402.55,626.988 401.705,626.821 400.96,627.01 400.507,626.732 400.511,629.901 399.304,629.797     399.771,630.089 399.864,630.454 399.496,630.547 399.595,630.938 399.209,631.037 399.11,630.646 395.746,628.339     395.652,627.97 393.795,626.844 392.306,625.637 391.738,625.01 391.638,624.619 391.831,623.771 391.077,623.962     390.984,623.597 391.263,623.149 392.281,620.903 392.645,620.81 393.488,620.984 393.105,619.483 393.563,619.777     393.948,619.678 394.789,619.847 395.513,619.663 395.421,619.303 400.547,598.969 398.385,557.888 400.334,557.774     398.826,494.335 399.741,493.296 400.106,493.204 399.823,492.093 399.358,491.796 398.604,491.989 397.773,491.817     397.489,490.703 397.684,489.858 398.792,489.576 398.677,482.862   " />

</svg>