<svg xmlns="http://www.w3.org/2000/svg" xmlns:xlink="http://www.w3.org/1999/xlink" x="0px" y="0px" width="620.843px"
    height="733.026px" viewBox="116 367 37 37">

    <style xmlns="http://www.w3.org/2000/svg">
        svg {
            filter: drop-shadow(2px 3px 0px rgb(176 136 98 / 1));
        }
    </style>

    <path id="santa cruz" fill="#218c74" stroke-width="0.5" stroke="#264653" stroke-miterlimit="1"
        d="M123.686,368.574l0.385-0.099    l0.093,0.365l0.098,0.386l0.365-0.093l0.091,0.359l0.484,0.288l0.364-0.093l0.093,0.364l0.092,0.36l0.551,0.659l0.1,0.39    l0.092,0.36l0.39-0.1l0.091,0.359l0.1,0.391l0.451,0.269l0.384-0.098l0.1,0.39l0.365-0.093l0.092,0.36l0.093,0.364l0.359-0.092    l0.39-0.099l0.099,0.386l0.451,0.268l0.098,0.386l0.093,0.365l0.477,0.261l0.364-0.093l0.098,0.386l-0.364,0.093l0.092,0.36    l0.099,0.39l0.092,0.36l0.092,0.36l0.364-0.093l0.1,0.391l0.36-0.092l0.091,0.359l0.39-0.1l0.1,0.392l0.359-0.092l0.092,0.359    l0.093,0.365l0.098,0.385l0.384-0.098l0.091,0.359l0.365-0.093l0.359-0.092l0.1,0.392l0.481,0.26l0.093,0.365l0.359-0.092    l0.098,0.386l0.39-0.1l0.451,0.268l0.359-0.092l0.099,0.387l0.39-0.1l0.93,0.54l0.098,0.385l0.365-0.093l0.364-0.093l0.092,0.36    l0.484,0.292l0.359-0.092l0.481,0.261l0.724-0.185l0.092,0.36l0.099,0.39l0.39-0.1l0.359-0.092l0.092,0.361l0.099,0.39    l0.385-0.099l0.092,0.361l0.364-0.094l0.364-0.093l0.093,0.364l0.098,0.387l0.093,0.364l0.385-0.099l0.099,0.387l0.093,0.364    l0.359-0.092l0.482,0.261l0.458,0.294l0.092,0.359l0.36-0.092l0.488,0.286l0.359-0.092l0.093,0.365l0.39-0.099l0.092,0.359    l0.19,0.745l0.1,0.392l0.365-0.094l0.092,0.359l0.456,0.268l0.484,0.292l0.092,0.36l0.459,0.299l-0.36,0.092l0.092,0.359    l-0.656,0.557l0.099,0.385l-0.366,0.093l-0.291,0.464l0.384-0.099l1.021-0.648l0.093,0.365l0.36-0.092l-0.262,0.477l0.36-0.092    l0.093,0.365l0.39-0.1l0.364-0.093l-0.272,0.453l0.098,0.385l-0.39,0.1l0.092,0.36l0.39-0.1l0.099,0.39l0.365-0.093l0.359-0.092    l0.092,0.36l0.39-0.1l0.452,0.269l0.098,0.386l0.092,0.359l0.1,0.391l0.385-0.098l0.092,0.359l0.093,0.365l0.098,0.385    l0.093,0.365l0.364-0.093l-0.093-0.365l0.364-0.093l0.385-0.098l0.359-0.092l0.093,0.365l0.94,0.56l0.841,0.168l0.098,0.386    l0.453,0.273l-0.077,1.201l-0.39,0.1l-0.359,0.092l-0.749,0.19l-0.544-0.633l-0.098-0.385l-0.385,0.098l-0.093-0.365l-0.271,0.458    l-0.266,0.479l-0.292,0.463l-0.36,0.092l-0.093-0.365l-0.098-0.385l-0.093-0.365l-0.098-0.386l-0.481-0.26l-0.36,0.092    l0.092,0.359l-0.364,0.093l-0.39,0.1l0.098,0.385l-0.359,0.092l-0.098-0.385l-0.476-0.262l-0.458-0.272l-0.365,0.093l-0.098-0.385    l-0.384,0.098l0.099,0.385l-0.36,0.092l-0.098-0.385l-0.39,0.1l-0.36,0.091l-0.359,0.092l-0.39,0.1l-0.359,0.092l-0.286,0.483    l-0.364,0.093l0.093,0.365l-0.365,0.093l0.092,0.359l-0.384,0.099l0.098,0.385l-0.359,0.092l-0.098-0.386l-0.39,0.1l-0.364,0.093    l-0.359,0.092l0.098,0.386l-0.39,0.099l0.093,0.365l-0.359,0.092l-0.093-0.365l-1.698-3.529L140,393.739l-2.424-1.747    l-1.473,0.375l-0.83,1.4l-0.385,0.098l-0.842-0.174l-1.007-0.926l-1.858,0.474l-1.767,0.833l-3.082-1.195l-3.272-1.947    l-4.032-4.922l-2.706-4.461l-1.325-0.461l-0.092-0.361l-0.091-0.359l-0.191-0.75l-0.462-0.293l-0.092-0.359l-0.191-0.75    l-0.474-1.86l0.272-0.454l-0.1-0.39l-0.092-0.36l0.75-0.191l0.841,0.17l0.359-0.092l0.39-0.099l0.36-0.092l0.385-0.099    l0.459,0.299l0.364-0.094l0.385-0.098l0.364-0.093l-0.099-0.39l-0.092-0.361l0.292-0.457l-0.1-0.391l0.365-0.094l0.358-0.091    l0.39-0.1l0.1,0.391l0.359-0.092l0.39-0.099l0.815,0.175l0.75-0.191l0.385-0.098l0.092,0.36l0.364-0.093l0.36-0.092l0.39-0.1    l0.36-0.092l-0.092-0.36l-0.094-0.37l0.384-0.098l-0.1-0.39l-0.092-0.361l-0.099-0.39l-0.092-0.36l0.168-0.842L123.686,368.574     M153.448,398.268l0.359-0.091l-0.098-0.386l-0.359,0.092L153.448,398.268 M150.361,397.074l-0.267,0.457l-0.093-0.365    L150.361,397.074 M123.494,367.824l0.385-0.099l0.098,0.385l-0.293,0.459l-0.092-0.36L123.494,367.824" />

</svg>