<svg xmlns="http://www.w3.org/2000/svg" xmlns:xlink="http://www.w3.org/1999/xlink" x="0px" y="0px" width="620.843px"
    height="733.026px" viewBox="124 349 56 56">

    <style xmlns="http://www.w3.org/2000/svg">
        svg {
            filter: drop-shadow(2px 3px 0px rgb(176 136 98 / 1));
        }
    </style>

    <path id="santa clara" fill="#218c74" stroke-width="0.5" stroke="#264653" stroke-miterlimit="1"
        d="M122.973,354.883l0.09,0.354    l-0.354,0.091l0.098,0.384l-0.383,0.098l-0.384,0.098l0.09,0.354l-0.354,0.09l0.105,0.414l-0.384,0.098l0.09,0.354l0.09,0.354    l-0.354,0.09l0.098,0.385l0.091,0.354l0.105,0.413l0.09,0.354l0.09,0.354l-0.384,0.099l0.098,0.384l-0.293,0.451l0.105,0.414    l-0.355,0.09l0.09,0.355l-0.383,0.098l0.09,0.354l0.098,0.385l0.098,0.384l0.098,0.385l0.09,0.354l0.383-0.098l0.09,0.354    l0.098,0.385l0.453,0.293l0.098,0.384l-0.355,0.091l-0.383,0.098l0.09,0.354l0.09,0.354l0.098,0.385l0.383-0.098l0.354-0.091    l0.098,0.385l0.383-0.098l0.098,0.384l0.09,0.354l-0.383,0.098l0.09,0.355l0.383-0.098l0.098,0.384l0.384-0.098l0.098,0.383    l0.098,0.385l-0.293,0.452l0.384-0.098l0.09,0.354l0.098,0.384l0.354-0.09l0.098,0.384l0.482,0.286l0.354-0.09l0.09,0.354    l0.091,0.355l0.58,0.669l0.098,0.385l0.09,0.354l0.383-0.098l0.09,0.354l0.098,0.385l0.453,0.294l0.383-0.098l0.098,0.383    l0.355-0.091l0.09,0.355l0.091,0.354l0.383-0.098l0.384-0.098l0.105,0.413l0.444,0.264l0.098,0.385l0.09,0.354l0.482,0.286    l0.354-0.09l0.098,0.384l-0.354,0.091l0.09,0.354l0.098,0.384l0.091,0.354l0.09,0.354l0.354-0.09l0.105,0.413l0.355-0.09    l0.09,0.354l0.414-0.105l0.098,0.385l0.354-0.091l0.09,0.354l0.09,0.354l0.105,0.414l0.384-0.099l0.09,0.354l0.354-0.091    l0.384-0.098l0.098,0.384l0.474,0.258l0.09,0.354l0.355-0.09l0.105,0.413l0.383-0.098l0.445,0.265l0.383-0.098l0.098,0.384    l0.384-0.098l0.919,0.521l0.105,0.413l0.354-0.09l0.384-0.098l0.09,0.354l0.482,0.286l0.354-0.09l0.475,0.257l0.708-0.181    l0.09,0.354l0.105,0.413l0.414-0.105l0.355-0.09l0.09,0.354l0.098,0.384l0.383-0.098l0.09,0.354l0.354-0.091l0.354-0.09    l0.098,0.384l0.098,0.385l0.09,0.354l0.414-0.105l0.098,0.385l0.09,0.354l0.354-0.09l0.482,0.285l0.452,0.294l0.09,0.354    l0.355-0.09l0.481,0.286l0.384-0.098l0.09,0.354l0.383-0.098l0.098,0.384l0.188,0.738l0.098,0.385l0.355-0.091l0.09,0.354    l0.452,0.293l0.482,0.287l0.09,0.354l0.481,0.285l-0.383,0.098l0.09,0.355l-0.64,0.572l0.098,0.384l-0.355,0.091l-0.293,0.451    l0.383-0.098l1.002-0.632l0.09,0.354l0.383-0.098l-0.285,0.482l0.383-0.099l0.09,0.355l0.384-0.098l0.354-0.091l-0.256,0.474    l0.098,0.384l-0.384,0.099l0.091,0.354l0.384-0.098l0.098,0.383l0.354-0.09l0.355-0.091l0.098,0.385l0.383-0.098l0.475,0.257    l0.098,0.384l0.09,0.354l0.098,0.384l0.384-0.098l0.09,0.354l0.098,0.385l0.098,0.384l0.091,0.354l0.354-0.09l-0.09-0.354    l0.355-0.091l0.383-0.098l0.384-0.098l0.09,0.354l0.934,0.579l0.444,0.265l0.384-0.098l0.098,0.383l0.474,0.258l-0.097,1.22    l0.481,0.286l0.09,0.354l0.294-0.452l0.444,0.264l0.265-0.444l-0.188-0.738l0.383-0.098l0.355-0.09l0.669-0.58l-0.098-0.384    l0.354-0.091l0.294-0.453l1.024-0.669l-0.09-0.354l0.354-0.091l-0.098-0.384l-0.098-0.384l0.294-0.452l0.285-0.482l0.384-0.098    l0.521-0.919l0.926,0.55l0.383-0.098l-0.098-0.384l0.384-0.098l0.354-0.091l0.384-0.098l0.098,0.384l0.452,0.294l0.504,0.25    l0.098,0.383l0.543,0.649l0.098,0.383l12.275,0.049l-0.098-0.385l-0.355,0.091l-0.098-0.384l-0.383,0.098l-0.09-0.354    l-0.482-0.286l-0.09-0.354l-0.098-0.385l-0.098-0.384l0.294-0.453l0.383-0.098l0.355-0.09l-0.098-0.384l-0.091-0.354l-0.098-0.385    l-0.098-0.383l-0.091-0.355l-0.354,0.091l-0.196-0.769l0.453,0.294l-0.098-0.384l0.383-0.098l0.355-0.091l0.383-0.098l-0.09-0.354    l0.196-0.836l0.354-0.09l0.384-0.098l-0.098-0.385l0.354-0.09l-0.091-0.354l-0.098-0.385l-0.354,0.09l-0.098-0.383l-0.384,0.098    l-0.09-0.354l-0.098-0.384l-0.354,0.09l-0.098-0.384l-0.384,0.099l-0.091-0.355l-0.098-0.384l0.384-0.098l0.354-0.091l-0.09-0.354    l0.384-0.098l-0.098-0.385l0.256-0.475l0.384-0.098l-0.09-0.354l0.384-0.099l-0.482-0.285l-0.091-0.354l-0.098-0.385l-0.482-0.285    l-0.376-1.477l-0.354,0.09l-0.482-0.286l-0.354,0.09l-0.09-0.354l-0.384,0.098l-0.384-1.507l-0.383,0.098l-0.09-0.354    l-0.355,0.091l0.09,0.354l-0.383,0.098l0.098,0.384l-0.355,0.09l0.098,0.385l-0.383,0.098l-0.098-0.385l-0.384,0.099l-0.452-0.294    l0.098,0.384l-0.738,0.188l-0.188-0.738l-0.384,0.098l-0.482-0.286l-0.09-0.354l-0.354,0.091l-0.098-0.385l-0.738,0.188    l-0.286,0.482l-0.383,0.098l0.09,0.354l-0.738,0.188l0.286,1.122l-1.123,0.286l-0.474-1.86l-0.286-1.122l0.384-0.099l-0.196-0.768    l-0.384,0.098l-0.09-0.354l0.384-0.098l-0.188-0.739l-0.474-0.256l0.384-0.098l-0.105-0.413l-0.384,0.098l-0.181-0.709    l-0.738,0.188l-0.294-1.153l-0.354,0.091L165.505,371l0.354-0.091l-0.286-1.122l0.384-0.098l-0.09-0.354l-0.482-0.286    l-0.091-0.354l0.475,0.257l-0.09-0.355l0.354-0.09l-0.105-0.413l0.768-0.196l0.105,0.414l0.355-0.091l-0.105-0.413l0.738-0.188    l-0.09-0.354l1.121-0.286l-0.475-1.861l-0.632-1.002l0.354-0.09l-0.384-1.507l0.384-0.098l0.256-0.475l-0.098-0.385l0.384-0.098    l-0.181-0.709l-0.384,0.099l-0.098-0.385l-0.354,0.091l-0.482-0.287l-1.122,0.286l-0.474-1.86l-0.355,0.091l-0.188-0.738    l0.264-0.445l-0.098-0.385l0.383-0.098l-0.286-1.122l0.384-0.098l-0.09-0.354l-0.384,0.099l-0.098-0.385l-0.383,0.098    l-0.098-0.384l0.489-1.289l-22.818-0.947l-1.476,0.376l0.09,0.355l-0.384,0.098l0.105,0.414l-0.383,0.098l-0.105-0.414    l-0.384,0.098l0.105,0.413l-1.859,0.475l0.09,0.354l-0.355,0.091l-0.09-0.354l-0.354,0.091l-0.105-0.414l-0.384,0.099l-0.09-0.355    l-0.098-0.384l-0.354,0.09l0.098,0.385l-1.86,0.474l-0.323,0.46l-0.987,0.692l-1.582-0.037l-2.049-0.265l-1.302-0.423    l-1.506-1.221l-0.354,0.09l-0.769,0.196l0.09,0.354l-0.354,0.091l-0.384,0.098l-0.091-0.355l-0.354,0.091l-0.384,0.098    l-0.383,0.098l-0.355,0.091L122.973,354.883z" />

</svg>