<svg xmlns="http://www.w3.org/2000/svg" xmlns:xlink="http://www.w3.org/1999/xlink" x="0px" y="0px" width="620.843px"
    height="733.026px" viewBox="200 538 98 98">

    <style xmlns="http://www.w3.org/2000/svg">
        svg {
            filter: drop-shadow(2px 3px 0px rgb(176 136 98 / 1));
        }
    </style>

    <path id="santa barbara" fill="#218c74" stroke-width="0.5" stroke="#264653" stroke-miterlimit="1"
        d="M246.196,537.192l0.098,0.384    l-0.383,0.098l-0.355,0.091l0.09,0.354l-0.354,0.09l-0.384,0.099l-0.474-0.257l0.09,0.354l-0.384,0.098l-0.355,0.091l0.098,0.384    l0.355-0.091l0.09,0.355l-0.355,0.09l-0.09-0.354l-0.354,0.09l-0.384,0.099l0.091,0.354l-0.383,0.098l-0.384,0.098l0.098,0.384    l-0.354,0.09l0.098,0.385l-0.355,0.09l-0.383,0.098l0.474,0.258l-0.383,0.098l0.098,0.383l-0.355,0.091l0.091,0.354l0.105,0.414    l0.09,0.354l-0.383,0.098l0.09,0.354l-0.384,0.098l-0.354,0.09l-0.384,0.098l-0.354,0.091l0.098,0.384l-0.414,0.105l-0.098-0.384    l-0.256,0.475l-0.098-0.385l-0.355,0.091l-0.383,0.098l-0.355,0.09l-0.09-0.354l-0.413,0.105l-0.091-0.354l-0.354,0.09    l0.091,0.354l-0.354,0.091l-0.09-0.355l-0.384,0.099l0.09,0.354l-0.354,0.09l-0.09-0.354l-0.384,0.098l0.09,0.355l-0.384,0.098    l-0.354,0.09l-0.384,0.099l-0.354,0.09l-0.384,0.098l0.09,0.354l-0.383,0.098l-0.09-0.354l-0.354,0.091l-0.091-0.354l-0.105-0.414    l-0.383,0.098l-0.355,0.091l0.105,0.413l0.09,0.355l-0.383,0.098l0.09,0.354l0.098,0.384l0.09,0.354l0.481,0.286l0.354-0.09    l0.098,0.384l0.09,0.354l0.098,0.384l0.474,0.257l0.098,0.385l0.098,0.384l0.09,0.354l0.098,0.385l0.355-0.091l0.09,0.354    l-0.25,0.504l0.091,0.354l0.09,0.355l0.098,0.383l-0.383,0.098l0.09,0.354l-0.354,0.091l0.105,0.413l0.09,0.354l-0.383,0.098    l0.091,0.354l-0.384,0.099l-0.354,0.09l-0.09-0.354l-0.09-0.354l-0.105-0.413l-0.09-0.355l-0.098-0.383l-0.384,0.098l-0.09-0.354    l-0.091-0.355l-0.354,0.091l-0.105-0.414l-0.384,0.099l-0.09-0.354l-0.384,0.098l-0.098-0.384l-0.444-0.264l-0.098-0.384    l-0.384,0.098l-0.098-0.385l-0.09-0.354l-0.354,0.09l-0.384,0.099l-0.098-0.384l-0.383,0.098l-0.09-0.354l-0.453-0.294    l-0.926-0.55l-0.926-0.55l-0.474-0.258l-0.384,0.099l-0.459-0.323l-1.213-0.069l-0.383,0.098l-0.453-0.293l-0.738,0.188    l-1.122,0.286l-1.122,0.286l-0.384,0.098l-0.256,0.474l-0.768,0.195l-0.452-0.293l-0.383,0.098l-0.445-0.264l-0.293,0.452    l-0.257,0.474l-0.383,0.098l-0.482-0.285l-0.09-0.354l-0.738,0.188l-0.264,0.445l-0.384,0.098l-0.384,0.099l-0.354,0.09    l-0.475-0.257l-0.195-0.768l-0.444-0.265l-0.745,3.367l-0.144,2.396l2.019,1.876l1.686,1.929l-1.189,3.104l-0.528,4.098    l0.919,2.125l1.076,2.494l-1.77,4.037l-1.099,3.457l-0.098,1.221l0.76,1.378l0.55,0.679l0.594,0.604l1.83-0.467l2.628,0.935    l2.041,1.839l2.65,5.71l0.927,0.551l0.474,0.256l3.781-0.586l5.609-1.43l2.703-0.249l2.402,0.174l4.64-0.428l3.457,1.102    l4.654-0.369l4.028,1.742l4.383,1.651l4.714-0.007l5.792,0.883l4.18-0.625l5.315,0.626l5.053,2.676l-0.105-0.413l0.355-0.091    l-0.09-0.354l0.383-0.098l0.355-0.091l-0.09-0.354l0.383-0.098l0.384-0.099l-0.098-0.384l0.354-0.09l-0.09-0.354l0.384-0.098    l-0.098-0.384l-0.384,0.098l-0.098-0.385l-0.09-0.354l-0.098-0.384l-0.09-0.355l0.384-0.098l0.354-0.09l-0.098-0.384l0.384-0.098    l-0.128-0.503l-0.09-0.354l-0.098-0.385l0.354-0.09l-0.091-1.959l-0.195-0.768l0.204-0.807l-0.196-0.769l-0.098-0.384l0.264-0.444    l-0.188-0.739l0.196-0.836l-0.188-0.738l0.165-0.829l-0.098-0.384l-0.188-0.738l0.196-0.837l-0.091-1.959l0.159-0.857l-0.09-0.355    l0.097-1.22l-0.098-0.384l-0.09-0.354l-0.029-1.597l0.104-1.19l-0.098-0.385l0.098-1.22l0.166-0.828l-0.098-0.385l-0.188-0.738    l0.196-0.837l-0.09-0.354l0.158-0.858l-0.278-1.094l0.159-0.857l-0.09-0.354l0.135-1.199l-0.196-0.767l0.166-0.83l-0.196-0.767    l0.293-0.453l-0.098-0.384l-0.09-0.354l-0.188-0.738l0.256-0.475l-0.098-0.384l-0.09-0.354l0.263-0.444l-0.098-0.385l-0.188-0.737    l-0.354,0.09l-0.354,0.09l-0.482-0.286l-0.768,0.195l-0.799-0.174l0.091,0.354l-0.384,0.099l-0.444-0.265l-0.414,0.105    l-0.354,0.09l-0.738,0.188l-0.098-0.384l-0.355,0.091l-0.414,0.105l-0.09-0.355l-0.354,0.091l-0.098-0.385l-0.444-0.264    l-0.482-0.286l-0.452-0.294l-0.09-0.354l-0.414,0.105l-0.098-0.385l-0.355,0.091l-0.09-0.354l-0.098-0.384l-0.354,0.09    l-0.098-0.384l-0.091-0.354l-0.384,0.098l-0.098-0.384l-0.354,0.09l-0.09-0.354l-0.384,0.099l-0.383,0.098l-0.09-0.355    l-0.453-0.293l-0.383,0.098l-0.354,0.09l-0.098-0.383l-0.383,0.098l-0.098-0.385l-0.09-0.354l-0.384,0.098l-0.09-0.354    l-0.354,0.09l-0.098-0.384l-0.384,0.098l-0.354,0.091l-0.384,0.098l-0.09-0.355l-0.354,0.091l-0.105-0.414l-0.384,0.099    l-0.384,0.098l-0.354,0.09l-0.384,0.099l-0.354,0.09l-0.09-0.354l-0.384,0.098l-0.383,0.098l-0.355,0.091l-0.09-0.355    l-0.383,0.098l-0.098-0.383l-0.355,0.09l-0.474-0.257l-0.098-0.384l-0.384,0.098l-0.098-0.385l-0.354,0.091l0.098,0.384    l-0.482-0.286l-0.383,0.098l-0.09-0.354l-0.098-0.385l-0.355,0.091l-0.09-0.354l-0.383,0.098l-0.354,0.09l-0.098-0.384    l-0.383,0.098l-0.475-0.257l-0.098-0.385l-0.452-0.293l-0.091-0.354l-0.098-0.385l-0.475-0.256l-0.09-0.354l-0.354,0.09    l-0.49-0.315l-0.354,0.09l-0.09-0.354l-0.384,0.098l-0.098-0.384l-0.384,0.098l-0.354,0.091l-0.384,0.098l-0.354,0.09l-0.09-0.354    l-0.09-0.354l-0.384,0.099l-0.098-0.385l-0.383,0.098l-0.098-0.384l-0.098-0.385l-0.355,0.091l-0.383,0.098l-0.355,0.091    l-0.383,0.098l-0.384,0.098l-0.09-0.354l-0.354,0.09l-0.384,0.098l-0.09-0.354l-0.354,0.09l-0.098-0.384l-0.355,0.091l-0.09-0.354    l-0.323,0.459l-0.09-0.354l-0.459-0.323l-0.09-0.354l-0.384,0.098l-0.444-0.264l-0.098-0.385l-0.354,0.091l-0.09-0.355    l-0.414,0.105l-0.098-0.383l-0.355,0.091l-0.383,0.098l-0.445-0.265l-0.354,0.09l-0.098-0.384l-0.511-0.278l-0.444-0.265    l-0.098-0.384l-0.384,0.098l-0.09-0.354l0.384-0.099l-0.098-0.384l-0.384,0.098l-0.354,0.091l-0.354,0.09l-0.383,0.098    L246.196,537.192z M229.654,616.748l-0.195,0.836l-2.952,0.752l-1.929,1.687l5.83,1.283l3.464-0.474l-0.384-1.507l-2.975-0.815    L229.654,616.748z M237.583,621.458l-0.452,1.31l1.762,0.747l3.186,4.725l3.75,2.253l9.3-3.976l-0.67-2.629l-3.84-1.002    l0.271-3.625l-1.22-0.097l-1.19,1.498l-4.097-0.529l-1.574,1.597L237.583,621.458z M257.759,616.723l-0.452,1.311l3.26,1.938    l-1.031,2.244l3.124,2.76l8.367,0.258l3.058-1.944l7.622-1.188l1.002-2.236l-3.134-1.561l-1.859,0.474l-1.8,2.44l-2.41-0.204    l-5.241-3.414l-4.165,0.685l-3.17-1.583L257.759,616.723z" />

</svg>