<svg xmlns="http://www.w3.org/2000/svg" xmlns:xlink="http://www.w3.org/1999/xlink" x="0px" y="0px" width="620.843px"
    height="733.026px" viewBox="90 65 76 76">

    <style xmlns="http://www.w3.org/2000/svg">
        svg {
            filter: drop-shadow(2px 3px 0px rgb(176 136 98 / 1));
        }
    </style>

    <path id="shasta" fill="#218c74" stroke-width="0.5" stroke="#264653" stroke-miterlimit="1"
        d="M111.362,67.183l0.098,0.384l0.354-0.091    l0.383-0.098l0.482,0.287l0.444,0.265l0.098,0.383l0.384-0.098l0.354-0.09l0.091,0.355l0.098,0.384l0.098,0.383l0.091,0.354    l-0.354,0.09l0.098,0.384l0.098,0.384l0.09,0.354l0.098,0.384l-0.384,0.098l0.09,0.354l0.098,0.384l-0.256,0.474l0.091,0.355    l-0.384,0.098l0.098,0.383l0.09,0.354l-0.383,0.098l-0.355,0.091l-0.383,0.098l-0.355,0.09l-0.383,0.098l-0.384,0.098l0.098,0.384    l-0.452-0.294l-0.384,0.098l-0.354,0.09l-0.091-0.355l-0.293,0.453l-0.384,0.098l0.098,0.384l-0.354,0.09l-0.384,0.098    l-0.354,0.09l0.098,0.383l0.09,0.354l0.354-0.09l0.384-0.098l0.098,0.384l0.09,0.354l0.098,0.384l-0.384,0.098l0.098,0.384    l-0.354,0.09l0.09,0.354l0.098,0.384l-0.294,0.453l0.098,0.384l0.098,0.383l0.09,0.355l-0.383,0.098l0.098,0.384l-0.355,0.09    l0.09,0.354l-0.383,0.098l-0.09-0.354l-0.354,0.091l-0.383,0.098l0.09,0.354l-0.354,0.09l-0.286,0.482l0.098,0.384l-0.384,0.098    l-0.354,0.09l-0.384,0.098l-0.098-0.384l-0.354,0.09l0.098,0.384l0.09,0.354l-0.474-0.256l-0.383,0.098l0.09,0.354l0.098,0.384    l-0.355,0.091l0.091,0.354l-0.383,0.098l0.098,0.383l0.098,0.384l0.091,0.355l0.098,0.384l-0.355,0.09l0.09,0.354l0.098,0.384    l-0.383,0.098l0.098,0.384l-0.384,0.098l0.09,0.354l0.384-0.098l-0.286,0.482l0.384-0.098l0.09,0.355l0.098,0.383l0.098,0.384    l-0.384,0.098l0.09,0.355l0.098,0.384l-0.354,0.09l0.09,0.354l-0.384,0.098l-0.354,0.09l-0.384,0.098l0.098,0.384l0.098,0.384    l-0.384,0.098l0.09,0.354l-0.354,0.09l0.098,0.384l-0.384,0.098l0.09,0.355l-0.383,0.098l0.098,0.383l-0.354,0.091l-0.383,0.098    l0.098,0.384l-0.355,0.09l0.091,0.355l-0.383,0.098l-0.355,0.09l0.098,0.383l0.355-0.09l0.09,0.354l0.098,0.384l0.098,0.384    l0.09,0.354l-0.355,0.09l0.098,0.384l-0.293,0.452l0.098,0.384l0.098,0.384l-0.384,0.098l0.09,0.355l-0.354,0.09l0.098,0.383    l-0.384,0.098l-0.354,0.09l-0.384,0.098l0.098,0.384l-0.384,0.098l-0.354,0.09l0.098,0.384l-0.384,0.098l-0.354,0.09l0.09,0.355    l-0.384,0.098l-0.383,0.098l0.09,0.354l0.098,0.384l0.383-0.098l-0.285,0.482l0.383-0.098l0.098,0.383l0.09,0.355l-0.383,0.098    l0.091,0.355l0.098,0.383l-0.355,0.09l-0.383,0.098l0.098,0.384l-0.355,0.09l0.098,0.384l-0.354,0.09l-0.414,0.105l-0.354,0.09    l-0.384,0.098l-0.354,0.09l0.09,0.354l0.444,0.265l0.098,0.384l0.098,0.384l0.098,0.383l0.09,0.355l0.384-0.098l-0.294,0.452    l0.482,0.286l0.098,0.384l-0.384,0.098l0.098,0.384l-0.354,0.09l0.09,0.354l0.09,0.355l0.354-0.09l0.384-0.098l0.354-0.09    l0.098,0.384l0.098,0.383l0.098,0.384l-0.354,0.09l0.09,0.355l0.09,0.354l0.354-0.09l0.098,0.384l-0.354,0.09l0.098,0.384    l0.098,0.384l0.09,0.354l0.091,0.355l0.098,0.384l0.354-0.09l0.098,0.383l0.098,0.384l-0.354,0.09l-0.294,0.453l-0.09-0.355    l-0.354,0.09l-0.384,0.098l-0.098-0.384l-0.098-0.383l-0.383,0.098l0.098,0.383l-0.355,0.091l-0.383,0.098l-0.257,0.475    l0.09,0.355l-0.354,0.09l-0.413,0.105l-0.354,0.09l-0.384,0.098l-0.354,0.09l-0.384,0.098l0.09,0.354l-0.384,0.098l-0.354,0.09    l0.098,0.384l0.098,0.384l0.098,0.384l-0.384,0.098l-0.354,0.09l0.09,0.354l0.09,0.354l-0.354,0.091l-0.413,0.105l-0.355,0.09    l-0.383,0.098l-0.355,0.091l-0.354,0.09l-0.384,0.098l-0.383,0.098l-0.384,0.098l0.098,0.384l0.098,0.383l-0.256,0.475    l-0.355,0.09l0.091,0.355l-0.383,0.098l-0.091-0.355l-0.384,0.098l-0.384,0.098l0.09,0.355l-0.354,0.09l-0.354,0.09l0.09,0.354    l-0.384,0.098l0.098,0.384l-0.384,0.098l0.098,0.384l0.098,0.384l-0.383,0.098l0.09,0.354l-0.355,0.09l-0.444-0.264l-0.384,0.098    l-0.098-0.384l-0.383,0.098l-0.286,0.482l0.09,0.354l-0.354,0.09l-0.265,0.445l0.098,0.383l-0.383,0.098l-0.384,0.098    l-0.384,0.098l-0.098-0.383l-0.354,0.09l0.098,0.383l-0.354,0.09l-0.384,0.098l-0.354,0.09l-0.098-0.383l-0.414,0.105l-0.355,0.09    l0.098,0.383l-0.354,0.09l0.098,0.384l0.098,0.384l0.091,0.355l-0.294,0.452l-0.354,0.09l-0.414,0.105l-0.256,0.475l0.098,0.384    l-0.355,0.09l0.098,0.383l0.091,0.355l-0.383,0.098l-0.384,0.098l-0.383,0.098l-0.355,0.091l0.09,0.354l0.105,0.414l-0.354,0.09    l0.09,0.354l-0.384,0.098l-0.09-0.354l-0.354,0.09l-0.414,0.105l0.09,0.354l0.098,0.384l-0.354,0.09l0.09,0.354l0.098,0.384    l0.098,0.384l0.09,0.355l0.098,0.383l-0.355,0.09l-0.383,0.098l0.09,0.355l0.09,0.354l0.105,0.414l0.09,0.354l0.098,0.384    l0.383-0.098l0.355-0.09l-0.098-0.384l0.354-0.09l0.098,0.384l0.414-0.105l-0.098-0.384l0.354-0.09l0.384-0.098l-0.09-0.355    l0.354-0.09l0.445,0.264l-0.091-0.355l0.383-0.098l0.384-0.098l0.383-0.098l0.355-0.091l0.354-0.09l0.414-0.105l0.444,0.265    l0.384-0.098l0.452,0.294l0.355-0.09l0.414-0.105l0.354-0.09l0.09,0.354l0.384-0.098l0.098,0.384l0.354-0.09l-0.098-0.384    l0.354-0.09l0.384-0.098l-0.09-0.354l0.384-0.098l-0.098-0.384l0.383-0.098l0.355-0.09l-0.091-0.355l0.354-0.09l-0.105-0.414    l0.384-0.098l0.383-0.098l-0.09-0.354l0.384-0.098l0.354-0.09l0.09,0.354l0.355-0.091l0.105,0.414l0.383-0.098l0.384-0.098    l0.384-0.098l-0.105-0.414l0.354-0.09l0.354-0.09l0.105,0.414l0.384-0.098l0.384-0.098l-0.105-0.413l0.383-0.098l0.355-0.091    l0.105,0.414l0.354-0.09l0.384-0.098l0.383-0.098l0.384-0.098l0.354-0.09l0.355-0.09l0.383-0.098l0.355-0.09l0.413-0.105    l0.09,0.354l0.355-0.09l0.098,0.384l0.09,0.354l-0.355,0.09l0.098,0.384l0.355-0.09l0.354-0.09l0.384-0.098l0.098,0.384    l0.354-0.09l0.09,0.354l0.384-0.098l0.098,0.384l0.384-0.098l0.09,0.355l0.354-0.09l0.384-0.098l0.09,0.354l0.105,0.414    l0.354-0.09l0.414-0.105l0.09,0.355l0.354-0.09l0.355-0.09l-0.091-0.355l0.383-0.098l0.445,0.265l-0.09-0.355l0.383-0.098    l0.384-0.098l-0.105-0.413l-0.09-0.354l0.354-0.09l0.09,0.354l0.384-0.098l0.354-0.09l-0.09-0.354l0.414-0.105l0.354-0.09    l0.355-0.09l0.293-0.453l-0.098-0.384l0.355-0.09l0.098,0.384l0.414-0.105l0.354-0.09l0.354-0.09l-0.098-0.384l0.384-0.098    l-0.09-0.354l0.444,0.264l0.414-0.105l-0.09-0.354l0.445,0.264l-0.09-0.354l0.354-0.09l0.384-0.098l-0.105-0.414l0.354-0.09    l0.105,0.414l0.384-0.098l0.383-0.098l0.09,0.354l0.098,0.384l0.355-0.09l0.383-0.098l0.091,0.355l0.354-0.091l-0.09-0.354    l0.383-0.098l0.09,0.355l0.384-0.098l0.09,0.354l0.105,0.413l0.354-0.09l0.384-0.098l0.091,0.355l0.354-0.09l0.384-0.098    l0.384-0.098l0.354-0.09l0.384-0.098l0.098,0.384l0.354-0.09l0.384-0.098l0.09,0.354l0.383-0.098l0.355-0.09l0.098,0.384    l0.383-0.098l0.355-0.09l0.383-0.098l0.384-0.098l0.098,0.384l0.354-0.09l0.384-0.098l0.09,0.354l0.264-0.444l0.413-0.105    l0.09,0.354l0.354-0.09l0.355-0.091l0.098,0.384l0.383-0.098l0.355-0.09l-0.098-0.384l0.383-0.098l0.355-0.09l0.098,0.384    l0.383-0.098l0.384-0.098l0.354-0.09l0.384-0.098l0.384-0.098l-0.098-0.384l0.354-0.09l0.384-0.098l0.098,0.384l0.354-0.09    l0.384-0.098l0.354-0.09l0.09,0.354l0.384-0.098l0.098,0.384l0.383-0.098l0.098,0.383l0.355-0.09l-0.098-0.383l0.383-0.098    l0.257-0.475l0.098,0.384l0.098,0.383l0.383-0.098l-0.098-0.383l-0.098-0.384l0.384-0.098l0.354-0.09l0.384-0.098l0.354-0.09    l0.384-0.098l0.384-0.098l0.452,0.294l0.384-0.098l0.354-0.09l-0.098-0.384l0.354-0.09l0.414-0.105l0.354-0.091l0.383-0.098    l-0.09-0.354l0.355-0.091l0.09,0.355l0.354-0.09l0.414-0.105l0.354-0.09l0.384-0.098l0.354-0.09l0.384-0.098l0.383-0.098    l0.355-0.091l0.098,0.384l0.383-0.098l0.355-0.09l0.354-0.09l-0.098-0.384l0.384-0.098l0.098,0.384l0.383-0.098l0.384-0.098    l0.354-0.09l0.355-0.09l0.098,0.383l0.384-0.098l0.474,0.257l0.384-0.098l0.354-0.09l0.098,0.384l0.355-0.091l0.413-0.105    l0.09,0.354l0.355-0.09l0.383-0.098l0.354-0.09l0.354-0.09l0.384-0.098l0.383-0.098l0.09,0.355l0.384-0.098l-0.09-0.355    l0.354-0.09l0.354-0.09l0.383-0.098l-0.09-0.354l0.384-0.098l0.384-0.098l0.354-0.09l0.354-0.09l0.384-0.098l0.384-0.098    l0.09,0.354l0.383-0.098l0.355-0.09l0.354-0.09l0.384-0.098l0.354-0.09l0.414-0.105l0.091,0.355l0.354-0.09l0.355-0.09    l0.383-0.098l0.105,0.414l0.384-0.098l0.09,0.354l0.384-0.098l0.452,0.294l0.354-0.09l0.384-0.098l0.444,0.265l0.414-0.105    l-0.09-0.354l0.355-0.091l0.354-0.09l-0.098-0.384l0.384-0.098l0.354-0.09l0.414-0.105l0.098,0.384l0.354-0.09l0.355-0.091    l-0.098-0.384l0.383-0.098l0.098,0.384l0.384-0.098l0.383-0.098l0.09,0.354l0.09,0.354l0.354-0.09l0.105,0.414l0.354-0.09    l0.09,0.355l0.098,0.384l0.384-0.098l-0.098-0.384l0.354-0.09l0.098,0.384l0.384-0.098l0.383-0.098l0.355-0.09l0.383-0.098    l0.09,0.354l0.354-0.09l0.098,0.384l0.414-0.105l0.354-0.09l0.354-0.09l-0.098-0.384l0.384-0.098l0.354-0.09l0.414-0.105    l1.544,0.015l0.384-0.098l0.383-0.098l0.098,0.384l0.354-0.09l0.738-0.188l0.383-0.098l9.58,0.326l0.952-56.959l-6.725,0.142    l-56.585-1.431l-1.22-0.098l-0.354,0.09l-0.384,0.098l-0.354,0.09l-0.865-0.189L111.362,67.183z M127.957,129.201l0.09,0.355    l0.384-0.098l-0.09-0.355L127.957,129.201z" />

</svg>