<svg xmlns="http://www.w3.org/2000/svg" xmlns:xlink="http://www.w3.org/1999/xlink" x="0px" y="0px" width="620.843px"
    height="733.026px" viewBox="200 172 45 45">

    <style xmlns="http://www.w3.org/2000/svg">
        svg {
            filter: drop-shadow(2px 3px 0px rgb(176 136 98 / 1));
        }
    </style>

    <path id="sierra" fill="#218c74" stroke-width="0.5" stroke="#264653" stroke-miterlimit="1"
        d="M202.456,177.592l0.098,0.384l-0.738,0.188    l0.098,0.383l-1.476,0.376l-0.587,0.905l-0.354,0.09l-0.264,2.048l0.294,1.152l-0.384,0.098l0.188,0.739l-0.383,0.098l0.098,0.384    l-0.354,0.09l-0.293,0.452l0.098,0.384l-0.738,0.188l0.09,0.354l-0.384,0.098l0.098,0.384l-0.738,0.188l0.098,0.384l-0.354,0.09    l-0.294,0.453l-1.476,0.376l-0.195,0.836l0.098,0.384l0.098,0.383l-0.196,0.837l-0.264,0.444l0.098,0.384l0.098,0.384    l-0.384,0.098l0.09,0.354l-0.166,0.829l0.196,0.768l-0.294,0.453l-0.384,0.098l-0.354,0.09l0.098,0.384l-0.384,0.098l-0.354,0.09    l-0.384,0.098l0.09,0.354l-0.354,0.09l0.098,0.384l0.098,0.384l0.09,0.354l0.098,0.384l0.09,0.355l0.354-0.09l0.098,0.383    l0.384-0.098l0.188,0.739l0.098,0.384l0.09,0.354l-0.384,0.098l0.098,0.384l0.188,0.738l0.098,0.384l0.091,0.354l-0.256,0.474    l0.098,0.384l0.09,0.355l0.188,0.738l-0.286,0.482l0.098,0.384l0.09,0.354l0.188,0.739l0.098,0.383l-0.285,0.482l0.09,0.355    l0.098,0.383l0.09,0.354l0.383-0.098l0.384-0.098l-0.09-0.355l-0.482-0.285l0.384-0.098l0.354-0.09l0.384-0.098l-0.09-0.355    l0.354-0.09l0.384-0.098l0.09,0.354l0.264-0.445l0.384-0.098l0.384-0.098l0.09,0.354l0.354-0.09l0.384-0.098l0.354-0.09    l0.384-0.098l0.481,0.286l0.355-0.091l0.285-0.481l0.098,0.383l0.355-0.09l-0.098-0.383l0.383-0.098l0.482,0.285l0.354-0.09    l0.384-0.098l-0.098-0.383l0.354-0.09l0.098,0.383l0.384-0.098l-0.098-0.383l0.481,0.286l0.355-0.09l-0.098-0.383l0.383-0.098    l0.098,0.383l0.355-0.09l-0.098-0.383l0.481,0.286l0.286-0.481l0.354-0.09l0.098,0.383l0.384-0.098l0.354-0.09l0.355-0.09    l0.09,0.355l0.414-0.105l0.354-0.09l-0.091-0.354l0.384-0.098l0.354-0.09l0.384-0.098l0.383-0.098l0.355-0.091l0.383-0.098    l0.355-0.09l-0.098-0.383l0.383-0.098l0.384-0.098l0.354-0.09l-0.091-0.355l0.287-0.482l0.098,0.384l0.354-0.09l-0.098-0.384    l0.354-0.09l0.316-0.489l0.354-0.09l-0.09-0.355l-0.098-0.384l0.384-0.098l0.354-0.09l-0.09-0.354l0.384-0.098l-0.098-0.384    l0.383-0.098l0.355-0.09l0.285-0.482l0.355-0.091l-0.09-0.354l0.354-0.09l0.414-0.105l0.354-0.09l0.384-0.098l0.354-0.09    l0.09,0.354l0.355-0.09l0.413-0.105l0.355-0.09l0.098,0.384l0.383-0.098l0.355-0.091l0.452,0.294l0.414-0.105l0.354-0.09    l0.384-0.098l0.354-0.09l0.09,0.354l0.354-0.09l0.098,0.384l0.384-0.098l0.09,0.355l0.383-0.098l-0.286,0.481l0.098,0.384    l0.383-0.098l0.09,0.355l0.098,0.383l0.09,0.355l0.384-0.098l0.098,0.384l0.098,0.384l0.09,0.354l0.098,0.384l-0.384,0.098    l0.098,0.384l0.09,0.354l0.384-0.098l0.098,0.384l0.354-0.09l0.09,0.355l0.355-0.091l0.383-0.098l0.098,0.383l0.098,0.384    l29.415,0.43l0.098-21.448l-0.865-0.188l-0.068,1.212l-36.494-0.198l-0.738,0.188l0.188,0.739l-0.354,0.09l0.098,0.383    l-0.414,0.105l0.09,0.354L213.871,185l-0.188-0.738l-0.413,0.105l-0.098-0.384l-0.355,0.09l-0.188-0.738l-0.354,0.09l-0.188-0.739    l-0.738,0.188l-0.098-0.384l-0.414,0.105l-0.09-0.354l-0.354,0.09l-0.188-0.738l-1.476,0.376l0.09,0.354l-1.123,0.286    l-0.188-0.738l-0.354,0.09l-0.098-0.384l-0.414,0.105l-0.384-1.506l0.414-0.105l-0.09-0.354l-0.768,0.196l-0.09-0.354    l-0.738,0.188l-0.293-1.152l-0.738,0.188l-0.376-1.478L202.456,177.592z" />

</svg>