<svg xmlns="http://www.w3.org/2000/svg" xmlns:xlink="http://www.w3.org/1999/xlink" x="0px" y="0px" width="620.843px"
    height="733.026px" viewBox="56 -4 100 100">

    <style xmlns="http://www.w3.org/2000/svg">
        svg {
            filter: drop-shadow(2px 3px 0px rgb(176 136 98 / 1));
        }
    </style>

    <path id="siskiyou" fill="#218c74" stroke-width="0.5" stroke="#264653" stroke-miterlimit="1"
        d="M55.564,2.104l0.098,0.384l-0.354,0.09    l-0.384,0.098l-0.383,0.098l0.098,0.384l-0.384,0.098l0.09,0.354l0.098,0.384l0.09,0.354l0.098,0.384l0.098,0.384l0.09,0.354    l-0.354,0.09l0.098,0.384l-0.355,0.09l0.098,0.384l-0.383,0.098l0.09,0.354l-0.384,0.098l0.098,0.384l-0.384,0.098l0.09,0.355    l0.098,0.384l-0.354,0.09l0.09,0.354l0.098,0.384l-0.354,0.09l0.098,0.384L52.725,9.59l-0.354,0.09l-0.098-0.384l-0.414,0.105    l-0.355,0.09l-0.098-0.384l-0.354,0.09l0.098,0.384l-0.384,0.098l0.098,0.384l0.09,0.354l-0.354,0.09l-0.316,0.489l-0.354,0.09    l-0.355,0.09l-0.098-0.384l-0.09-0.355l-0.383,0.098l-0.384,0.098l-0.098-0.384l-0.383,0.098l0.098,0.384l-0.355,0.09l0.09,0.355    l0.098,0.384l-0.354,0.09l0.098,0.384l-0.294,0.453l0.384-0.098l0.098,0.384l-0.384,0.098l-0.354,0.09l-0.414,0.105l0.09,0.354    l-0.354,0.09l0.098,0.384l-0.355,0.09l0.09,0.354l-0.383,0.098l-0.355,0.09l-0.474-0.257l0.09,0.354l-0.384,0.098l-0.354,0.09    l0.098,0.384l0.098,0.384l0.09,0.354l0.354-0.09l0.098,0.384l0.09,0.354l0.098,0.384l0.098,0.383l0.384-0.098l0.473,0.257    l-0.383,0.098l0.098,0.384l0.09,0.354l-0.384,0.098l-0.354,0.09l0.098,0.384l0.098,0.384l-0.294,0.453l0.098,0.384l0.098,0.383    l0.09,0.354l0.098,0.384l0.09,0.354l0.098,0.384l0.098,0.384l0.384-0.098l0.09,0.354l0.098,0.384l0.09,0.354l0.098,0.384    l-0.287,0.482l-0.354,0.09l0.09,0.354l-0.413,0.105l0.511,0.279l0.09,0.354l-0.414,0.105l0.098,0.384l-0.354,0.09l0.098,0.384    l-0.354,0.09l-0.384,0.098l0.09,0.354l-0.354,0.09l0.098,0.384l0.09,0.354l0.098,0.384l-0.384,0.098l0.098,0.384l0.09,0.354    l0.098,0.384l0.09,0.354l0.098,0.384l-0.481-0.286l-0.355,0.09l0.098,0.384l-0.383,0.098l0.098,0.384l-0.355,0.09l-0.292,0.452    l0.098,0.384l-0.384,0.098l0.09,0.354l-0.354,0.09l0.105,0.414l0.09,0.354l0.354-0.09l0.384-0.098l0.09,0.354l0.383-0.098    l0.355-0.09l0.098,0.384l0.09,0.354l-0.355,0.09l0.105,0.414l0.09,0.354l0.09,0.354l-0.383,0.098l0.098,0.384l-0.287,0.482    l0.098,0.384l0.09,0.354l0.09,0.354l0.384-0.098l0.383-0.098l0.355-0.09l0.098,0.384l0.383-0.098l0.09,0.354l0.355-0.09    l0.105,0.413l0.091,0.355l0.09,0.354l0.098,0.384l-0.355,0.09l0.09,0.354l0.105,0.414l0.355-0.09l0.09,0.354l-0.355,0.091    l0.09,0.354l0.098,0.384l0.09,0.354l0.105,0.414l0.09,0.354l0.09,0.355l0.098,0.383l0.09,0.354l0.355-0.09l0.105,0.414    l0.383-0.098l0.09,0.354l-0.383,0.098l0.09,0.354l0.098,0.384l0.09,0.354l-0.354,0.09l0.105,0.414l-0.383,0.098l0.09,0.354    l-0.355,0.09l-0.383,0.098l-0.384,0.098l-0.354,0.09l0.09,0.354l0.098,0.384l0.09,0.354l0.105,0.414l-0.294,0.452l-0.354,0.09    l-0.384,0.098l0.09,0.354l0.098,0.384l-0.384,0.098l0.098,0.384l0.384-0.098l0.384-0.098l0.452,0.294l0.384-0.098l0.354-0.09    l0.858,0.159l0.354-0.091l0.383-0.098l0.829,0.167l0.836,0.196l0.384-0.098l0.354-0.09l0.453,0.293l0.768-0.196l0.482,0.286    l0.354-0.09l0.768-0.196l0.09,0.354l0.354-0.091l0.09,0.354l0.383-0.098l0.098,0.384l0.355-0.09l0.098,0.384l0.098,0.384    l-0.265,0.445l0.09,0.354l-0.383,0.098l0.098,0.384l0.098,0.384l0.098,0.384l0.09,0.354l-0.264,0.445l0.354-0.09l0.098,0.384    l0.098,0.384l0.383-0.098l0.098,0.384l0.09,0.354l0.09,0.354l0.105,0.414l0.09,0.354l0.098,0.384l-0.383,0.098l-0.355,0.09    l0.09,0.354l0.445,0.264l0.098,0.384l0.383-0.098l0.098,0.384l0.098,0.384l0.09,0.354l0.09,0.354l-0.383,0.098l0.105,0.414    l-0.265,0.445l-0.383,0.098l0.098,0.384l-0.384,0.098l0.091,0.355l0.384-0.098l0.098,0.384l0.383-0.098l0.098,0.383l0.09,0.355    l0.098,0.384l0.09,0.354l0.09,0.354l0.355-0.09l-0.25,0.504l0.354-0.09l0.09,0.354l0.383-0.098l0.098,0.384l0.09,0.354l0.09,0.354    l0.105,0.414l0.09,0.355l0.098,0.384l0.355-0.09l0.444,0.264l-0.354,0.09l0.09,0.355l0.105,0.414l0.354-0.09l0.09,0.354    l0.098,0.384l0.414-0.105l0.354-0.09l-0.098-0.384l0.384-0.098l0.354-0.09l0.355-0.09l0.481,0.287l0.09,0.354l0.384-0.098    l0.09,0.354l0.383-0.098l0.105,0.414l0.09,0.354l0.453,0.293l0.256-0.474l0.098,0.383l0.414-0.105l0.354-0.09l0.09,0.354    l0.098,0.384l0.098,0.384l0.384-0.098l0.09,0.354l0.098,0.384l0.354-0.09l0.09,0.355l0.098,0.383l0.098,0.384l0.355-0.09    l0.09,0.354l-0.257,0.474l0.445,0.264l-0.355,0.09l0.453,0.294l0.098,0.384l0.09,0.354l0.098,0.384l0.413-0.105l0.444,0.264    l0.384-0.098l0.452,0.294l0.354-0.09l0.384-0.098l0.098,0.384l0.384-0.098l-0.098-0.384l0.383-0.098l0.354-0.09l0.098,0.384    l0.354-0.09l0.384-0.098l0.383-0.098l0.475,0.257l0.354-0.09l0.355-0.09l0.383-0.098l0.384-0.098l0.098,0.383l0.384-0.098    l0.09,0.355l0.354-0.09l0.354-0.09l0.098,0.384l0.098,0.383l0.091,0.355l0.384-0.098l0.098,0.384l0.384-0.098l0.09,0.354    l0.383-0.098l0.453,0.293l0.354-0.09l0.098,0.384l0.09,0.354l0.384-0.098l0.098,0.384l0.091,0.355l0.098,0.384l0.098,0.383    l0.091,0.355l0.098,0.384l0.098,0.384l0.09,0.354l0.098,0.384l0.383-0.098l0.384-0.098l0.354-0.09l0.354-0.091l0.383-0.098    l0.355-0.09l0.413-0.105l0.355-0.091l0.354-0.09l0.09,0.354l0.384-0.098l0.354-0.09l0.098,0.384l0.384-0.098l0.098,0.384    l0.475,0.256l0.098,0.384l0.09,0.355l0.354-0.09l0.384-0.098l0.354-0.09l0.098,0.384l0.414-0.105l-0.098-0.384l-0.09-0.355    l0.354-0.09l-0.098-0.384l0.355-0.09l0.383-0.098l-0.098-0.383l0.265-0.445l-0.098-0.384l0.383-0.098l-0.09-0.354l-0.383,0.098    l-0.098-0.384l-0.098-0.384l-0.09-0.354l-0.098-0.384l-0.355,0.09l-0.474-1.861l-0.383,0.098l-0.355,0.09l-0.354,0.09l-0.09-0.354    l-0.413,0.105l-0.098-0.384l-0.452-0.294l-0.09-0.354l-0.482-0.286l0.384-0.098l-0.09-0.355l-0.098-0.383l-0.098-0.384    l-0.09-0.355l0.256-0.474l0.414-0.105l-0.09-0.354l0.354-0.09l-0.098-0.384L84.756,70l-0.09-0.354l0.355-0.09l-0.098-0.384    l0.383-0.098l-0.098-0.384l0.355-0.09l-0.453-0.293l0.355-0.09l-0.091-0.355l-0.09-0.354l-0.098-0.383l-0.098-0.384l-0.098-0.384    l0.383-0.098l-0.09-0.354l0.384-0.098l0.09,0.354l0.098,0.384l0.354-0.09l0.098,0.384l0.384-0.098l0.383-0.098l-0.098-0.384    l-0.098-0.384l0.384-0.098l0.098,0.384l0.354-0.09l-0.098-0.384l0.355-0.09l-0.09-0.354l0.383-0.098l0.355-0.091l0.414-0.105    l0.354-0.09l0.354-0.09l0.384-0.098l0.354-0.09l0.09,0.354l0.414-0.105l0.453,0.293l0.354-0.09l0.286-0.482l0.354-0.09    l0.384-0.098l0.481,0.287l0.098,0.384l0.354-0.09l0.383-0.098l0.355-0.09l-0.098-0.384l0.383-0.098l0.287-0.482l0.354-0.09    l-0.09-0.354l0.384-0.098l-0.091-0.354l0.354-0.09l0.384-0.098l-0.098-0.384l0.384-0.098l0.354-0.09l0.384-0.098l0.354-0.09    l0.384-0.098l0.383-0.098l0.354-0.09l-0.09-0.354L98.66,60.89l-0.091-0.355l0.383-0.098l-0.09-0.354l0.355-0.091l-0.098-0.383    l0.383-0.098l0.384-0.098l0.354-0.09l0.384-0.098l0.354-0.09l0.098,0.383l0.414-0.105l-0.098-0.383l0.354-0.09l-0.09-0.355    l0.354-0.09l0.383-0.098l0.355-0.09l0.278-0.511l-0.09-0.354l0.355-0.09l-0.09-0.355l-0.098-0.384l-0.09-0.354l0.383-0.098    l-0.105-0.414l0.384-0.098l0.354-0.09l0.384-0.098l0.384-0.098l0.105,0.414l0.354-0.09l0.384-0.098l0.09,0.354l0.354-0.09    l0.384-0.098l0.354-0.09l-0.09-0.354l0.384-0.098l-0.105-0.414l-0.09-0.355l-0.09-0.354l-0.098-0.384l-0.09-0.354l0.383-0.098    l0.355-0.091l-0.098-0.384l0.383-0.098l0.453,0.294l0.383-0.098l0.09,0.355l0.384-0.098l0.098,0.384l0.09,0.354l0.09,0.355    l0.105,0.414l0.444,0.264l0.384-0.098l0.354-0.09l0.384-0.098l0.384-0.098l0.098,0.384l0.09,0.355l0.09,0.354l0.354-0.09    l0.105,0.414l0.09,0.354l0.384-0.098l0.098,0.383l-0.384,0.098l0.09,0.355l-0.354,0.09l-0.384,0.098l0.098,0.384l0.098,0.384    l-0.384,0.098l0.09,0.354l0.098,0.384l-0.354,0.09l-0.384,0.098l0.09,0.354l-0.354,0.09l0.098,0.383l0.098,0.384l0.09,0.355    l0.098,0.383l-0.384,0.098l0.091,0.355l0.09,0.355l0.098,0.383l-0.285,0.482l-0.355,0.09l0.098,0.384l0.355-0.091l0.098,0.384    l0.09,0.354l-0.354,0.09l0.098,0.384l-0.383,0.098l-0.264,0.445l0.453,0.293l0.098,0.384l0.383-0.098l0.09,0.354l0.453,0.293    l0.09,0.355l0.098,0.384l-0.355,0.09l0.098,0.384l0.355-0.091l0.857,0.159l0.354-0.09l0.384-0.098l0.354-0.09l1.22,0.098    l56.585,1.431l1.103-62.534L55.564,2.104z" />

</svg>