<svg xmlns="http://www.w3.org/2000/svg" xmlns:xlink="http://www.w3.org/1999/xlink" x="0px" y="0px" width="620.843px"
    height="733.026px" viewBox="95 272 45 45">

    <style xmlns="http://www.w3.org/2000/svg">
        svg {
            filter: drop-shadow(2px 3px 0px rgb(176 136 98 / 1));
        }
    </style>


    <polyline id="polyline247" fill="#218c74" stroke-width="0.5" stroke="#264653" stroke-miterlimit="1"
        points="110.567,275.413 110.958,275.313      111.32,275.221 111.712,275.121 111.812,275.513 112.173,275.42 112.535,275.328 112.926,275.229 113.288,275.136      113.381,275.503 113.774,275.404 113.866,275.765 113.965,276.153 114.058,276.519 114.419,276.427 114.519,276.82      114.978,277.088 115.07,277.45 115.457,277.352 115.818,277.259 116.205,277.161 116.576,277.066 116.484,276.704      116.845,276.612 117.232,276.513 117.14,276.152 117.506,276.058 117.894,275.96 117.793,275.567 118.16,275.474      118.066,275.108 118.428,275.016 118.814,274.917 119.181,274.824 119.567,274.725 119.933,274.632 119.835,274.244      120.196,274.152 120.588,274.052 120.687,274.44 121.049,274.348 121.44,274.248 121.895,274.522 123.01,274.238      122.917,273.872 123.675,273.679 124.129,273.953 125.269,273.663 125.369,274.055 125.735,273.962 126.668,274.495      127.03,274.402 127.129,274.79 127.887,274.596 127.98,274.962 128.728,274.772 129.195,275.071 129.581,274.973      129.843,274.488 130.209,274.395 130.401,275.149 130.793,275.049 130.701,274.687 131.45,274.497 132.082,273.917      132.569,274.212 132.931,274.119 133.023,274.48 133.683,273.928 133.775,274.289 134.142,274.195 134.335,274.949      134.721,274.851 134.913,275.605 134.602,291.622 140.226,291.763 140.326,292.156 139.96,292.25 140.052,292.611 139.66,292.71      139.752,293.072 139.852,293.464 139.945,293.826 140.045,294.218 140.137,294.58 139.775,294.672 139.868,295.034      139.968,295.426 140.06,295.787 140.16,296.18 139.774,296.278 139.866,296.64 139.959,297.007 140.058,297.394 139.691,297.487      139.785,297.854 139.883,298.241 139.977,298.608 139.709,299.061 139.415,299.548 139.509,299.915 139.147,300.007      139.246,300.394 138.952,300.86 138.586,300.953 138.126,300.68 137.739,300.778 137.471,301.237 137.079,301.337      136.713,301.43 136.352,301.523 135.966,301.621 136.058,301.982 135.691,302.076 135.791,302.469 135.405,302.567      134.769,303.114 134.869,303.506 134.477,303.606 133.285,305.098 131.695,308.297 130.766,309.309 128.532,309.878      125.817,310.18 123.857,310.294 123.289,311.214 122.537,311.406 121.69,311.231 121.136,310.57 121.697,309.624 121.513,308.9      121.021,308.608 118.039,309.368 116.732,308.898 115.694,307.974 115.989,307.514 117.37,306.744 117.664,306.284      117.57,305.917 117.378,305.163 116.801,304.513 115.954,304.338 115.4,303.676 113.893,304.06 112.774,304.345 112.312,305.657      112.056,307.713 110.577,309.696 108.334,311.841 107.942,311.941 105.984,310.448 103.738,309.442 102.624,309.725      101.772,309.53 101.295,307.661 100.53,306.277 100.248,303.555 100.056,302.801 100.509,303.071 100.901,302.97      101.262,302.879 101.623,302.786 101.723,303.179 102.115,303.079 103.23,302.795 103.689,303.064 104.075,302.965      103.984,302.603 104.35,302.51 104.25,302.117 103.791,301.849 103.699,301.488 103.312,301.587 103.212,301.194      103.118,300.827 103.02,300.44 103.406,300.341 103.315,299.98 103.681,299.887 103.589,299.524 103.874,299.029      103.783,298.673 104.15,298.579 104.511,298.488 104.411,298.095 104.319,297.734 104.225,297.367 104.125,296.974      103.934,296.225 103.479,295.951 103.387,295.589 103.749,295.497 103.841,295.858 104.232,295.758 104.593,295.667      104.501,295.306 104.401,294.913 104.041,295.004 103.648,295.104 103.195,294.835 103.096,294.448 103.457,294.356      103.364,293.989 103.756,293.889 104.117,293.797 104.503,293.699 104.597,294.066 104.963,293.973 104.87,293.606      104.778,293.244 104.412,293.337 104.312,292.945 104.219,292.584 104.119,292.191 104.027,291.83 104.393,291.736      104.301,291.374 104.201,290.982 103.741,290.708 104.107,290.615 104.474,290.522 104.861,290.423 105.316,290.698      106.069,290.506 106.43,290.414 108.129,290.785 108.496,290.691 110.089,290.67 110.455,290.577 111.696,290.679      112.516,290.854 112.423,290.493 112.323,290.1 112.709,290.002 112.618,289.64 112.525,289.278 112.425,288.887      112.039,288.985 111.945,288.618 112.233,288.133 112.141,287.771 112.048,287.409 111.949,287.017 111.562,287.116 111.278,286      111.184,285.634 111.085,285.246 110.63,284.971 110.532,284.584 109.98,283.948 109.88,283.557 109.788,283.195 109.4,283.293      109.302,282.906 109.208,282.54 109.116,282.178 109.016,281.786 108.924,281.424 108.824,281.032 109.211,280.934      109.119,280.571 109.393,280.117 109.756,278.418 110.123,278.324 109.93,277.57 110.223,277.106 110.124,276.718      110.305,275.896 110.567,275.413    " />
    <polyline id="polyline249" fill="#218c74" stroke-width="0.5" stroke="#264653" stroke-miterlimit="1"
        points="93.584,302.46 95.643,302.732      96.034,302.632 97.242,302.715 98.095,302.916 98.457,302.824 98.833,304.3 100.542,307.853 100.368,308.7 99.981,308.799      99.427,308.137 99.596,307.291 98.103,306.093 95.659,304.306 93.675,302.821 93.217,302.553 92.376,302.381 92.275,301.985      92.763,302.283 93.125,302.19 93.491,302.097 93.584,302.46    " />

</svg>