<svg xmlns="http://www.w3.org/2000/svg" xmlns:xlink="http://www.w3.org/1999/xlink" x="0px" y="0px" width="620.843px"
    height="733.026px" viewBox="49 242 69 69">

    <style xmlns="http://www.w3.org/2000/svg">
        svg {
            filter: drop-shadow(2px 3px 0px rgb(176 136 98 / 1));
        }
    </style>


    <path id="sonoma" fill="#218c74" stroke-width="0.5" stroke="#264653" stroke-miterlimit="1"
        d="M44.496,250.791l5.715,5.274l5.994,11.181    l11.973,9.594l0.195,0.767l0.738,1.417l1.716,3.526l0.076,3.504l0.858,1.762l0.489,0.316l0.091,0.355l0.542-0.957l1.228,0.127    l1.273,0.43l0.293-0.452l0.384-0.098l0.384-0.098l0.354-0.09l0.354-0.09l-0.091-0.354l0.384-0.098l0.445,0.265l0.503,0.249    l0.355-0.09l0.098,0.384l0.354-0.09l0.286-0.482l0.098,0.384l0.444,0.265l-0.09-0.354l-0.098-0.384l0.414-0.105l0.354-0.09    l0.098,0.384l0.355-0.09l0.474,0.257l1.024,0.935l0.098,0.384l0.474,0.256l0.459,0.323l0.09,0.355l0.926,0.55l1.145,1.281    l0.452,0.294l0.09,0.354l0.49,0.315l0.535,0.619l0.482,0.287l0.579,0.67l0.445,0.264l1.024,0.934l0.098,0.384l0.474,0.257    l0.384-0.098l0.444,0.264l0.384-0.098l0.098,0.384l0.354-0.09l0.098,0.384l0.384-0.098l0.098,0.383l0.384-0.098l0.354-0.09    l0.09,0.355l0.384-0.098l0.09,0.354l0.354-0.09l0.384-0.098l0.098,0.383l0.383-0.098l0.098,0.384l0.355-0.091L95.739,298    l0.383-0.098l0.355-0.09l0.09,0.355l0.383-0.098l0.384-0.098l0.354-0.09l0.384-0.098l0.09,0.354l0.354-0.09l-0.09-0.354    l0.384-0.098l0.354-0.09l0.384-0.098l0.09,0.354l0.383-0.098l0.098,0.384l0.355-0.091l0.383-0.098l-0.285,0.482l0.098,0.383    l0.09,0.355l0.383-0.098l0.355-0.09l0.09,0.354l-0.354,0.091l0.098,0.384l0.098,0.384l0.354-0.09l0.383-0.098l0.098,0.384    l0.09,0.354l0.384-0.098l0.09,0.355l0.354-0.09l0.105,0.414l0.091,0.355l0.384-0.098l0.098,0.383l0.09,0.355l0.09,0.354    l0.098,0.384l0.098,0.384l0.098,0.384l0.384-0.098l0.354-0.09l1.024-0.67l0.836,0.196l1.657,0.333l0.383-0.098l0.648-2.147    l0.076-1.183l0.769-0.196l0.452,0.293l-0.098-0.383l0.482,0.285l0.354-0.09l0.384-0.098l0.09,0.354l0.383-0.098l0.265-0.445    l-0.293-1.151l0.383-0.098l0.355-0.091l-0.181-0.708l-0.098-0.384l0.481,0.287l0.384-0.098l-0.098-0.384l-0.098-0.384    l-0.482-0.286l-0.09-0.354l0.196-0.836l-0.475-1.861l-0.384,0.098l-0.481-0.287l-0.098-0.383l-0.09-0.355l-0.355,0.09l-0.09-0.354    l0.355-0.091l-0.098-0.383l-0.098-0.384l-0.355,0.09l-0.383,0.098l-0.098-0.384l-0.09-0.354l0.383-0.098l-0.09-0.355l-0.098-0.384    l-0.098-0.384l-0.098-0.383l0.355-0.09l0.383-0.098l-0.09-0.355l-0.09-0.354l-0.383,0.098l-0.098-0.384l-0.098-0.384l-0.098-0.384    l-0.09-0.354l-0.091-0.355l-0.354,0.09l-0.105-0.414l-0.09-0.354l-0.383,0.098l-0.098-0.384l-0.091-0.355l-0.445-0.264    l-0.105-0.414l-0.383,0.098l-0.475-0.257l-0.098-0.384l-0.09-0.354l0.384-0.098l0.292-0.453l-0.489-0.316l-0.09-0.354    l-0.482-0.287l-0.09-0.354l-0.09-0.354l-0.105-0.414l-0.354,0.09l0.263-0.445l-1.371-0.814l-0.105-0.414l0.354-0.09l-0.09-0.354    l0.384-0.098l0.256-0.475l0.384-0.098l-0.181-0.708l-0.105-0.414l-0.384,0.098l-0.444-0.265l-0.384,0.098l-0.354,0.09    l-0.098-0.384l0.264-0.444l-0.354,0.09l-0.09-0.355l-0.49-0.315l-0.384,0.098l-0.09-0.354l-0.098-0.384l-0.09-0.355l-0.354,0.09    l-0.09-0.354l-0.105-0.414l-0.091-0.355l0.354-0.09l-0.098-0.383l-0.09-0.355l-0.354,0.09l-0.098-0.384l0.354-0.09l-0.098-0.384    l-0.09-0.354l-0.452-0.294l-0.384,0.098l-0.09-0.354l-0.354,0.09l-0.09-0.355l-0.105-0.414l-0.09-0.355l-0.098-0.383l-0.384,0.098    l-0.09-0.355l-0.481-0.286l-0.355,0.09l-0.098-0.383l-0.383,0.098l-0.354,0.09l-0.091-0.355l-0.383,0.098l-0.098-0.384    l0.383-0.098l-0.481-0.287l-0.384,0.098l-0.09-0.354l0.384-0.098l-0.098-0.384l-0.09-0.355l-0.098-0.383l-0.384,0.098l-0.09-0.355    l-0.098-0.384l-0.098-0.383l-0.09-0.355l0.384-0.098l-0.098-0.384l0.383-0.098l0.355-0.09l-0.09-0.354l0.383-0.098l-0.098-0.384    l-0.481-0.286l0.293-0.452l0.167-0.83l0.383-0.098l0.098-1.22l-0.475-0.256l0.286-0.482l-0.098-0.384l-0.482-0.286l-0.09-0.354    l-0.091-0.355l-0.105-0.414l-0.09-0.354l-0.098-0.384l-0.383,0.098l-0.09-0.355l-0.355,0.09l-0.383,0.098l-0.445-0.263l0.09,0.354    l-0.474-0.256l-0.384,0.098l-0.105-0.413l-0.354,0.09l-0.09-0.354l-0.098-0.384l-0.09-0.354l-0.09-0.355l-0.384,0.098    l-0.105-0.414l-0.09-0.354l-0.098-0.384l-0.091-0.355l-0.09-0.354l-0.354,0.09l-0.105-0.414l-0.09-0.354l-0.098-0.384l-0.09-0.354    l-0.384,0.098l-0.091-0.354l-0.105-0.414l-0.09-0.354l-0.098-0.384l-0.354,0.09l-0.09-0.355l0.354-0.09l-0.09-0.354l-0.105-0.414    l-0.09-0.355l-0.354,0.09l-0.098-0.384l-0.384,0.098l-0.09-0.354l-0.09-0.355l-0.49-0.316l-0.09-0.354l-0.354,0.09l-0.098-0.384    l-0.384,0.098l-0.09-0.355l-0.098-0.383l-0.383,0.098l-0.355,0.091l-0.098-0.384l-0.09-0.355l-0.383,0.098l-0.098-0.383    l-15.634-0.766l0.286,1.123l-3.268-0.362l-0.137,2.425l-13.614-0.492l-0.173,2.403l-3.623-0.272l-0.768,0.196l-1.183-0.077    l-0.481-0.286l-0.768,0.196l-0.444-0.264l-0.738,0.188l-0.264,0.444l-0.768,0.196l0.188,0.739l-0.354,0.09l-0.09-0.355    l-0.482-0.286l-0.09-0.354L44.496,250.791z" />


</svg>