<svg xmlns="http://www.w3.org/2000/svg" xmlns:xlink="http://www.w3.org/1999/xlink" x="0px" y="0px" width="620.843px"
    height="733.026px" viewBox="155 308 80 80">

    <style xmlns="http://www.w3.org/2000/svg">
        svg {
            filter: drop-shadow(2px 3px 0px rgb(176 136 98 / 1));
        }
    </style>


    <path id="stanislaus" fill="#218c74" stroke-width="0.5" stroke="#264653" stroke-miterlimit="1"
        d="M198.178,308.347l-0.182,25.808    l-0.355,0.091l-0.444-0.264l-0.384,0.098l-0.383,0.098l-0.475-0.257l-0.354,0.09l-0.098-0.383l-0.355,0.09l-0.098-0.384    l-0.098-0.384l-0.383,0.098l-0.09-0.355l-0.355,0.09l-0.09-0.354l-0.413,0.105l0.09,0.354l-0.265,0.445l-0.354,0.09l-0.384,0.098    l0.293-0.453l-0.09-0.354l-0.384,0.098l-0.293,0.452l0.09,0.355l-0.384,0.098l0.098,0.384l-0.354,0.09l-0.098-0.384l-0.355,0.09    l-0.384,0.098l-0.474-0.257l-0.09-0.354l-0.384,0.098l-0.354,0.09l0.09,0.354l-0.355,0.09l-0.383,0.098l-0.355,0.09l-0.09-0.354    l-0.293,0.452l-0.384,0.098l-0.09-0.354l-0.354,0.09l-0.49-0.316l0.196,0.768l-0.264,0.445l-0.414,0.105l0.098,0.384l-0.354,0.09    l-0.098-0.384l-0.355,0.09l-0.474-0.257l0.09,0.355l-0.355,0.09l-0.414,0.105l-0.354,0.09l-0.354,0.09l0.452,0.294l-0.354,0.09    l0.098,0.384l-0.384,0.098l0.098,0.383l-0.354,0.09l-0.482-0.285l0.098,0.383l-0.384,0.098l0.091,0.355l0.09,0.354l-0.354,0.09    l-0.09-0.354l-0.384,0.098l-0.09-0.354l-0.354,0.09l-0.098-0.383l-0.384,0.098l0.098,0.383l0.09,0.355l-0.383,0.098l-0.09-0.355    l-0.355,0.09l0.091,0.355l-0.383,0.098l0.09,0.354l-15.168,15.002l-1.122,0.287l0.181,0.708l0.452,0.295l0.098,0.384l0.384-0.098    l0.098,0.384l0.384-0.098l0.09,0.354l-0.384,0.098l0.286,1.123l-0.384,0.098l0.098,0.384l-0.263,0.445l0.188,0.738l0.354-0.09    l0.474,1.86l1.123-0.286l0.482,0.286l0.354-0.09l0.098,0.384l0.384-0.098l0.181,0.708l-0.384,0.099l0.098,0.384l-0.256,0.475    l-0.384,0.098l0.384,1.507l-0.354,0.09l0.632,1.002l0.475,1.861l-0.444-0.265l0.09,0.355l-0.769,0.195l0.09,0.354l-0.738,0.188    l0.105,0.414l-0.354,0.09l-0.105-0.413l-0.768,0.195l0.105,0.413l-0.355,0.091l0.09,0.354l-0.474-0.257l0.09,0.354l0.481,0.287    l0.09,0.354l-0.383,0.098l0.286,1.123l-0.355,0.09l0.278,1.093l0.355-0.09l0.105,0.413l0.09,0.355l0.098,0.384l0.383-0.098    l0.355-0.091l0.09,0.354l0.091,0.354l0.383-0.098l0.105,0.414l-0.383,0.098l0.474,0.256l0.098,0.384l0.09,0.355l-0.383,0.098    l0.09,0.354l0.383-0.098l0.105,0.414l0.09,0.354l-0.383,0.098l0.098,0.384l0.09,0.354l0.098,0.384l0.098,0.385l0.09,0.354    l0.098,0.385l0.188,0.737l0.383-0.098l0.384-0.098l0.354-0.09l-0.098-0.384l-0.091-0.354l-0.098-0.385l0.384-0.098l0.354-0.09    l-0.09-0.354l0.384-0.098l0.287-0.482l0.354-0.09l0.384-0.098l0.098,0.384l0.354-0.09l0.09,0.354l0.482,0.286l0.383-0.098    l0.09,0.355l0.098,0.383l0.355-0.09l0.383-0.099l-0.098-0.383l0.453,0.293l0.383-0.098l0.098,0.384l0.355-0.09l-0.098-0.385    l0.383-0.098l-0.098-0.383l0.384-0.099l-0.09-0.354l0.354-0.09l0.091,0.354l0.384-0.098l0.098,0.383l0.098,0.385l0.09,0.354    l0.098,0.384l0.384-0.098l0.09,0.354l0.354-0.091l0.482,0.286l0.354-0.09l0.098,0.384l0.09,0.354l0.098,0.384l0.09,0.355    l0.482,0.285l16.101-16.026l-2.041-3.443l36.856-18.485l-15.806-15.38L198.178,308.347z" />


</svg>