<svg xmlns="http://www.w3.org/2000/svg" xmlns:xlink="http://www.w3.org/1999/xlink" x="0px" y="0px" width="620.843px"
    height="733.026px" viewBox="130 212 50 50">

    <style xmlns="http://www.w3.org/2000/svg">
        svg {
            filter: drop-shadow(2px 3px 0px rgb(176 136 98 / 1));
        }
    </style>


    <path id="sutter" fill="#218c74" stroke-width="0.5" stroke="#264653" stroke-miterlimit="1"
        d="M141.68,212.523l0.098,0.384l-0.383,0.098    l0.09,0.354l-0.355,0.09l0.098,0.384l-0.383,0.098l0.091,0.355l0.098,0.383l-0.384,0.098l0.098,0.384l-0.354,0.09l-0.384,0.098    l0.09,0.355l-0.354,0.09l0.098,0.384l-0.384,0.098l0.09,0.354l0.098,0.384l-0.383,0.098l0.098,0.384l0.09,0.354l0.098,0.384    l0.383-0.098l0.09,0.355l-0.383,0.098l0.098,0.383l0.098,0.384l0.383-0.098l0.09,0.355l0.098,0.383l0.091,0.354l0.098,0.384    l-0.383,0.098l-0.354,0.09l0.098,0.384l-0.383,0.098l0.09,0.354l-0.355,0.09l0.098,0.384l0.354-0.09l0.098,0.384l0.09,0.354    l0.098,0.384l0.091,0.354l0.098,0.383l0.383-0.098l0.098,0.384l0.355-0.09l0.09,0.354l-0.257,0.474l-0.383,0.098l-0.355,0.09    l-0.098-0.383l-0.383,0.098l0.098,0.383l0.09,0.355l0.098,0.384l0.383-0.098l0.098,0.384l0.355-0.09l0.09,0.354l0.383-0.098    l0.098,0.384l0.09,0.354l0.355-0.09l0.098,0.383l-0.257,0.475l0.09,0.355l0.355-0.09l0.098,0.383l0.09,0.354l0.098,0.384    l0.098,0.383l-0.355,0.09l0.09,0.355l0.355-0.09l0.098,0.384l0.473,0.256l0.384-0.098l0.098,0.384l0.354-0.09l0.384-0.098    l0.354-0.09l0.384-0.098l0.098,0.384l0.383-0.098l0.09,0.355l-0.286,0.481l0.09,0.354l0.098,0.384l0.098,0.383l0.09,0.355    l0.383-0.098l-0.285,0.482l0.383-0.098l0.09,0.354l0.105,0.413l0.091,0.355l-0.293,0.452l0.098,0.384l0.09,0.355l0.383-0.098    l0.355-0.091l0.105,0.414l0.383-0.098l0.09,0.354l0.091,0.355l-0.383,0.098l-0.355,0.09l-0.383,0.098l-0.384,0.098l0.098,0.384    l0.09,0.354l-0.249,0.504l-0.384,0.098l-0.354,0.09l0.09,0.355l0.09,0.354l-0.384,0.098l0.098,0.384l0.098,0.384l0.098,0.384    l0.09,0.354l0.09,0.355l-0.383,0.098l0.098,0.384l0.09,0.354l0.105,0.414l0.383-0.098l0.09,0.355l0.384-0.098l0.354-0.09    l0.09,0.354l-0.354,0.09l0.098,0.384l0.354-0.09l0.098,0.384l0.098,0.384l0.09,0.354l-0.354,0.09l0.091,0.354l-0.384,0.098    l-0.383,0.098l0.098,0.384l0.098,0.383l0.098,0.384l0.383-0.098l0.09,0.354l0.09,0.354l0.384-0.098l0.354-0.09l0.384-0.098    l0.098,0.384l0.098,0.384l0.256-0.475l0.414-0.105l0.354-0.09l0.453,0.293l-0.098-0.384l0.383-0.098l0.257-0.475l0.098,0.384    l0.098,0.384l0.098,0.384l0.383-0.098l0.355-0.091l0.09,0.354l0.09,0.355l0.098,0.383l-0.355,0.09l0.098,0.384l0.09,0.355    l-0.383,0.098l0.481,0.287l0.09,0.354l0.098,0.384l0.098,0.384l-0.383,0.098l0.09,0.354l0.098,0.384l0.09,0.355l0.383-0.098    l0.098,0.383l0.355-0.091l0.383-0.098l0.098,0.384l0.384-0.098l0.09,0.355l0.098,0.383l0.091,0.355l0.105,0.414l0.09,0.355    l-0.384,0.098l0.09,0.354l0.098,0.384l0.384-0.098l0.09,0.355l0.354-0.09l0.098,0.383l0.384-0.098l0.098,0.384l0.384-0.098    l-0.098-0.384l-0.098-0.383l-0.09-0.355l0.354-0.09l0.091,0.354l0.384-0.098l0.354-0.09l-0.09-0.355l-0.354,0.09l-0.098-0.384    l0.354-0.09l0.098,0.384l0.384-0.098l0.09,0.354l0.354-0.09l-0.09-0.355l0.384-0.098l-0.098-0.384l-0.384,0.098l-0.09-0.354    l0.384-0.098l0.383-0.098l0.09,0.354l0.355-0.09l0.098,0.384l0.383-0.098l0.09,0.355l0.384-0.098l0.105,0.414l0.09,0.354    l0.09,0.355l0.098,0.383l-0.286,0.482l0.098,0.384l-0.383,0.098l0.09,0.355l-0.355,0.09l0.09,0.354l7.147,0.16l0.95-14.901    l3.268,0.362l0.083-5.966l-0.768,0.196l0.09,0.354l-0.738,0.188l-0.09-0.354l-0.354,0.09l-0.091-0.355l-2.628,0.67l0.091,0.354    l-1.093,0.279l-1.061,0.647l-0.708,0.181l-0.475-0.256l0.09,0.354l-0.256,0.475l-0.218,0.874l-0.459-0.323l-0.159,0.858    l-0.293,0.453l-0.354,0.09l0.188,0.738l-0.414,0.105l0.098,0.384l-0.452-0.294l0.264-0.444l-0.188-0.739l0.414-0.105l-0.384-1.506    l0.265-0.444l-0.355,0.09l-0.196-0.768l0.265-0.445l-0.279-1.093l0.383-0.098l-0.105-0.414l0.354-0.09l-0.09-0.355l-0.453-0.294    l-0.738,0.188l-0.09-0.354l0.355-0.09l-0.09-0.355l0.383-0.098l-0.105-0.414l-0.383,0.098l-0.09-0.354l-0.098-0.384l-0.355,0.091    l-0.09-0.355l0.265-0.444l-0.294-1.153l0.383-0.098l-0.09-0.354l0.265-0.445l0.354-0.09l-0.105-0.414l0.414-0.105l-0.09-0.354    l0.354-0.09l-0.098-0.384l0.384-0.098l-0.09-0.355l-0.098-0.383l-0.098-0.384l-0.384,0.098l0.098,0.384l-0.354,0.09l-0.098-0.384    l-0.09-0.355l-0.098-0.383l-0.09-0.355l0.354-0.09l-0.098-0.384l0.286-0.482l-0.572-0.64l-0.09-0.355l-0.098-0.383l0.384-0.098    l-0.098-0.384l-0.09-0.355l-0.482-0.285l-0.09-0.355l-0.098-0.384l0.384-0.098l-0.098-0.383l-0.09-0.355l-0.098-0.384l0.354-0.09    l-0.09-0.354l-0.354,0.09l-0.098-0.384l-0.098-0.384l-0.384,0.098l-0.09-0.354l0.384-0.098l0.354-0.09l-0.098-0.383l0.384-0.098    l-0.09-0.355l-0.098-0.384l-0.098-0.383l-0.384,0.098l-0.091-0.355l-0.098-0.384l-0.444-0.264l-0.098-0.384l-0.098-0.384    l0.354-0.09l-0.09-0.354l-0.098-0.384l0.384-0.098l0.383-0.098l-0.098-0.384l-0.383,0.098l-0.09-0.355l0.383-0.098l0.354-0.09    l-0.098-0.383l-0.354,0.09l-0.091-0.355l0.355-0.09l-0.098-0.384l-0.453-0.293l0.354-0.09l0.383-0.098l-0.09-0.355l-16.499-0.953    L141.68,212.523z M154.902,255.143l-0.354,0.09l0.098,0.384l0.09,0.355l0.354-0.09l-0.09-0.355L154.902,255.143z M147.598,243.51    l0.354-0.09l0.105,0.414l-0.354,0.09L147.598,243.51z" />


</svg>