<svg xmlns="http://www.w3.org/2000/svg" xmlns:xlink="http://www.w3.org/1999/xlink" x="0px" y="0px" width="620.843px"
    height="733.026px" viewBox="92 114 75 75">

    <style xmlns="http://www.w3.org/2000/svg">
        svg {
            filter: drop-shadow(2px 3px 0px rgb(176 136 98 / 1));
        }
    </style>

    <path id="tehama" fill="#218c74" stroke-width="0.5" stroke="#264653" stroke-miterlimit="1"
        d="M87.569,130.751l0.09,0.354l-0.383,0.098    l-0.384,0.098l0.105,0.414l-0.354,0.09l0.091,0.355l-0.355,0.09l-0.383,0.098l0.098,0.384l-0.384,0.098l0.09,0.354l-0.384,0.098    l-0.354,0.09l0.098,0.384l-0.354,0.09l-0.098-0.384l-0.384,0.098l-0.09-0.354l-0.354,0.09l-0.414,0.105l-0.355,0.09l-0.452-0.294    l-0.384,0.098l-0.444-0.265l-0.414,0.105l-0.354,0.09l-0.355,0.091l-0.383,0.098l-0.384,0.098l-0.383,0.098l0.091,0.355    l-0.445-0.264l-0.354,0.09l0.09,0.355l-0.384,0.098l-0.354,0.09l0.098,0.384l-0.414,0.105l-0.098-0.384l-0.354,0.09l0.098,0.384    l-0.355,0.09l-0.383,0.098l0.09,0.354l0.098,0.384l0.098,0.384l0.383-0.098l0.09,0.354l0.098,0.384l0.354-0.09l0.091,0.355    l0.354-0.09l-0.091-0.355l0.504,0.25l0.354-0.09l0.475,0.256l0.105,0.414l0.354-0.09l0.09,0.355l0.355-0.091l0.098,0.384    l0.383-0.098l0.09,0.354l0.482,0.286l-0.286,0.482l0.09,0.354l0.098,0.384l0.09,0.355l-0.383,0.098l0.098,0.384l0.098,0.383    l0.09,0.355l0.098,0.384l0.09,0.354l-0.265,0.445l0.355-0.09l0.105,0.414l-0.355,0.09l0.09,0.354l-0.354,0.09l0.098,0.384    l-0.384,0.098l0.09,0.355l0.09,0.354l-0.354,0.09l0.105,0.413l0.09,0.355l-0.414,0.105l0.098,0.384l0.503,0.249l0.354-0.09    l0.098,0.384l0.098,0.384l-0.354,0.09l0.09,0.354l0.098,0.384l0.09,0.355l0.098,0.383l0.098,0.384l0.09,0.355l0.098,0.384    l0.09,0.354l0.098,0.384l-0.414,0.105l-0.354,0.09l0.098,0.384l-0.265,0.444l0.354-0.091l0.098,0.384l-0.264,0.445l0.354-0.09    l0.098,0.383l0.354-0.09l0.098,0.384l0.09,0.355l0.098,0.383l-0.264,0.445l0.098,0.384l0.098,0.383l0.09,0.355l0.098,0.384    l-0.355,0.091l-0.383,0.098l0.09,0.354l0.481,0.286l0.098,0.384l-0.293,0.453l0.098,0.383l0.098,0.384l0.383-0.098l0.09,0.354    l0.098,0.383l0.09,0.355l0.098,0.384l0.355-0.09l0.09,0.354l0.098,0.384l0.098,0.384l-0.265,0.444l0.098,0.384l0.098,0.384    l0.09,0.355l0.098,0.383l0.355-0.091l0.09,0.355l-0.355,0.09l0.098,0.384l-0.383,0.098l0.098,0.383l0.09,0.355l-0.354,0.09    l-0.383,0.098l-0.384,0.098l-0.354,0.09l-0.384,0.098l0.098,0.384l0.09,0.354l0.098,0.384l-0.256,0.474l0.09,0.355l0.098,0.383    l-0.414,0.105l0.09,0.355l0.098,0.384l-0.355,0.091l0.098,0.383l-0.263,0.445l0.098,0.384l0.09,0.354l-0.384,0.098l0.098,0.384    l0.482,0.286l0.09,0.354l0.098,0.384l0.09,0.355l0.105,0.414l0.09,0.354l-0.293,0.453l0.098,0.384l0.09,0.354l0.384-0.098    l50.726,1.761l1.123-0.286l-0.09-0.355l-0.384,0.098l-0.105-0.414l-0.354,0.09l-0.09-0.354l-0.098-0.384l0.354-0.09l-0.09-0.354    l0.384-0.098l-0.091-0.355l-0.105-0.414l-0.384,0.098l-0.09-0.354l-0.098-0.383l0.294-0.453l0.355-0.091l-0.098-0.384l0.383-0.098    l-0.098-0.383l-0.09-0.354l0.384-0.098l-0.098-0.384l0.354-0.09l-0.09-0.354l0.384-0.098l-0.098-0.384l0.354-0.09l0.384-0.098    l0.481,0.287l0.738-0.188l0.355-0.09l0.09,0.354l0.383-0.098l0.738-0.188l0.482,0.286l0.354-0.09l0.384-0.098l1.213,0.068    l0.806,0.203l0.414-0.105l1.958-0.09l0.444,0.265l0.384-0.098l0.738-0.188l0.836,0.195l1.183,0.077l0.384-0.098l0.383-0.098    l0.49,0.316l-0.105-0.414l0.355-0.09l0.354-0.09l0.873,0.218l0.384-0.098l-0.105-0.414l0.354-0.09l-0.09-0.355l0.355-0.09    l0.413-0.105l0.354-0.09l-0.098-0.383l-0.09-0.354l0.383-0.098l-0.098-0.384l-0.098-0.383l-0.09-0.355l0.355-0.09l-0.098-0.384    l-0.09-0.354l0.354-0.09l-0.098-0.384l0.384-0.098l-0.098-0.384l0.383-0.098l0.384-0.098l-0.09-0.354l-0.098-0.383l0.354-0.09    l-0.09-0.355l0.355-0.09l0.383-0.098l0.384-0.098l-0.098-0.384l0.384-0.098l-0.098-0.383l1.189,0.105l0.866,0.188l1.183,0.076    l0.264-0.445l-0.196-0.768l0.865,0.188l-0.098-0.383l-0.12-1.952l0.383-0.098l0.384-0.098l-0.188-0.738l0.384-0.098l0.354-0.09    l-0.09-0.354l0.354-0.09l0.188-0.865l0.098,0.383l0.354-0.09L161,154.846l0.414-0.105l-0.091-0.355l-0.098-0.384l0.265-0.444    l-0.196-0.768l0.264-0.444l0.384-0.098l-0.098-0.384l0.354-0.09l0.414-0.105l0.354-0.09l0.354-0.09l0.098,0.384l0.768-0.196    l0.383-0.098l0.445,0.264l0.738-0.188l0.459,0.324l-0.105-0.414l0.294-0.452l0.473,0.256l0.738-0.188l-0.09-0.354l0.355-0.09    l0.315-0.49l0.354-0.09l0.354-0.09l0.482,0.287l0.354-0.09l-0.098-0.384l-0.09-0.355l0.858,0.159l-0.09-0.355l0.068-1.212    l0.384-0.098l-0.098-0.384l-0.384,0.098l-0.09-0.354l0.286-0.482l-0.098-0.384l-0.09-0.354l-0.098-0.384l0.354-0.09l-0.09-0.355    l-0.098-0.383l-0.098-0.384l0.384-0.098l0.383-0.098l0.098,0.384l0.355-0.09l0.383-0.098l0.355-0.09l0.098,0.383l0.383-0.098    l-0.098-0.383l0.384-0.098l0.354-0.09l-0.098-0.384l0.384-0.098l-0.091-0.355l0.354-0.09l0.091,0.355l0.384-0.098l0.384-0.098    l-0.09-0.355l0.354-0.09l-0.098-0.383l0.293-0.453l-0.098-0.384l-0.384,0.098l-0.098-0.384l0.384-0.098l-0.09-0.354l0.354-0.09    l0.384-0.098l-0.098-0.384l-0.091-0.355l-0.098-0.383l-0.098-0.384l-0.091-0.355l-0.098-0.383l0.293-0.452l-0.481-0.287    l0.383-0.098l-0.098-0.384l-0.383,0.098l-0.09-0.354l-0.098-0.384l0.383-0.098l0.354-0.09l0.098,0.384l0.285-0.482l-0.098-0.384    l0.738-0.188l-0.09-0.354l-0.383,0.098l-0.105-0.414l-0.355,0.09l-0.09-0.354l-0.098-0.384l-0.414,0.105l-0.09-0.354l-0.091-0.355    l-0.459-0.323l-0.09-0.354l-0.354,0.09l-0.384,0.098l-0.098-0.384l-0.354,0.09l-0.414,0.105l-0.445-0.264l-0.354,0.09l-0.09-0.354    l-0.738,0.188l-0.482-0.286l-0.383,0.098l-0.453-0.294l-0.738,0.188l-0.376-1.476l0.264-0.445l-0.105-0.414l-0.445-0.263    l0.264-0.445l-0.293-1.152l0.383-0.098l-0.09-0.355l-0.09-0.354l0.355-0.09l-0.098-0.384l0.383-0.098l-0.09-0.355l-0.383,0.098    l-0.105-0.414l-0.355,0.09l-0.369-1.447l-1.476,0.376l-0.105-0.414l-0.768,0.196l-1.567,0.021l-1.122,0.286l0.09,0.354    l-1.121,0.286l-0.091-0.355l-0.354,0.09l-0.09-0.354l-0.383,0.098l-0.355,0.09l-0.383,0.098l-0.384,0.098l-0.098-0.384    l-0.383,0.098l0.098,0.384l-0.384,0.098l-0.098-0.384l-0.09-0.355l-0.354,0.09l-0.105-0.414l-0.355,0.091l-0.09-0.354    l-0.091-0.355l-0.383,0.098l-0.384,0.098l-0.098-0.384l-0.384,0.098l0.098,0.384l-0.354,0.09l-0.354,0.09l-0.098-0.384    l-0.384,0.098l-0.354,0.09l-0.414,0.105l0.098,0.384l-0.355,0.09l-0.354,0.09l0.09,0.355l-0.384,0.098l-0.474-0.257l-0.384,0.098    l-0.354,0.09l-0.453-0.294l-0.383,0.098l-0.09-0.354l-0.355,0.09l-0.105-0.414l-0.413,0.105l-0.355,0.09l-0.354,0.09l-0.09-0.355    l-0.384,0.098l-0.354,0.09l-0.384,0.098l-0.384,0.098l-0.354,0.09l-0.384,0.098l-0.09-0.354l-0.354,0.09l-0.384,0.098    l-0.383,0.098l-0.355,0.09l-0.383,0.098l-0.355,0.09l0.09,0.354l-0.383,0.098l-0.384,0.098l-0.354,0.09l0.09,0.354l-0.384,0.098    l-0.09-0.355l-0.354,0.09l-0.384,0.098l-0.354,0.09l-0.384,0.098l-0.383,0.098l-0.355,0.09l-0.09-0.354l-0.383,0.098l-0.355,0.091    l-0.098-0.384l-0.383,0.098l-0.384,0.098l-0.444-0.265l-0.384,0.098l-0.098-0.383l-0.354,0.09l-0.355,0.09l-0.413,0.105    l-0.354,0.09l-0.098-0.384l-0.384,0.098l0.098,0.384l-0.354,0.09l-0.355,0.09l-0.413,0.105l-0.098-0.384l-0.355,0.09l-0.383,0.098    l-0.355,0.09l-0.354,0.09l-0.384,0.098l-0.383,0.098l-0.384,0.098l-0.354,0.09l-0.09-0.355l-0.355,0.091l0.09,0.354l-0.383,0.098    l-0.384,0.098l-0.384,0.098l-0.354,0.09l0.098,0.384l-0.354,0.09l-0.384,0.098l-0.482-0.286l-0.383,0.098l-0.355,0.09l-0.354,0.09    l-0.384,0.098l-0.383,0.098l-0.384,0.098l0.098,0.384l0.029-0.007l0.098,0.383l0.384-0.098l0.09,0.355l-0.384,0.098l-0.09-0.355    l-0.383,0.098l-0.098-0.383l-0.098-0.384l-0.257,0.475l-0.383,0.098l0.098,0.383l-0.355,0.09l-0.098-0.383L126,129.292    l-0.098-0.384l-0.384,0.098l-0.09-0.354l-0.354,0.09l-0.384,0.098l-0.354,0.09l-0.098-0.384l-0.384,0.098l-0.383,0.098    l0.098,0.384l-0.355,0.091l-0.384,0.098l-0.354,0.09l-0.384,0.098l-0.383,0.098l-0.098-0.384l-0.355,0.09l-0.383,0.098    l0.098,0.384l-0.355,0.09l-0.383,0.098l-0.098-0.384l-0.355,0.091l-0.383,0.098l-0.09-0.354l-0.384,0.098l-0.264,0.444    l-0.09-0.354l-0.384,0.098l-0.354,0.09l-0.098-0.384l-0.384,0.098l-0.383,0.098l-0.355,0.09l-0.383,0.098l-0.098-0.384    l-0.355,0.09l-0.383,0.098l-0.09-0.354l-0.384,0.098l-0.354,0.09l-0.098-0.384l-0.384,0.098l-0.354,0.09l-0.384,0.098    l-0.384,0.098l-0.354,0.09l-0.091-0.355l-0.384,0.098l-0.383,0.098l-0.105-0.414l-0.09-0.354l-0.355,0.09l-0.09-0.355    l-0.383,0.098l0.09,0.354l-0.354,0.091l-0.091-0.355l-0.383,0.098l-0.355,0.09l-0.098-0.384l-0.09-0.354l-0.383,0.098    l-0.384,0.098l-0.098-0.384l-0.354,0.09l0.098,0.384l-0.384,0.098l-0.354,0.09l0.09,0.354l-0.475-0.256l0.09,0.354L106.901,129    l-0.444-0.264l0.09,0.354l-0.384,0.098l0.098,0.384l-0.354,0.09l-0.384,0.098l-0.383,0.098l-0.098-0.384l-0.355,0.09l0.098,0.384    l-0.293,0.453l-0.355,0.09l-0.354,0.09l-0.414,0.105l0.09,0.354l-0.354,0.09l-0.384,0.098l-0.09-0.354l-0.354,0.09l0.09,0.354    l0.105,0.413l-0.384,0.098l-0.383,0.098l0.09,0.355l-0.445-0.265l-0.383,0.098l0.091,0.355l-0.355,0.09l-0.354,0.09l-0.09-0.355    l-0.414,0.105l-0.354,0.09l-0.105-0.414l-0.09-0.354l-0.384,0.098l-0.354,0.09l-0.09-0.355l-0.384,0.098l-0.098-0.384    l-0.384,0.098l-0.09-0.354l-0.354,0.09l-0.098-0.384l-0.384,0.098l-0.354,0.09l-0.355,0.09l-0.098-0.384l0.355-0.09l-0.09-0.354    l-0.098-0.384l-0.355,0.09l-0.09-0.354l-0.413,0.105l-0.355,0.09l-0.383,0.098l-0.355,0.09l-0.354,0.09l-0.384,0.098l-0.383,0.098    l-0.384,0.098l-0.354,0.09l-0.105-0.414l-0.355,0.091l-0.383,0.098l0.105,0.413l-0.384,0.098l-0.384,0.098l-0.105-0.414    l-0.354,0.09l-0.354,0.09l0.105,0.414l-0.384,0.098l-0.384,0.098l-0.383,0.098l-0.105-0.414l-0.355,0.091l-0.09-0.354l-0.354,0.09    L87.569,130.751z" />

</svg>