<svg xmlns="http://www.w3.org/2000/svg" xmlns:xlink="http://www.w3.org/1999/xlink" x="0px" y="0px" width="620.843px"
    height="733.026px" viewBox="26 52 116 116">

    <style xmlns="http://www.w3.org/2000/svg">
        svg {
            filter: drop-shadow(2px 3px 0px rgb(176 136 98 / 1));
        }
    </style>

    <path id="trinity" fill="#218c74" stroke-width="0.5" stroke="#264653" stroke-miterlimit="1"
        d="M107.275,52.748l0.105,0.414l-0.355,0.091    l-0.383,0.098l0.09,0.354l0.098,0.384l0.09,0.354l0.09,0.355l0.105,0.414l-0.384,0.098l0.09,0.354l-0.354,0.09l-0.384,0.098    l-0.354,0.09l-0.09-0.354l-0.384,0.098l-0.383,0.098l-0.105-0.414l-0.355,0.09l-0.384,0.098l-0.354,0.09l-0.384,0.098l0.105,0.414    l-0.383,0.098l0.09,0.354l0.098,0.384l0.09,0.355l-0.355,0.09l0.09,0.354l-0.278,0.511l-0.355,0.09l-0.383,0.098l-0.354,0.09    l0.09,0.355l-0.383,0.098l0.098,0.383l-0.384,0.098l-0.098-0.383l-0.354,0.09l-0.384,0.098l-0.354,0.09l-0.384,0.098l-0.383,0.098    l0.098,0.383l-0.355,0.091l0.09,0.354l-0.383,0.098l0.098,0.384l0.098,0.384l0.09,0.354l-0.354,0.09l-0.383,0.098l-0.384,0.098    l-0.354,0.09l-0.384,0.098l-0.354,0.09l-0.384,0.098l0.098,0.384l-0.384,0.098l-0.354,0.09l0.091,0.354l-0.384,0.098l0.098,0.383    l-0.383,0.098L94.78,64.3l-0.383,0.098l0.09,0.355l-0.355,0.09l-0.383,0.098l-0.354,0.09l-0.091-0.354l-0.481-0.287l-0.384,0.098    l-0.354,0.09l-0.286,0.482l-0.354,0.09l-0.482-0.286l-0.384,0.098l-0.098-0.383l-0.354,0.09l-0.384,0.098l-0.354,0.09    l-0.384,0.098l-0.383,0.098l-0.355,0.091l-0.383,0.098l0.098,0.383l-0.355,0.09l0.098,0.384l-0.354,0.09l-0.098-0.384    l-0.413,0.105l0.098,0.384l0.09,0.355l-0.354,0.09l-0.384,0.098l-0.091-0.354l-0.354,0.09l-0.098-0.384l-0.098-0.383l-0.384,0.098    l0.098,0.383l-0.383,0.098l0.098,0.384l0.09,0.355l0.098,0.383l0.09,0.354l0.098,0.384l-0.355,0.091l0.453,0.293l-0.355,0.09    l0.09,0.354l-0.383,0.098l0.098,0.384l-0.355,0.09l0.09,0.354l0.098,0.384l0.098,0.384l-0.354,0.09l0.09,0.354l-0.414,0.105    l-0.256,0.474l0.09,0.355l0.098,0.384l0.098,0.383l0.09,0.355l-0.384,0.098l0.482,0.286l0.09,0.354l0.452,0.294l0.098,0.384    l0.413-0.105l0.09,0.354l0.354-0.09l0.355-0.09l0.383-0.098l0.098,0.384l0.09,0.354l0.098,0.384l0.098,0.383l0.09,0.355    l0.355-0.09l0.098,0.384l0.098,0.384l0.09,0.354l0.098,0.384l0.383-0.098l0.09,0.354l-0.383,0.098l0.098,0.384l-0.257,0.475    l0.09,0.354l-0.383,0.098l-0.355,0.09l0.098,0.384l-0.354,0.09l0.09,0.355l0.098,0.384l-0.414,0.105l-0.098-0.384l-0.354,0.09    l-0.384,0.098l-0.354,0.09l-0.09-0.355l-0.098-0.384l-0.475-0.256l-0.098-0.384l-0.384,0.098l-0.098-0.384l-0.354,0.09    l-0.384,0.098l-0.09-0.354l-0.354,0.09l-0.355,0.091l-0.413,0.105l-0.355,0.09l-0.383,0.098l-0.354,0.091l-0.354,0.09    l-0.384,0.098l-0.383,0.098l-0.098-0.384l-0.09-0.354l-0.098-0.384l-0.098-0.384l-0.091-0.355l-0.098-0.383l-0.098-0.384    l-0.091-0.355l-0.098-0.384l-0.384,0.098l-0.09-0.354l-0.098-0.384l-0.354,0.09l-0.453-0.293l-0.383,0.098l-0.09-0.354    l-0.384,0.098l-0.098-0.384l-0.384,0.098L76.48,74.91l-0.098-0.383l-0.098-0.384l-0.354,0.09l-0.354,0.09l-0.09-0.355    l-0.384,0.098l-0.098-0.383l-0.384,0.098l-0.383,0.098l-0.355,0.09l-0.354,0.09l-0.475-0.257l-0.383,0.098l-0.384,0.098    l-0.354,0.09l-0.007-0.029l-0.098-0.384l-0.355,0.09l-0.383,0.098l0.098,0.384l-0.355,0.09l-0.098-0.384l-0.414,0.105l-0.354,0.09    l-0.444-0.265l-0.384,0.098l-0.444-0.264l-0.413,0.105l-0.098-0.384l-0.098-0.384l-0.098-0.383l-0.445-0.265l0.355-0.09    l-0.445-0.264l0.257-0.474l-0.098-0.384l-0.355,0.09l-0.098-0.384l-0.09-0.354l-0.09-0.355l-0.354,0.09l-0.098-0.384l-0.09-0.354    l-0.384,0.098l-0.105-0.414l-0.09-0.355l-0.09-0.354l-0.383,0.098l-0.384,0.098l-0.098-0.383l-0.256,0.474l-0.453-0.293    l-0.09-0.354l-0.105-0.414l-0.383,0.098l-0.09-0.354l-0.384,0.098l-0.09-0.354l-0.481-0.287l-0.355,0.09l-0.354,0.09l-0.384,0.098    l0.098,0.384l-0.354,0.09l-0.414,0.105l-0.098-0.384l-0.09-0.354l-0.354,0.09l-0.105-0.414l-0.09-0.355l0.354-0.09l-0.444-0.264    l-0.355,0.09l-0.098-0.384l-0.383,0.098l0.098,0.384l-0.384,0.098l0.09,0.354l-0.474-0.256l-0.264,0.444l-0.354,0.09l0.09,0.355    l0.105,0.414l0.09,0.354l0.098,0.384L57.94,68.91l0.09,0.354l0.105,0.414l0.091,0.355l-0.354,0.09l0.098,0.383l-0.414,0.105    l0.09,0.355l0.098,0.384l-0.355,0.09l0.098,0.384l-0.354,0.09l0.09,0.354l-0.384,0.098l-0.444-0.264l-0.414,0.105l0.09,0.354    l0.098,0.384l-0.263,0.445l0.354-0.09l0.098,0.383l-0.354,0.09l0.098,0.384l0.354-0.09l0.504,0.25l0.098,0.383l0.354-0.09    l0.384-0.098l0.091,0.355l0.354-0.09l0.091,0.355l-0.354,0.09l0.098,0.383l0.098,0.384l0.098,0.384l0.09,0.354l0.354-0.09    l0.098,0.384l0.098,0.384l0.09,0.355l0.098,0.383l0.09,0.355l-0.354,0.09l-0.384,0.098l-0.091-0.355l-0.263,0.445l-0.414,0.105    l0.098,0.384l0.098,0.383l-0.263,0.445l0.105,0.414l-0.355,0.09l0.09,0.355l-0.383,0.098l0.09,0.354l-0.355,0.09l-0.414,0.105    l0.098,0.384l-0.354,0.09l0.09,0.354l0.354-0.09l0.098,0.384l0.098,0.384l-0.354,0.09l0.09,0.355l-0.354,0.09l-0.384,0.098    l-0.354,0.09l-0.414,0.105l0.098,0.383l-0.355,0.09l0.09,0.355l-0.354,0.09l0.098,0.384l0.098,0.384l-0.384,0.098l-0.452-0.294    l-0.384,0.098l-0.481-0.287l-0.355,0.09l-0.09-0.354l-0.098-0.383l-0.383,0.098l-0.09-0.355l-0.098-0.384l-0.354,0.091    l0.098,0.384l-0.383,0.098l-0.098-0.384l-0.098-0.384l-0.09-0.354L50.56,83.5l-0.098-0.384l-0.09-0.354l-0.354,0.09l-0.384,0.098    l-0.264,0.444l0.098,0.384l-0.384,0.098l-0.354,0.09l0.09,0.354l-0.384,0.098l-0.384,0.098l-0.09-0.354l-0.354,0.09l-0.384,0.098    l-0.383,0.098l0.09,0.354l0.098,0.384l-0.355,0.09l0.098,0.384l0.091,0.355l0.354-0.09l0.098,0.383l0.091,0.354l-0.355,0.091    l0.098,0.384l0.098,0.384l0.355-0.09l0.09,0.354l-0.257,0.475l0.355-0.09l0.09,0.354l0.105,0.413l0.09,0.355l0.293-0.453    l0.09,0.355l0.09,0.354l-0.383,0.098l0.098,0.384l0.383-0.098l0.384-0.098l0.098,0.384l-0.384,0.098l0.098,0.384l0.09,0.354    l0.384-0.098l0.09,0.354l0.098,0.384l0.098,0.384l-0.286,0.481l-0.293,0.452l0.383-0.098l0.09,0.354l0.098,0.384l0.384-0.098    l0.09,0.354l-0.384,0.098l0.105,0.414l0.09,0.354l-0.383,0.098l-0.09-0.354l-0.354,0.09l0.09,0.354l0.091,0.355l0.354-0.091    l0.098,0.384l0.09,0.354l0.488,0.316l-0.383,0.098l0.09,0.355l0.09,0.354l-0.257,0.475l0.098,0.384L50,98.332l0.09,0.354    l0.09,0.355l0.098,0.384l0.09,0.354l-2.33,56.115l0.091,1.959l34.731,1.056l0.383-0.098l-0.09-0.355l-0.098-0.383l-0.09-0.354    l-0.383,0.098l-0.098-0.384l-0.098-0.383l0.293-0.453l-0.098-0.384l-0.481-0.286l-0.09-0.354l0.383-0.098l0.355-0.091    l-0.098-0.384l-0.09-0.355l-0.098-0.383l-0.098-0.384l0.264-0.445l-0.098-0.383l-0.09-0.355l-0.098-0.384l-0.354,0.09    l-0.098-0.384l-0.355,0.09l0.265-0.444l-0.098-0.384l-0.354,0.091l0.265-0.444l-0.098-0.384l0.354-0.09l0.414-0.105l-0.098-0.384    l-0.09-0.355l-0.098-0.383l-0.09-0.355l-0.098-0.384l-0.098-0.383l-0.09-0.355l-0.098-0.384l-0.09-0.354l0.354-0.09l-0.098-0.384    l-0.098-0.384l-0.354,0.09l-0.503-0.249l-0.098-0.384l0.414-0.105l-0.09-0.355l-0.105-0.413l0.354-0.09l-0.09-0.354l-0.09-0.355    l0.384-0.098l-0.098-0.384l0.354-0.09l-0.09-0.354l0.355-0.09l-0.105-0.414l-0.355,0.09l0.265-0.445l-0.09-0.354l-0.098-0.384    l-0.09-0.355l-0.098-0.383l-0.098-0.384l0.383-0.098l-0.09-0.355l-0.098-0.384l-0.09-0.354l0.286-0.482l-0.482-0.286l-0.09-0.354    l-0.383,0.098l-0.098-0.384l-0.355,0.091l-0.09-0.355l-0.354,0.09l-0.105-0.414l-0.475-0.256l-0.354,0.09l-0.504-0.25l0.091,0.355    l-0.354,0.09l-0.091-0.355l-0.354,0.09l-0.098-0.384l-0.09-0.354l-0.383,0.098l-0.098-0.384l-0.098-0.384l-0.09-0.354    l-0.098-0.384l-0.09-0.354l-0.105-0.414l-0.09-0.354l-0.09-0.355l0.383-0.098l0.355-0.09l-0.098-0.383l-0.09-0.355l-0.098-0.384    l-0.098-0.384l-0.09-0.354l0.354-0.09l-0.098-0.384l-0.09-0.354l0.414-0.105l0.354-0.09l0.09,0.354l0.384-0.098l-0.09-0.354    l0.354-0.09l-0.105-0.414l-0.09-0.354l0.355-0.091l0.383-0.098l0.384-0.098l0.383-0.098l-0.091-0.355l-0.098-0.383l0.355-0.09    l-0.098-0.384l0.256-0.475l0.414-0.105l0.354-0.09l0.294-0.453l-0.09-0.354l-0.098-0.384l-0.098-0.384l0.354-0.09l-0.098-0.383    l0.355-0.09l0.414-0.105l0.098,0.383l0.354-0.09l0.384-0.098l0.354-0.09l-0.098-0.383l0.354-0.09l0.098,0.383l0.384-0.098    l0.384-0.098l0.383-0.098l-0.098-0.383l0.265-0.445l0.354-0.09l-0.09-0.354l0.286-0.482l0.383-0.098l0.098,0.384l0.384-0.098    l0.444,0.264l0.355-0.09l-0.09-0.354l0.383-0.098l-0.098-0.384l-0.098-0.384l0.384-0.098l-0.098-0.384l0.384-0.098l-0.09-0.354    l0.354-0.09l0.354-0.09l-0.09-0.355l0.384-0.098l0.384-0.098l0.091,0.355l0.383-0.098l-0.091-0.355l0.355-0.09l0.256-0.475    l-0.098-0.384l-0.098-0.383l0.384-0.098l0.383-0.098l0.384-0.098l0.354-0.09l0.355-0.091l0.383-0.098l0.355-0.09l0.413-0.105    l0.354-0.091l-0.09-0.354l-0.09-0.354l0.354-0.09l0.384-0.098l-0.098-0.384l-0.098-0.384l-0.098-0.384l0.354-0.09l0.384-0.098    l-0.09-0.354l0.384-0.098l0.354-0.09l0.384-0.098l0.354-0.09l0.413-0.105l0.354-0.09l-0.09-0.355l0.257-0.475l0.383-0.098    l0.355-0.091l-0.098-0.383l0.383-0.098l0.098,0.383l0.098,0.384l0.384-0.098l0.354-0.09l0.09,0.355l0.294-0.453l0.354-0.09    l-0.098-0.384l-0.098-0.383l-0.354,0.09l-0.098-0.384l-0.091-0.355l-0.09-0.354l-0.098-0.384l-0.098-0.384l0.354-0.09    l-0.098-0.384l-0.354,0.09l-0.09-0.354l-0.09-0.355l0.354-0.09l-0.098-0.384l-0.098-0.383l-0.098-0.384l-0.354,0.09l-0.384,0.098    l-0.354,0.09l-0.09-0.355l-0.09-0.354l0.354-0.09l-0.098-0.384l0.384-0.098l-0.098-0.384l-0.482-0.286l0.294-0.452l-0.384,0.098    l-0.09-0.355l-0.098-0.384l-0.098-0.383l-0.098-0.384l-0.444-0.265l-0.09-0.354l0.354-0.09l0.384-0.098l0.354-0.09l0.414-0.105    l0.354-0.09l-0.098-0.384l0.355-0.09l-0.098-0.384l0.383-0.098l0.355-0.09l-0.098-0.384l-0.09-0.354l0.383-0.098l-0.09-0.355    l-0.098-0.383l-0.383,0.098l0.285-0.482l-0.383,0.098l-0.098-0.384l-0.09-0.355l0.383-0.098l0.384-0.098l-0.09-0.354l0.354-0.09    l0.384-0.098l-0.098-0.384l0.354-0.09l0.384-0.098l-0.098-0.384l0.384-0.098l0.354-0.09l0.384-0.098l-0.098-0.383l0.354-0.09    l-0.09-0.355l0.384-0.098l-0.098-0.384l-0.098-0.384l0.293-0.452l-0.098-0.384l0.355-0.09l-0.09-0.354l-0.098-0.384l-0.098-0.384    l-0.09-0.354l-0.355,0.09l-0.098-0.383l0.355-0.09l0.383-0.098l-0.091-0.355l0.355-0.09l-0.098-0.384l0.383-0.098l0.354-0.091    l-0.098-0.383l0.383-0.098l-0.09-0.355l0.384-0.098l-0.098-0.384l0.354-0.09l-0.09-0.354l0.384-0.098l-0.098-0.384l-0.098-0.384    l0.384-0.098l0.354-0.09l0.384-0.098l-0.09-0.354l0.354-0.09l-0.098-0.384l-0.09-0.355l0.384-0.098l-0.098-0.384l-0.098-0.383    l-0.09-0.355l-0.384,0.098l0.286-0.482l-0.384,0.098l-0.09-0.354l0.384-0.098l-0.098-0.384l0.383-0.098l-0.098-0.384l-0.09-0.354    l0.355-0.09l-0.098-0.384l-0.091-0.355l-0.098-0.384l-0.098-0.383l0.383-0.098l-0.091-0.354l0.355-0.091l-0.098-0.384l-0.09-0.354    l0.383-0.098l0.474,0.256l-0.09-0.354l-0.098-0.384l0.354-0.09l0.098,0.384l0.384-0.098l0.354-0.09l0.384-0.098l-0.098-0.384    l0.286-0.482l0.354-0.09l-0.09-0.354l0.383-0.098l0.354-0.091l0.09,0.354l0.383-0.098l-0.09-0.354l0.355-0.09l-0.098-0.384    l0.383-0.098l-0.09-0.355l-0.098-0.383l-0.098-0.384l0.294-0.453l-0.098-0.384l-0.09-0.354l0.354-0.09l-0.098-0.384l0.384-0.098    l-0.098-0.384l-0.09-0.354l-0.098-0.384l-0.384,0.098l-0.354,0.09l-0.09-0.354l-0.098-0.383l0.354-0.09l0.384-0.098l0.354-0.09    l-0.098-0.384l0.383-0.098l0.293-0.453l0.091,0.355l0.354-0.09l0.384-0.098l0.452,0.294l-0.098-0.384l0.384-0.098l0.383-0.098    l0.355-0.09l0.383-0.098l0.355-0.091l0.383-0.098l-0.09-0.354l-0.098-0.384l0.384-0.098l-0.09-0.354l0.256-0.474l-0.098-0.384    l-0.09-0.354l0.384-0.098l-0.098-0.384l-0.09-0.354l-0.098-0.384l-0.098-0.384l0.354-0.09l-0.091-0.354l-0.098-0.383l-0.098-0.384    l-0.091-0.355l-0.354,0.09l-0.384,0.098l-0.098-0.384l-0.444-0.264l-0.482-0.287l-0.383,0.098l-0.354,0.091l-0.098-0.384    l-0.09-0.354l0.355-0.09l-0.098-0.384l-0.09-0.355l-0.453-0.293l-0.098-0.384l-0.383,0.098l-0.09-0.355l-0.453-0.293l0.264-0.445    l0.383-0.098l-0.098-0.384l0.354-0.09l-0.098-0.384l-0.09-0.354l-0.355,0.091l-0.098-0.384l0.355-0.09l0.293-0.452l-0.098-0.384    l-0.098-0.384l-0.091-0.355l0.384-0.098l-0.098-0.383l-0.09-0.355l-0.098-0.384l-0.098-0.383l0.354-0.09l-0.09-0.354l0.384-0.098    l0.354-0.09l-0.098-0.384l-0.09-0.354l0.384-0.098l-0.098-0.384l-0.098-0.384l0.384-0.098l0.354-0.09l-0.09-0.355l0.384-0.098    l-0.098-0.383l-0.384,0.098l-0.09-0.354l-0.105-0.414l-0.354,0.09l-0.09-0.354l-0.09-0.355l-0.098-0.384l-0.384,0.098    l-0.384,0.098l-0.354,0.09l-0.384,0.098l-0.444-0.264l-0.105-0.414l-0.09-0.355l-0.09-0.354l-0.098-0.384l-0.384,0.098    l-0.09-0.355l-0.383,0.098l-0.46-0.323L107.275,52.748z M46.839,84.447l-0.098-0.384l-0.355,0.09l0.098,0.384L46.839,84.447z" />

</svg>