<svg xmlns="http://www.w3.org/2000/svg" xmlns:xlink="http://www.w3.org/1999/xlink" x="0px" y="0px" width="620.843px"
    height="733.026px" viewBox="284 408 85 85">

    <style xmlns="http://www.w3.org/2000/svg">
        svg {
            filter: drop-shadow(2px 3px 0px rgb(176 136 98 / 1));
        }
    </style>

    <path id="tulare" fill="#218c74" stroke-width="0.5" stroke="#264653" stroke-miterlimit="1"
        d="M315.116,411.35l0.023,6.38l-19.745,0.251    l0.066,6.306l-1.151,0.294l-8.006-0.319l-0.708,0.181l-6.206,6.741l2.667-0.271l-0.25,6.795l3.554-0.12l-0.129,10.351l-3.17,0.022    l-0.477,36.988l93.991-0.963l-0.09-0.354l0.285-0.481l-0.481-0.287l0.384-0.098l-0.091-0.354l-0.098-0.384l0.384-0.099    l-0.09-0.354l0.354-0.091l-0.098-0.383l-0.354,0.09l-0.098-0.384l0.263-0.445l-0.098-0.383l-0.09-0.355l-0.105-0.413l-0.091-0.354    l0.384-0.099l-0.09-0.354l0.354-0.091l-0.099-0.384l0.385-0.098l0.098,0.384l0.383-0.098l0.355-0.09l-0.098-0.385l-0.091-0.354    l-0.453-0.294l-0.098-0.385l0.355-0.09l-0.091-0.355l0.383-0.098l-0.098-0.383l-0.474-0.257l0.285-0.482l-0.098-0.384l-0.09-0.354    l-0.098-0.384l0.354-0.091l-0.09-0.354l-0.105-0.414l-0.091-0.354l-0.09-0.354l-0.099-0.385l-0.354,0.091l-0.384,0.098    l-0.09-0.354l-0.355,0.09l-0.104-0.413l-0.384,0.098l-0.09-0.354l-0.091-0.354l0.384-0.098l-0.099-0.385l0.355-0.09l-0.091-0.354    l-0.105-0.413l0.384-0.098l0.265-0.445l-0.355,0.091l0.265-0.444l-0.354,0.09l-0.099-0.384l-0.098-0.385l-0.098-0.384    l-0.384,0.098l-0.444-0.264l-0.384,0.098l-0.09-0.354l-0.099-0.385l-0.098-0.383l0.384-0.098l-0.099-0.385l-0.383,0.098    l0.293-0.452l-0.384,0.098l-0.09-0.354l-0.098-0.385l-0.099-0.384l-0.098-0.385l-0.09-0.354l-0.091-0.354l-0.098-0.385    l-0.098-0.383l-0.098-0.385l0.383-0.098l-0.091-0.354l-0.09-0.354l-0.098-0.385l-0.384,0.098l-0.098-0.384l-0.286,0.481    l-0.098-0.384l-0.099-0.384l-0.09-0.354l0.384-0.098l-0.09-0.354l-0.385,0.098l0.286-0.482l-0.098-0.383l-0.098-0.385    l-0.091-0.354l-0.09-0.354l-0.098-0.384l-0.098-0.384l0.383-0.098l-0.098-0.385l0.354-0.09l0.384-0.099l-0.091-0.354l-0.09-0.354    l-0.098-0.384l-0.099-0.384l0.355-0.091l-0.099-0.384l-0.354,0.09l-0.09-0.354l-0.384,0.098l-0.09-0.354l-0.099-0.385    l-0.098-0.384l-0.098-0.384l-0.354,0.091l-0.475-0.257l-0.09-0.355l-0.482-0.285l-0.098-0.384l-0.354,0.09l-0.099-0.384    l-0.09-0.354l-0.091-0.354l0.354-0.091l-0.098-0.384l-0.099-0.384l-0.098-0.384l-0.09-0.354l-0.091-0.354l-0.354,0.091    l-0.098-0.385l-0.099-0.384l0.354-0.09l-0.099-0.385l-0.09-0.354l-0.091-0.355l-0.105-0.413l-0.354,0.09l-0.09-0.354l0.354-0.091    l-0.098-0.384l-0.091-0.354l-0.098-0.385l0.384-0.098l-0.098-0.384l0.738-0.188l-0.278-1.093l1.121-0.286l-0.475-1.861    l-1.121,0.286l-0.475-1.861l-0.737,0.188l-0.196-0.769l-0.384,0.099l-0.188-0.738l-0.354,0.09l-0.09-0.354l0.256-0.474    l1.122-0.286l-0.188-0.739l0.383-0.098l-0.188-0.738l-0.383,0.098l-0.453-0.293l-0.188-0.738l-2.627,0.669l-0.099-0.384    l-0.738,0.188l-0.188-0.738l0.383-0.098l-0.376-1.478l-0.384,0.098l-0.098-0.384l-0.896-0.558l-0.188-0.739l-0.414,0.105    l-0.195-0.768l0.413-0.105l0.354-0.09l-0.279-1.093l0.355-0.091l-0.286-1.122l-0.453-0.294l-0.376-1.478l-0.354,0.091    l-0.188-0.738l-0.768,0.195l-0.934-0.579l-0.377-1.478l0.55-0.926l0.354-0.091l0.315-0.489l-0.099-0.384l-1.43-0.8l-0.098-0.384    l-0.098-0.384l-0.927-0.551l-0.376-1.477l-0.927-0.551l-0.099-0.384l0.738-0.188l-0.188-0.738l-0.738,0.188l-0.188-0.738    l-0.934-0.58l0.264-0.444l0.738-0.188l-0.099-0.385l0.769-0.195l-0.67-2.629l-0.564-0.611L315.116,411.35z" />

</svg>