<svg xmlns="http://www.w3.org/2000/svg" xmlns:xlink="http://www.w3.org/1999/xlink" x="0px" y="0px" width="620.843px"
    height="733.026px" viewBox="224 278 75 75">

    <style xmlns="http://www.w3.org/2000/svg">
        svg {
            filter: drop-shadow(2px 3px 0px rgb(176 136 98 / 1));
        }
    </style>

    <path id="tuolumne" fill="#218c74" stroke-width="0.5" stroke="#264653" stroke-miterlimit="1"
        d="M252.559,281.022l-8.51,3.742    l-18.775,28.976l-0.098-0.384l-1.477,0.376l0.098,0.384l0.09,0.355l-0.384,0.098l0.098,0.383l-0.354,0.09l-0.482-0.285    l0.384-0.098l-0.09-0.354l-0.098-0.384l-0.384,0.098l0.098,0.384l-0.354,0.09l0.09,0.355l-0.768,0.195l0.196,0.768l-0.738,0.188    l0.09,0.355l0.738-0.188l0.188,0.738l0.383-0.098l0.286,1.123l-0.383,0.098l0.098,0.384l-1.093,0.278l0.091,0.355l-0.383,0.098    l0.286,1.123l-1.122,0.286l0.098,0.383l-0.354,0.09l0.09,0.355l-0.384,0.098l0.098,0.384l-0.384,0.098l0.098,0.384l-1.859,0.474    l0.188,0.738l-0.355,0.091l-0.293,0.451l-1.122,0.286l0.098,0.384l-0.738,0.188l0.098,0.384l-0.354,0.09l0.188,0.738l-0.355,0.09    l0.09,0.355l-0.414,0.105l-0.249,0.503l15.806,15.38l0.354-0.09l-0.196-0.769l0.384-0.098l-0.181-0.709l-0.384,0.098l-0.474-1.861    l0.384-0.098l-0.098-0.384l0.354-0.09l0.098,0.384l0.384-0.098l0.09,0.354l0.384-0.098l0.09,0.355l0.738-0.188l0.098,0.384    l0.354-0.09l0.286,1.123l0.384-0.098l0.188,0.738l0.383-0.098l0.098,0.384l0.354-0.091l-0.098-0.384l0.738-0.188l-0.188-0.738    l0.383-0.098l-0.09-0.355l-0.383,0.098l-0.384-1.506l-0.354,0.09l-0.384-1.507l-0.383,0.098l-0.376-1.477l1.121-0.286l0.098,0.383    l0.384-0.098l-0.098-0.383l1.476-0.376l0.098,0.383l1.859-0.474l-0.098-0.383l0.384-0.098l-0.098-0.384l1.092-0.278l-0.09-0.354    l0.384-0.098l-0.09-0.354l0.384-0.098l0.09,0.354l0.738-0.188l-0.09-0.354l0.444,0.264l0.768-0.195l-0.09-0.354l0.355-0.09    l0.09,0.354l0.383-0.098l-0.09-0.354l0.355-0.091l-0.196-0.768l0.383-0.098l-0.188-0.738l0.384-0.098l0.444,0.264l0.098,0.384    l0.738-0.188l0.09,0.355l0.384-0.098l0.105,0.414l0.738-0.188l0.09,0.354l0.384-0.098l-0.09-0.354l0.354-0.09l-0.105-0.414    l0.768-0.196l-0.09-0.355l0.738-0.188l-0.098-0.384l0.709-0.181l-0.279-1.093l1.152-0.294l0.452,0.294l0.355-0.091l0.278,1.093    l0.768-0.196l0.098,0.384l1.092-0.278l3.863,2.57l0.098,0.384l0.452,0.294l0.09,0.354l0.355-0.091l0.09,0.355l0.413-0.105    l0.355-0.091l0.383-0.098l0.098,0.384l0.355-0.09l0.098,0.383l0.354-0.09l0.414-0.105l0.354-0.09l0.384-0.098l0.354-0.09    l0.355-0.09l-0.098-0.383l-0.098-0.384l0.383-0.098l0.098,0.384l0.384-0.098l0.098,0.383l0.098,0.384l0.384-0.098l0.09,0.354    l0.354-0.09l0.354-0.09l-0.09-0.355l-0.098-0.384l0.384-0.098l0.098,0.384l0.384-0.098l0.091,0.355l0.383-0.098l0.09,0.354    l0.355-0.09l0.098,0.384l0.354-0.09l0.384-0.098l0.354-0.09l-0.098-0.384l0.413-0.105l0.354-0.09l0.098,0.384l0.257-0.475    l0.383-0.098l0.384-0.098l0.383-0.098l0.354-0.091l0.264-0.444l-0.09-0.355l0.384-0.098l0.384-0.098l0.383-0.098l0.355-0.09    l0.354-0.09l0.384-0.098l0.354-0.09l0.09,0.355l0.414-0.105l0.264-0.445l-0.098-0.384l0.355-0.09l0.383-0.098l0.098,0.384    l0.355-0.091l0.383-0.098l0.384-0.098l-0.098-0.384l0.354-0.09l-0.098-0.383l0.482,0.285l0.158-0.857l-0.09-0.355l-0.09-0.354    l-0.354,0.09l-0.098-0.384l0.256-0.474l0.414-0.105l-0.098-0.384l0.354-0.09l0.355-0.09l0.383-0.098l0.355-0.09l0.383-0.098    l0.384-0.098l0.354-0.09l-0.09-0.354l0.384-0.098l0.354-0.09l-0.09-0.355l0.384-0.098l-0.098-0.384l0.384-0.098l-0.098-0.383    l-0.098-0.384l0.354-0.09l-0.09-0.355l0.294-0.452l0.354-0.09l0.286-0.482l0.383-0.098l0.355-0.091l0.098,0.384l0.738-0.188    l0.383-0.098l0.09,0.354l0.09,0.354l0.098,0.384l0.384-0.098l0.098,0.383l0.354-0.09l0.098,0.384l0.475,0.257l0.09,0.354    l0.098,0.384l0.354-0.09l0.098,0.384l0.384-0.098l0.384-0.098l0.098,0.384l0.354-0.09l0.09,0.354l0.384-0.098l-0.09-0.354    l0.354-0.09l0.384-0.098l0.256-0.475l0.098,0.384l0.384-0.098l0.09,0.354l0.09,0.355l0.383-0.098l-0.09-0.355l0.354-0.09    l0.383-0.098l0.091,0.355l0.098,0.384l0.481,0.286l0.354-0.09l0.098,0.384l0.091,0.355l0.09,0.354l0.098,0.384l0.099,0.384    l0.286-0.482l0.354-0.09l0.482,0.286l-0.098-0.384l0.383-0.098l0.098,0.384l0.099,0.384l1.273,0.43l0.098,0.383l0.098,0.384    l-0.354,0.09l0.098,0.384l0.355-0.09l0.09,0.354l0.474,0.256l0.453,0.294l0.383-0.098l0.098,0.384l0.482,0.286l0.354-0.09    l0.091,0.355l-0.354,0.09l0.445,0.265l-0.249,0.503l0.09,0.354l0.354-0.09l0.098,0.384l0.385-0.098l0.09,0.354l0.098,0.384    l0.098,0.384l0.091,0.355l0.098,0.383l0.091,0.354l0.354-0.09l0.474,0.256l0.384-0.098l0.354-0.09l0.294-0.452l-0.091-0.354    l-0.098-0.383l0.354-0.09l0.384-0.098l-0.091-0.354l0.286-0.482l0.354-0.091l0.383-0.098l-0.098-0.384l0.354-0.09l0.384-0.098    l-0.09-0.354l0.384-0.098l-0.098-0.384l0.354-0.09l0.385-0.098l-0.091-0.354l0.354-0.09l-0.105-0.414l-0.091-0.355l-0.091-0.354    l-0.354,0.09l-0.098-0.383l-0.384,0.098l-0.099-0.384l0.385-0.098l-0.099-0.384l0.354-0.09l0.384-0.098l-0.09-0.354l-0.091-0.355    l0.286-0.482l-0.384,0.098l-0.385,0.098l-0.098-0.384l-0.098-0.383l0.385-0.098l-0.091-0.355l-0.09-0.354l-0.099-0.384    l-0.098-0.384l0.384-0.098l-0.098-0.384l0.354-0.09l-0.091-0.354l0.385-0.098l-0.091-0.354l-0.384,0.098l-0.099-0.384    l-0.098-0.383l-0.354,0.09l-0.385,0.098l-0.098-0.384l-0.09-0.355l-0.385,0.098l-0.09-0.354l-0.354,0.09l-0.384,0.098    l-0.098-0.384l-0.354,0.09l-0.384,0.098l-0.481-0.287l0.384-0.098l-0.099-0.384l-0.09-0.354l-0.091-0.355l-0.383,0.098    l-0.099-0.384l-0.354,0.09l-0.383,0.098l-0.098-0.383l-0.453-0.293l-0.091-0.355l-0.383,0.098l-0.09-0.354l-0.482-0.286    l-0.098-0.384l-0.099-0.384l-0.09-0.354l-0.091-0.355l-0.105-0.413l0.385-0.098l-0.091-0.354l-0.098-0.384l0.293-0.453    l-0.09-0.354l0.354-0.091l-0.105-0.414l-0.091-0.354l0.384-0.098l-0.099-0.384l-0.09-0.354l0.265-0.445l-0.105-0.414l-0.09-0.354    l-0.355,0.09l-0.098-0.384l0.354-0.091l-0.09-0.354l-0.355,0.09l-0.09-0.354l-0.384,0.098l-0.104-0.414l0.292-0.453l-0.098-0.384    l-0.383,0.098l-0.091-0.354l-0.354,0.09l-0.091-0.355l-0.098-0.383l-0.098-0.384l-0.098-0.384l-0.384,0.098l-0.384,0.098    l-0.444-0.265l-0.091-0.354l-0.384,0.098l-0.105-0.414l-0.354,0.09l-0.091-0.355l-0.384,0.098l-0.099-0.383l-0.383,0.098    l-0.091-0.355l-0.354,0.09l-0.098-0.384l-0.385,0.098l-0.354,0.09l-0.385,0.098l-0.098-0.384l-0.09-0.354l-0.383,0.098l0.09,0.354    l-0.355,0.09l-0.383,0.098l0.098,0.384l0.098,0.384l-0.355,0.09l-0.098-0.384l-0.383,0.098l0.098,0.384l-0.354,0.09l-0.098-0.384    l-0.098-0.384l-0.09-0.354l-0.098-0.384l-0.09-0.354L285,305.657l-0.098-0.384l0.383-0.098l-0.098-0.384l-0.474-0.257    l-0.384,0.098l-0.098-0.383l-0.09-0.354l-0.098-0.384l-0.452-0.293l-0.09-0.355l0.256-0.475l-0.354,0.09l-0.384,0.098l0.098,0.384    l0.091,0.355l-0.354,0.09l0.098,0.383l0.098,0.384l-0.482-0.287l-0.383,0.098l-0.098-0.383l-0.355,0.09l-0.09-0.355l-0.383,0.098    l-0.384,0.098l-0.354,0.09l-0.098-0.384l0.354-0.09l-0.09-0.354l-0.354,0.09l-0.482-0.287l-0.354,0.09l-0.098-0.384l-0.384,0.098    l-0.354,0.09l0.264-0.444l-0.354,0.09l-0.098-0.384l-0.09-0.355l0.354-0.09l-0.098-0.384l-0.098-0.383l-0.354,0.09l-0.09-0.355    l-0.384,0.098l-0.293,0.453l-0.188-0.739l-0.354,0.09l-0.09-0.354l-0.384,0.098l-0.354,0.09l-0.098-0.384l-0.384,0.098    l-0.098-0.384l0.648-0.542l-0.286-1.122l0.55-0.927l0.768-0.196l-0.098-0.384l-0.482-0.286l-0.188-0.739l0.294-0.452l-0.098-0.384    l-0.482-0.286l-0.474-0.256l-0.098-0.384l-0.444-0.265l-0.482-0.286l0.286-0.481l-0.188-0.739l0.264-0.444l-0.384-1.506    l0.384-0.098l-0.572-0.64l-0.098-0.384l-0.444-0.265l-0.572-0.64l-0.354,0.09l-0.098-0.384l-0.956-0.542l-0.453-0.294l0.167-0.828    l0.383-0.098l-0.573-2.245l0.294-0.452l-0.384,0.098l-0.098-0.384l-0.474-0.257l-0.738,0.188l-1.22-0.098l-0.354,0.09    l-0.641,0.571l-2.628,0.67l0.091,0.355l-0.641,0.572l-1.476,0.376l-0.648,0.542l-0.286,0.482l-1.122,0.286l0.098,0.384    l-0.709,0.181L252.559,281.022z" />

</svg>