<svg xmlns="http://www.w3.org/2000/svg" xmlns:xlink="http://www.w3.org/1999/xlink" x="0px" y="0px" width="620.843px"
    height="733.026px" viewBox="230 558 140 140">

    <style xmlns="http://www.w3.org/2000/svg">
        svg {
            filter: drop-shadow(2px 3px 0px rgb(176 136 98 / 1));
        }
    </style>

    <path id="ventura" fill="#218c74" stroke-width="0.5" stroke="#264653" stroke-miterlimit="1"
        d="M287.509,553.211l0.366,35.61l-0.384,0.098    l0.098,0.384l-0.738,0.188l0.376,1.478l0.384-0.098l0.098,0.384l-2.124,2.522l0.926,0.551l2.042,1.84l2.53,2.154l1.122-0.286    l0.927,0.55l0.857,1.764l1.408,0.837l1.566-0.022l1.318,0.481l0.542,0.648l0.12,1.951l0.641,1.032l0.12,1.951l1.107,2.864    l1.023,0.934l1.123-0.286l4.606,4.016l2.396,0.145l-2.334-1.387l2.153,0.678l8.276,4.591l0.866,0.188l0.384-0.099l-0.098-0.384    l-0.091-0.354l0.264-0.445l-0.105-0.414l0.196-0.836l1.031-0.641l1.032-0.64l0.632-0.602l0.264-0.445l1.024-0.67l0.648-0.543    l0.354-0.09l0.323-0.46l0.354-0.091l0.633-0.602l0.355-0.09l-0.091-0.354l1.151-0.293l-0.098-0.385l0.709-0.181l-0.091-0.354    l1.061-0.647l0.799,0.173l1.152-0.293l0.444,0.265l1.506-0.384l0.099,0.384l1.476-0.376l0.474,0.256l1.093-0.278l0.105,0.413    l0.768-0.195l-0.384-1.507l0.264-0.443l-0.293-1.152l0.354-0.09l-0.286-1.124l0.194-0.835l-0.09-0.354l1.122-0.286l0.091,0.354    l1.121-0.286l-0.377-1.478l0.385-0.098l-1.137-4.46l-0.482-0.286l-1.046-2.501l-0.384-1.507l-0.572-0.641l-0.662-2.599    l-0.543-0.649l-0.474-1.86l-0.453-0.293l-0.377-1.478l-0.857-1.763l-0.286-1.122l-0.384,0.098l-1.242-3.271l-0.376-1.476    l-0.927-2.155l-0.188-0.738l-1.527-2.787l-0.377-1.478l-3.366-8.643l-1.408-0.836l-2.439-0.195l-1.093,0.278l-0.452-0.294    l-1.122,0.286l-0.021-1.567l-15.928-0.313l-0.444-0.264l-0.286-1.122l0.166-0.829l-0.286-1.122l-1.093,0.278l-0.865-0.188    l-0.09-0.355l0.293-0.452l-0.188-0.738l-0.844-0.226l-0.385,0.098l-0.857-0.158l-1.446,0.369l-0.091-0.355l-1.506,0.384    l-0.836-0.195l-0.384,0.098l-0.475-1.86l-0.738,0.188l-1.957,0.089l-0.098-0.384L287.509,553.211z M281.591,677.652l-1.762,0.858    l0.188,0.738l0.475,1.861l0.956,0.542l2.237,1.003l3.817,1.04l0.768-0.196l1.477-0.376l0.285-0.481l-0.098-0.384l-0.76-1.38    l-1.408-0.836l-4.571-2.39H281.591z" />

</svg>