<svg xmlns="http://www.w3.org/2000/svg" xmlns:xlink="http://www.w3.org/1999/xlink" x="0px" y="0px" width="620.843px"
    height="733.026px" viewBox="110 240 55 55">

    <style xmlns="http://www.w3.org/2000/svg">
        svg {
            filter: drop-shadow(2px 3px 0px rgb(176 136 98 / 1));
        }
    </style>

    <path id="yolo" fill="#218c74" stroke-width="0.5" stroke="#264653" stroke-miterlimit="1"
        d="M111.752,241.166l0.098,0.383l-0.354,0.09    l0.09,0.355l-0.414,0.105l0.098,0.384l-0.355,0.09l0.09,0.354l0.105,0.414l0.09,0.355l0.355-0.091l0.09,0.354l0.098,0.384    l0.09,0.355l0.414-0.105l0.105,0.414l0.09,0.354l0.09,0.354l0.098,0.384l0.09,0.354l0.105,0.414l0.354-0.09l0.09,0.355    l0.384-0.098l0.09,0.354l0.354-0.09l0.098,0.384l0.354-0.09l0.09,0.354l0.384-0.098l0.384-0.098l0.383-0.098l0.355-0.09    l0.263-0.445l0.091,0.355l0.384-0.098l0.105,0.413l0.383-0.098l0.384-0.098l0.09,0.354l0.354-0.09l0.354-0.09l0.091,0.354    l0.098,0.384l0.09,0.354l0.105,0.414l0.474,0.257l0.09,0.354l-0.383,0.098l0.098,0.384l0.383-0.098l0.09,0.355l0.105,0.414    l0.09,0.354l0.09,0.355l0.098,0.384l0.384-0.098l0.09,0.354l0.105,0.414l0.091,0.354l-0.384,0.098l0.09,0.354l0.098,0.384    l0.098,0.384l0.098,0.384l0.475,0.256l0.09,0.354l0.098,0.383l0.482,0.287l0.09,0.354l0.098,0.384l0.09,0.354l-0.384,0.098    l0.196,0.769l0.09,0.354l0.098,0.384l0.09,0.355l0.384-0.098l0.354-0.09l0.098,0.383l0.098,0.384l0.444,0.265l-0.354,0.09    l0.098,0.383l0.09,0.354l0.098,0.384l0.09,0.354l0.354-0.09l0.098,0.384l0.098,0.384l0.384-0.098l0.384-0.098l0.474,0.257    l0.098,0.383l0.098,0.384l-0.383,0.098l0.09,0.355l0.383-0.098l0.098,0.383l-0.383,0.098l-0.294,0.453l0.105,0.414l0.091,0.355    l0.384-0.098l0.383-0.098l-0.09-0.354l0.355-0.091l0.09,0.355l0.09,0.354l0.098,0.384l0.09,0.354l0.354-0.09l0.098,0.384    l0.098,0.384l0.09,0.354l0.098,0.383l0.091,0.355l0.105,0.414l-0.264,0.444l0.354-0.09l0.091,0.355l0.188,0.738l0.105,0.414    l-0.354,0.09l0.09,0.355l0.09,0.354l0.098,0.384l0.091,0.355l0.105,0.414l0.09,0.354l0.091,0.355l0.452,0.294l0.09,0.354    l0.384-0.098l0.383-0.098l0.384-0.098l0.105,0.414l0.354-0.09l0.355-0.09l0.383-0.098l0.354-0.09l0.091,0.355l0.413-0.105    l0.09,0.354l0.098,0.384l0.09,0.355l0.355-0.091l0.105,0.414l0.444,0.264l0.091,0.355l0.384-0.098l0.354-0.09l0.384-0.098    l0.384-0.098l-0.09-0.355l0.354-0.09l0.384-0.098l-0.09-0.354l0.354-0.09l0.413-0.105l-0.105-0.414l0.354-0.09l-0.09-0.355    l0.355-0.09l0.383-0.098l0.355-0.09l0.383-0.098l0.384-0.098l-0.098-0.384l0.354-0.09l0.384-0.098l0.098,0.384l0.354-0.09    l0.414-0.105l0.444,0.265l1.093-0.279l-0.09-0.355l0.768-0.195l0.444,0.265l1.122-0.286l0.105,0.414l0.384-0.098l0.919,0.521    l0.354-0.09l0.098,0.384l0.768-0.196l0.09,0.354l0.738-0.188l0.46,0.323l0.383-0.098l0.25-0.504l0.383-0.098l0.196,0.768    l0.384-0.098l-0.091-0.355l0.738-0.188l0.633-0.602l0.489,0.315l0.354-0.09l0.091,0.355l0.677-0.55l0.09,0.354l0.355-0.09    l0.09,0.354l0.098,0.384l0.383-0.098l0.196,0.768l-0.31,15.933l5.957,0.055l-0.098-0.384l0.384-0.098l-0.098-0.384l0.354-0.09    l-0.09-0.354l0.384-0.098l0.09,0.354l0.293-0.452l0.355-0.091l-0.09-0.354l0.383-0.098l0.355-0.091l-0.098-0.383l0.383-0.098    l0.355-0.09l0.098,0.383l0.383-0.098l-0.098-0.383l0.384-0.098l0.264-0.445l0.384-0.098l-0.105-0.414l0.264-0.445l-0.09-0.354    l-0.098-0.384l-0.098-0.384l0.383-0.098l0.384-0.098l-0.098-0.384l-0.09-0.354l-0.091-0.355l-0.098-0.383l-0.098-0.384    l-0.098-0.384l-0.09-0.354l-0.572-0.641l-0.098-0.384l0.384-0.098l0.354-0.09l0.384-0.098l0.098,0.384l0.354-0.09l-0.098-0.384    l0.384-0.098l-0.098-0.383l0.383-0.098l-0.09-0.354l-0.09-0.355l-0.196-0.768l-0.098-0.384l-0.09-0.354l-0.383,0.098l-1.213-0.069    l-0.55-0.678l-0.572-0.64l-0.188-0.738l0.286-0.482l0.256-0.475l0.384-0.098l0.738-0.188l0.383-0.098l-0.09-0.354l-0.09-0.355    l-0.105-0.413l1.002-0.633l0.286-0.482l-0.091-0.355l-0.473-0.256l-0.105-0.414l-0.09-0.355l0.285-0.482l0.384-0.098l0.264-0.444    l-0.09-0.355l0.188-0.865l-0.098-0.384l-0.384,0.098l-0.09-0.355l-0.828-0.166l-0.383,0.098l-0.355,0.091l-0.293,0.452    l-0.09-0.354l-0.46-0.323l-0.091-0.355l-0.188-0.738l-0.196-0.769l0.076-1.184l-0.445-0.263l-0.383,0.098l-0.738,0.188    l-0.384,0.098l-0.294-1.153l-0.444-0.264l-1.054-0.927l-0.098-0.384l-0.091-0.354l-0.09-0.354l-0.105-0.414l-0.09-0.355    l0.767-0.196l-0.098-0.383l0.354-0.09l0.384-0.098l-0.09-0.354l0.354-0.09l-0.098-0.384l0.384-0.098l-0.098-0.384l-0.09-0.354    l0.383-0.098l-0.098-0.384l-0.09-0.354l0.355-0.09l-0.09-0.355l0.383-0.098l-0.105-0.414l0.264-0.445l-0.098-0.383l-0.09-0.355    l-0.098-0.384l-0.098-0.383l-0.355,0.09l-0.09-0.355l-0.383,0.098l-0.098-0.384l-0.355,0.09l-0.09-0.354l-0.383,0.098    l-0.384,0.098l0.09,0.354l0.384-0.098l0.098,0.384l-0.384,0.098l0.09,0.355l-0.354,0.09l-0.09-0.354l-0.384,0.098l0.09,0.355    l-0.354,0.09l-0.384,0.098l-0.091-0.354l-0.383,0.098l0.091,0.354l0.098,0.383l0.098,0.384l-0.354,0.09l-0.098-0.384l-0.384,0.098    l0.098,0.384l0.09,0.355l-0.354,0.09l-0.09-0.355l-0.098-0.384l0.354-0.09l-0.098-0.383l-0.354,0.09l-0.09-0.355l-0.414,0.105    l-0.098-0.384l-0.098-0.384l0.414-0.105l-0.09-0.354l-0.098-0.384l-0.098-0.384l-0.098-0.383l-0.09-0.355l-0.414,0.105    l-0.09-0.354l-0.354,0.09l-0.355,0.091l-0.098-0.383l-0.383,0.098l-0.098-0.384l-0.098-0.384l-0.09-0.355l0.383-0.098l-0.09-0.354    l-0.098-0.384l-0.098-0.384l-0.481-0.286l0.383-0.098l-0.091-0.355l-0.09-0.355l0.355-0.09l-0.098-0.383l-0.09-0.355l-0.098-0.384    l-0.355,0.091l-0.383,0.098l-0.098-0.383l-0.09-0.355l-0.098-0.384l-0.257,0.475l-0.383,0.098l0.091,0.355l-0.445-0.264    l-0.383,0.098l-0.384,0.098l-0.264,0.445l-0.09-0.355l-0.098-0.384l-0.384,0.098l-0.354,0.09l-0.384,0.098l-0.09-0.354    l-0.098-0.384l-0.383,0.098l-0.098-0.384l-0.09-0.354l-0.098-0.384l0.383-0.098l0.384-0.098l-0.091-0.354l0.354-0.09l-0.09-0.354    l-0.105-0.414l-0.091-0.355l-0.354,0.09l-0.098-0.384l0.354-0.09l-0.09-0.354l-0.383,0.098l-0.355,0.09l-0.09-0.355l-0.383,0.098    l-0.105-0.414l-30.341-0.979l-0.384,0.098l-0.799-0.174l-0.383,0.098l-0.384,0.098l-1.19-0.105L111.752,241.166z M156.574,253.93    l-0.098-0.384l-0.354,0.09l0.098,0.384L156.574,253.93z M147.598,243.51l0.105,0.413l0.354-0.09l-0.105-0.414L147.598,243.51z" />

</svg>