<svg xmlns="http://www.w3.org/2000/svg" xmlns:xlink="http://www.w3.org/1999/xlink" x="0px" y="0px" width="620.843px"
    height="733.026px" viewBox="140 186 62 62">

    <style xmlns="http://www.w3.org/2000/svg">
        svg {
            filter: drop-shadow(2px 3px 0px rgb(176 136 98 / 1));
        }
    </style>

    <path id="yuba" fill="#218c74" stroke-width="0.5" stroke="#264653" stroke-miterlimit="1"
        d="M194.382,187.986l-0.256,0.474l-0.354,0.09    l-0.315,0.49l-0.647,0.543l-0.355,0.09l-0.354,0.09l-0.287,0.481l-0.383,0.098l0.091,0.355l-0.384,0.098l-0.354,0.09l-0.167,0.829    l-0.738,0.188l-0.414,0.105l-0.09-0.354l-0.354,0.09l0.09,0.354l0.098,0.384l-0.256,0.475l0.09,0.354l-0.384,0.098l-0.354,0.09    l-0.414,0.105l-0.799-0.173l0.09,0.354l0.098,0.384l-0.836-0.196l0.287,1.123l0.098,0.383l-0.384,0.098l0.188,0.739l-0.383,0.098    l-0.355,0.091l0.09,0.354l-0.383,0.098l-0.445-0.264l-0.383,0.098l-0.384,0.098l0.286-0.482l-0.384,0.098l-0.09-0.355l-0.354,0.09    l-0.384,0.098l-0.354,0.09l-0.481-0.285l-0.354,0.09l-0.769,0.196l-0.098-0.384l-0.256,0.474l0.188,0.738l-0.384,0.098    l-0.354,0.09l-0.475-0.257l-0.383,0.098l-0.355,0.09l-0.383,0.098l0.286-0.481l-0.09-0.355l-0.383,0.098l-0.355,0.09l-0.383,0.098    l-0.482-0.286l-0.256,0.475l0.188,0.738l0.09,0.355l-0.384,0.098l0.098,0.384l-0.256,0.474l-0.355,0.09l0.091,0.355l0.098,0.384    l-0.413,0.105l-0.265,0.444l-0.383,0.098l0.098,0.384l-0.355,0.09l-0.256,0.475l-0.414,0.105l0.09,0.354l0.098,0.384l0.09,0.354    l0.098,0.384l0.09,0.354l0.414-0.105l-0.316,0.49l-0.354,0.09l0.098,0.384l-0.384,0.098l-0.354,0.09l0.09,0.354l-0.355,0.09    l0.098,0.384l-0.414,0.105l0.09,0.354l0.098,0.383l0.098,0.384l-0.354,0.09l0.09,0.355l-0.384,0.098l0.098,0.384l-0.354,0.09    l0.09,0.354l0.098,0.384l-0.354,0.09l0.098,0.384l-0.384,0.098l-0.384,0.098l0.09,0.354l-0.383,0.098l-0.354,0.09l-0.354,0.09    l0.098,0.384l-0.414,0.105l0.504,0.25l-0.414,0.105l-0.354,0.09l-0.384,0.098l-0.354,0.09l-0.355,0.09l-0.09-0.355l-0.383,0.098    l0.091,0.355l-0.384,0.098l-0.475-0.257l-0.354,0.09l-0.354,0.09l-0.384,0.098l-0.384,0.098l-0.383,0.098l0.091,0.355l0.098,0.383    l-0.355,0.09l-0.098-0.383l-0.354,0.09l0.098,0.383l-0.384,0.098l-0.098-0.383l-0.383,0.098l-0.384,0.098l-0.091-0.355    l-0.354,0.09l-0.354,0.09l-0.383,0.098l0.09,0.355l-0.355,0.09l-0.09-0.354l-0.322,0.46l-0.354,0.09l-0.354,0.09l-0.384,0.098    l-0.09-0.355l-0.383,0.098l-0.384,0.098l-0.098-0.384l-0.354,0.09l0.098,0.384l-0.355,0.09l-0.098-0.384l-0.384,0.098l-0.09-0.354    l-0.098-0.384l-0.383,0.098l-0.384,0.098l0.098,0.384l-0.354,0.09l0.09,0.354l0.098,0.384l-0.355,0.09l0.09,0.355l-0.383,0.098    l-0.354,0.09l0.453,0.293l0.098,0.384l-0.355,0.09l0.091,0.355l0.354-0.09l0.098,0.383l-0.354,0.09l-0.383,0.098l0.09,0.355    l0.383-0.098l0.098,0.384l-0.383,0.098l-0.384,0.098l0.098,0.384l0.09,0.354l-0.354,0.09l0.098,0.384l0.098,0.384l0.444,0.264    l0.098,0.384l0.091,0.355l0.384-0.098l0.098,0.383l0.098,0.384l0.09,0.355l-0.384,0.098l0.098,0.383l-0.354,0.09l-0.384,0.098    l0.09,0.354l0.384-0.098l0.098,0.384l0.098,0.384l0.354-0.09l0.09,0.354l-0.354,0.09l0.098,0.384l0.09,0.355l0.098,0.383    l-0.384,0.098l0.098,0.384l0.09,0.355l0.482,0.285l0.09,0.355l0.098,0.384l-0.384,0.098l0.098,0.383l0.09,0.355l0.572,0.64    l-0.286,0.482l0.098,0.384l-0.354,0.09l0.09,0.355l0.098,0.383l0.09,0.355l0.098,0.384l0.354-0.09l-0.098-0.384l0.384-0.098    l0.098,0.384l0.098,0.383l0.09,0.355l-0.384,0.098l0.098,0.384l-0.354,0.09l0.09,0.354l-0.414,0.105l0.105,0.414l-0.354,0.09    l-0.265,0.445l0.09,0.354l-0.383,0.098l0.098,0.384l0.091,0.355l0.105,0.414l-0.265,0.444l0.09,0.355l0.355-0.091l0.098,0.384    l0.09,0.354l0.383-0.098l0.105,0.414l-0.383,0.098l0.09,0.355l-0.355,0.09l0.09,0.354l0.355-0.09l0.383-0.098l0.453,0.294    l0.09,0.355l-0.354,0.09l0.105,0.414l-0.383,0.098l0.09,0.354l0.09,0.355l0.098,0.384l-0.265,0.445l0.105,0.413l0.09,0.355    l0.355-0.09l-0.265,0.444l0.098,0.384l0.091,0.355l0.105,0.414l0.09,0.354l-0.414,0.105l0.091,0.355l0.098,0.384l-0.264,0.444    l0.459,0.324l-0.105-0.414l0.414-0.105l-0.09-0.354l-0.098-0.384l0.354-0.09l0.293-0.453l0.159-0.858l0.459,0.323l0.218-0.874    l0.256-0.475l-0.09-0.354l0.475,0.256l0.354-0.09l0.384-0.098l1.031-0.64l0.355-0.09l0.354-0.09l0.384-0.098l-0.091-0.354    l0.383-0.098l0.384-0.098l0.355-0.09l0.354-0.09l0.384-0.098l0.383-0.098l0.384-0.098l0.091,0.355l0.354-0.09l0.09,0.354    l0.355-0.091l0.413-0.105l-0.09-0.354l0.355-0.09l0.383-0.098l0.355-0.09l0.263-0.445l0.384-0.098l0.383-0.098l0.384-0.098    l-0.105-0.414l0.354-0.09l0.354-0.09l-0.09-0.354l0.383-0.098l0.286-0.482l0.384-0.098l0.098,0.384l0.354-0.09l0.256-0.474    l0.384-0.098l0.384-0.098l0.293-0.453l0.445,0.264l-0.091-0.355l0.354-0.09l0.294-0.452l0.354-0.09l0.09,0.354l0.09,0.355    l0.414-0.105l0.098,0.384l0.09,0.354l0.354-0.09l0.105,0.414l0.355-0.09l-0.196-0.768l0.195-0.837l-0.09-0.354v-1.604l0.188-0.867    l0.075-1.183l-0.09-0.354l-0.105-0.413l-0.09-0.355l0.354-0.09l-0.188-0.738l-0.091-0.354l0.279-0.512l-0.09-0.354l-0.188-0.739    l0.158-0.858l-0.09-0.355l-0.098-0.383l0.414-0.105l-0.188-0.739l-0.098-0.384l0.265-0.444l-0.098-0.384l-0.188-0.738l0.256-0.475    l-0.091-0.355l-0.098-0.383l0.384-0.098l-0.09-0.355l0.354-0.09l-0.098-0.384l0.414-0.105l-0.098-0.383l-0.09-0.355l0.354-0.09    l0.355-0.09l-0.098-0.384l-0.09-0.354l-0.355,0.09l-0.098-0.384l0.257-0.475l0.383-0.098l0.354-0.09l0.413-0.105l-0.09-0.355    l0.355-0.09l0.09,0.355l0.354-0.09l0.384-0.098l0.354-0.09l0.414-0.105l-0.091-0.355l0.354-0.09l-0.098-0.383l0.355-0.09    l0.293-0.453l-0.481-0.287l-0.098-0.383l0.293-0.452l0.384-0.098l-0.098-0.384l0.384-0.098l-0.09-0.354l0.354-0.09l0.09,0.354    l0.264-0.444l-0.098-0.384l0.384-0.098l0.482,0.286l0.383-0.098l0.09,0.354l0.355-0.09l-0.09-0.354l-0.098-0.384l0.354-0.09    l-0.098-0.384l0.384-0.098l0.098,0.384l0.256-0.475l-0.09-0.354l0.315-0.489l-0.09-0.355l0.354-0.09l0.354-0.09l-0.098-0.384    l0.383-0.098l-0.481-0.286l0.383-0.098l0.098,0.383l0.384-0.098l0.384-0.098l0.354-0.09l0.354-0.09l-0.098-0.383l0.384-0.098    l0.098,0.383l0.354-0.09l-0.098-0.383l0.293-0.453l0.09,0.354l0.384-0.098l0.354-0.09l0.098,0.383l0.384-0.098l-0.098-0.383    l0.354-0.09l0.384-0.098l0.098,0.383l0.098,0.384l0.383-0.098l0.355-0.09l-0.098-0.384l0.383-0.098l0.098,0.384l0.09,0.354    l0.265-0.445l-0.098-0.384l-0.098-0.383l-0.09-0.355l0.307-0.519l-0.09-0.354l-0.188-0.739l-0.09-0.354l-0.105-0.414l0.264-0.445    l-0.188-0.738l-0.09-0.355l-0.098-0.384l0.256-0.474l-0.091-0.354l-0.098-0.384l-0.188-0.738l-0.098-0.384l0.384-0.098    l-0.09-0.354l-0.098-0.384l-0.188-0.739l-0.384,0.098l-0.09-0.354l-0.354,0.09l-0.098-0.384l-0.098-0.384l-0.09-0.354    l-0.098-0.384l-0.09-0.355l0.354-0.09l-0.098-0.383l0.384-0.098l0.354-0.09l0.384-0.098l-0.098-0.384l0.384-0.098l0.354-0.09    l0.294-0.453l-0.188-0.738l0.158-0.858l-0.09-0.354l0.384-0.098l-0.098-0.384l-0.09-0.354l0.256-0.475l0.196-0.837l-0.098-0.383    l-0.09-0.355l0.188-0.865L194.382,187.986z" />

</svg>