<svg version="1.1" xmlns="http://www.w3.org/2000/svg" viewBox="0 0 55.61620181334024 92.4450920554736"
  width="55.61620181334024" height="92.4450920554736">
  <!-- svg-source:excalidraw -->


  <g stroke-linecap="round">
    <g transform="translate(28.41507999120722 60.39797492358218) rotate(0 -0.6069790845372154 -23.45870429003304)">
      <path
        d="M0.33 -1.74 C0.08 -4.6, -2.34 -12.16, 0.41 -16.56 C3.15 -20.95, 15.1 -23.7, 16.81 -28.1 C18.52 -32.51, 14.24 -39.66, 10.66 -42.99 C7.07 -46.33, 0.16 -49.24, -4.69 -48.12 C-9.53 -47, -16.34 -37.7, -18.42 -36.27 M-2.93 3.48 C-3.78 0.91, -5.29 -8.98, -2.11 -13.77 C1.07 -18.55, 14.14 -19.54, 16.14 -25.23 C18.14 -30.92, 13.85 -44.01, 9.89 -47.92 C5.94 -51.84, -3.23 -50.33, -7.58 -48.7 C-11.93 -47.08, -14.79 -40.41, -16.21 -38.18"
        stroke="#FFF" stroke-width="4" fill="none"></path>
    </g>
  </g>
  <g stroke-linecap="round"
    transform="translate(21.829393417697247 71.74536027116011) rotate(0 5.070782351258458 5.349865892156743)">
    <path
      d="M-0.01 1.32 C-0.01 1.32, -0.01 1.32, -0.01 1.32 M-0.01 1.32 C-0.01 1.32, -0.01 1.32, -0.01 1.32 M3.67 9.84 C5.68 8.86, 8.19 5.25, 8.17 4.66 M3.42 10.3 C4.78 8.29, 6.3 5.15, 8.01 4.31 M1.37 9.1 C1.37 9.1, 1.37 9.1, 1.37 9.1 M1.37 9.1 C1.37 9.1, 1.37 9.1, 1.37 9.1 M8.26 6.71 C5.06 3.54, 4.04 -0.83, 2.81 -1.05 M9.31 4.62 C7 2.52, 5.12 0.87, 2.93 -1.07"
      stroke="#CDCDCD" stroke-width="1" fill="none"></path>
    <path
      d="M4.79 -0.22 C5.4 -0.2, 5.25 0.87, 6.24 1.56 C7.22 2.25, 10.36 3.23, 10.7 3.92 C11.03 4.61, 8.79 5.08, 8.24 5.7 C7.7 6.32, 8.23 7.05, 7.41 7.63 C6.59 8.2, 4.33 8.9, 3.32 9.14 C2.3 9.38, 1.83 9.6, 1.32 9.06 C0.82 8.51, 0.53 7.13, 0.28 5.87 C0.03 4.61, -1.14 2.44, -0.16 1.49 C0.82 0.54, 5.1 0.11, 6.15 0.18 C7.2 0.24, 6.19 1.52, 6.15 1.86 M4.59 1.04 C5.66 0.44, 6.46 0.5, 7.38 0.44 C8.31 0.37, 9.35 -0.5, 10.13 0.65 C10.9 1.8, 11.9 5.84, 12.03 7.35 C12.16 8.85, 12.33 9.07, 10.88 9.68 C9.44 10.29, 4.71 10.68, 3.34 11.02 C1.98 11.36, 2.88 11.97, 2.68 11.72 C2.48 11.47, 2.88 10.56, 2.13 9.52 C1.37 8.48, -1.82 6.51, -1.86 5.46 C-1.9 4.42, 1.6 3.62, 1.89 3.25 C2.19 2.89, 0.03 3.25, -0.1 3.27"
      stroke="#FFF" stroke-width="2" fill="none"></path>
  </g>
</svg>