<svg version="1.1" xmlns="http://www.w3.org/2000/svg" viewBox="0 0 106.05639743107645 90.94163861824654"
  width="106.05639743107645" height="90.94163861824654">
  <!-- svg-source:excalidraw -->

  <defs>
    <style>
      @font-face {
        font-family: "Virgil";
        src: url("https://excalidraw.com/Virgil.woff2");
      }

      @font-face {
        font-family: "Cascadia";
        src: url("https://excalidraw.com/Cascadia.woff2");
      }
    </style>
  </defs>
  <g stroke-linecap="round" transform="translate(10 10) rotate(0 10.10938689082559 35.19522894121121)">
    <path
      d="M0 0 C0 0, 0 0, 0 0 M0 0 C0 0, 0 0, 0 0 M0.26 12.17 C5.61 8.48, 7.36 3.13, 11.89 -1.96 M1.67 13.46 C1.99 7.81, 5.73 2.71, 12.02 -1.26 M3.08 27.8 C8.6 14.33, 13.51 11.68, 20.68 4.56 M-1.33 22.51 C3.68 15.77, 11.2 9.51, 19.23 2.33 M3.56 38 C8.9 26.05, 12.16 21.69, 23 11.65 M0.5 35.84 C5.31 27.43, 14.11 22.09, 19.34 10.86 M-3.32 50.32 C8.16 42.79, 14.58 30.64, 22.08 26.4 M0.61 50.09 C7.58 38.6, 16.68 28.59, 20.32 23.34 M2.86 59.94 C8.33 50.2, 17.68 43.67, 20.54 33.01 M1.38 61.66 C5.3 54, 9.97 49.49, 19.14 35.33 M0.97 70.07 C8.96 66.41, 11.29 61.14, 18.95 50.59 M0.87 71.08 C6.58 64.01, 10.59 57.81, 19.78 50.57 M10.8 68.93 C14.05 68.8, 15.45 69.33, 19.99 59.96 M13.24 71.97 C14.04 69.81, 16.49 66.13, 21.68 62.22"
      stroke="#efefef" stroke-width="1" fill="none"></path>
    <path
      d="M-0.21 3.61 C7.65 1.1, 11.29 -3.55, 19.17 -3.74 M1.37 1.52 C7.94 -1.09, 15.67 0.38, 19.25 0.31 M23.78 0.76 C17.74 12.85, 21.36 31.37, 17.09 72.66 M21.42 1.71 C21.62 18.78, 21.47 39.11, 21.61 71.58 M21.15 71.73 C12.58 67.79, 8.35 74.6, -3.52 73.69 M20.03 70.72 C17.42 70.56, 12.46 72.14, -1.2 72.07 M-2.55 70.77 C1.4 52.45, 0.25 33.95, 0.12 -3.09 M-0.82 70.9 C-1.16 49.25, 1.59 27.06, 1.54 0.46"
      stroke="#FFF" stroke-width="2" fill="none"></path>
  </g>
  <g stroke-linecap="round"
    transform="translate(76.6125308831854 25.75136239332005) rotate(0 9.721933273945524 27.213277658031473)">
    <path
      d="M0 0 C0 0, 0 0, 0 0 M0 0 C0 0, 0 0, 0 0 M3.07 14.71 C3.02 9.99, 7.58 6.44, 13.22 -1.01 M-1.01 12.67 C2.62 8.43, 3.46 7.08, 9.22 1.2 M0.25 22.1 C4.11 15.68, 16.67 9.17, 21.83 3.61 M-0.3 23.25 C7 17.8, 11.3 8.78, 21.48 -0.08 M2.84 33.35 C8.78 29.1, 10.7 17.38, 23.63 12.79 M0.58 35.58 C9.27 27.75, 17.05 18.47, 22.09 13.9 M1.95 52.46 C3.72 45.6, 11.1 36.07, 17.04 26.72 M1.54 47.78 C6.52 41.72, 8.55 36.5, 19.79 25 M3.34 53.39 C11.89 47.31, 15.79 38.08, 21.87 41.17 M2.59 57.23 C9.07 52.05, 11.88 48.54, 19.37 36.68 M15.45 55.51 C16.37 55.73, 14.77 52.72, 21.64 51.6 M14.02 58.13 C16.05 53.71, 17.96 51.52, 20.13 48.76"
      stroke="#efefef" stroke-width="1" fill="none"></path>
    <path
      d="M2.78 1.56 C8.4 -2.05, 12.82 -3.64, 22.96 0.44 M-1.46 -0.53 C2.93 0.38, 8.96 1.09, 18.72 -0.09 M22.63 -0.33 C21.35 20.32, 20.02 33.71, 21.71 50.62 M18.79 -0.27 C20.09 14.32, 19.16 28.39, 21.02 54.01 M20.34 54.54 C16.5 55.57, 8.83 52.08, -0.23 54.94 M17.8 54.26 C15.19 53.51, 12.63 54.3, 0.12 54.53 M0.05 54.35 C-1.43 39.35, -1.03 23.64, -3.75 -2.02 M-1.86 55.76 C-1.51 38.06, -0.69 25.4, -0.63 1.99"
      stroke="#FFF" stroke-width="2" fill="none"></path>
  </g>
  <g stroke-linecap="round"
    transform="translate(42.184073666718405 42.23492059806733) rotate(0 10.35446909992811 19.353359010089605)">
    <path
      d="M0 0 C0 0, 0 0, 0 0 M0 0 C0 0, 0 0, 0 0 M1.08 11.99 C6.88 6.47, 4.9 4.02, 13.23 1.88 M-1.2 13.51 C5.6 8.71, 6.98 1.55, 10.94 0.9 M-2.91 22.54 C3.57 15.28, 13.37 9.72, 22.7 -2.68 M1.51 25.16 C8.59 14.9, 13.26 6.07, 22.95 1.24 M1.15 36.16 C7.47 33.95, 9.7 24.66, 23.28 15.37 M1.17 38.55 C7.16 29.78, 9.22 24.95, 21.22 11.32 M7.94 42.65 C7.5 37.06, 16.77 30.69, 21.93 25.32 M6.21 42.52 C8.9 39.37, 14.25 34.45, 20.32 25.98 M14.59 43.36 C17.17 40.77, 19.6 41.04, 22.43 38.27 M15.3 43.23 C16.87 41.42, 18.31 40.27, 21.3 37.33"
      stroke="#efefef" stroke-width="1" fill="none"></path>
    <path
      d="M2.73 2.46 C8.27 -2.9, 12.79 0.82, 17.18 -2.44 M-1.52 -0.42 C7.62 1.68, 14.01 -1.66, 18.88 -0.18 M23.98 -0.29 C17.01 7.98, 17.92 17.64, 22.38 35.69 M20.39 -1.71 C21.09 8.01, 20.62 17.42, 21.09 38.37 M17.94 36.16 C16.05 42.05, 14.75 39.85, -0.8 42.17 M18.9 39.07 C14.6 38.68, 5.71 37.06, 1.75 39.43 M-3.21 36.51 C1.22 31.87, -3.67 18.23, 0.48 -2.47 M0.41 39.28 C0.61 23.26, -0.4 12, -0.16 -1.69"
      stroke="#FFF" stroke-width="2" fill="none"></path>
  </g>
</svg>