<svg version="1.1" xmlns="http://www.w3.org/2000/svg" viewBox="0 0 81.75704220586363 26.62561391159926"
  width="81.75704220586363" height="26.62561391159926">
  <!-- svg-source:excalidraw -->

  <g stroke-linecap="round">
    <g transform="translate(11.55863893672813 14.98696826264296) rotate(0 29.319882166203683 -1.674161306843331)">
      <path d="M1.22 1.64 C11.23 0.35, 50.12 -4.2, 60.2 -4.99 M-1.56 0.06 C7.98 0.39, 47.16 -0.37, 57.45 -1.7"
        stroke="#000" stroke-width="3" fill="none"></path>
    </g>
    <g transform="translate(11.55863893672813 14.98696826264296) rotate(0 29.319882166203683 -1.674161306843331)">
      <path d="M32.34 9.07 C37.25 7.28, 48.37 1.79, 54.68 -4.57 M30.74 11.78 C37.92 6.79, 45.5 3.19, 56.91 -2.89"
        stroke="#000" stroke-width="3" fill="none"></path>
    </g>
    <g transform="translate(11.55863893672813 14.98696826264296) rotate(0 29.319882166203683 -1.674161306843331)">
      <path d="M30.99 -11.41 C36.71 -6.96, 48.24 -6.2, 54.68 -4.57 M29.38 -8.7 C36.52 -8.1, 44.47 -6.12, 56.91 -2.89"
        stroke="#000" stroke-width="3" fill="none"></path>
    </g>
  </g>
</svg>