<svg version="1.1" xmlns="http://www.w3.org/2000/svg" viewBox="0 0 80.10111935430109 26.10608266159926"
  width="80.10111935430109" height="26.10608266159926">
  <!-- svg-source:excalidraw -->

  <g stroke-linecap="round">
    <g transform="translate(10.069683858603184 16.28835986420546) rotate(0 29.98087581854736 -3.235318533405831)">
      <path d="M2.19 -0.18 C12.31 -1.32, 49.89 -5.71, 60.03 -6.29 M-0.07 -2.75 C9.65 -3.63, 46.81 -4.13, 57.19 -3.71"
        stroke="#000" stroke-width="3" fill="none"></path>
    </g>
    <g transform="translate(10.069683858603184 16.28835986420546) rotate(0 29.98087581854736 -3.235318533405831)">
      <path d="M28.64 4.7 C33.86 5.8, 45.34 -0.84, 54.8 -5.17 M29.61 6.45 C36.39 2.18, 45.84 -0.05, 57.57 -2.36"
        stroke="#000" stroke-width="3" fill="none"></path>
    </g>
    <g transform="translate(10.069683858603184 16.28835986420546) rotate(0 29.98087581854736 -3.235318533405831)">
      <path d="M28.85 -15.82 C34.09 -9.1, 45.52 -10.12, 54.8 -5.17 M29.81 -14.07 C36.82 -11.78, 46.2 -7.47, 57.57 -2.36"
        stroke="#000" stroke-width="3" fill="none"></path>
    </g>
  </g>
</svg>