<svg version="1.1" xmlns="http://www.w3.org/2000/svg" viewBox="0 0 81.12857876428302 25.2856419877711"
  width="81.12857876428302" height="25.2856419877711">
  <!-- svg-source:excalidraw -->

  <g stroke-linecap="round">
    <g transform="translate(10.711058330535934 16.382315285653192) rotate(0 29.853231051605576 -3.7394942917676417)">
      <path d="M-0.71 -1.1 C9 -2.02, 49.68 -5.91, 60.42 -6.38 M4.1 -4.16 C13.18 -4.7, 47.93 -4.45, 57.79 -3.85"
        stroke="#000" stroke-width="3" fill="none"></path>
    </g>
    <g transform="translate(10.711058330535934 16.382315285653192) rotate(0 29.853231051605576 -3.7394942917676417)">
      <path d="M27.73 4.52 C37.18 5.83, 51.41 -0.66, 61.65 -7.08 M31.07 7.1 C38.07 2.14, 44.96 1.32, 56.38 -4.87"
        stroke="#000" stroke-width="3" fill="none"></path>
    </g>
    <g transform="translate(10.711058330535934 16.382315285653192) rotate(0 29.853231051605576 -3.7394942917676417)">
      <path
        d="M28.36 -15.99 C37.44 -6.98, 51.44 -5.76, 61.65 -7.08 M31.69 -13.41 C38.68 -12.93, 45.41 -8.32, 56.38 -4.87"
        stroke="#000" stroke-width="3" fill="none"></path>
    </g>
  </g>
</svg>