<svg version="1.1" xmlns="http://www.w3.org/2000/svg" viewBox="0 0 87.10551332601244 27.808593591451995"
  width="87.10551332601244" height="27.808593591451995">
  <!-- svg-source:excalidraw -->

  <g stroke-linecap="round">
    <g transform="translate(11.708101751059303 16.377038129568405) rotate(0 31.844654911946918 -2.472741333842407)">
      <path d="M1.13 1.43 C10.87 0.94, 50.02 -1.78, 59.75 -2.42 M-1.71 -0.26 C8.87 -1.58, 55.64 -5.27, 65.4 -6.38"
        stroke="#000" stroke-width="3" fill="none"></path>
    </g>
    <g transform="translate(11.708101751059303 16.377038129568405) rotate(0 31.844654911946918 -2.472741333842407)">
      <path d="M40.32 4.46 C50.36 -0.51, 59.73 -0.34, 64.33 -5.93 M39.83 6.23 C47.1 2.6, 55.45 -1.35, 67.31 -4.49"
        stroke="#000" stroke-width="3" fill="none"></path>
    </g>
    <g transform="translate(11.708101751059303 16.377038129568405) rotate(0 31.844654911946918 -2.472741333842407)">
      <path
        d="M38.42 -15.97 C49.19 -13.9, 59.22 -6.69, 64.33 -5.93 M37.94 -14.2 C45.81 -11.17, 54.78 -8.46, 67.31 -4.49"
        stroke="#000" stroke-width="3" fill="none"></path>
    </g>
  </g>
</svg>