<svg version="1.1" xmlns="http://www.w3.org/2000/svg" viewBox="0 0 83.69461369276905 23.641267559453865"
  width="83.69461369276905" height="23.641267559453865">
  <!-- svg-source:excalidraw -->

  <g stroke-linecap="round">
    <g transform="translate(12.022848605513673 14.338645797744732) rotate(0 29.824458240870854 -2.5180120180177994)">
      <path d="M0.92 -1.18 C10.76 -1.61, 52.08 -3.93, 61.67 -4.34 M-2.02 -4.29 C7.25 -4.07, 48.75 -1.39, 59.73 -0.7"
        stroke="#000" stroke-width="4" fill="none"></path>
    </g>
    <g transform="translate(12.022848605513673 14.338645797744732) rotate(0 29.824458240870854 -2.5180120180177994)">
      <path d="M29.26 8.53 C42.44 0.43, 54.8 -2.73, 58.98 0.53 M32.1 8.07 C36.76 5.68, 44.79 1.88, 58.22 1.22"
        stroke="#000" stroke-width="4" fill="none"></path>
    </g>
    <g transform="translate(12.022848605513673 14.338645797744732) rotate(0 29.824458240870854 -2.5180120180177994)">
      <path d="M30.56 -11.95 C42.97 -11.96, 54.82 -7.02, 58.98 0.53 M33.4 -12.41 C37.55 -9.75, 45.26 -8.51, 58.22 1.22"
        stroke="#000" stroke-width="4" fill="none"></path>
    </g>
  </g>
</svg>