<svg version="1.1" xmlns="http://www.w3.org/2000/svg" viewBox="0 0 82.13769131311119 28.813797505349214"
  width="82.13769131311119" height="28.813797505349214">
  <!-- svg-source:excalidraw -->

  <g stroke-linecap="round">
    <g transform="translate(12.282131671905518 16.39173205658824) rotate(0 28.786713984650078 -1.984833303913632)">
      <path d="M-2.28 2.42 C7.33 1.45, 49.02 -5.58, 59.86 -6.39 M1.67 1.27 C10.59 0.65, 46.9 -2.5, 56.92 -3.86"
        stroke="#000" stroke-width="3" fill="none"></path>
    </g>
    <g transform="translate(12.282131671905518 16.39173205658824) rotate(0 28.786713984650078 -1.984833303913632)">
      <path d="M33.47 7.55 C37.36 7.1, 53.2 0.74, 54.99 -4.86 M28.81 9.17 C41.11 2.8, 51.68 -1.66, 58.64 -4.01"
        stroke="#000" stroke-width="3" fill="none"></path>
    </g>
    <g transform="translate(12.282131671905518 16.39173205658824) rotate(0 28.786713984650078 -1.984833303913632)">
      <path d="M31.25 -12.85 C35.9 -5.54, 52.58 -4.16, 54.99 -4.86 M26.59 -11.23 C39.59 -9.63, 51.02 -6.08, 58.64 -4.01"
        stroke="#000" stroke-width="3" fill="none"></path>
    </g>
  </g>
</svg>