<svg version="1.1" xmlns="http://www.w3.org/2000/svg" viewBox="0 0 84.11020082601249 31.087100246399984"
  width="84.11020082601249" height="31.087100246399984">
  <!-- svg-source:excalidraw -->

  <g stroke-linecap="round">
    <g transform="translate(9.707623235434312 16.888297895193432) rotate(0 32.34747717757193 -1.3447477719934398)">
      <path d="M2.42 -1.28 C12.37 -1.36, 49 -2.35, 59.1 -2.75 M0.29 4.2 C11.17 3.52, 54.07 -6.15, 64.4 -6.89"
        stroke="#000" stroke-width="3" fill="none"></path>
    </g>
    <g transform="translate(9.707623235434312 16.888297895193432) rotate(0 32.34747717757193 -1.3447477719934398)">
      <path d="M36.34 4.76 C48.03 5.89, 54.02 -2.86, 63.41 -3.19 M37.95 8.08 C43.72 4.66, 51.2 2.22, 64.26 -5.15"
        stroke="#000" stroke-width="3" fill="none"></path>
    </g>
    <g transform="translate(9.707623235434312 16.888297895193432) rotate(0 32.34747717757193 -1.3447477719934398)">
      <path
        d="M33.13 -15.51 C45.39 -8.77, 52.28 -11.86, 63.41 -3.19 M34.74 -12.19 C41.67 -10.37, 49.98 -7.6, 64.26 -5.15"
        stroke="#000" stroke-width="3" fill="none"></path>
    </g>
  </g>
</svg>